<svg width="96" height="34" viewBox="0 0 96 34" fill="none" xmlns="http://www.w3.org/2000/svg">
<g clip-path="url(#clip0_71_36317)">
<path fill-rule="evenodd" clip-rule="evenodd" d="M79.11 0C75.16 0 71.53 1.39 68.68 3.7C65.83 1.39 62.21 0 58.25 0C54.29 0 50.67 1.39 47.82 3.7C44.97 1.39 41.35 0 37.39 0C33.43 0 29.81 1.39 26.96 3.7C24.11 1.39 20.49 0 16.53 0C7.41 0 0 7.41 0 16.55C0 25.69 7.41 33.1 16.55 33.1C20.5 33.1 24.13 31.71 26.98 29.4C29.83 31.71 33.45 33.1 37.41 33.1C41.37 33.1 44.99 31.71 47.84 29.4C50.69 31.71 54.31 33.1 58.27 33.1C62.23 33.1 65.85 31.71 68.7 29.4C71.55 31.71 75.17 33.1 79.13 33.1C88.27 33.1 95.68 25.69 95.68 16.55C95.68 7.41 88.25 0 79.11 0ZM68.68 23.99C67.18 21.89 66.3 19.33 66.3 16.55C66.3 13.77 67.19 11.21 68.68 9.11C70.18 11.21 71.06 13.77 71.06 16.55C71.06 19.33 70.18 21.89 68.68 23.99ZM47.83 23.99C46.33 21.89 45.45 19.33 45.45 16.55C45.45 13.77 46.33 11.21 47.83 9.11C49.33 11.21 50.21 13.77 50.21 16.55C50.21 19.33 49.32 21.89 47.83 23.99ZM26.98 23.99C25.48 21.89 24.6 19.33 24.6 16.55C24.6 13.77 25.49 11.21 26.98 9.11C28.48 11.21 29.36 13.77 29.36 16.55C29.36 19.33 28.48 21.89 26.98 23.99ZM3.74 16.55C3.74 9.48 9.48 3.74 16.55 3.74C19.48 3.74 22.19 4.73 24.35 6.39C22.16 9.2 20.86 12.72 20.86 16.55C20.86 20.38 22.17 23.91 24.35 26.71C22.19 28.37 19.49 29.36 16.55 29.36C9.48 29.36 3.74 23.62 3.74 16.55ZM29.6 26.71C31.79 23.91 33.09 20.38 33.09 16.55C33.09 12.72 31.78 9.19 29.6 6.39C31.76 4.73 34.46 3.74 37.4 3.74C40.34 3.74 43.04 4.73 45.2 6.39C43.01 9.2 41.71 12.72 41.71 16.55C41.71 20.38 43.02 23.91 45.2 26.71C43.04 28.37 40.34 29.36 37.4 29.36C34.46 29.36 31.76 28.37 29.6 26.71ZM50.46 26.71C52.65 23.91 53.95 20.38 53.95 16.55C53.95 12.72 52.64 9.19 50.46 6.39C52.62 4.73 55.32 3.74 58.26 3.74C61.2 3.74 63.9 4.73 66.06 6.39C63.87 9.2 62.57 12.72 62.57 16.55C62.57 20.38 63.88 23.91 66.06 26.71C63.9 28.37 61.2 29.36 58.26 29.36C55.32 29.36 52.62 28.37 50.46 26.71ZM79.11 29.36C76.18 29.36 73.47 28.37 71.31 26.71C73.5 23.91 74.8 20.38 74.8 16.55C74.8 12.72 73.49 9.19 71.31 6.39C73.47 4.73 76.17 3.74 79.11 3.74C86.18 3.74 91.92 9.47 91.92 16.55C91.92 23.63 86.18 29.36 79.11 29.36Z" fill="white"/>
</g>
<defs>
<clipPath id="clip0_71_36317">
<rect width="95.66" height="33.1" fill="white"/>
</clipPath>
</defs>
</svg>
