<svg width="69" height="28" viewBox="0 0 69 28" fill="none" xmlns="http://www.w3.org/2000/svg">
<path d="M19.1998 17.52H28.5698V19.48H15.5898C15.5898 18.92 15.5898 18.36 15.5898 17.8C15.5898 17.71 15.6998 17.62 15.7798 17.54C18.7098 14.28 21.6398 11.03 24.5698 7.77C24.6398 7.69 24.7098 7.61 24.8198 7.48H16.0098V5.52H29.9198V0H32.9198V5.52H38.4098V7.49H32.9598C32.9498 7.58 32.9298 7.64 32.9298 7.69C32.9298 10.16 32.9298 12.63 32.9398 15.1C32.9398 15.4 32.9598 15.7 33.0098 15.99C33.1698 16.94 33.7498 17.48 34.7498 17.64C35.8598 17.82 36.9498 17.69 38.0098 17.34C38.1298 17.3 38.2498 17.28 38.3998 17.25V19.41C37.7698 19.51 37.1298 19.62 36.4998 19.7C35.2998 19.84 34.0998 19.84 32.9198 19.5C31.0498 18.96 30.0498 17.71 29.9498 15.76C29.9198 15.13 29.9298 14.49 29.9298 13.85C29.9298 11.86 29.9298 9.86 29.9298 7.87V7.51C29.3498 7.51 28.7998 7.51 28.2498 7.51C28.1898 7.51 28.1098 7.58 28.0598 7.63C25.1198 10.89 22.1898 14.15 19.2498 17.42C19.2398 17.43 19.2298 17.45 19.1998 17.53V17.52Z" fill="white"/>
<path d="M56.6198 19.48H53.6398V0.02H56.6098V11.41C56.7498 11.3 56.8398 11.24 56.9198 11.17C59.0898 9.35 61.2498 7.53 63.4298 5.72C63.5698 5.61 63.7798 5.53 63.9598 5.53C64.9698 5.51 65.9898 5.53 66.9998 5.53H67.2898C67.2898 5.53 67.3098 5.57 67.3098 5.59C64.9098 7.51 62.5198 9.43 60.0898 11.37C62.8298 14.07 65.5698 16.76 68.3498 19.5H67.1498C66.3698 19.5 65.5998 19.49 64.8298 19.5C64.5298 19.5 64.3398 19.41 64.1398 19.2C62.0998 17.11 60.0598 15.03 58.0098 12.94C57.9498 12.88 57.9098 12.82 57.8398 12.73C57.4398 13.03 57.0598 13.31 56.6898 13.61C56.6298 13.66 56.6198 13.81 56.6198 13.91C56.6198 15.64 56.6198 17.36 56.6198 19.09C56.6198 19.21 56.6198 19.33 56.6198 19.47V19.48Z" fill="white"/>
<path d="M22.3398 23.18C21.6598 23.58 20.9698 23.98 20.2398 24.41C21.0198 25.14 21.7698 25.85 22.5398 26.57C22.1098 26.57 21.6698 26.57 21.2398 26.57C21.1598 26.57 21.0698 26.48 20.9998 26.42C20.4798 25.92 19.9598 25.41 19.4498 24.92C19.4198 24.92 19.4098 24.92 19.3998 24.92C18.7998 25.23 18.7298 25.41 18.8698 26.25C18.8898 26.35 18.9098 26.44 18.9298 26.56H17.7998V22.01H18.8298V24.48C19.5298 24.04 20.1798 23.63 20.8198 23.23C20.8898 23.18 20.9698 23.12 21.0498 23.12C21.4698 23.11 21.8998 23.12 22.3198 23.12C22.3198 23.14 22.3198 23.16 22.3298 23.19L22.3398 23.18Z" fill="white"/>
<path d="M26.8698 26.57V23.12C27.2898 23.12 27.7498 23.12 28.2098 23.12C28.8998 23.12 29.5798 23.12 30.2698 23.12C31.0198 23.13 31.2698 23.4 31.2698 24.14C31.2698 24.55 31.2698 24.95 31.2698 25.36C31.2698 25.75 31.3098 26.15 31.3298 26.56H30.2398V23.77C29.5098 23.77 28.7798 23.77 28.0498 23.78C27.9998 23.78 27.9098 23.95 27.9098 24.04C27.8998 24.88 27.9098 25.72 27.9098 26.57H26.8698Z" fill="white"/>
<path d="M1.98978 23.76H1.45978V23.13H1.97978V22.53C2.31978 22.47 2.62978 22.42 2.96978 22.37V23.11H4.75978V23.76H2.99978V25.9H4.96978C4.93978 26.1 4.91978 26.32 4.88978 26.56C4.14978 26.56 3.41978 26.59 2.69978 26.55C2.19978 26.52 1.99978 26.21 1.98978 25.65C1.98978 25.04 1.98978 24.42 1.98978 23.77V23.76Z" fill="white"/>
<path d="M58.1198 27.76C58.0898 27.56 58.0598 27.41 58.0298 27.25C58.0298 27.2 58.0298 27.15 58.0298 27.07C58.2298 27.08 58.4198 27.1 58.6098 27.1C58.9998 27.1 59.3798 27.1 59.7698 27.12C59.9498 27.12 60.0398 27.07 60.0398 26.87C60.0398 25.85 60.0398 24.83 60.0298 23.81C60.0298 23.59 59.9798 23.38 59.9398 23.14H60.9998C60.9998 23.22 61.0098 23.29 61.0098 23.37C61.0098 24.48 61.0098 25.59 61.0098 26.7C61.0098 27.48 60.7398 27.75 59.9498 27.76C59.3498 27.76 58.7398 27.76 58.1098 27.76H58.1198Z" fill="white"/>
<path d="M44.1598 22.01H45.1998C45.1998 22.78 45.1998 23.53 45.1998 24.28C45.1998 25.03 45.2198 25.78 45.2198 26.55H44.1598V22.01Z" fill="white"/>
<path d="M65.2498 23.13H66.2998V26.57H65.2498C65.2698 25.99 65.2898 25.42 65.2898 24.85C65.2898 24.29 65.2598 23.73 65.2498 23.14V23.13Z" fill="white"/>
<path d="M60.9998 22.56H60.0698V21.81H60.9998V22.56Z" fill="white"/>
<path d="M65.3098 22.56V21.81H66.2498V22.56H65.3098Z" fill="white"/>
<path d="M15.1798 12.16C15.1698 8.81 13.4498 6.52 10.2398 5.55C9.02978 5.18 7.78978 5.06 6.53978 5.03C4.43978 4.97 2.44978 5.49 0.479781 6.14C0.309781 6.2 0.309781 6.29 0.309781 6.43C0.309781 7.13 0.309781 7.84 0.309781 8.54C0.309781 8.6 0.329781 8.67 0.339781 8.74C0.399781 8.74 0.439781 8.74 0.469781 8.74C0.529781 8.71 0.589781 8.68 0.649781 8.65C2.69978 7.49 4.88978 6.93 7.24978 7.12C8.48978 7.22 9.65978 7.55 10.6398 8.36C11.7798 9.31 12.1698 10.57 12.1798 12.04H0.0197808C0.0197808 12.78 -0.0302192 13.49 0.0197808 14.18C0.229781 16.6 1.48978 18.29 3.78978 19.08C5.90978 19.81 8.06978 19.76 10.2098 19.1C10.8798 18.89 11.5098 18.54 12.1798 18.25V19.49H15.1698C15.1698 19.37 15.1698 19.28 15.1698 19.2C15.1698 16.86 15.1798 14.52 15.1698 12.17L15.1798 12.16ZM11.4798 15.75C10.6798 16.82 9.57978 17.38 8.27978 17.56C7.32978 17.69 6.37978 17.68 5.43978 17.43C3.76978 16.98 2.77978 15.59 2.87978 13.81H12.1698C12.0998 14.53 11.8998 15.18 11.4798 15.75Z" fill="white"/>
<path d="M52.7098 10.75C52.5598 8.21 51.0498 6.32 48.5998 5.6C46.9498 5.12 45.2698 5.11 43.5798 5.41C42.1898 5.66 40.9498 6.22 39.8798 7.14C38.3198 8.48 37.6198 10.21 37.5498 12.23C37.4198 15.55 38.9098 17.98 42.1398 19.12C43.4298 19.58 44.7698 19.71 46.1198 19.75C48.2998 19.81 50.3698 19.28 52.3998 18.57V16.01C52.2798 16.05 52.1898 16.08 52.1098 16.12C51.4598 16.42 50.8298 16.77 50.1698 17.01C48.2098 17.74 46.1898 17.95 44.1398 17.44C42.0598 16.92 40.8698 15.59 40.5898 13.53C40.5598 13.28 40.5598 13.03 40.5498 12.75H52.7198C52.7198 12.06 52.7498 11.4 52.7198 10.74L52.7098 10.75ZM49.8498 10.97H40.5498C40.6198 10.22 40.8498 9.54 41.2998 8.96C41.9798 8.08 42.8798 7.55 43.9498 7.32C45.0298 7.08 46.1198 7.09 47.1998 7.34C48.9098 7.75 49.9398 9.17 49.8498 10.97Z" fill="white"/>
<path d="M10.1598 25.9V25.22H13.5098C13.5198 25.14 13.5298 25.1 13.5298 25.07C13.5298 24.72 13.5398 24.37 13.5298 24.03C13.5098 23.44 13.2598 23.17 12.6698 23.15C11.7898 23.12 10.8998 23.12 10.0198 23.15C9.41978 23.17 9.15978 23.46 9.14978 24.06C9.14978 24.55 9.14978 25.03 9.14978 25.52C9.14978 26.33 9.40978 26.59 10.2198 26.59C11.1998 26.59 12.1898 26.59 13.1698 26.59C13.2598 26.59 13.3398 26.59 13.4398 26.57C13.4798 26.33 13.5198 26.1 13.5598 25.9H10.1598ZM10.1398 23.91C10.1398 23.91 10.2298 23.78 10.2898 23.78C11.0298 23.78 11.7698 23.78 12.5198 23.78V24.57H10.1298C10.1298 24.35 10.1298 24.13 10.1298 23.92L10.1398 23.91Z" fill="white"/>
<path d="M53.8598 24.05C53.8598 23.44 53.5898 23.15 52.9698 23.13C52.0998 23.11 51.2198 23.11 50.3498 23.13C49.7598 23.15 49.4998 23.41 49.4798 24C49.4598 24.56 49.4598 25.13 49.4798 25.69C49.5098 26.3 49.7598 26.54 50.3798 26.57C50.8098 26.59 51.2298 26.57 51.6598 26.57C52.0998 26.57 52.5298 26.58 52.9698 26.57C53.5798 26.55 53.8498 26.26 53.8598 25.65C53.8598 25.12 53.8598 24.58 53.8598 24.04V24.05ZM52.8698 25.71C52.8698 25.79 52.7698 25.92 52.7198 25.92C51.9798 25.93 51.2398 25.92 50.4798 25.92V23.75C50.9998 23.75 51.4998 23.75 51.9998 23.75C52.2798 23.75 52.6598 23.68 52.8198 23.83C52.9598 23.96 52.8698 24.35 52.8798 24.63C52.8798 24.99 52.8898 25.34 52.8798 25.7L52.8698 25.71Z" fill="white"/>
<path d="M39.9198 23.98C39.8998 23.41 39.6498 23.15 39.0598 23.13C38.1798 23.11 37.2898 23.1 36.4098 23.13C35.8098 23.15 35.5498 23.44 35.5398 24.04C35.5398 24.57 35.5398 25.11 35.5398 25.65C35.5398 26.28 35.8098 26.55 36.4498 26.58C36.8798 26.59 37.2998 26.58 37.7298 26.58C38.1398 26.58 38.5398 26.58 38.9498 26.58C38.9798 26.58 39.0098 26.58 39.0398 26.58C39.6298 26.54 39.8998 26.3 39.9198 25.71C39.9398 25.14 39.9398 24.56 39.9198 23.99V23.98ZM38.9298 25.93C38.5098 25.93 38.1098 25.93 37.7098 25.93C37.3898 25.93 37.0698 25.93 36.7598 25.93C36.6798 25.93 36.5398 25.85 36.5398 25.81C36.5298 25.14 36.5398 24.47 36.5398 23.78H38.9398V25.93H38.9298Z" fill="white"/>
</svg>
