<svg width="145" height="34" viewBox="0 0 145 34" fill="none" xmlns="http://www.w3.org/2000/svg">
<path d="M15.8502 11.33H32.9502C30.6202 4.73 24.3402 0 16.9502 0C16.6202 0 16.3002 0.01 15.9802 0.03L14.1502 9.66C13.9502 10.82 14.4902 11.32 15.8502 11.33Z" fill="white"/>
<path d="M5.87023 13.1L11.1302 1.03C4.69023 3.39 0.170231 9.52 0.000231394 16.54C-0.0897686 35.89 26.1002 40.67 32.9102 22.76H13.7502C6.52023 22.76 3.39023 18.81 5.87023 13.1Z" fill="white"/>
<path d="M14.1502 19.56H33.7202C33.8502 18.72 33.9102 17.86 33.9102 16.99C33.9102 16.16 33.8502 15.34 33.7302 14.52H15.1702C12.0802 14.52 11.1302 13.36 11.8802 10.47L14.5902 0.17C13.9302 0.26 13.2802 0.39 12.6502 0.56L8.46023 12.46C6.93023 16.82 9.17023 19.57 14.1602 19.57L14.1502 19.56ZM39.5102 18.57C39.5102 11.5 44.7302 6.17 51.6902 6.17C56.1002 6.17 59.5902 8.75 61.0502 12.8L56.1702 14.19C55.4202 12.02 53.5902 10.79 51.2202 10.79C47.1802 10.79 44.2702 13.88 44.2702 18.13C44.2702 21.46 46.4102 23.67 49.8702 23.67C52.2102 23.67 54.3202 22.41 55.3702 20.27L59.6802 22.44C57.6502 26.04 53.7802 28.35 49.4002 28.35C43.5002 28.35 39.5302 24.13 39.5302 18.56L39.5102 18.57ZM60.6802 20.47C60.6802 14.97 64.8502 10.44 69.9102 10.44C72.2802 10.44 74.0502 11.26 75.2002 12.92L76.0802 10.92H79.7802L77.9802 27.91H73.6002L73.8402 25.91C72.3102 27.57 70.4102 28.39 68.0402 28.39C63.8302 28.39 60.6802 24.96 60.6802 20.47ZM74.5502 18.81C74.5502 16.33 72.8202 14.63 70.2802 14.63C67.3302 14.63 65.0902 16.97 65.0902 20.03C65.0902 22.51 66.7502 24.21 69.3002 24.21C72.2902 24.21 74.5602 21.86 74.5602 18.81H74.5502ZM98.0302 22.2L98.7802 15.13H95.8302L96.2702 10.92H99.2202L99.5902 7.49L104.1 6.16L103.59 10.92H107.42L106.98 15.13H103.15L102.4 22.2C102.26 23.59 103.01 24 104.71 24C105.08 24 105.59 23.97 106.07 23.93L105.63 27.9C104.78 28 104.04 28.04 103.36 28.04C98.9502 28.04 97.6302 26.1 98.0402 22.19L98.0302 22.2ZM107.97 27.91L109.77 10.92H113.47L113.94 12.92C115.26 11.36 117.37 10.58 119.33 10.58L118.86 15.13H118.15C115.74 15.13 113.54 16.53 113.23 19.48L112.35 27.91H107.97ZM118.68 20.4C118.68 14.86 123.09 10.44 128.62 10.44C133.3 10.44 136.69 13.87 136.69 18.43C136.69 23.97 132.28 28.39 126.75 28.39C122.07 28.39 118.68 24.96 118.68 20.4ZM132.29 18.81C132.29 16.4 130.66 14.73 128.19 14.73C125.31 14.73 123.1 17.01 123.1 20.03C123.1 22.44 124.73 24.11 127.2 24.11C130.08 24.11 132.29 21.83 132.29 18.81ZM137.72 27.91L139.86 7.49L144.37 6.16L142.1 27.91H137.72ZM79.6402 23.7L84.0902 22.21C84.6702 23.67 85.7202 24.42 87.2802 24.42C88.8402 24.42 89.6502 23.84 89.6502 23.03C89.6502 20.58 81.6102 21.71 81.6102 16.44C81.6102 12.97 84.6002 10.46 88.6702 10.46C91.5502 10.46 93.7202 12.16 94.6102 15.18L90.3002 16.4C89.9602 15.04 89.2102 14.36 88.0602 14.36C86.9102 14.36 86.1302 15.01 86.1302 15.82C86.1302 18.23 94.2702 16.8 94.2702 22.48C94.2702 25.98 91.2502 28.39 86.7402 28.39C83.1802 28.39 80.7702 26.79 79.6502 23.7H79.6402Z" fill="white"/>
</svg>
