<svg width="130" height="30" viewBox="0 0 130 30" fill="none" xmlns="http://www.w3.org/2000/svg">
<path d="M126.2 10.62C126.09 10.21 125.93 9.74 125.81 9.51C125.81 9.51 125.88 9.44 126.03 9.53C126.17 9.62 127.09 10.25 127.09 10.25C127.56 10.93 127.85 13.74 127.86 14.74C127.43 14.54 126.82 14.2 126.42 13.82L126.2 10.62ZM123.43 8.02C122.68 7.19 122.05 6.42 121.43 5.5C121.82 4.74 122.11 2.75 121.93 1.98C121.86 1.74 121.21 0.88 121.1 0.76C120.94 0.6 120.42 0.01 120.16 0.01C120.11 0.01 120.05 0.03 120.03 0.05L120.1 0.72C119.4 1.17 118.48 1.78 117.66 2.39C117.66 2.62 117.68 2.98 117.7 3.11C117.83 3.22 117.97 3.31 118.13 3.36C118.45 3.3 119.46 3.05 119.73 3.09L118.74 4.58L117.61 5.39L116.19 4.94C116.1 4.92 116.01 4.94 115.96 5.01L114.92 6.14C114.87 6.19 114.83 6.25 114.83 6.37L114.79 7.65C114.79 7.65 114.77 7.85 114.77 8.06C114.77 8.98 115.18 9.41 115.18 9.41L115.86 8.42C115.77 8.28 115.61 7.88 115.57 7.7C115.57 7.66 115.59 6.6 115.59 6.6L116.25 6.11L118.01 7.35C118.01 7.35 118.5 8.25 118.96 8.79C119.27 9.17 120.79 10.19 121.53 10.62C121.6 11.02 121.76 11.66 121.89 12L124.05 14.21L122.77 15.81C122.32 16.1 121.89 16.62 121.93 17.1H123.4L123.56 16.26L125.32 14.3C125.41 14.19 125.41 14.14 125.36 13.98L124.86 12.29C125.11 12 125.65 11.28 125.65 10.42C125.65 8.86 123.94 8.46 123.4 8.01M115.48 4.8C115.43 4.82 114.11 5.18 114.11 5.18C114.11 5.18 113.5 5.41 113.23 5.59C112.96 5.77 112.66 6.07 112.64 6.24L113.81 6.51C113.99 6.31 114.19 6.1 114.37 5.95L114.64 5.82L115.61 4.83C115.61 4.83 115.57 4.78 115.48 4.8ZM121 14.9L122.65 13.32L123.33 14L121.55 15.51C121.41 15.69 121.3 15.98 121.21 16.16H119.9C119.97 15.68 120.66 15.07 121 14.9ZM129.79 18.24H112.23V17.66H129.79V18.24Z" fill="white"/>
<path d="M29.9 29.58V24.3H31.62V23.6H27.26V24.3H28.98V29.58H29.91H29.9ZM33.5 24.18C33.5 23.68 33.44 23.6 33.11 23.6H32.63V29.58H33.5V26.22C33.87 26 34.32 25.77 34.81 25.77C35.24 25.77 35.48 25.92 35.48 26.48V29.58H36.35V26.28C36.35 25.31 35.83 25.05 35.21 25.05C34.55 25.05 33.94 25.34 33.5 25.68V24.18ZM41.38 27.51C41.38 27.51 41.38 27.32 41.38 27.2C41.38 25.73 40.69 25.04 39.51 25.04C38.33 25.04 37.47 25.93 37.47 27.36C37.47 28.79 38.23 29.63 39.6 29.63C40.44 29.63 40.92 29.39 41.25 29.17V28.56H40.97C40.7 28.78 40.3 28.97 39.73 28.97C38.89 28.97 38.42 28.57 38.37 27.51H41.38ZM39.52 25.64C40.14 25.64 40.51 25.97 40.53 26.94H38.39C38.49 25.99 38.94 25.64 39.52 25.64ZM45.69 29.58V27.01H47.78V26.32H45.69V24.32H48.45V23.6H44.77V29.58H45.69ZM50.72 28.95C50.31 28.95 50.03 28.81 50.03 28.24V25.11H49.16V28.44C49.16 29.35 49.68 29.64 50.38 29.64C50.97 29.64 51.55 29.39 51.99 29.08C52.02 29.51 52.1 29.58 52.31 29.58H52.86V25.11H51.99V28.53C51.63 28.74 51.18 28.96 50.73 28.96M53.99 25.72H54.53V28.47C54.53 29.31 54.97 29.62 55.73 29.62C56.03 29.62 56.28 29.58 56.44 29.54V28.98H56.04C55.6 28.98 55.4 28.84 55.4 28.37V25.72H56.39V25.11H55.4V23.9H54.53V25.11H53.99V25.72ZM59.08 28.95C58.67 28.95 58.39 28.81 58.39 28.24V25.11H57.52V28.44C57.52 29.35 58.04 29.64 58.74 29.64C59.33 29.64 59.91 29.39 60.35 29.08C60.38 29.51 60.46 29.58 60.67 29.58H61.22V25.11H60.35V28.53C59.99 28.74 59.54 28.96 59.09 28.96M64.9 25.81H65.1V25.09C65.05 25.07 64.96 25.06 64.86 25.06C64.3 25.06 63.88 25.38 63.58 25.72C63.56 25.2 63.47 25.11 63.26 25.11H62.71V29.58H63.58V26.32C63.86 26.07 64.3 25.82 64.9 25.82M69.66 27.51C69.66 27.51 69.66 27.32 69.66 27.2C69.66 25.73 68.97 25.04 67.79 25.04C66.61 25.04 65.75 25.93 65.75 27.36C65.75 28.79 66.51 29.63 67.88 29.63C68.72 29.63 69.2 29.39 69.53 29.17V28.56H69.25C68.98 28.78 68.58 28.97 68.01 28.97C67.18 28.97 66.7 28.57 66.65 27.51H69.66ZM67.79 25.64C68.41 25.64 68.78 25.97 68.8 26.94H66.67C66.76 25.99 67.22 25.64 67.8 25.64M73.83 29.58V25.78C73.83 25.22 73.79 25.11 73.45 25.11H72.96V29.58H73.83ZM73.41 24.61C73.68 24.61 73.92 24.39 73.92 24.11C73.92 23.83 73.68 23.6 73.41 23.6C73.14 23.6 72.9 23.83 72.9 24.11C72.9 24.39 73.14 24.61 73.41 24.61ZM75.85 25.11H75.3V29.58H76.17V26.22C76.54 26 76.99 25.77 77.48 25.77C77.91 25.77 78.15 25.92 78.15 26.48V29.58H79.02V26.28C79.02 25.31 78.5 25.05 77.88 25.05C77.22 25.05 76.61 25.34 76.17 25.68C76.15 25.21 76.06 25.12 75.85 25.12M82.65 29.58H83.42V24.7H83.45L85.14 29.58H85.72L87.43 24.7H87.46V29.58H88.38V23.6H87.12L85.54 28.13H85.52L83.94 23.6H82.65V29.58ZM91.66 29.62C92.87 29.62 93.8 28.77 93.8 27.35C93.8 25.93 92.88 25.03 91.66 25.03C90.44 25.03 89.53 25.92 89.53 27.35C89.53 28.78 90.45 29.62 91.66 29.62ZM91.66 28.97C90.91 28.97 90.41 28.43 90.41 27.35C90.41 26.27 90.9 25.69 91.66 25.69C92.42 25.69 92.91 26.27 92.91 27.35C92.91 28.43 92.42 28.97 91.66 28.97ZM94.47 25.72H95.01V28.47C95.01 29.31 95.45 29.62 96.22 29.62C96.52 29.62 96.77 29.58 96.93 29.54V28.98H96.53C96.09 28.98 95.89 28.84 95.89 28.37V25.72H96.88V25.11H95.89V23.9H95.02V25.11H94.48V25.72H94.47ZM99.11 29.58V25.78C99.11 25.22 99.07 25.11 98.73 25.11H98.24V29.58H99.11ZM98.68 24.61C98.95 24.61 99.19 24.39 99.19 24.11C99.19 23.83 98.95 23.6 98.68 23.6C98.41 23.6 98.17 23.83 98.17 24.11C98.17 24.39 98.41 24.61 98.68 24.61ZM102.41 29.62C103.62 29.62 104.54 28.77 104.54 27.35C104.54 25.93 103.62 25.03 102.41 25.03C101.2 25.03 100.28 25.92 100.28 27.35C100.28 28.78 101.2 29.62 102.41 29.62ZM102.41 28.97C101.66 28.97 101.16 28.43 101.16 27.35C101.16 26.27 101.66 25.69 102.41 25.69C103.16 25.69 103.66 26.27 103.66 27.35C103.66 28.43 103.17 28.97 102.41 28.97ZM106.23 25.11H105.68V29.58H106.55V26.22C106.92 26 107.37 25.77 107.86 25.77C108.29 25.77 108.53 25.92 108.53 26.48V29.58H109.4V26.28C109.4 25.31 108.88 25.05 108.26 25.05C107.6 25.05 106.99 25.34 106.55 25.68C106.53 25.21 106.44 25.12 106.22 25.12" fill="white"/>
<path d="M41.87 18.24V17.11H42.97V7.33H41.87V6.23H46.76V17.1H47.87V18.23H41.87V18.24ZM99.43 16.8H99.38C98.68 17.79 97.74 18.46 96.31 18.46C94.35 18.46 93.13 16.79 93.13 14.79C93.13 12.38 94.84 10.85 97.57 10.85C98.69 10.85 99.28 11.1 99.28 11.1V10.34C99.28 8.88 98.38 8.11 97.07 8.11C95.25 8.11 94.32 9.51 94.32 9.51L93.65 8.7C94.85 6.83 96.7 5.99 98.43 5.99C101.34 5.99 103.07 7.72 103.07 10.34V17.1H104.29V18.23H99.44V16.79L99.43 16.8ZM99.27 12.29C99.16 12.18 98.93 12.04 98.44 12.04C97.31 12.04 97.06 13.15 97.06 14.3C97.06 15.45 97.4 16.35 98.37 16.35C98.84 16.35 99.12 16.15 99.27 15.99V12.29ZM109.41 17.11H110.88V18.24H105.61V2.89H104.3V1.79H109.4V17.1L109.41 17.11ZM39.29 7.33V16.21C39.29 16.82 39.69 16.96 40.06 16.96C40.43 16.96 40.76 16.84 40.76 16.84V17.94C40.76 17.94 40.04 18.39 38.44 18.39C36.57 18.39 35.47 17.47 35.47 15.53V7.33H34.19V6.52C35.61 5.39 37.26 4.09 38.58 3H39.28V6.24H40.75V7.34H39.28L39.29 7.33ZM42.57 3.05C42.57 4.11 43.52 4.81 44.89 4.81C46.26 4.81 47.21 4.11 47.21 3.05C47.21 1.99 46.26 1.29 44.89 1.29C43.52 1.29 42.57 1.99 42.57 3.05ZM28.97 10.01C28.97 8.93 28.63 8.09 27.69 8.09C26.75 8.09 26.38 8.94 26.38 10.01V17.11H27.48V18.24H21.48V17.11H22.59V7.33H21.48V6.23H26.21V8.06H26.26C26.71 7.05 27.75 5.99 29.42 5.99C31.18 5.99 32.26 7.07 32.6 8.49C32.73 9.05 32.76 9.97 32.76 10.43V17.1H34.2V18.23H28.97V10V10.01ZM8.39 12.24C8.39 15.87 10.62 18.82 14.43 18.82C18.24 18.82 20.47 15.87 20.47 12.24C20.47 8.61 18.24 5.66 14.43 5.66C10.62 5.66 8.39 8.61 8.39 12.24ZM12.85 12.2C12.85 8.53 13.19 6.92 14.43 6.92C15.67 6.92 16.01 8.54 16.01 12.2C16.01 15.86 15.67 17.48 14.43 17.48C13.19 17.48 12.85 15.86 12.85 12.2ZM65.84 11.59C65.84 8.43 66.09 7.24 67.17 7.24C68.25 7.24 68.48 8.39 68.52 11.59H65.84ZM71.34 15.04C70.8 15.67 69.96 16.15 68.7 16.15C67.6 16.15 65.91 15.54 65.84 12.75H72.26C72.28 12.53 72.3 12.1 72.3 11.89C72.3 8.51 70.92 6 67.3 6C63.68 6 61.82 8.79 61.82 12.25C61.82 15.71 63.67 18.45 67.3 18.45C69.64 18.45 71.11 17.35 71.97 15.63L71.34 15.04ZM15.98 0C15.98 0 18.87 2.89 20.2 4.38V5.51C18.96 4.2 16.39 3.1 14 3.1C8.59 3.1 5.19 7.18 5.19 12.23C5.19 17.28 8.41 21.34 14 21.34C16.79 21.34 19.01 20.03 20.26 18.68V19.76C18.57 22.08 15.48 23.59 11.63 23.59C4.75 23.6 0 18.6 0 12.24C0 5.88 5.27 0.9 11.63 0.9C13.25 0.9 14.7 1.17 15.98 1.62V0ZM90.89 7.33V16.21C90.89 16.82 91.29 16.96 91.66 16.96C92.03 16.96 92.36 16.84 92.36 16.84V17.94C92.36 17.94 91.64 18.39 90.04 18.39C88.17 18.39 87.07 17.47 87.07 15.53V7.33H85.79V6.52C87.21 5.39 88.86 4.09 90.17 3H90.87V6.24H92.7V7.34H90.87L90.89 7.33ZM56.33 10.01C56.33 8.93 55.99 8.09 55.05 8.09C54.11 8.09 53.74 8.94 53.74 10.01V17.11H54.84V18.24H48.84V17.11H49.96V7.33H48.84V6.23H53.57V8.06H53.62C54.07 7.05 55.11 5.99 56.78 5.99C58.54 5.99 59.62 7.07 59.96 8.49C60.09 9.05 60.12 9.97 60.12 10.43V17.1H61.56V18.23H56.33V10V10.01ZM80.58 10.01C80.58 8.93 80.24 8.09 79.3 8.09C78.36 8.09 77.99 8.94 77.99 10.01V17.11H79.09V18.24H73.09V17.11H74.2V7.33H73.09V6.23H77.82V8.06H77.88C78.33 7.05 79.37 5.99 81.04 5.99C82.8 5.99 83.88 7.07 84.22 8.49C84.35 9.05 84.38 9.97 84.38 10.43V17.1H85.82V18.23H80.59V10L80.58 10.01Z" fill="white"/>
</svg>
