<svg width="86" height="56" viewBox="0 0 86 56" fill="none" xmlns="http://www.w3.org/2000/svg">
<path d="M55.1599 19.81C51.2299 25.97 47.3099 32.14 43.3599 38.28C43.3799 36.66 43.1999 35.02 43.3899 33.41C44.9499 28.47 46.4799 23.53 47.8999 18.56C48.1799 17.82 47.3499 17.42 46.8199 17.17C45.3199 16.51 43.9099 15.63 42.3799 15.06C40.8199 15.73 39.3299 16.55 37.7999 17.29C37.3299 17.51 36.6599 17.94 36.9299 18.56C38.3399 23.54 39.8899 28.48 41.4299 33.42C41.5999 35.03 41.4299 36.67 41.4499 38.29C37.5599 32.2 33.6799 26.1 29.7899 20.01C29.1099 18.89 28.1299 17.74 28.2999 16.34C28.3899 15.16 29.4699 14.38 30.4799 13.97C32.2799 13.24 34.0999 12.57 35.9099 11.86C33.2999 10.5 30.6399 9.26 28.0099 7.95C28.8099 9.35 29.6699 10.71 30.4699 12.12C29.0899 12.67 27.6899 13.18 26.3099 13.75C23.3699 9.18 20.4599 4.59 17.5499 0C25.7099 2.84 33.8199 5.81 41.9999 8.59C42.2899 8.7 42.5799 8.7 42.8599 8.59C51.0099 5.79 59.1199 2.85 67.2699 0C64.3799 4.61 61.4599 9.2 58.5099 13.76C57.1499 13.17 55.7399 12.68 54.3699 12.12C55.1699 10.72 56.0199 9.35 56.8299 7.95C54.1999 9.27 51.5199 10.5 48.9099 11.87C50.7399 12.57 52.5599 13.25 54.3799 13.98C55.3899 14.39 56.4699 15.19 56.5399 16.37C56.6999 17.69 55.7999 18.76 55.1699 19.81M34.8199 55.73C34.8499 53.04 34.7999 50.35 34.8399 47.66C39.2699 47.69 43.6899 47.66 48.1199 47.68C48.9799 47.65 49.9899 48.08 50.1699 49.02C50.2799 49.93 50.2499 50.86 50.1899 51.78C50.1399 52.79 49.0799 53.4 48.1399 53.34C44.5299 53.34 40.9199 53.34 37.3099 53.34C37.3099 54.15 37.3099 54.95 37.3299 55.76C36.4999 55.78 35.6599 55.77 34.8299 55.74M37.2999 49.48C37.3099 50.11 37.3199 50.74 37.3299 51.37C40.7599 51.34 44.1799 51.4 47.6099 51.34C48.2299 50.98 47.8099 50.11 47.9299 49.54C44.3899 49.42 40.8399 49.52 37.2999 49.49V49.48Z" fill="white"/>
<path d="M0.149883 48.9C0.499883 48.1 1.41988 47.65 2.27988 47.67C6.61988 47.66 10.9599 47.67 15.2999 47.67C15.2999 48.41 15.3099 49.16 15.3199 49.9C11.0699 49.93 6.80988 49.86 2.55988 49.93C2.47988 49.99 2.32988 50.12 2.24988 50.19C2.19988 51.26 2.25988 52.33 2.21988 53.4C2.59988 53.5 2.98988 53.59 3.39988 53.58C7.36988 53.57 11.3499 53.58 15.3199 53.57C15.3199 54.29 15.3199 55.01 15.3199 55.72C11.1599 55.84 6.98988 55.74 2.82988 55.78C1.80988 55.82 0.539883 55.62 0.139883 54.53C-0.0801172 53.56 0.0698828 52.56 0.0298828 51.58C0.0398828 50.69 -0.0901172 49.77 0.159883 48.9H0.149883ZM17.3799 53.77C17.3799 51.73 17.3699 49.7 17.3899 47.67C18.2799 47.67 19.1699 47.67 20.0599 47.68C20.0899 49.63 20.0299 51.58 20.0999 53.54C23.3999 53.61 26.7099 53.57 30.0099 53.56C30.1499 51.6 30.0399 49.64 30.0699 47.68C30.9699 47.68 31.8699 47.68 32.7699 47.67C32.7899 49.7 32.7899 51.74 32.7699 53.77C32.7799 54.86 31.7499 55.77 30.6799 55.75C27.5799 55.84 24.4799 55.72 21.3799 55.77C20.4899 55.77 19.5699 55.82 18.6999 55.6C17.9599 55.32 17.3399 54.59 17.3799 53.77ZM52.2899 47.66C56.6399 47.67 60.9799 47.66 65.3299 47.66C66.2699 47.64 67.3699 48.13 67.6099 49.12C67.6799 50.03 67.6699 50.95 67.6099 51.85C67.4699 52.61 66.7999 53.02 66.1799 53.37C66.7699 54.12 67.2899 54.91 67.8199 55.7C66.7399 55.63 65.1099 56.28 64.5099 55.06C64.1499 54.49 63.8099 53.9 63.4599 53.32C60.5899 53.3 57.7099 53.31 54.8399 53.32C54.8399 54.11 54.8399 54.9 54.8599 55.7C53.9999 55.78 53.1399 55.78 52.2799 55.72C52.2899 53.03 52.2699 50.34 52.2799 47.66M54.8699 49.39C54.8499 50.04 54.8499 50.7 54.8499 51.36C58.2399 51.34 61.6399 51.41 65.0299 51.33C65.1099 51.27 65.2799 51.15 65.3699 51.08C65.3199 50.53 65.6499 49.7 64.9899 49.42C61.6199 49.35 58.2399 49.42 54.8599 49.39H54.8699ZM69.7299 49.67C69.6899 48.44 70.9799 47.58 72.1199 47.67C76.4299 47.67 80.7299 47.67 85.0399 47.67C85.0499 50.36 85.0899 53.05 85.0099 55.74C84.2599 55.77 83.5099 55.84 82.7599 55.75C82.4199 55.04 82.7099 54.12 82.6299 53.34C79.1699 53.34 75.7099 53.34 72.2499 53.34C72.2499 54.15 72.2499 54.96 72.2499 55.77C71.4099 55.79 70.5799 55.78 69.7399 55.75C69.7599 53.73 69.6899 51.71 69.7299 49.69M72.2599 49.51C72.2499 50.13 72.2599 50.75 72.2599 51.37C75.7099 51.35 79.1599 51.37 82.6099 51.37C82.6099 50.75 82.6099 50.12 82.6299 49.5C79.1699 49.5 75.7199 49.46 72.2599 49.52V49.51Z" fill="white"/>
</svg>
