<svg width="69" height="39" viewBox="0 0 69 39" fill="none" xmlns="http://www.w3.org/2000/svg">
<path d="M19.76 23.7802C19.76 25.0702 20.74 25.8102 22.46 25.8102C23.19 25.8102 24.12 25.6402 25.91 25.2602L26.24 25.1902L26.26 24.8502C26.32 23.9002 26.39 22.6402 26.52 20.3302L26.58 19.4902C26.58 19.4902 24.96 20.3702 23.5 20.8902C21.78 21.5002 19.76 21.9602 19.76 23.7902V23.7802Z" fill="white"/>
<path d="M36.38 23.7802C36.38 25.0702 37.36 25.8102 39.08 25.8102C39.81 25.8102 40.74 25.6402 42.53 25.2602L42.86 25.1902L42.88 24.8502C42.94 23.9002 43.01 22.6402 43.14 20.3302L43.2 19.4902C43.2 19.4902 41.58 20.3702 40.12 20.8902C38.4 21.5002 36.38 21.9602 36.38 23.7902V23.7802Z" fill="white"/>
<path d="M68.3 13.2402C66.41 2.4402 49.86 -2.2598 31.05 1.0402C12.24 4.3302 -1.72003 14.3802 0.169969 25.1802C2.05997 35.9802 18.68 41.0902 37.49 37.8002C56.3 34.5002 70.19 24.0402 68.3 13.2402ZM42.91 5.5802C42.91 5.5802 42.94 5.5702 42.95 5.5802C42.97 5.84021 43.3 6.07021 43.54 6.27021C44 6.6602 44.65 6.95021 45.16 7.38021C45.68 7.82021 46.02 8.2602 46.19 8.6902C46.22 8.7702 46.24 8.85021 46.26 8.92021C46.43 9.55021 46.52 10.1102 46.31 10.5902C46.31 10.6102 46.33 10.6202 46.34 10.6102C48.02 8.7802 49.39 7.75021 53.72 7.48021C55.37 7.38021 57.1 7.5602 58.61 7.4502C58.65 7.4502 59.08 7.42021 59.66 7.36021C59.66 7.36021 59.73 7.3602 59.75 7.3902C59.76 7.4102 59.76 7.46021 59.74 7.48021C59.69 7.52021 59.64 7.57021 59.59 7.61021C58.42 8.6102 57.89 8.88021 56.24 9.8602C54.9 10.6602 53.86 10.8802 52.1 11.2402C50.31 11.4702 48.96 11.7202 47.39 11.3602C47.38 11.3602 47.37 11.3402 47.39 11.3302C47.57 11.1702 47.85 11.0402 48.03 10.9002C48.54 10.5202 49.09 10.2102 49.67 9.9402C50.35 9.6402 51.07 9.4002 51.83 9.1902C53.06 8.8402 54.63 8.75021 55.42 8.6502C55.44 8.6502 55.44 8.6202 55.42 8.6102C53.72 8.3302 51.96 8.5102 50.14 9.1502C48.47 9.7402 46.74 10.7202 44.96 12.0902C45.1 11.8902 45.22 11.8202 45.43 11.5102C45.59 11.2802 45.67 11.1502 45.7 10.9402C45.72 10.8302 45.72 10.7202 45.72 10.6002C45.72 10.4902 45.71 10.3902 45.7 10.2802C45.65 9.9102 45.52 9.50021 45.32 9.04021C45 8.43021 44.48 7.92021 43.76 7.50021C44.19 7.86021 44.52 8.24021 44.75 8.64021C44.99 9.06021 45.13 9.50021 45.17 9.96021C45.19 10.1702 45.17 10.3902 45.15 10.6102C45.14 10.7102 45.12 10.8102 45.1 10.9102C45.1 10.9302 45.07 10.9502 45.09 10.9602C43.67 9.9402 43.17 9.3702 42.78 7.94021C42.58 7.21021 42.57 6.4902 42.94 5.5602L42.91 5.5802ZM16.24 26.7402H13.87L13.97 25.1902L13.99 24.8402L14.04 24.0602L13.59 24.6902L13.5 24.8102C12.44 26.2402 10.61 27.0702 8.48997 27.0702C5.46997 27.0702 3.35997 24.7702 3.35997 21.4702C3.35997 16.8502 6.28997 13.9802 11 13.9802C11.93 13.9802 12.87 14.1102 13.59 14.2202L13.96 14.2802L14.2 14.3202L14.22 14.0802L14.25 13.7002C14.27 13.4502 14.28 13.2602 14.29 13.1102V13.0502C14.34 12.5402 14.35 12.3102 14.35 11.0002H17C16.7 14.4902 16.27 21.6302 16.25 26.7502L16.24 26.7402ZM29.14 20.2502C28.99 22.1202 28.81 24.4202 28.78 26.7402C27.24 26.7902 22.12 26.9402 21.41 26.9402C18.59 26.9402 17.1 25.8302 17.1 23.7202C17.1 20.9602 19.99 20.2802 22.55 19.6802C24.59 19.2002 26.52 18.7502 26.52 17.1702C26.52 16.4502 26.15 15.2502 23.63 15.2502C22.2 15.2502 20.67 15.5402 18.98 16.1302L19.21 14.7002C21.27 14.2302 22.99 14.0002 24.59 14.0002C27.74 14.0002 29.33 15.0202 29.33 17.0302C29.33 17.7802 29.24 18.9202 29.13 20.2402L29.14 20.2502ZM30.14 26.7402L30.19 26.0602L30.28 24.8002L30.3 24.5702C30.59 20.3602 30.84 16.7102 30.97 10.9902H33.69C33.28 16.5102 33.05 20.9702 32.86 26.7402H30.14ZM45.76 20.2502C45.61 22.1202 45.43 24.4202 45.41 26.7402C43.87 26.7902 38.75 26.9402 38.04 26.9402C35.22 26.9402 33.73 25.8302 33.73 23.7202C33.73 20.9602 36.62 20.2802 39.18 19.6802C41.22 19.2002 43.15 18.7502 43.15 17.1702C43.15 16.4502 42.77 15.2502 40.26 15.2502C38.83 15.2502 37.3 15.5402 35.61 16.1302L35.84 14.7002C37.9 14.2302 39.62 14.0002 41.22 14.0002C44.37 14.0002 45.96 15.0202 45.96 17.0302C45.96 17.7802 45.87 18.9202 45.76 20.2402V20.2502ZM60.06 20.3602V20.5002C59.96 22.1502 59.82 24.4002 59.8 26.7302H57.01C57.38 23.8802 57.55 21.5402 57.55 19.3802C57.55 17.0902 56.37 15.8802 54.13 15.8802C51.89 15.8802 50.39 17.3402 49.9 19.8902C49.53 21.8902 49.47 25.2502 49.45 26.7202H46.76C47.15 22.3402 47.35 18.5902 47.43 14.2902H50.05L49.95 15.9002L49.93 16.2702V16.8802C49.93 16.8802 50.71 15.8602 50.81 15.7502C51.79 14.6302 53.58 13.9702 55.73 13.9702C58.73 13.9702 60.18 15.2002 60.18 17.7202C60.18 18.3302 60.13 19.2202 60.06 20.3602Z" fill="white"/>
<path d="M13.7 15.8402C13 15.6202 12.32 15.5102 11.67 15.5102C8.15997 15.5102 5.97997 17.7102 5.97997 21.2502C5.97997 23.8902 7.43997 25.5402 9.78997 25.5402C12.14 25.5402 13.42 23.4502 13.77 21.4902C14.04 19.9102 14.07 18.1302 14.1 16.5602V15.9602L13.94 15.9102L13.69 15.8302L13.7 15.8402Z" fill="white"/>
</svg>
