<svg width="58" height="44" viewBox="0 0 58 44" fill="none" xmlns="http://www.w3.org/2000/svg">
<path d="M37.59 0C38.43 1.59 39.1 3.24 39.66 4.95C40.56 7.7 41.16 10.51 41.6 13.37C42.09 16.56 42.38 19.77 42.56 22.99C42.91 29.11 42.93 35.24 42.94 41.36C42.94 42.19 42.94 43.01 42.94 43.85H37.2C37.2 40.53 37.23 37.22 37.2 33.91C37.16 30.61 37.05 27.3 36.98 23.99H30.22V43.85H24.75C24.75 43.76 24.75 43.68 24.75 43.59C24.75 29.14 24.75 14.69 24.75 0.24C24.75 0.16 24.75 0.08 24.75 0C29.03 0 33.31 0 37.59 0ZM30.22 5.3V18.73H36.51C36.51 18.68 36.51 18.65 36.51 18.62C36.29 16.44 36.01 14.26 35.59 12.11C35.16 9.88 34.61 7.67 33.82 5.54C33.75 5.35 33.66 5.3 33.47 5.31C32.61 5.31 31.75 5.31 30.89 5.31C30.67 5.31 30.44 5.31 30.2 5.31L30.22 5.3Z" fill="white"/>
<path d="M12.88 0C12.88 0.12 12.87 0.24 12.87 0.36C12.87 1.9 12.87 3.43 12.87 4.97C12.87 5.07 12.87 5.16 12.87 5.29H6.11V18.73H11.28V23.96H6.1V43.86H0V0C4.3 0 8.59 0 12.88 0Z" fill="white"/>
<path d="M57.91 0V5.28H53.12V43.85H47.02V5.31H42.13V0H57.91Z" fill="white"/>
<path d="M21.47 0C21.47 0.11 21.47 0.23 21.47 0.34C21.47 14.73 21.47 29.12 21.47 43.5V43.85H15.18V43.5C15.18 29.12 15.18 14.74 15.18 0.36C15.18 0.24 15.17 0.12 15.16 0C17.27 0 19.37 0 21.48 0H21.47Z" fill="white"/>
</svg>
