<svg width="106" height="53" viewBox="0 0 106 53" fill="none" xmlns="http://www.w3.org/2000/svg">
<path fill-rule="evenodd" clip-rule="evenodd" d="M60.7099 52.86H68.0499L68.9499 50.4H65.3699L67.6299 44.18H63.8699L60.7099 52.86Z" fill="white"/>
<path fill-rule="evenodd" clip-rule="evenodd" d="M5.85987 47.68L5.12987 49.67H6.28987L5.97987 50.53H4.95987C3.67987 50.53 3.65987 49.98 4.19987 48.51C4.71987 47.08 5.23987 46.62 6.62987 46.62H10.1699L11.0599 44.18H7.18987C3.64987 44.18 1.43987 45.65 0.399872 48.52C-0.640128 51.37 0.339872 52.87 3.49987 52.87H8.56987L9.72987 49.69H10.2199L10.9499 47.69H5.86987L5.85987 47.68Z" fill="white"/>
<path fill-rule="evenodd" clip-rule="evenodd" d="M20.2699 46.63L21.1699 44.18H12.5399L11.6499 46.64H12.2199L9.94987 52.86H18.1799L19.0699 50.4H14.6099L14.9299 49.53H18.5299L19.2799 47.46H15.6799L15.9799 46.63H20.2699Z" fill="white"/>
<path fill-rule="evenodd" clip-rule="evenodd" d="M28.3299 44.18L26.7599 48.49C26.7599 48.49 26.7599 47.93 26.6599 47.37L26.1099 44.18H21.7099L20.8099 46.64H21.3799L19.1199 52.86H22.2699L23.8499 48.51C23.8499 48.51 23.8699 49.1 23.9599 49.63L24.5199 52.86H28.3099L31.4699 44.17H28.3199L28.3299 44.18Z" fill="white"/>
<path fill-rule="evenodd" clip-rule="evenodd" d="M39.8999 46.63L40.7999 44.18H32.1799L31.2799 46.64H31.8499L29.5899 52.86H37.8099L38.6999 50.4H34.2399L34.5599 49.53H38.1599L38.9099 47.46H35.3099L35.6099 46.63H39.8999Z" fill="white"/>
<path fill-rule="evenodd" clip-rule="evenodd" d="M47.5699 44.18H41.3499L40.4499 46.64H41.0599L38.7999 52.86H42.5599L43.6099 49.96H44.1899C44.6799 49.96 44.8499 50.13 44.8599 50.53L44.9599 52.86H48.7599L48.6399 50.67C48.6099 50.03 48.3499 49.72 47.9699 49.57C49.1099 49.17 50.0999 48.47 50.5799 47.14C51.2899 45.18 50.5899 44.17 47.5699 44.17M46.9799 47.17C46.7299 47.86 46.2599 48.09 45.3699 48.09H44.2899L44.9599 46.25H46.2399C46.9199 46.25 47.2199 46.53 46.9899 47.17" fill="white"/>
<path fill-rule="evenodd" clip-rule="evenodd" d="M60.0299 52.86L60.0099 44.17H54.4399L53.5999 46.49L48.9499 52.86H52.5399L53.3499 51.62H56.1599L56.0799 52.86H60.0399H60.0299ZM54.7799 49.44L55.7399 48C56.0899 47.46 56.5499 46.67 56.5499 46.67C56.5499 46.67 56.4399 47.46 56.3999 48L56.2899 49.44H54.7799Z" fill="white"/>
<path fill-rule="evenodd" clip-rule="evenodd" d="M81.3499 44.2H72.7499L71.8499 46.66H74.3199L72.0599 52.86H75.7299L77.9899 46.66H80.4499L81.3499 44.2Z" fill="white"/>
<path fill-rule="evenodd" clip-rule="evenodd" d="M82.2199 44.2L79.0699 52.86H82.7399L85.8899 44.2H82.2199Z" fill="white"/>
<path fill-rule="evenodd" clip-rule="evenodd" d="M93.2499 49.58C94.3599 49.19 95.3399 48.48 95.8199 47.16C96.5299 45.2 95.8599 44.2 92.8999 44.2H86.7099L85.8099 46.66H86.5099L84.2599 52.85H87.9299L88.9799 49.96H89.5399C90.0199 49.96 90.1799 50.13 90.1899 50.53L90.2699 52.85H93.9899L93.8799 50.67C93.8599 50.04 93.6099 49.72 93.2399 49.57M92.2999 47.19C92.0499 47.88 91.5899 48.11 90.7199 48.11H89.6599L90.3299 46.28H91.5799C92.2399 46.28 92.5299 46.56 92.2999 47.19Z" fill="white"/>
<path fill-rule="evenodd" clip-rule="evenodd" d="M104.82 46.66L105.71 44.2H97.1799L96.2799 46.67H96.9399L94.6899 52.86H102.72L103.62 50.41H99.2499L99.5699 49.54H103.09L103.84 47.48H100.32L100.62 46.66H104.82Z" fill="white"/>
<path d="M52.7699 7.94L26.3699 0V33.61L52.7699 41.55L79.1699 33.61V0L52.7699 7.94ZM50.2999 12L56.2399 17.79H52.6399L46.6999 12H50.2999ZM56.9799 32.54H44.6499C38.9499 32.4 33.3399 28.53 33.3399 22.27C33.3399 16.01 38.9499 12.14 44.6499 12L50.5899 17.79H44.6499C42.2299 17.93 40.3199 19.89 40.3199 22.27C40.3199 24.65 42.2299 26.61 44.6499 26.75H50.2999V25.03H45.0499C43.4099 25.03 42.0799 23.79 42.0799 22.27C42.0799 20.75 43.4099 19.51 45.0499 19.51H56.9799V32.54ZM58.5299 32.54V25.52L65.7199 32.54H58.5299ZM65.7199 30.54L58.5299 23.52V20.02L65.7199 27.04V30.54ZM65.7199 18.01V25.03L58.5299 18.01L52.3599 12H72.9199V18.01H65.7199Z" fill="white"/>
<path fill-rule="evenodd" clip-rule="evenodd" d="M81.7399 14.16H82.4199V12.45H83.0899V11.97H81.0699V12.45H81.7399V14.16Z" fill="white"/>
<path fill-rule="evenodd" clip-rule="evenodd" d="M83.9099 14.16V13.18C83.9099 12.96 83.8999 12.68 83.8999 12.68C83.8999 12.68 83.9799 12.97 84.0399 13.17L84.3699 14.16H84.8999L85.2299 13.17C85.2899 12.97 85.3699 12.68 85.3699 12.68C85.3699 12.68 85.3499 12.98 85.3499 13.18V14.16H85.9999V11.97H85.1299L84.7499 13.17C84.6999 13.33 84.6499 13.57 84.6499 13.57C84.6499 13.57 84.5899 13.33 84.5499 13.17L84.1699 11.97H83.2999V14.16H83.9099Z" fill="white"/>
</svg>
