<svg width="144" height="25" viewBox="0 0 144 25" fill="none" xmlns="http://www.w3.org/2000/svg">
<path d="M0 0.04H2.68V4.92H2.72C3.24 4.03 4.23 3.39 5.27 3.39C7.64 3.39 9.25 4.37 9.25 6.93V13.78H6.57V7.71C6.57 6.8 6.45 5.73 4.63 5.73C3 5.73 2.68 6.62 2.68 7.45V13.79H0V0.04Z" fill="white"/>
<path d="M17.12 8.97C16.35 9.42 15.32 9.38 14.63 9.52C13.81 9.67 13.23 10.35 13.46 11.17C13.61 11.78 14.09 12.21 15.24 12.02C16.83 11.77 17.12 10.68 17.12 9.55V8.96V8.97ZM17.43 13.78C17.24 13.53 17.13 13.12 17.14 12.76C16.2 13.62 15.38 14.21 13.81 14.21C11.7 14.21 10.67 13.04 10.74 11.06C10.8 9.63 11.37 8.23 13.75 7.84C14.75 7.8 15.82 7.58 16.45 7.37C16.93 7.2 17.16 6.71 17.12 6.22C17.12 5.58 16.58 5.3 15.36 5.3C13.83 5.3 13.64 6.22 13.6 6.96H11.07C11.11 3.7 13.94 3.4 15.36 3.4C16.39 3.4 17.29 3.57 17.81 3.77C18.84 4.18 19.67 5.01 19.67 6.63V12.21C19.65 12.66 19.92 13.12 20.26 13.42V13.78H17.43Z" fill="white"/>
<path d="M22.1 3.56H24.78V5.54H24.82C24.99 4.94 25.13 4.58 26.06 3.94C26.52 3.6 27.13 3.26 27.98 3.4V6.09C26.83 5.96 25.11 5.81 24.78 8.03V13.78H22.1V3.56Z" fill="white"/>
<path d="M29.84 13.78V3.56H32.52V5.09H32.56C33.4 3.88 34.17 3.19 35.74 3.4C37.06 3.57 37.43 4.02 38.19 4.89C38.84 3.99 39.65 3.16 41.83 3.4C43.9 3.7 44.47 5.06 44.47 6.7V13.79H41.79V6.76C41.75 6 41.09 5.72 40.45 5.69C39.02 5.59 38.5 6.84 38.5 7.54V13.8H35.82V6.77C35.67 6.05 35.19 5.71 34.35 5.7C33.41 5.68 32.53 6.28 32.53 7.55V13.81H29.85L29.84 13.78Z" fill="white"/>
<path d="M52.46 8.97C51.69 9.42 50.66 9.38 49.97 9.52C49.14 9.67 48.57 10.35 48.8 11.17C48.95 11.78 49.43 12.21 50.58 12.02C52.17 11.77 52.46 10.68 52.46 9.55V8.96V8.97ZM52.77 13.78C52.58 13.53 52.47 13.12 52.48 12.76C51.54 13.62 50.72 14.21 49.15 14.21C47.05 14.21 46.01 13.04 46.09 11.06C46.15 9.63 46.72 8.23 49.1 7.84C50.1 7.8 51.17 7.58 51.8 7.37C52.28 7.2 52.51 6.71 52.47 6.22C52.47 5.58 51.93 5.3 50.71 5.3C49.17 5.3 48.99 6.22 48.95 6.96H46.42C46.46 3.7 49.3 3.4 50.71 3.4C51.74 3.4 52.64 3.57 53.16 3.77C54.2 4.18 55.02 5.01 55.02 6.63V12.21C55 12.66 55.27 13.12 55.61 13.42V13.78H52.77Z" fill="white"/>
<path d="M60.14 3.56V5.1H60.17C60.69 4.03 61.69 3.39 62.72 3.39C65.09 3.39 66.7 4.37 66.7 6.93V13.77H64.02V7.7C64.02 6.79 63.9 5.72 62.08 5.72C60.45 5.72 60.13 6.61 60.13 7.44V13.77H57.45V3.56H60.14Z" fill="white"/>
<path d="M82.43 0.04V7.54H82.47L85.82 3.56H88.89L85.39 7.47L89.12 13.78H85.98L83.55 9.41L82.43 10.59V13.78H79.75V0.04H82.43Z" fill="white"/>
<path d="M68.85 13.8L77.07 0H77.58L69.34 13.8H68.85Z" fill="white"/>
<path d="M82.43 0.04V7.54H82.47L85.82 3.56H88.89L85.39 7.47L89.12 13.78H85.98L83.55 9.41L82.43 10.59V13.78H79.75V0.04H82.43Z" fill="white"/>
<path d="M96.27 8.97C95.5 9.42 94.47 9.38 93.78 9.52C92.96 9.67 92.38 10.35 92.62 11.17C92.77 11.78 93.25 12.21 94.4 12.02C95.99 11.77 96.28 10.68 96.28 9.55V8.96L96.27 8.97ZM96.57 13.78C96.38 13.53 96.27 13.12 96.28 12.76C95.34 13.62 94.52 14.21 92.95 14.21C90.84 14.21 89.81 13.04 89.89 11.06C89.95 9.63 90.52 8.23 92.9 7.84C93.89 7.8 94.97 7.58 95.6 7.37C96.07 7.2 96.3 6.71 96.27 6.22C96.27 5.58 95.73 5.3 94.51 5.3C92.97 5.3 92.79 6.22 92.74 6.96H90.21C90.25 3.7 93.08 3.4 94.5 3.4C95.53 3.4 96.43 3.57 96.95 3.77C97.98 4.18 98.81 5.01 98.81 6.63V12.21C98.79 12.66 99.06 13.12 99.4 13.42V13.78H96.57Z" fill="white"/>
<path d="M103.93 3.56V5.54H103.97C104.14 4.94 104.27 4.58 105.21 3.94C105.67 3.6 106.28 3.26 107.12 3.4V6.09C105.97 5.96 104.25 5.81 103.92 8.03V13.78H101.24V3.56H103.93Z" fill="white"/>
<path d="M111.23 6.83C111.04 7.23 110.77 7.98 110.77 8.83C110.77 9.68 111.04 10.43 111.23 10.83C111.69 11.68 112.4 11.98 113.03 11.98C113.66 11.98 114.35 11.68 114.81 10.83C115 10.43 115.27 9.68 115.27 8.83C115.27 7.98 115 7.23 114.81 6.83C114.35 5.98 113.64 5.68 113.03 5.68C112.42 5.68 111.69 5.98 111.23 6.83ZM117.95 13.84H115.27V12.76H115.23C114.5 13.82 113.45 14.18 112.6 14.21C110.73 14.28 109.66 13.55 108.85 11.85C108.43 10.93 108.12 10.01 108.07 9.01C108.01 8.01 108.2 6.94 108.74 5.71C109.62 3.73 111.33 3.45 112.3 3.39C114.04 3.31 114.85 4.09 115.23 4.95H115.27V0.04H117.95V13.84Z" fill="white"/>
<path d="M122.91 6.8C122.7 7.2 122.41 7.95 122.41 8.8C122.41 9.65 122.7 10.4 122.91 10.8C123.41 11.65 124.15 11.95 124.82 11.95C125.49 11.95 126.24 11.65 126.73 10.8C126.94 10.4 127.23 9.65 127.23 8.8C127.23 7.95 126.94 7.2 126.73 6.8C126.23 5.95 125.49 5.65 124.82 5.65C124.15 5.65 123.4 5.95 122.91 6.8ZM121.24 12.97C120.21 12.05 119.71 10.46 119.71 8.8C119.71 7.14 120.21 5.56 121.24 4.64C122.16 3.81 123.48 3.4 124.82 3.4C126.16 3.4 127.48 3.81 128.4 4.64C129.43 5.57 129.93 7.15 129.93 8.8C129.93 10.45 129.43 12.04 128.4 12.97C127.48 13.8 126.16 14.22 124.82 14.22C123.48 14.22 122.16 13.8 121.24 12.97Z" fill="white"/>
<path d="M131.71 3.56H134.39V5.1H134.43C134.94 4.03 135.94 3.39 136.98 3.39C139.35 3.39 140.96 4.37 140.96 6.93V13.77H138.28V7.7C138.28 6.79 138.16 5.72 136.34 5.72C134.71 5.72 134.39 6.61 134.39 7.44V13.77H131.71V3.56Z" fill="white"/>
<path d="M68.85 13.8L77.07 0H77.58L69.34 13.8H68.85Z" fill="white"/>
<path d="M142.59 3.71C142.77 3.71 142.93 3.7 142.93 3.48C142.93 3.31 142.77 3.27 142.62 3.27H142.33V3.7H142.58L142.59 3.71ZM142.13 4.5V3.1H142.66C142.99 3.1 143.16 3.22 143.16 3.5C143.16 3.75 143 3.86 142.8 3.89L143.2 4.5H142.96L142.59 3.89H142.35V4.5H142.13ZM142.59 4.81C143.14 4.81 143.57 4.38 143.57 3.8C143.57 3.22 143.14 2.79 142.59 2.79C142.04 2.79 141.6 3.22 141.6 3.8C141.6 4.38 142.03 4.81 142.59 4.81ZM141.36 3.79C141.36 3.1 141.92 2.58 142.59 2.58C143.26 2.58 143.82 3.09 143.82 3.79C143.82 4.49 143.26 5.01 142.59 5.01C141.92 5.01 141.36 4.5 141.36 3.79Z" fill="white"/>
<path d="M92.05 16.13V19.38H88.18V16.13H86.61V23.46H88.18V20.04H92.05V22.67C92.05 22.83 92.08 22.97 92.15 23.08C92.22 23.18 92.3 23.26 92.4 23.32C92.5 23.37 92.6 23.41 92.72 23.43C92.83 23.45 92.93 23.46 93.02 23.46H93.62V16.13H92.05Z" fill="white"/>
<path d="M122.71 23.46V16.13H121.18L118.11 21.56L114.98 16.13H113.43V23.46H114.23V17.78L117.53 23.46H117.94L121.15 17.82V22.67C121.15 22.84 121.19 22.97 121.25 23.08C121.32 23.18 121.4 23.26 121.5 23.32C121.6 23.38 121.71 23.41 121.82 23.43C121.93 23.45 122.03 23.46 122.12 23.46H122.72H122.71Z" fill="white"/>
<path d="M132.55 23.46L128.63 15.97H128.17L124.15 23.46H125.07L126.32 21.13H129.17L128.78 20.38H126.73L128.05 17.92L130.64 22.88C130.74 23.08 130.87 23.23 131.02 23.33C131.17 23.42 131.37 23.47 131.61 23.47H132.57L132.55 23.46Z" fill="white"/>
<path d="M140.71 16.13C140.71 16.13 140.62 16.13 140.57 16.14C140.51 16.15 140.46 16.17 140.41 16.2C140.36 16.23 140.31 16.27 140.28 16.32C140.24 16.37 140.23 16.45 140.23 16.53V21.25L135.01 16.13H134V23.46H134.91V17.94L140.21 23.28C140.43 23.48 140.72 23.46 141.02 23.46H141.13V16.13H140.71Z" fill="white"/>
<path d="M99.57 15.97H99.11L95.09 23.46H96.01L98.99 17.92L100.28 20.38H98.21L97.81 21.13H100.67L101.57 22.88C101.67 23.08 101.8 23.23 101.95 23.33C102.1 23.42 102.3 23.47 102.54 23.47H103.51L99.58 15.98L99.57 15.97Z" fill="white"/>
<path d="M106.54 16.77V19.55H107.27C107.27 19.55 107.99 19.55 108.46 19.3C108.93 19.04 109.26 18.67 109.26 18.13C109.26 17.59 108.9 17.1 108.4 16.91C108.4 16.91 108.11 16.77 107.6 16.77H106.54ZM109.66 22.87L107.35 20.11H106.55V23.46H104.98V16.13H107.86C107.86 16.13 109.05 16.11 109.83 16.49C110.61 16.87 110.94 17.4 110.94 18.08C110.94 18.76 110.52 19.56 109.04 19.96L112.04 23.46H110.84C110.84 23.46 110.59 23.46 110.29 23.36C109.99 23.26 109.68 22.87 109.68 22.87" fill="white"/>
<path d="M80.64 23.01C80.84 23.08 81.01 23.11 81.18 23.11C81.75 23.11 82.16 22.71 82.16 22.17C82.16 21.66 81.84 21.3 81.4 21.3C81.13 21.3 80.9 21.42 80.64 21.71V23.01ZM80.63 20.04V21.46C80.86 21.24 81.07 21.11 81.42 21.11C82 21.11 82.4 21.54 82.4 22.15C82.4 22.87 81.92 23.33 81.17 23.33C80.91 23.33 80.69 23.28 80.39 23.17V20.04H80.63Z" fill="white"/>
<path d="M83.12 24.39H82.88L83.65 22.88L82.72 21.15H82.97L83.76 22.65L84.52 21.15H84.76L83.12 24.39Z" fill="white"/>
</svg>
