<svg width="122" height="13" viewBox="0 0 122 13" fill="none" xmlns="http://www.w3.org/2000/svg">
<path fill-rule="evenodd" clip-rule="evenodd" d="M119.77 0.640025C119.57 0.840025 119.46 1.09003 119.46 1.38003C119.46 1.67003 119.56 1.92003 119.76 2.13003C119.96 2.34003 120.21 2.44003 120.5 2.44003C120.79 2.44003 121.04 2.34003 121.24 2.13003C121.44 1.92003 121.55 1.68003 121.55 1.38003C121.55 1.08003 121.45 0.840025 121.24 0.640025C121.04 0.430025 120.79 0.330025 120.5 0.330025C120.21 0.330025 119.96 0.430025 119.76 0.640025M121.37 2.25003C121.13 2.49003 120.84 2.61002 120.51 2.61002C120.18 2.61002 119.89 2.49003 119.65 2.25003C119.41 2.01003 119.3 1.72003 119.3 1.39003C119.3 1.06003 119.42 0.770025 119.66 0.530025C119.9 0.290025 120.18 0.170025 120.52 0.170025C120.86 0.170025 121.15 0.290025 121.38 0.530025C121.62 0.770025 121.74 1.05003 121.74 1.39003C121.74 1.73003 121.62 2.02003 121.38 2.25003M120.74 0.920025C120.68 0.890025 120.59 0.870025 120.46 0.870025H120.26V1.35003H120.47C120.57 1.35003 120.64 1.35003 120.69 1.32003C120.78 1.28003 120.83 1.21003 120.83 1.11003C120.83 1.01003 120.8 0.950025 120.74 0.910025M120.49 0.710025C120.66 0.710025 120.78 0.730025 120.86 0.760025C121 0.820025 121.07 0.930025 121.07 1.10003C121.07 1.22003 121.03 1.31003 120.94 1.36003C120.89 1.39003 120.83 1.41003 120.75 1.42003C120.86 1.44003 120.93 1.48003 120.98 1.55003C121.03 1.62003 121.05 1.69003 121.05 1.76003V1.86003C121.05 1.86003 121.05 1.92003 121.05 1.96003C121.05 1.99003 121.05 2.02003 121.06 2.03003V2.05002H120.85C120.85 2.05002 120.85 2.05002 120.85 2.04002C120.85 2.04002 120.85 2.04002 120.85 2.02003V1.87003C120.85 1.72003 120.81 1.61003 120.72 1.56003C120.67 1.53003 120.58 1.52003 120.46 1.52003H120.27V2.05002H120.03V0.710025H120.5H120.49Z" fill="white"/>
<path fill-rule="evenodd" clip-rule="evenodd" d="M24.7802 2.50607e-05H39.1402C39.1402 2.50607e-05 40.1402 -0.0199749 40.1402 1.07003V2.96003L31.2302 9.62002H40.1402V12.36H25.6602C25.6602 12.36 24.7802 12.36 24.7802 11.45C24.7802 10.54 24.7802 9.38002 24.7802 9.38002L33.6102 2.72003H24.7802V2.50607e-05Z" fill="white"/>
<path d="M22.8002 2.50607e-05H17.3402V12.35H22.8002V2.50607e-05Z" fill="white"/>
<path fill-rule="evenodd" clip-rule="evenodd" d="M42.1202 9.63002V2.72003C42.1102 0.130025 44.3802 0.0100251 47.2902 0.0100251H57.4902V2.71003H48.9102C47.9502 2.72003 47.5302 3.03003 47.5302 3.60002V4.82002H57.4902V7.52002H47.5302V8.82002C47.5302 9.32002 47.9502 9.62002 48.9102 9.61002H57.4902V12.35H47.3202C44.3702 12.35 42.1302 12.34 42.1302 9.63002" fill="white"/>
<path fill-rule="evenodd" clip-rule="evenodd" d="M59.4602 9.65002V2.50607e-05H64.8802V8.82002C64.8802 9.35002 65.3302 9.61002 66.2402 9.61002H71.8902V12.36C71.8902 12.36 64.7302 12.37 64.3702 12.36C61.4202 12.36 59.4602 12.36 59.4602 9.65002Z" fill="white"/>
<path fill-rule="evenodd" clip-rule="evenodd" d="M68.9102 2.72003V2.50607e-05H84.2902V2.72003H79.3302V12.35L73.8702 12.36V2.72003H68.9102Z" fill="white"/>
<path fill-rule="evenodd" clip-rule="evenodd" d="M103.63 2.51003C103.63 2.31002 103.69 1.48003 104.44 0.810025C105.58 0.0100251 106.21 0.0100251 108.86 0.0100251H118.57V2.74003H110.22C109.45 2.74003 109.05 2.97003 109.05 3.33002V4.14002C109.05 4.23002 109.03 4.30002 109.05 4.33002C109.05 4.70002 109.41 4.84002 110.22 4.84002H114.64C115.78 4.84002 116.66 4.84002 117.65 5.30002C118.97 5.88002 118.99 6.63002 118.99 7.54002V9.64003C118.99 10.62 118.99 11.17 117.58 11.91C116.7 12.36 115.57 12.35 114.28 12.35H104.07V9.64003H113.11C113.97 9.64003 114.29 9.39003 114.29 9.05002V8.13002C114.29 7.79002 113.94 7.55002 113.15 7.55002H108.87C107.09 7.55002 105.57 7.49002 104.44 6.74002C103.7 6.25002 103.63 5.66002 103.63 5.18002V2.51003Z" fill="white"/>
<path fill-rule="evenodd" clip-rule="evenodd" d="M96.6502 4.83003V3.35002C96.6502 3.35002 96.6402 2.74003 95.9202 2.74003H91.7902C91.7902 2.74003 91.2502 2.85002 91.2502 3.35002V4.83003H96.6502ZM86.2902 12.35V1.97003C86.2902 1.97003 86.6402 2.50607e-05 89.0702 2.50607e-05H98.9002C98.9002 2.50607e-05 101.66 0.110025 101.66 2.23003V12.35H96.6602V7.52003H91.2702V12.35H86.2902Z" fill="white"/>
<path d="M2.03023 5.32002C2.39023 4.37003 3.09023 3.66003 3.81023 3.00003C4.30023 2.55002 5.00023 2.10003 5.73023 1.74003C4.22023 1.51003 2.39023 1.03003 0.570234 0.150025C0.230234 0.350025 0.000234375 0.710025 0.000234375 1.13003V2.78003C0.960234 3.70003 1.60023 4.61002 2.03023 5.33002" fill="white"/>
<path d="M14.2402 2.50607e-05H2.80023C5.01023 0.750025 7.15023 1.00003 8.40023 0.960025C8.62023 0.940025 8.82023 0.930025 8.98023 0.930025C9.38023 0.930025 9.74024 0.970025 10.0202 1.04002C11.6802 1.45002 12.8202 2.75003 13.3202 4.79003C13.6902 6.27003 13.5902 7.61003 13.5902 7.67003C13.5802 7.85003 13.4602 8.01003 13.2902 8.09002C13.1202 8.16002 12.9302 8.14003 12.7802 8.02003C12.7102 7.96003 10.9502 6.55002 10.0702 5.72003C9.96023 5.62003 9.83023 5.57003 9.67023 5.57003C8.88023 5.57003 7.63023 6.59003 6.96023 7.13003C6.76023 7.30003 6.75023 7.42003 6.75023 7.46003C6.75023 7.65003 6.91023 7.88002 6.98023 7.95003L9.58023 10.22C9.73023 10.35 9.79023 10.57 9.72023 10.76C9.65024 10.95 9.47023 11.08 9.27024 11.08C9.17023 11.08 9.06024 11.08 8.96023 11.08C7.45023 11.08 4.64023 10.8 2.88023 8.95002C2.35023 8.39002 1.98023 7.75003 1.84023 7.13003C1.80023 7.07003 1.77023 6.99003 1.72023 6.87003C1.50023 6.40003 1.02023 5.35003 -0.00976562 4.17003V11.2C-0.00976562 11.82 0.490234 12.32 1.11023 12.32H14.2302C14.8502 12.32 15.3502 11.82 15.3502 11.2V1.13003C15.3602 0.510025 14.8602 2.50607e-05 14.2402 2.50607e-05Z" fill="white"/>
<path d="M6.35023 6.39003C7.22023 5.68003 8.54023 4.60003 9.68023 4.60003C10.1002 4.60003 10.4602 4.74003 10.7602 5.02003C11.2402 5.47003 12.0102 6.12003 12.6002 6.60003C12.5102 5.14003 12.0202 2.57002 9.79023 2.01003C9.59023 1.96003 9.30023 1.93002 8.99023 1.93002C8.95023 1.93002 8.91023 1.93002 8.87023 1.93002C8.77023 1.93002 8.65024 1.95003 8.51023 1.95003C8.09023 1.99003 7.67023 2.06003 7.29023 2.18003C6.30023 2.48003 5.15023 3.12003 4.48023 3.73003C3.45023 4.68003 2.84023 5.44003 2.78023 6.51003C2.76023 6.92003 2.97023 7.61002 3.62023 8.29002C4.19023 8.89003 5.47023 9.85002 7.92023 10.07L6.35023 8.69002C6.35023 8.69002 6.34023 8.69003 6.34023 8.68003C6.28023 8.62002 5.77023 8.12003 5.79023 7.44003C5.80023 7.16003 5.91023 6.75003 6.36023 6.38003" fill="white"/>
</svg>
