<svg width="73" height="55" viewBox="0 0 73 55" fill="none" xmlns="http://www.w3.org/2000/svg">
<path d="M35.5 27.49H33.22V36.67H35.5C36.98 36.67 36.98 35.68 36.98 32.11C36.98 28.54 36.98 27.49 35.5 27.49ZM54.84 31.29H51.08V35.26C51.08 36.32 50.22 37.19 49.15 37.19C48.08 37.19 47.22 36.32 47.22 35.26V15.76H43.46V38.55H54.84V31.29ZM40.73 19.47C40.73 16.95 38.43 15.76 36.98 15.76H29.47V38.55H36.98C39.8 38.55 40.73 36.74 40.73 35.57V28.74C40.73 27.77 39.74 26.5 38.26 26.5C39.74 26.5 40.73 24.49 40.73 23.35V19.47ZM26.62 15.76H22.86V35.23C22.86 36.29 22 37.19 20.93 37.19C19.86 37.19 18.99 36.32 18.99 35.26V31.29H15.23V34.58C15.23 36.22 16.71 38.89 20.92 38.89C25.13 38.89 26.61 36.85 26.61 34.58V15.76H26.62ZM14.95 26.64C14.95 27.83 15.92 28.8 17.12 28.8C18.32 28.8 19.29 27.83 19.29 26.64C19.29 25.45 18.32 24.47 17.12 24.47C15.92 24.47 14.95 25.44 14.95 26.64ZM13.65 15.76L17.12 23.64L20.59 15.76H13.65ZM66.45 54.42H0V0H66.45V54.42ZM36.98 21.77C36.98 25.34 36.64 25.57 35.27 25.57H33.22V17.91H35.27C36.63 17.91 36.98 18.2 36.98 21.77Z" fill="white"/>
<path d="M69.83 52.44V51.81H70.27C70.48 51.81 70.72 51.86 70.72 52.11C70.72 52.4 70.51 52.44 70.26 52.44H69.83ZM69.47 53.66H69.83V52.74H70.14L70.68 53.66H71.09L70.5 52.72C70.83 52.68 71.08 52.53 71.08 52.14C71.08 51.69 70.8 51.51 70.27 51.51H69.48V53.65L69.47 53.66ZM68.65 52.58C68.65 51.73 69.34 51.05 70.19 51.05C71.04 51.05 71.73 51.74 71.73 52.58C71.73 53.42 71.04 54.12 70.19 54.12C69.34 54.12 68.65 53.43 68.65 52.58ZM68.3 52.58C68.3 53.63 69.15 54.47 70.2 54.47C71.25 54.47 72.1 53.63 72.1 52.58C72.1 51.53 71.25 50.69 70.2 50.69C69.15 50.69 68.3 51.54 68.3 52.58Z" fill="white"/>
</svg>
