<svg width="50" height="66" viewBox="0 0 50 66" fill="none" xmlns="http://www.w3.org/2000/svg">
<path fill-rule="evenodd" clip-rule="evenodd" d="M24 52.03C23.79 52.03 23.63 52.09 23.5 52.2C23.38 52.31 23.33 52.47 23.33 52.66C23.33 52.85 23.38 53.01 23.5 53.13C23.63 53.25 23.8 53.31 24 53.31C24.2 53.31 24.37 53.25 24.5 53.13C24.63 53.01 24.7 52.87 24.7 52.69C24.7 52.51 24.63 52.35 24.51 52.21C24.37 52.08 24.2 52.02 24.01 52.02L24 52.03Z" fill="white"/>
<path fill-rule="evenodd" clip-rule="evenodd" d="M6.72 52.54C11.03 57.03 16.6 59.4 21.14 61.72C22.67 62.5 23.89 63.69 24.88 65.02C25.86 63.66 27.2 62.41 28.64 61.69C35.16 58.42 42.89 55.15 47.09 46.8C48.74 43.5 49.67 40.26 49.67 36.58V12.43L6.72 52.54ZM21.89 54.68H21.4V52.02H20.83V51.65H21.88V54.68H21.89ZM24.67 53.66L24.64 53.68L23.92 54.68H23.38L24.14 53.66C24.09 53.66 24.04 53.68 24 53.69C23.97 53.69 23.92 53.69 23.89 53.69C23.61 53.69 23.36 53.59 23.13 53.39C22.94 53.2 22.84 52.95 22.84 52.67C22.84 52.59 22.86 52.49 22.88 52.4C22.91 52.3 22.95 52.21 23 52.11C23.1 51.94 23.23 51.81 23.41 51.72C23.58 51.62 23.78 51.59 23.98 51.59C24.13 51.59 24.28 51.62 24.42 51.66C24.55 51.72 24.67 51.8 24.79 51.89C24.89 51.99 24.98 52.11 25.04 52.23C25.1 52.35 25.12 52.48 25.12 52.6C25.12 52.85 24.98 53.22 24.66 53.64L24.67 53.66ZM26.69 54.68H26.19V52.02H25.62V51.65H26.68V54.68H26.69ZM29.84 54.68H27.74V54.26L28.89 53.23L28.91 53.21C29.22 52.95 29.38 52.73 29.38 52.56C29.38 52.4 29.32 52.27 29.21 52.15C29.1 52.05 28.95 52.01 28.77 52.01C28.59 52.01 28.45 52.05 28.34 52.16C28.24 52.27 28.18 52.42 28.18 52.61V52.64H27.74V52.62C27.74 52.32 27.83 52.05 28.03 51.86C28.23 51.67 28.5 51.58 28.81 51.58C29.09 51.58 29.34 51.67 29.54 51.85C29.74 52.04 29.84 52.26 29.84 52.53C29.84 52.66 29.8 52.81 29.74 52.94C29.64 53.06 29.52 53.2 29.36 53.37L28.34 54.25H29.84V54.68Z" fill="white"/>
<path fill-rule="evenodd" clip-rule="evenodd" d="M40.14 0L0.06 37.23C0.06 39.13 0.53 41.61 1.26 43.54C2.19 46.25 3.65 48.91 5.38 51.01L49.66 9.76V0H40.14ZM15.36 39.13L14.82 38.55L14.47 37.43L11.87 37.32L11.77 38.51L12.55 39.36L13.67 39.03L14.5 39.92L10.83 43.33L10.02 42.45L10.48 41.31L6.54 37.09L5.37 37.42L4.55 36.54L8.18 33.15L9.01 34.04L8.7 35.21L10.12 36.74L10.57 33.46L9.41 32.88L8.98 32.42L12.62 29.03L13.09 29.52L12.59 31.74L12.15 35.38L15.34 35.51L18.74 35.04L19.21 35.53L15.34 39.14L15.36 39.13ZM21.48 33.57C20.95 34.07 20.13 34.06 19.66 33.55C19.18 33.06 19.23 32.24 19.76 31.74C20.28 31.24 21.11 31.25 21.59 31.75C22.05 32.25 22 33.08 21.48 33.57ZM30.4 24.19C30.23 25.09 29.71 26 28.76 26.88C28.25 27.35 27.7 27.71 27.17 27.94C26.66 28.2 26.06 28.34 25.5 28.33L25.63 29.54L24.3 30.77L22.41 28.76L23.53 27.23C24.24 27.25 25.45 26.64 25.82 26.52C26.26 26.37 26.65 26.17 27.01 25.83C27.3 25.56 27.51 25.26 27.6 25.01C27.64 24.77 27.63 24.52 27.44 24.32C27.29 24.15 27.05 24.12 26.82 24.16C26.54 24.22 26.19 24.37 25.81 24.68L24.8 25.41C23.65 26.22 22.65 26.68 21.83 26.82C21.04 26.93 20.33 26.69 19.79 26.09C19.24 25.51 19.02 24.69 19.2 23.79C19.42 22.86 19.9 21.98 20.73 21.2C21.2 20.77 21.66 20.51 22.12 20.28C22.56 20.09 23.02 20.01 23.51 20.03L23.48 18.91L24.8 17.69L26.51 19.51L25.42 21.1C24.83 21.01 23.81 21.48 23.46 21.57C23.08 21.65 22.67 21.83 22.39 22.1C22.13 22.35 21.92 22.64 21.89 22.88C21.82 23.16 21.83 23.4 21.98 23.58C22.14 23.74 22.38 23.79 22.65 23.7C22.94 23.63 23.34 23.42 23.82 23.13L24.74 22.43C25.88 21.69 26.87 21.23 27.66 21.11C28.45 21 29.16 21.26 29.68 21.82C30.31 22.49 30.57 23.27 30.4 24.2V24.19ZM34.25 21.66C33.72 22.16 32.9 22.15 32.43 21.64C31.95 21.14 32.01 20.32 32.54 19.82C33.07 19.33 33.9 19.34 34.37 19.83C34.83 20.34 34.79 21.17 34.26 21.66H34.25ZM41.76 14.69L41.22 14.11L40.87 12.99L38.27 12.87L38.17 14.06L38.95 14.91L40.07 14.58L40.9 15.47L37.23 18.88L36.43 18.01L36.89 16.87L32.95 12.65L31.78 12.98L30.97 12.11L34.6 8.72L35.43 9.61L35.12 10.78L36.54 12.31L36.99 9.03L35.83 8.45L35.4 7.99L39.04 4.6L39.51 5.09L39.01 7.31L38.57 10.95L41.76 11.08L45.16 10.61L45.63 11.1L41.76 14.7V14.69Z" fill="white"/>
<path fill-rule="evenodd" clip-rule="evenodd" d="M0.03 0L0 34.74L37.19 0H0.03ZM13.65 16.03C12.66 16.65 11.45 17.03 10.18 17.03C8.37 17.03 6.72 16.28 5.54 15.1C4.34 13.91 3.61 12.26 3.61 10.45C3.61 8.64 4.33 6.99 5.54 5.8C6.72 4.62 8.37 3.88 10.18 3.88C11.31 3.88 12.38 4.18 13.31 4.67C14 5.04 14.65 5.57 15.16 6.17C14.59 5.76 13.89 5.47 13.25 5.27C12.07 4.9 10.46 5.13 9.27 5.81C7.62 6.75 6.55 8.54 6.61 10.42C6.52 11.83 7.35 13.85 8.93 14.85C9.24 15.05 9.94 15.55 11.3 15.75C11.91 15.82 13.21 15.75 14.23 15.27C14.57 15.09 14.88 14.87 15.22 14.64C14.78 15.18 14.22 15.67 13.64 16.03H13.65ZM17.35 12.75V10.93L15.62 10.38L17.35 9.85V8.03L18.45 9.51L20.13 9L19.09 10.39L20.14 11.8L18.43 11.27L17.34 12.75H17.35Z" fill="white"/>
</svg>
