<svg width="53" height="69" viewBox="0 0 53 69" fill="none" xmlns="http://www.w3.org/2000/svg">
<path d="M0 0V52.44H52.3V0H0ZM16.4 8.83C16.4 4.9 22.29 4.9 22.29 8.83V29.16C22.29 31.96 26.22 32.1 26.22 29.16V8.83C26.22 4.9 31.97 4.76 32.11 8.83V29.44C32.11 34.21 28.6 37.29 24.26 37.29C19.92 37.29 16.41 34.06 16.41 29.44V8.83H16.4ZM12.48 45.01C9.12 45.01 6.59 42.35 6.59 39.12V8.69C6.73 4.76 12.34 4.76 12.48 8.69V37.15C12.48 37.99 13.32 39.11 14.3 39.11H41.36L34.35 22.57C34.21 22.01 34.07 21.31 34.07 20.75C34.07 20.05 34.35 18.93 34.77 18.09L41.22 7.43C41.64 6.45 42.62 5.89 43.74 5.75C45.28 5.61 46.68 6.73 46.82 8.41C46.82 8.83 46.82 9.67 46.68 9.95L40.79 19.48C40.09 20.6 40.23 21.44 40.51 22.14L49.48 44.99H12.48V45.01Z" fill="white"/>
<path d="M0 57.35H2.94V65.34H6.02V67.86H0V57.34V57.35Z" fill="white"/>
<path d="M7.29 63.51V57.34H10.23V63.51C10.23 64.21 10.37 65.61 11.91 65.61C13.45 65.61 13.59 64.21 13.59 63.51V57.34H16.53V63.51C16.53 64.63 16.25 68 11.9 68C7.55 68 7.27 64.63 7.27 63.51H7.29Z" fill="white"/>
<path d="M18.23 57.35H21.17V61.7L24.25 57.35H27.62L23.83 62.4L27.9 67.73H24.25L21.17 63.24V67.73H18.23V57.35Z" fill="white"/>
<path d="M41.08 57.35H44.02V67.73H41.08V57.35Z" fill="white"/>
<path d="M46.13 57.35H49.07V65.34H52.15V67.86H46.12V57.34L46.13 57.35Z" fill="white"/>
<path fill-rule="evenodd" clip-rule="evenodd" d="M27.9 62.53C27.9 59.73 29.72 56.92 33.65 56.92C37.58 56.92 39.4 59.72 39.4 62.53C39.4 65.34 37.58 68.14 33.65 68.14C29.72 68.14 27.9 65.34 27.9 62.53ZM36.31 62.53C36.31 60.43 35.05 59.45 33.65 59.45C32.25 59.45 30.99 60.43 30.99 62.53C30.99 64.63 32.25 65.61 33.65 65.61C35.05 65.61 36.31 64.49 36.31 62.53Z" fill="white"/>
</svg>
