<svg width="116" height="31" viewBox="0 0 116 31" fill="none" xmlns="http://www.w3.org/2000/svg">
<path fill-rule="evenodd" clip-rule="evenodd" d="M35.73 27.4804C39.1 26.8404 41.12 23.4404 41.67 20.1704C41.79 19.3404 40.75 18.9504 39.96 19.3104C39.26 19.6504 38.95 19.8904 38.03 20.6304C36.32 22.0104 35.24 23.8404 34.82 26.0504C34.67 26.7904 35.25 27.5804 35.74 27.4904L35.73 27.4804ZM59.31 28.0604C60.18 28.3004 60.89 27.5704 61.1 26.9004C61.53 25.4604 61.28 23.8704 60.73 22.5504C60.49 22.7604 58.62 25.0004 58.01 25.8304C57.64 26.3204 58.35 27.7904 59.31 28.0604ZM80.88 26.9304C81.09 27.6904 82.1 27.5704 82.65 27.3304C85.4 26.1104 87.33 22.9204 87.49 19.9504C87.52 19.3404 86.66 19.0304 85.99 19.2804C84.37 19.8904 83.27 21.0604 82.26 22.5304C81.31 23.8804 80.48 25.3504 80.88 26.9404V26.9304ZM106.06 19.7404C106.09 19.8304 108.81 17.6604 110.5 15.5504C112.15 13.4404 112.95 11.1704 112.95 11.1704C112.95 11.1704 111.08 12.5504 109.34 14.6604C107.26 17.2304 106.06 19.7404 106.06 19.7404ZM51.22 16.0104L51.28 15.9204C52.01 14.9104 52.29 13.5004 51.31 13.0104C51.19 12.9504 50.97 13.3504 50.91 13.6204C50.67 14.4504 50.73 15.2704 51.22 16.0104ZM49.72 18.3204C48.77 16.5804 48.31 14.5704 49.11 12.7304C49.88 10.9204 52.63 10.2504 53.64 12.2704C54.77 14.5304 53.15 16.4904 52.66 17.4104C52.51 17.6804 53.94 17.2904 54.5 17.2904C55.6 17.2304 56.24 18.3304 55.72 19.1904C54.01 21.9504 51.16 23.9004 50.79 27.2104C50.7 28.0404 52.78 27.6104 55.26 25.5304C55.32 25.4704 59.73 20.0804 63.1 15.9504C63.86 15.0304 66.44 15.9804 65.61 17.2004C64.88 18.2704 64.14 19.1004 63.68 19.7404C63.04 20.6904 64.69 21.3304 64.54 24.9404C65.79 23.9604 67.81 22.6404 67.88 22.5504C69.99 18.1404 72.23 13.0304 74.31 8.50043C74.83 7.37043 77.65 7.95043 77 9.39043C75.68 12.3904 74.31 15.6004 73.08 18.5704C73.02 18.6904 75.32 17.2204 75.53 17.1304C77.12 16.6104 77.8 18.0204 78.04 19.0304C78.59 21.3904 76.08 24.5704 74.89 26.8304C74.58 27.3804 75.29 27.1104 75.56 26.9204C76.42 26.4004 77.82 25.0804 77.85 24.9604C79.9 19.4204 86.66 15.0404 89.24 18.2904C89.42 18.0204 89.7 17.5904 89.73 17.5604C90.31 16.9804 92.67 17.1604 92.3 18.2604C92.3 18.3204 89.85 23.1204 88.6 25.5704C88.33 26.1204 88.63 27.6504 89.43 27.0704C90.68 26.1804 92.52 24.2904 92.58 24.0704C94.02 20.0004 98.79 11.7404 105.16 8.34043C106.23 7.79043 108.25 8.46043 107.61 10.2104C105.39 16.0704 102.78 18.6504 98.86 21.5604C98.79 21.6104 98.74 21.6404 98.69 21.6704C97.86 22.2504 95.45 23.6704 95.34 24.1704C95.34 24.2604 94.82 25.8804 95.09 26.6804C95.49 27.9004 96.71 27.7504 97.6 27.1104C100.91 24.7204 102.16 21.0204 104.27 17.6504C105.98 14.9304 107.85 12.6004 110.57 10.4304C111.83 9.42043 113.08 8.07043 114.73 8.29043C115.46 8.38043 115.86 9.15043 115.77 9.64043C114.51 14.7804 111.42 18.1804 108.24 20.7804C106.77 21.9704 105.3 23.0104 103.99 23.9604C103.65 24.2104 102.83 28.8004 106.19 27.2004C107.81 26.4304 109.47 24.0504 110.44 22.8504C110.93 22.2404 111.79 23.0704 111.39 23.8904C110.38 25.9104 109.03 27.5904 107.2 29.0004C105.85 30.0704 104.17 30.5904 102.58 29.9504C101.35 29.4604 100.93 28.2004 100.59 27.1304C99.4 28.5104 97.74 29.6704 96 30.1604C93.28 30.9204 92.17 28.9704 92.14 27.3704C90.43 28.7504 87.15 32.2104 85.5 28.5604C83.63 29.6004 80.27 31.8404 78 28.1004C76.44 29.1404 74.66 30.9804 72.89 29.8404C71.73 29.1104 71.21 27.7904 71.76 26.6004C72.74 24.4904 74.64 21.0604 74.76 20.8504C75 20.4204 74.36 20.1804 74 20.4804C72.44 21.7404 71.18 22.7404 71.12 22.9004C70.32 24.6404 68.89 27.7704 68.09 29.4504C67.63 30.4604 65.73 30.4304 65.24 29.6904C64.54 28.6504 65.52 27.6704 65.94 26.7204C63.8 28.1604 62.3 29.7504 60 30.1504C58.19 30.4904 56.24 29.7204 55.53 28.0104C53.39 29.1404 50.97 31.2504 48.7 29.5404C46.74 28.0704 47.75 24.4004 52.28 20.0204C52.37 19.9304 52.37 19.8504 52.28 19.7704L51.58 19.5004C49.93 21.7704 46.32 27.2704 44.08 28.7704C41.66 30.3604 40.07 30.7904 38.97 28.8004C36.52 30.5404 33.28 30.8504 31.96 28.1004L31.93 28.1304C30.16 29.5404 28.78 30.6104 25.87 30.0604C24.46 29.7804 23.73 28.4704 23.58 27.1504C23.37 25.0404 23.73 22.9004 24.01 20.8204C22.2 23.9104 20.46 27.3704 17.92 30.0004C17.46 30.4304 15.96 30.1204 16.11 29.3004C16.72 25.8404 18.62 21.0404 18.4 17.8204C15.83 23.3904 11.97 32.2304 4.28998 29.6604C-1.10002 27.8504 0.159976 18.0904 7.71998 21.0904C8.60998 21.4604 8.08998 23.0804 7.28998 22.7704C3.61998 21.3004 2.78998 27.3604 6.51998 27.6104C8.87998 27.7604 10.5 26.2604 11.26 25.0704C16.22 17.5104 17.72 10.2304 23.53 1.47043C24.33 0.250434 26.38 1.50043 25.7 2.82043C24.75 4.66043 23.93 6.71043 23.13 9.28043C22.24 12.1904 21.75 14.8804 21.78 17.8504C25.79 11.9104 29.68 6.10043 35.25 1.29043C35.49 1.08043 36.02 1.14043 36.35 1.26043C36.93 1.44043 37.02 2.15043 36.75 2.55043C30.9 11.7004 25.33 21.0704 26.65 26.6404C26.96 27.8304 27.72 27.5904 28.67 27.4404C29.59 27.2904 31.76 25.4204 31.94 24.9604C33.32 21.3204 36.1 18.3804 39.9 17.4304C41.15 17.0904 42.44 17.4004 43.39 18.2904C43.91 17.2204 45.41 17.0704 46.14 17.8604C46.29 18.0404 46.26 18.5004 46.14 18.7504C44.76 21.3504 43.57 23.6504 42.19 26.1004C42.1 26.2804 42.31 26.6804 42.62 26.5904C44.64 25.9504 47.36 21.7104 49.69 18.3104L49.72 18.3204ZM97.49 19.8804C97.55 19.9304 100.06 18.1804 101.74 16.2204C103.09 14.6604 104.83 11.2904 104.74 11.1704C104.59 11.1104 102.63 12.9104 100.85 14.9304C99.5 16.4904 97.48 19.8604 97.48 19.8704L97.49 19.8804Z" fill="white"/>
</svg>
