<svg width="73" height="78" viewBox="0 0 73 78" fill="none" xmlns="http://www.w3.org/2000/svg">
<path d="M10.07 54.74V64.28H7.92V57.56L5.03 62.37L2.14 57.56V64.28H0V54.74H2.79L5.03 58.63L7.24 54.74H10.07ZM11.88 64.29H14.01V54.75H11.88V64.29ZM14.96 54.74V56.74H17.54V64.29H19.69V56.74H22.26V54.74H14.96ZM23.07 64.17C23.96 64.32 24.9 64.43 25.9 64.43C28.47 64.43 29.63 63.54 29.63 61.64C29.63 59.74 28.35 59.24 26.76 58.53C25.7 58.06 25.01 57.79 25.01 57.27C25.01 56.75 25.27 56.59 26.56 56.59C27.65 56.59 28.63 56.74 29.16 56.78V54.8C28.61 54.72 27.73 54.61 26.5 54.61C24.1 54.61 22.9 55.31 22.9 57.29C22.9 58.89 24.01 59.52 25.52 60.19C27.07 60.91 27.54 61 27.54 61.7C27.54 62.3 26.97 62.45 25.88 62.45C24.56 62.45 23.48 62.26 23.05 62.19V64.17M30.92 61.06C30.92 63.38 32.43 64.42 34.71 64.42C36.99 64.42 38.54 63.36 38.54 61.06V54.74H36.39V60.98C36.39 62.07 35.73 62.45 34.71 62.45C33.69 62.45 33.05 62.07 33.05 60.98V54.74H30.9V61.06M40.37 64.29H44.69C46.8 64.29 47.8 63.29 47.8 61.63C47.8 59.97 46.91 59.56 46.05 59.31C46.79 59.03 47.58 58.61 47.58 57.22C47.58 55.48 46.5 54.77 44.54 54.77H40.37V64.3V64.29ZM42.52 58.61V56.55H44.24C45.03 56.55 45.41 56.76 45.41 57.53C45.41 58.15 45.09 58.61 44.24 58.61H42.52ZM42.52 62.49V60.3H44.48C45.27 60.3 45.59 60.6 45.59 61.36C45.59 62.21 45.25 62.51 44.38 62.51H42.51V62.49H42.52ZM49.1 64.3H51.25V54.76H49.1V64.3ZM52.8 64.17C53.69 64.32 54.63 64.43 55.63 64.43C58.2 64.43 59.36 63.54 59.36 61.64C59.36 59.74 58.08 59.24 56.49 58.53C55.43 58.06 54.74 57.79 54.74 57.27C54.74 56.75 55 56.59 56.29 56.59C57.38 56.59 58.36 56.74 58.89 56.78V54.8C58.34 54.72 57.46 54.61 56.23 54.61C53.83 54.61 52.63 55.31 52.63 57.29C52.63 58.89 53.74 59.52 55.25 60.19C56.8 60.91 57.27 61 57.27 61.7C57.27 62.3 56.7 62.45 55.61 62.45C54.29 62.45 53.21 62.26 52.78 62.19V64.17M66.06 54.74V58.51H62.66V54.74H60.51V64.28H62.64V60.47H66.04V64.28H68.17V54.74H66.06ZM69.93 64.3H72.08V54.76H69.93V64.3ZM17.26 67.59L15.05 71.48L12.81 67.59H10.04V77.13H12.19V70.43L15.08 75.24L17.95 70.43V77.15H20.1V67.61H17.27V67.59H17.26ZM21.56 72.36C21.56 75.77 22.86 77.26 25.67 77.26C28.48 77.26 29.78 75.77 29.78 72.36C29.78 68.95 28.48 67.46 25.67 67.46C22.86 67.46 21.56 68.97 21.56 72.36ZM27.58 72.36C27.58 74.32 27.24 75.32 25.67 75.32C24.1 75.32 23.78 74.32 23.78 72.36C23.78 70.4 24.1 69.42 25.67 69.42C27.24 69.44 27.58 70.42 27.58 72.36ZM34.88 77.13V69.58H37.46V67.6H30.14V69.58H32.72V77.13H34.88ZM37.82 72.36C37.82 75.77 39.12 77.26 41.93 77.26C44.74 77.26 46.04 75.77 46.04 72.36C46.04 68.95 44.74 67.46 41.93 67.46C39.12 67.46 37.82 68.97 37.82 72.36ZM43.82 72.36C43.82 74.32 43.48 75.32 41.91 75.32C40.34 75.32 40.02 74.32 40.02 72.36C40.02 70.4 40.34 69.42 41.91 69.42C43.48 69.44 43.82 70.42 43.82 72.36ZM49.67 77.15V73.72H50.61L52.63 77.15H55.12L52.78 73.4C54.01 73.1 54.74 72.14 54.74 70.66C54.74 68.36 53.44 67.59 51.38 67.59H47.51V77.15H49.67ZM49.67 69.44H51.27C52.23 69.44 52.53 69.93 52.53 70.67C52.53 71.41 52.23 71.88 51.27 71.88H49.67V69.44ZM56.02 77.02C56.91 77.17 57.85 77.28 58.85 77.28C61.42 77.28 62.58 76.39 62.58 74.49C62.58 72.59 61.3 72.09 59.71 71.38C58.65 70.91 57.96 70.64 57.96 70.1C57.96 69.56 58.22 69.44 59.51 69.44C60.6 69.44 61.58 69.57 62.11 69.63V67.63C61.56 67.57 60.68 67.46 59.45 67.46C57.05 67.46 55.85 68.14 55.85 70.14C55.85 71.74 56.96 72.37 58.47 73.04C60.02 73.76 60.49 73.85 60.49 74.55C60.49 75.15 59.92 75.3 58.83 75.3C57.51 75.3 56.43 75.11 56 75.04V77.02" fill="white"/>
<path d="M26.75 15.85L35.9 31.69L45.05 15.85L35.9 0L26.75 15.85Z" fill="white"/>
<path d="M54.19 31.69H35.9L45.05 47.53H63.34L54.19 31.69Z" fill="white"/>
<path d="M17.6 31.69H35.9L26.75 47.53H8.45L17.6 31.69Z" fill="white"/>
</svg>
