<svg width="100" height="22" viewBox="0 0 100 22" fill="none" xmlns="http://www.w3.org/2000/svg">
<path fill-rule="evenodd" clip-rule="evenodd" d="M10.04 21.7501C4 21.7501 0 17.3301 0 10.8901C0 4.45007 4.31 6.85192e-05 10.04 6.85192e-05C15.91 -0.0199315 20.06 4.34007 20.06 10.8901C20.06 17.4401 16.12 21.7401 10.04 21.7401M10.04 4.31007C6.43 4.31007 4.91 7.66007 4.91 10.8701C4.91 14.0801 6.55 17.3401 10.02 17.3401C13.49 17.3401 15.11 14.0201 15.11 10.8501C15.11 7.68007 13.61 4.31007 10.04 4.31007ZM38.22 15.1301C38.26 19.1201 34.44 21.7701 29.84 21.7701C20.71 21.7701 21.32 14.9701 21.28 14.4101H26.12C25.91 16.5301 28.09 17.7001 30.04 17.6601C31.48 17.6401 33.24 17.3701 33.47 15.4801C33.92 11.6801 21.57 14.4101 21.57 6.52007C21.57 2.32007 25.76 0.0200685 29.84 0.0200685C35.63 0.0200685 38.21 3.44007 38.21 7.12007H33.23C33.23 7.12007 33.47 4.19007 29.74 4.19007C28.28 4.19007 26.66 4.77007 26.48 6.12007C25.99 9.67007 38.12 7.04007 38.22 15.1201M53.18 14.2701L56.63 21.1901H51.36L48.3 14.6001H45.17V21.1901H40.37V0.570069H50.87C54.56 0.570069 57.35 3.66007 57.35 7.67007C57.35 10.7901 55.91 13.0101 53.19 14.2701M50.17 4.93007H45.17V10.4801H50.02C51.44 10.4801 52.46 9.11007 52.46 7.73007C52.46 6.43007 51.61 4.93007 50.17 4.93007ZM72.92 21.1801L71.7 17.6101H63.63L62.38 21.1801H57.26L64.74 0.570069H70.59L78.05 21.1801H72.92ZM70.25 13.3201L67.66 5.80007L65.07 13.3201H70.25ZM93.96 21.1801V10.1401L89.01 18.2501L84.08 10.1401V21.1801H78.87V0.570069H84.08L89.01 8.96007L93.96 0.570069H99.17V21.1801H93.96Z" fill="white"/>
</svg>
