<svg width="79" height="40" viewBox="0 0 79 40" fill="none" xmlns="http://www.w3.org/2000/svg">
<path d="M42.5814 0.134924C42.3246 0.170993 42.0767 1.14484 41.572 1.6498C41.2089 2.01049 40.7485 1.99245 40.5094 2.44331C40.4209 2.61464 40.4474 2.90318 40.3412 3.1737C40.1375 3.72374 39.4203 3.77785 39.4203 4.37298C39.4203 5.02221 40.0224 5.14845 40.536 5.60832C40.9433 5.97803 40.9787 6.23051 41.4746 6.41085C41.8996 6.55512 42.5194 6.07721 43.0861 6.24854C43.5465 6.3838 43.9892 6.492 44.0955 6.96991C44.184 7.41175 44.0955 8.10607 43.5288 8.02491C43.3429 8.00688 42.5194 7.71833 41.5188 7.83556C40.3058 7.97983 38.9156 8.37658 38.7828 9.7562C38.7119 10.5227 39.6417 11.4334 40.5448 11.253C41.1735 11.1268 40.8725 10.3784 41.2089 10.0177C41.6516 9.54881 44.184 11.6498 46.5305 11.6498C47.5222 11.6498 48.2571 11.3973 48.9832 10.6128C49.054 10.5497 49.1337 10.4235 49.24 10.4145C49.3374 10.4145 49.5145 10.5227 49.5676 10.5677C51.4625 12.1187 52.888 15.2206 59.8477 15.2567C60.8305 15.2567 61.9374 15.7346 62.8494 16.5822C63.664 17.3486 64.1333 18.5389 64.5937 19.7382C65.2932 21.5506 66.5328 23.309 68.4277 25.2657C68.534 25.3739 70.0835 26.6002 70.2163 26.6904C70.234 26.7084 70.3491 26.9789 70.3137 27.1412C70.2694 28.3135 70.1012 31.731 72.5982 31.8842C73.2091 31.9113 73.0498 31.4785 73.0498 31.1809C73.0498 30.5858 72.9435 29.9907 73.2534 29.3865C73.6784 28.5479 72.3591 28.1602 72.3945 26.3567C72.4211 25.0042 71.3054 25.2386 70.7476 24.2107C70.42 23.6155 70.1366 23.2999 70.1543 22.5696C70.2783 18.4668 69.2954 15.7706 68.8084 15.1124C68.4277 14.6164 68.1089 14.4181 68.4543 14.1836C70.5439 12.7769 71.0132 11.4785 71.0132 11.4785C72.12 8.81842 73.1206 6.39281 74.493 5.32879C74.7675 5.10336 75.4848 4.57135 75.9186 4.35494C77.2025 3.74178 77.8755 3.36306 78.2474 2.99336C78.8406 2.40724 79.301 1.18993 78.7344 0.450524C78.0349 -0.460206 76.8129 0.261164 76.2817 0.585781C72.4477 2.90318 71.881 6.99696 70.5528 9.34142C69.4902 11.217 67.7725 12.5966 66.2318 12.7048C65.0807 12.795 63.8322 12.5515 62.5926 12.0015C59.5732 10.6579 57.9263 8.91761 57.5367 8.61103C56.7309 7.97081 50.4353 1.68587 45.344 1.43339C45.344 1.43339 44.7153 0.143941 44.5559 0.125907C44.184 0.0808214 43.8033 0.892363 43.5288 0.991552C43.272 1.08172 42.8382 0.107873 42.5814 0.143941" fill="white"/>
<path d="M20.144 37.6642C19.6659 37.6552 19.2586 37.2494 19.2586 36.7535V20.5677H14.0256V38.4127C14.0256 39.2873 14.7251 39.9997 15.5751 39.9997H24.7307C25.5896 39.9997 26.2802 39.2873 26.2802 38.4127V20.5677H21.0472V36.7535C21.0472 37.2494 20.6399 37.6462 20.1529 37.6642" fill="white"/>
<path d="M29.76 20.5677C28.8215 20.5677 28.06 21.3432 28.06 22.3081V39.9997H33.3018V23.7778C33.3018 23.2819 33.7003 22.8851 34.1873 22.8851C34.6743 22.8851 35.0727 23.2729 35.0816 23.7598V39.9997H40.3058V23.7598C40.3058 23.2639 40.7042 22.8851 41.1912 22.8851C41.6782 22.8851 42.0767 23.2819 42.0767 23.7778V39.9997H47.3185V22.3081C47.3185 21.3432 46.5482 20.5677 45.6185 20.5677H29.76Z" fill="white"/>
<path d="M10.528 35.1124H5.23302V39.9906H0V20.5587H10.5634C11.5109 20.5587 12.2458 21.3432 12.2458 22.3081V33.354C12.2458 34.3279 11.4755 35.1034 10.528 35.1034V35.1124ZM7.01278 23.8049C7.01278 23.2639 6.58776 22.8761 6.12733 22.8761H5.24187V32.7048H6.12733C6.58776 32.7048 7.02163 32.3351 7.01278 31.7941V23.8049Z" fill="white"/>
<path d="M56.1111 39.9997V35.1214H54.3313V39.9997H49.0983V22.3081C49.0983 21.3432 49.8598 20.5677 50.7984 20.5677H59.6352C60.5737 20.5677 61.3352 21.3432 61.3352 22.3081V39.9997H56.1022H56.1111ZM56.1111 32.7138V23.7688C56.1022 23.2729 55.7038 22.8942 55.2168 22.8942C54.7298 22.8942 54.3313 23.2909 54.3313 23.7869V32.7228H56.1111" fill="white"/>
</svg>
