<svg width="104" height="61" viewBox="0 0 104 61" fill="none" xmlns="http://www.w3.org/2000/svg">
<path d="M74.23 9.9H69.84V18.52C69.84 21.33 72.84 23.73 76.55 23.73C80.26 23.73 83.51 21.3 83.51 18.52V9.9H79.12V17.67C79.12 18.95 78.03 19.99 76.69 19.99C75.35 19.99 74.23 18.95 74.23 17.64V9.89V9.9ZM4.56 5.16V23.06H0V1.47H8.21C11.78 1.47 14.7 4.36 14.7 7.88C14.7 10.88 12.6 13.39 9.76 14.05L16.09 23.05H10.66L6.1 15.98V10.82H7.16C8.85 10.82 10.22 9.57 10.22 8.01C10.22 6.45 8.94 5.15 7.25 5.15H4.55L4.56 5.16ZM46.48 0.44H42.17V11.11C41.02 9.99 39.58 9.36 37.91 9.36C34.36 9.36 31.47 12.5 31.47 16.4C31.47 20.3 34.36 23.44 37.91 23.44C39.6 23.44 41.18 22.79 42.17 21.59V23.06H46.48V0.44ZM39.15 19.75C37.4 19.75 35.99 18.2 35.99 16.29C35.99 14.38 37.41 12.83 39.15 12.83C40.89 12.83 42.31 14.38 42.31 16.29C42.28 18.2 40.86 19.75 39.15 19.75ZM64.6 11.32C65.77 10.23 66.51 8.76 66.51 7.15C66.51 5.68 65.94 4.34 64.96 3.28C63.92 2.16 62.12 1.48 59.67 1.48H52.33V23.06H61.82C65.45 23.01 68.39 20.25 68.39 16.87C68.36 14.41 67.49 12.67 64.6 11.33M60.94 19.31H56.82V5.35H59.71C60.96 5.35 62.03 6.3 62.03 7.59C62.03 8.88 60.97 9.91 59.71 9.91H58.18V13.81H60.99C62.52 13.81 63.66 15.06 63.66 16.59C63.61 18.12 62.6 19.24 60.93 19.32" fill="white"/>
<path d="M19.91 14.79C19.91 13.34 21.08 12.17 22.53 12.17C23.98 12.17 25.15 13.34 25.15 14.79H19.91ZM29.41 17.24C29.44 16.94 29.46 16.64 29.46 16.34C29.51 11.68 26.46 9.14 22.53 9.14C18.6 9.14 15.41 12.36 15.41 16.34C15.41 20.32 18.6 23.54 22.53 23.54C25.53 23.54 27.88 22.18 29.08 20.05L25.59 18.44C25.15 19.39 24.12 20.08 22.89 20.08C21.28 20.08 19.94 18.85 19.94 17.24H29.41ZM85.52 0.44H89.83V23.05H85.52V0.44ZM92.86 0.44H97.17V23.05H92.86V0.44Z" fill="white"/>
<path d="M57.59 43.16C57.56 43.24 57.51 43.27 57.4 43.27C57.48 43.65 57.21 44.36 56.53 44.39C56.07 44.42 55.3 43.95 54.87 43.93C54.41 43.9 53.56 44.26 53.07 43.52C52.42 44.31 51.65 44.53 51 44.5C50.62 44.5 50.21 44.28 50.78 43.79C49.53 44.2 49.53 43.35 49.74 43.19C49.88 43.08 50.04 43 50.5 42.54C52.25 40.71 51.59 37.55 53.5 35.45C54.24 34.63 54.84 34.17 56.34 33.1C56.85 32.75 57.36 32.25 57.84 31.89C55.93 29.21 52.8 27.45 49.24 27.45C45.68 27.45 42.68 29.14 40.76 31.73C40.92 31.81 41.09 31.89 41.28 32C42.07 32.55 42.59 33.01 43.79 34.02C44.14 34.37 44.55 34.95 44.85 35.3C45.5 36.12 45.97 36.69 46.05 37.37C46.24 38.73 46.43 39.5 46.95 40.89C47 41.03 47.22 41.22 47.36 41.38C47.69 41.79 47.82 42.44 48.42 42.8C48.75 42.99 48.8 43.02 48.91 43.1C49.07 43.24 48.8 43.73 47.96 43.62C48.4 43.84 48.34 44.33 47.71 44.36C46.48 44.41 45.72 43.71 45.55 43.51C45.47 43.43 45.22 43.76 44.79 43.92C44.35 44.14 43.75 43.92 43.29 44C42.85 44.08 42.28 44.35 41.82 44.38C41 44.41 40.89 43.83 40.89 43.34V43.12C40.81 43.41 40.53 43.9 40.51 43.93C42.41 46.71 45.6 48.55 49.23 48.55C52.86 48.55 55.97 46.77 57.88 44.04C57.74 43.79 57.64 43.45 57.58 43.15L57.59 43.16Z" fill="white"/>
<path d="M57.7 42.39C57.95 41.93 58.16 41.49 58.38 41.22C58.35 41.19 57.64 41.27 57.02 41.14C57.29 41.55 57.46 41.96 57.7 42.39Z" fill="white"/>
<path d="M40.26 41.22C40.29 41.6 40.51 41.93 40.81 42.34C40.97 41.71 41.49 41.47 41.66 41C41.06 41.03 40.68 41.16 40.27 41.22H40.26Z" fill="white"/>
<path fill-rule="evenodd" clip-rule="evenodd" d="M40.48 35.16C40.64 35.57 40.64 36.11 40.53 36.55C40.5 36.58 40.48 36.58 40.45 36.55C40.37 36.17 40.29 35.79 40.15 35.4C40.07 35.18 39.8 34.99 39.9 34.75C39.95 34.7 40.06 34.7 40.15 34.72C40.29 34.86 40.37 34.99 40.48 35.16ZM44.85 38.98C45.15 39.33 45.37 39.72 45.26 40.18C45.21 40.26 45.23 40.43 45.1 40.45C45.05 40.48 44.99 40.42 44.99 40.37C44.96 40.12 44.96 39.85 44.83 39.66C44.67 39.5 44.48 39.17 44.2 39.17C44.01 39.22 43.87 39.44 43.76 39.58C43.76 39.61 43.73 39.61 43.71 39.58C43.6 39.31 43.82 39.09 43.9 38.87C44.06 38.71 44.04 38.24 44.39 38.38C44.64 38.54 44.69 38.82 44.85 38.98ZM44.27 42.23C44.3 42.39 44.3 42.64 44.13 42.75C43.97 42.8 43.75 42.83 43.56 42.8C43.51 42.77 43.45 42.75 43.48 42.69C43.56 42.44 43.81 42.17 44.08 42.12C44.13 42.12 44.24 42.12 44.27 42.23ZM24.36 32.27C25.01 32.43 25.72 32.43 26.21 32.95C26.48 33.28 26.51 33.85 26.29 34.18C25.91 34.83 25.14 35.16 24.68 35.73C24.22 36.11 24.05 36.71 24.19 37.31C24.35 37.83 24.87 38.18 25.39 38.21C26.21 38.24 26.81 37.83 27.46 37.45C28.11 36.99 28.71 36.39 29.45 36.2C29.94 36.04 30.49 36.12 30.98 35.93C31.5 35.82 31.91 35.38 32.32 35C32.78 34.62 33.33 34.4 33.93 34.43C34.48 34.51 34.78 34.02 35.16 33.69C35.79 33.12 36.61 33.06 37.34 32.74C37.86 32.58 38.27 32.19 38.76 31.95C39.22 31.76 39.85 31.7 40.31 31.9C40.61 32.04 40.94 32.17 41.21 32.39L43.42 34.24C43.45 34.32 43.53 34.38 43.58 34.4C44.21 35.16 44.86 35.9 45.38 36.75C45.54 37.05 45.63 37.35 45.71 37.68C45.82 38.93 46.15 40.03 46.56 41.12C46.67 41.28 46.89 41.42 47 41.58C47.35 42.07 47.57 42.7 48.15 43.03L48.48 43.19C48.48 43.19 48.51 43.27 48.48 43.3L48.43 43.35C47.75 43.46 47.23 43.05 46.88 42.56C46.66 42.12 46.36 41.66 45.87 41.47C45.84 41.47 45.82 41.5 45.82 41.5C45.87 41.66 46.04 41.77 46.09 41.91C46.28 42.21 46.44 42.54 46.53 42.86C46.64 43.21 47.02 43.46 47.32 43.65L47.76 43.87C47.81 43.9 47.84 43.98 47.79 44.03L47.74 44.06C47 44.09 46.35 43.84 45.83 43.3C45.72 43.16 45.56 43.05 45.37 43.05C45.04 43.35 44.72 43.62 44.28 43.65C43.82 43.57 43.33 43.57 42.92 43.73C42.54 43.87 42.16 44.03 41.75 44.03C41.56 44.03 41.34 43.95 41.26 43.76C41.26 43.51 41.1 43.24 41.23 43L41.5 42.59C41.5 42.54 41.47 42.48 41.42 42.48C41.31 42.45 41.12 42.64 41.07 42.45C41.1 42.04 41.51 41.77 41.78 41.5C41.83 41.17 41.97 40.87 42.22 40.6C42.22 40.57 42.19 40.52 42.14 40.52C41.79 40.57 41.43 40.66 41.05 40.66C40.75 40.82 40.37 40.93 40.01 40.82C39.93 40.77 39.96 40.68 39.98 40.63C40.36 40.11 40.5 39.46 40.39 38.83C40.36 38.8 40.36 38.75 40.31 38.75C40.26 38.75 40.26 38.8 40.23 38.83C40.15 39.43 39.96 39.89 39.63 40.41C39.38 40.66 39 40.66 38.68 40.74C38.6 40.77 38.52 40.85 38.52 40.93C38.52 41.15 38.66 41.28 38.74 41.48L39.45 42.79C39.48 43.14 39.31 43.5 39.23 43.83C39.26 43.88 39.31 43.86 39.37 43.83C39.62 43.61 39.78 43.31 39.89 42.98C39.92 42.84 39.86 42.68 39.81 42.57L39.07 41.1C39.12 41.02 39.23 41.02 39.32 40.99C39.48 40.99 39.65 41.07 39.81 41.13C39.97 41.57 40.16 42.03 40.46 42.41C40.51 42.66 40.6 42.98 40.43 43.17C40.27 43.5 40.1 43.77 39.88 44.07C39.69 44.26 39.42 44.23 39.14 44.26H39.06C38.41 44.61 37.72 44.83 37.01 45.05C36.71 45.19 36.36 45.08 36.11 44.89C35.86 44.7 35.76 44.43 35.59 44.18C35.4 43.93 35.1 44.15 34.88 44.02C34.69 43.72 34.5 43.42 34.33 43.09C34.33 43.01 34.33 42.93 34.41 42.87C34.66 42.79 34.93 42.79 35.2 42.76C35.45 42.73 35.72 42.79 35.88 42.95C36.21 43.33 36.34 43.85 36.83 44.1C37.21 44.13 37.54 44.02 37.87 43.85C38.06 43.74 38.28 43.58 38.28 43.33C38.25 42.84 37.93 42.46 37.52 42.18C37.11 41.96 36.67 41.66 36.37 41.28C36.21 41.06 36.18 40.82 36.1 40.6C36.07 40.55 35.96 40.55 35.94 40.57C35.78 40.71 35.91 40.95 35.91 41.12C35.94 41.23 35.99 41.37 35.94 41.45C35.69 41.64 35.37 41.53 35.07 41.56C34.47 41.53 33.9 41.29 33.27 41.34C32.67 41.37 31.85 41.78 31.42 41.18C31.2 40.61 31.26 39.93 31.37 39.35C31.37 39.3 31.32 39.24 31.26 39.24C31.21 39.21 31.15 39.24 31.12 39.29C30.96 39.86 30.93 40.49 30.79 41.09C30.57 41.61 30.19 42.15 29.67 42.43C29.21 42.68 28.66 42.76 28.09 42.81C27.05 42.84 26.1 43.03 25.44 43.93C25.39 44.01 25.3 44.09 25.33 44.2C25.36 44.23 25.44 44.25 25.47 44.23C26.18 43.44 27.08 43.11 28.12 43.17C29.1 43.17 30.08 43.01 30.71 42.16C30.87 41.97 30.98 41.78 31.12 41.56C31.23 41.56 31.31 41.7 31.39 41.75C31.42 42.05 31.17 42.24 31.06 42.49C30.92 42.76 30.79 43.09 30.51 43.25C30.18 43.33 29.91 43.55 29.61 43.71C29.31 43.85 28.93 43.9 28.57 43.82C28.13 43.74 27.53 43.63 27.1 43.82C26.88 43.96 26.69 44.2 26.47 44.34C26.17 44.48 25.9 44.72 25.54 44.69C25.29 44.64 24.99 44.47 24.78 44.69C24.51 44.94 24.45 45.37 24.1 45.54C23.69 45.76 23.25 45.54 22.85 45.51C22.9 45.1 22.96 44.72 23.23 44.42C23.39 44.39 23.53 44.37 23.67 44.26C23.83 44.12 23.94 43.93 24.05 43.74C24.4 43.52 24.81 43.36 25.03 42.98C25.19 42.63 25.19 42.3 25.47 41.97L25.61 41.92L26.35 41.87C26.65 41.73 26.92 41.6 27.2 41.38C27.28 41.3 27.31 41.16 27.28 41.03C27.14 40.68 27.03 40.43 26.95 40.05C26.87 39.67 26.92 39.29 26.87 38.85C26.84 38.82 26.82 38.74 26.76 38.74C26.27 38.85 25.81 38.99 25.26 38.9C24.52 38.82 23.76 38.33 23.49 37.59C23.24 36.96 23.3 36.06 23.76 35.54C24.2 34.99 24.74 34.59 25.29 34.12C25.37 34.07 25.37 33.96 25.4 33.87C25.4 33.76 25.29 33.68 25.21 33.62C24.88 33.54 24.5 33.65 24.17 33.51C23.6 33.32 23.16 32.77 23.08 32.17C23.05 31.9 23.11 31.68 23.24 31.46C23.68 31.84 24 32.17 24.41 32.28M22.72 44.46V44.54C22.58 44.87 22.5 45.25 22.39 45.63C22.14 45.6 21.93 45.52 21.74 45.44C21.69 45.39 21.74 45.33 21.74 45.28C21.99 45.06 21.9 44.79 21.96 44.49C21.99 44.33 22.15 44.19 22.31 44.11C22.5 44.14 22.61 44.33 22.72 44.46ZM23.92 43.32C23.78 43.59 23.59 43.92 23.29 44.08C23.18 44.11 23.04 44.11 22.94 44.05C22.89 44 22.78 43.94 22.78 43.83C22.81 43.72 22.75 43.58 22.86 43.53C23.08 43.39 23.3 43.26 23.51 43.07C23.56 43.04 23.67 43.02 23.7 43.07C23.81 43.15 23.89 43.21 23.92 43.32ZM37.59 43.21C37.62 43.32 37.78 43.46 37.67 43.56C37.45 43.72 37.21 43.83 36.91 43.81C36.69 43.65 36.72 43.35 36.53 43.13C36.48 42.97 36.23 42.97 36.28 42.8L36.36 42.75C36.66 42.75 36.96 42.75 37.26 42.7C37.56 42.67 37.48 43.03 37.59 43.22M54.83 38.76C54.99 38.98 55.13 39.2 55.24 39.47C55.27 39.52 55.24 39.58 55.21 39.63C55.18 39.68 55.13 39.74 55.05 39.68C54.86 39.63 54.89 39.33 54.64 39.35C54.48 39.35 54.37 39.49 54.23 39.57C53.98 39.79 53.66 40.01 53.6 40.33C53.55 40.44 53.57 40.63 53.46 40.68C53.41 40.71 53.32 40.65 53.32 40.6C53.29 40.16 53.43 39.75 53.73 39.45C54.03 39.2 54.25 38.85 54.49 38.55C54.65 38.52 54.76 38.63 54.82 38.74M54.94 42.39C54.99 42.5 55.1 42.64 55.02 42.77C54.91 42.85 54.72 42.8 54.58 42.8C54.42 42.72 54.36 42.5 54.36 42.31C54.36 42.26 54.36 42.23 54.41 42.17C54.6 42.17 54.79 42.22 54.93 42.39M59.03 34.04C59.11 34.15 59.03 34.26 58.98 34.34C58.6 34.69 58.13 35.08 57.86 35.51C57.75 35.65 57.67 35.81 57.61 35.97C57.61 36 57.58 36 57.56 36C57.48 35.78 57.59 35.54 57.64 35.32C57.83 34.8 58.27 34.31 58.73 33.96C58.78 33.93 58.98 33.91 59.03 34.04ZM60.59 32.3C60.89 32.49 61 32.9 61.35 32.98C61.95 33.12 62.55 33.25 63.1 33.53C63.48 33.72 63.84 33.99 64.19 34.29C64.52 34.45 64.93 34.45 65.28 34.56C65.8 34.7 66.21 35.08 66.67 35.38C67.27 35.84 68.12 35.79 68.8 36.09C69.89 36.44 70.76 37.29 71.77 37.78C72.29 38.05 73.08 38.16 73.6 37.86C73.95 37.61 74.17 37.29 74.09 36.82C73.9 35.7 72.67 35.13 72.1 34.2C71.99 33.98 71.91 33.68 71.96 33.44C72.18 32.89 72.75 32.59 73.24 32.4C73.62 32.21 74.11 32.26 74.47 32.05C74.61 31.97 74.72 31.86 74.8 31.78C74.88 31.78 74.88 31.86 74.91 31.92C75.02 32.57 74.91 33.26 74.34 33.64C74.12 33.8 73.85 33.86 73.6 33.91C73.38 33.99 72.95 33.83 72.97 34.21C73.02 34.4 73.19 34.51 73.32 34.65C74.08 35.28 74.79 36.1 74.87 37.08C74.9 37.84 74.38 38.5 73.72 38.83C73.23 39.02 72.63 39.1 72.11 38.97C71.97 38.94 71.76 38.81 71.65 39C71.62 39.22 71.76 39.38 71.76 39.57C71.81 39.92 71.81 40.39 71.71 40.74C71.66 41.01 71.38 41.34 71.63 41.61C71.88 41.99 72.37 41.88 72.78 41.94C73 41.97 73.08 42.21 73.13 42.38C73.21 42.6 73.21 42.84 73.29 43.01C73.29 43.42 73.75 43.58 73.97 43.86C74.24 44.16 74.49 44.68 74.95 44.65C75.11 44.98 75.2 45.28 75.25 45.66L75.2 45.71C74.82 45.71 74.3 45.82 74.03 45.55C73.7 45.33 73.59 44.73 73.1 44.9C72.88 45.06 72.58 45.12 72.34 45.01C72.09 44.93 71.93 44.71 71.71 44.57C71.06 44.08 70.18 43.83 69.34 44.02C68.85 44.16 68.47 43.8 68.09 43.58C67.57 43.36 67.44 42.82 67.33 42.35L67.25 41.78C67.25 41.73 67.3 41.67 67.36 41.64H67.44C67.74 42.32 68.31 43.09 69.05 43.33C69.73 43.6 70.36 43.25 71.1 43.38C71.78 43.46 72.33 43.9 72.85 44.31C72.9 44.31 72.93 44.28 72.96 44.23V44.18C72.33 43.39 71.46 42.98 70.45 43.06C69.6 43.22 68.79 42.95 68.29 42.24C68.02 41.83 67.83 41.39 67.74 40.93C67.66 40.38 67.55 39.78 67.36 39.29C67.31 39.26 67.25 39.21 67.2 39.24L67.15 39.32C67.23 39.84 67.4 40.47 67.2 41.01C67.06 41.45 66.63 41.61 66.22 41.64C65.81 41.67 65.43 41.59 64.99 41.59C64.01 41.56 63.14 41.94 62.13 41.86C62.21 41.61 62.38 41.37 62.29 41.1C62.26 41.05 62.18 41.05 62.13 41.05C61.94 41.16 61.97 41.4 61.86 41.57C61.64 41.92 61.23 42.25 60.82 42.33C60.52 42.55 60.25 42.85 60 43.12C59.92 43.2 59.92 43.37 59.95 43.47C60.14 43.96 60.71 44.02 61.15 44.15C61.37 44.18 61.56 44.1 61.67 43.9C61.86 43.6 61.89 43.11 62.32 43.05H63.27C63.35 43.08 63.41 43.13 63.46 43.21L63.43 43.35C63.21 43.6 63.13 43.95 62.86 44.11C62.7 44.16 62.51 44.11 62.4 44.25C62.35 44.58 62.26 44.93 61.94 45.1C61.69 45.32 61.34 45.21 61.07 45.13C60.55 44.94 60.03 44.83 59.52 44.67C59.3 44.62 59.22 44.34 58.97 44.29C58.75 44.24 58.51 44.4 58.32 44.21C58.21 43.96 58.16 43.8 58.1 43.53C58.02 43.37 57.96 43.18 57.94 42.98C57.91 42.82 57.94 42.71 57.99 42.57L58.7 41.29C58.75 41.21 58.81 41.13 58.89 41.1C59.05 41.13 59.24 41.21 59.41 41.29L59.38 41.37L58.64 42.49C58.48 42.84 58.64 43.25 58.8 43.55C58.83 43.58 58.85 43.63 58.88 43.6C58.85 43.38 58.83 43.16 58.88 42.92C58.93 42.7 59.07 42.51 59.18 42.32L59.75 41.47C59.8 41.33 59.8 41.12 59.7 40.98C59.45 40.73 59.1 40.65 58.88 40.33C58.42 39.7 58.36 38.97 58.31 38.17C58.31 38.12 58.26 38.03 58.17 38.01C58.12 37.98 58.06 38.06 58.03 38.09C57.89 38.61 57.98 39.24 58.11 39.7C58.19 40.05 58.36 40.41 58.52 40.74C58.55 40.79 58.49 40.88 58.44 40.9C58.06 40.93 57.68 40.9 57.32 40.85C56.83 40.77 56.47 40.39 56.07 40.09C56.02 40.06 55.99 40.12 55.96 40.14C56.07 40.69 56.67 41.01 56.86 41.5C56.97 41.91 57.38 42.21 57.46 42.65C57.46 42.7 57.41 42.79 57.35 42.81C57.21 42.84 57.08 42.76 56.94 42.84C56.91 43.09 57.08 43.33 56.97 43.55C56.83 43.77 56.64 44.01 56.4 44.01C55.91 43.85 55.42 43.63 54.93 43.49C54.58 43.46 54.22 43.52 53.89 43.54C53.56 43.49 53.34 43.19 53.1 43.02C53.02 42.99 52.94 42.99 52.88 43.05C52.33 43.6 51.73 44.2 50.92 44.17C50.87 44.17 50.84 44.12 50.84 44.06V44.01C51.19 43.68 51.63 43.36 51.79 42.89C51.9 42.51 52.23 42.24 52.36 41.88C52.39 41.83 52.33 41.8 52.28 41.77L52.2 41.82C51.79 42.23 51.49 42.69 51.19 43.13C50.89 43.43 50.45 43.62 49.99 43.51C49.94 43.48 49.94 43.4 49.96 43.35C51.65 42.31 51.84 40.46 52.31 38.77C52.64 37.65 52.88 36.51 53.76 35.61C55.07 34.16 56.71 33.32 58.15 32.06C58.37 31.87 58.59 31.68 58.86 31.68C59.57 31.63 60.11 31.9 60.61 32.31M76.16 44.36C76.3 44.55 76.24 44.85 76.3 45.07C76.33 45.23 76.55 45.37 76.44 45.53L75.84 45.72C75.73 45.72 75.79 45.58 75.73 45.53C75.68 45.18 75.59 44.93 75.48 44.6C75.45 44.41 75.64 44.27 75.78 44.16C75.92 44.11 76.03 44.27 76.16 44.35M74.77 43.13C74.99 43.32 75.29 43.46 75.45 43.7C75.48 43.81 75.4 43.92 75.34 44C75.26 44.08 75.15 44.14 75.01 44.14C74.87 44.14 74.76 44.06 74.68 43.95C74.54 43.73 74.35 43.54 74.3 43.32C74.38 43.18 74.57 42.97 74.76 43.13M61.62 42.91C61.59 43.18 61.51 43.43 61.4 43.67C61.32 43.83 61.07 43.78 60.91 43.75C60.75 43.7 60.47 43.67 60.45 43.42C60.42 43.2 60.53 42.98 60.64 42.82C60.89 42.79 61.19 42.85 61.43 42.79C61.54 42.79 61.62 42.82 61.62 42.9" fill="white"/>
<path d="M5.46 59.9H9.25V59.11H6.33V56.44H9.14V55.65H6.33V53.69H9.25V52.9H5.46V59.91V59.9ZM12.96 59.9H13.83V54.66L19.12 60.2V52.89H18.25V58.07L12.96 52.53V59.9ZM22.89 59.9H26.65V59.11H23.76V56.44H26.57V55.65H23.76V53.69H26.65V52.9H22.89V59.91V59.9ZM32.38 56.85C33.39 56.74 34.07 55.9 34.07 54.89C34.07 54.21 33.74 53.55 33.14 53.2C32.59 52.87 31.91 52.87 31.29 52.87H30.23V59.91H31.1V56.94H31.45L33.52 59.91H34.58L32.37 56.85H32.38ZM31.1 53.66H31.35C32.22 53.66 33.26 53.82 33.26 54.91C33.26 56 32.28 56.19 31.41 56.19H31.14V53.65H31.11L31.1 53.66ZM40.89 56.36V57.15H42.72C42.69 58.3 41.52 59.22 40.43 59.22C38.9 59.22 37.7 57.83 37.7 56.36C37.7 54.78 38.93 53.5 40.51 53.5C41.38 53.5 42.23 53.96 42.72 54.65L43.35 54.05C42.67 53.18 41.58 52.69 40.49 52.69C38.47 52.69 36.83 54.35 36.83 56.37C36.83 58.39 38.41 60.03 40.38 60.03C42.35 60.03 43.71 58.56 43.71 56.62V56.35H40.9V56.38L40.89 56.36ZM48.5 56.85V59.91H49.37V56.85L51.66 52.89H50.65L48.93 55.89L47.18 52.89H46.17L48.49 56.85H48.5ZM59.12 59.9C61.33 59.9 63.1 58.75 63.1 56.35C63.1 53.95 61.3 52.86 59.14 52.86H57.69V59.9H59.12ZM58.57 53.69H58.87C60.67 53.69 62.2 54.34 62.2 56.42C62.2 58.5 60.65 59.12 58.87 59.12H58.57V53.69ZM68.58 56.85C69.59 56.74 70.27 55.9 70.27 54.89C70.27 54.21 69.94 53.55 69.34 53.2C68.79 52.87 68.11 52.87 67.49 52.87H66.43V59.91H67.3V56.94H67.65L69.72 59.91H70.78L68.57 56.85H68.58ZM67.3 53.66H67.55C68.42 53.66 69.46 53.82 69.46 54.91C69.46 56 68.48 56.19 67.61 56.19H67.34V53.65H67.31L67.3 53.66ZM73.54 52.89H74.41V59.93H73.54V52.89ZM77.94 59.9H78.81V54.66L84.07 60.2V52.89H83.2V58.07L77.94 52.53V59.9ZM88.49 55.92V52.89H87.62V59.9H88.49V56.98L88.84 56.63L91.49 59.9H92.66L89.44 56.03L92.6 52.89H91.45L88.48 55.92H88.49ZM101.67 0.3C102.16 0.3 102.57 0.46 102.9 0.82C103.23 1.15 103.42 1.58 103.42 2.05C103.42 2.54 103.26 2.95 102.9 3.28C102.57 3.63 102.14 3.8 101.67 3.8C101.18 3.8 100.77 3.64 100.42 3.28C100.09 2.95 99.9 2.52 99.9 2.05C99.9 1.56 100.06 1.15 100.42 0.82C100.78 0.49 101.18 0.3 101.67 0.3ZM103.71 2.05C103.71 1.5 103.52 1.01 103.11 0.6C102.7 0.22 102.24 0 101.66 0C101.08 0 100.62 0.19 100.21 0.6C99.8 1.01 99.61 1.47 99.61 2.05C99.61 2.63 99.8 3.09 100.21 3.5C100.62 3.91 101.08 4.1 101.66 4.1C102.24 4.1 102.7 3.91 103.11 3.5C103.49 3.12 103.71 2.63 103.71 2.05ZM102.21 1.61C102.21 1.77 102.13 1.91 101.96 1.96C101.88 1.99 101.74 2.01 101.58 2.01H101.23V1.19H101.56C101.78 1.19 101.94 1.22 102.05 1.27C102.16 1.35 102.21 1.43 102.21 1.6M100.85 0.93V3.17H101.23V2.3H101.53C101.75 2.3 101.88 2.33 101.97 2.38C102.11 2.46 102.19 2.63 102.19 2.9V3.17H102.57L102.54 3.14C102.54 3.14 102.51 3.09 102.51 3.03V2.7C102.51 2.59 102.46 2.48 102.4 2.35C102.32 2.24 102.18 2.16 102.02 2.13C102.16 2.1 102.27 2.08 102.35 2.02C102.49 1.94 102.57 1.77 102.57 1.58C102.57 1.31 102.46 1.12 102.22 1.01C102.08 0.96 101.89 0.93 101.59 0.93H100.85Z" fill="white"/>
</svg>
