<svg width="97" height="46" viewBox="0 0 97 46" fill="none" xmlns="http://www.w3.org/2000/svg">
<path d="M66.41 15.21H67.47L66.94 13.92L66.41 15.21Z" fill="white"/>
<path d="M87.12 29.48C86.61 29.48 86.2 29.89 86.2 30.4C86.2 30.91 86.61 31.32 87.12 31.32C87.63 31.32 88.04 30.91 88.04 30.4C88.04 29.89 87.63 29.48 87.12 29.48ZM87.33 30.87L87.13 30.57H86.97V30.87H86.76V29.93H87.19C87.31 29.93 87.4 29.96 87.46 30.03C87.51 30.08 87.54 30.16 87.54 30.25C87.54 30.4 87.46 30.5 87.34 30.54L87.57 30.88H87.33V30.87Z" fill="white"/>
<path d="M87.17 30.12H86.96V30.39H87.17C87.27 30.39 87.33 30.34 87.33 30.26C87.33 30.17 87.27 30.12 87.17 30.12Z" fill="white"/>
<path d="M90.12 0H50.27V45.87H96.14V6.02C96.14 2.69 93.44 0 90.12 0ZM57.47 12.89V13.7H56.25V16.89H55.37V13.7H54.15V12.89H57.47ZM59.72 33.01H57.95V28.17H55.92V33.01H54.15V22.05C54.15 20.54 54.86 19.78 56.27 19.78H57.6C59.01 19.78 59.72 20.53 59.72 22.05V33.01ZM59.75 12.89H62.77V13.67H60.63V14.48H62.52V15.26H60.63V16.1H62.8V16.88H59.76V12.88L59.75 12.89ZM68.47 33.01H66.7L66.88 24.35L65.55 30.61H64.19L62.86 24.35L63.04 33.01H61.27V19.79H63.22L64.86 27.56L66.5 19.79H68.45V33.01H68.47ZM68.15 16.89L67.78 15.99H66.09L65.72 16.89H64.82L66.53 12.86H67.34L69.05 16.89H68.13H68.15ZM75.28 23.34H73.51V22.18C73.51 21.65 73.25 21.39 72.74 21.39H72.46C71.96 21.39 71.71 21.65 71.71 22.18V24.37C71.71 24.62 71.76 24.78 71.86 24.87C71.96 24.96 72.12 25.07 72.34 25.2L74.02 26.1C74.39 26.31 74.65 26.47 74.8 26.59C74.95 26.71 75.07 26.85 75.16 27.01C75.25 27.18 75.29 27.49 75.29 27.96V30.78C75.29 32.27 74.58 33.01 73.15 33.01H72.06C70.65 33.01 69.94 32.2 69.94 30.58V29.92H71.71V30.64C71.71 31.16 71.97 31.41 72.5 31.41H72.81C73.28 31.41 73.51 31.15 73.51 30.64V28.39C73.51 28.14 73.46 27.98 73.36 27.89C73.26 27.8 73.1 27.69 72.88 27.56L71.2 26.62C70.83 26.42 70.56 26.26 70.4 26.12C70.23 25.99 70.11 25.81 70.04 25.6C69.97 25.39 69.93 25.11 69.93 24.76V22.05C69.93 20.54 70.64 19.78 72.05 19.78H73.16C74.57 19.78 75.28 20.53 75.28 22.05V23.34ZM74.41 16.89V14.28L73.28 15.99H73.26L72.15 14.3V16.89H71.29V12.89H72.24L73.29 14.58L74.34 12.89H75.29V16.89H74.41ZM87.12 31.52C86.5 31.52 86 31.02 86 30.4C86 29.78 86.5 29.28 87.12 29.28C87.74 29.28 88.24 29.78 88.24 30.4C88.24 31.02 87.74 31.52 87.12 31.52ZM87.36 17.74C88.5 18.36 89.27 19.57 89.27 20.96C89.27 21.69 89.05 22.38 88.68 22.95C81.54 34.52 79.47 36.56 79.47 36.56V36.53L77.53 36.56L79.47 33.82V10.79L75.62 9.32H82.69C84.97 9.32 86.82 11.18 86.82 13.47C86.82 13.52 86.82 13.56 86.82 13.61L93.02 15.98H85.98C85.68 16.38 85.3 16.73 84.87 17C85.78 17.02 86.63 17.29 87.35 17.74H87.36Z" fill="white"/>
<path d="M84.38 12.39C84.02 12.39 83.73 12.68 83.73 13.04C83.73 13.4 84.02 13.69 84.38 13.69C84.74 13.69 85.03 13.4 85.03 13.04C85.03 12.68 84.74 12.39 84.38 12.39Z" fill="white"/>
<path d="M56.7 21.39C56.18 21.39 55.93 21.65 55.93 22.16V26.56H57.96V22.16C57.96 21.64 57.7 21.39 57.19 21.39H56.7Z" fill="white"/>
<path d="M42.89 0H42.42V45.87H42.89V0Z" fill="white"/>
<path fill-rule="evenodd" clip-rule="evenodd" d="M13.2 11.77L17.02 0C9.46 0 3.06 4.94 0.84 11.77H13.2Z" fill="white"/>
<path fill-rule="evenodd" clip-rule="evenodd" d="M10.84 19.04L0.84 11.77C0.3 13.43 0 15.19 0 17.03C0 22.69 2.77 27.69 7.02 30.79L10.84 19.05V19.04Z" fill="white"/>
<path fill-rule="evenodd" clip-rule="evenodd" d="M20.85 11.77H33.21C30.99 4.94 24.59 0 17.03 0L20.85 11.76V11.77Z" fill="white"/>
<path fill-rule="evenodd" clip-rule="evenodd" d="M33.21 11.77L23.21 19.04L27.03 30.78C31.28 27.68 34.05 22.68 34.05 17.03C34.05 15.19 33.75 13.43 33.21 11.77Z" fill="white"/>
<path fill-rule="evenodd" clip-rule="evenodd" d="M18.98 24.95V17.03H22.17V13.78H11.89V17.03H15.08V24.95L7.04 30.79C9.85 32.83 13.29 34.05 17.03 34.05C20.77 34.05 24.21 32.83 27.02 30.79L18.98 24.95Z" fill="white"/>
<path d="M0.07 39.8H5.45V41.35H3.72V45.72H1.8V41.35H0.07V39.8Z" fill="white"/>
<path d="M5.76 45.72V39.8H10.55V41.18H7.68V42.03H10.11V43.41H7.68V44.34H10.66V45.72H5.76Z" fill="white"/>
<path d="M12.76 45.72H10.6L12.68 42.64L10.81 39.8H12.97L13.8 41.31L14.64 39.8H16.8L14.82 42.64L16.82 45.72H14.66L13.71 44.06L12.76 45.72Z" fill="white"/>
<path d="M19.77 43.71H18.55L19.15 41.58L19.77 43.71ZM17.96 45.72L18.18 44.94H20.1L20.33 45.72H22.25L20.14 39.8H18.18L16.07 45.72H17.96Z" fill="white"/>
<path d="M25.84 42.06C25.78 41.44 25.4 41.09 24.8 41.09C24.12 41.09 23.71 41.67 23.71 42.81C23.71 43.64 23.89 44.42 24.87 44.42C25.49 44.42 25.78 43.99 25.86 43.42H27.71C27.54 44.95 26.45 45.87 24.9 45.87C22.96 45.87 21.78 44.67 21.78 42.75C21.78 40.83 23.07 39.64 24.71 39.64C26.51 39.64 27.51 40.54 27.66 42.06H25.83H25.84Z" fill="white"/>
<path d="M30.92 41.09C31.77 41.07 32.09 41.92 32.09 42.72C32.09 43.7 31.76 44.42 30.93 44.42C30.01 44.42 29.78 43.48 29.78 42.72C29.78 41.96 30.04 41.09 30.91 41.09M30.94 39.64C29.11 39.64 27.86 40.85 27.86 42.7C27.86 44.71 29.09 45.86 30.94 45.86C32.68 45.86 34.02 44.73 34.02 42.71C34.02 41.15 33.03 39.63 30.94 39.63" fill="white"/>
</svg>
