<svg width="111" height="29" viewBox="0 0 111 29" fill="none" xmlns="http://www.w3.org/2000/svg">
<path d="M106.47 4.12V1.16H107.51C107.77 1.16 108.17 1.19 108.28 1.24C108.39 1.29 108.49 1.39 108.56 1.52C108.63 1.65 108.67 1.81 108.67 1.99C108.67 2.22 108.63 2.42 108.5 2.55C108.25 2.8 108.04 2.82 107.82 2.82C107.95 2.82 108.01 2.98 108.08 3.07C108.15 3.16 108.24 3.32 108.36 3.55L108.65 4.13H108.06L107.71 3.48C107.58 3.25 107.49 3.1 107.45 3.04C107.4 2.98 107.35 2.94 107.3 2.92C107.25 2.9 107.17 2.89 107.05 2.89H106.95V4.13H106.46L106.47 4.12ZM106.96 2.41H107.32C107.54 2.41 107.89 2.41 107.95 2.38C108.01 2.36 108.06 2.32 108.1 2.26C108.14 2.2 108.16 2.12 108.16 2.02C108.16 1.92 108.14 1.85 108.1 1.79C108.06 1.73 108.01 1.69 107.94 1.67C107.89 1.65 107.56 1.65 107.34 1.65H106.96V2.41Z" fill="white"/>
<path d="M107.52 0C106.05 0 104.86 1.19 104.86 2.66C104.86 4.13 106.05 5.32 107.52 5.32C108.99 5.32 110.18 4.13 110.18 2.66C110.18 1.19 108.99 0 107.52 0ZM107.52 4.68C106.44 4.68 105.57 3.78 105.57 2.66C105.57 1.54 106.44 0.64 107.52 0.64C108.6 0.64 109.47 1.54 109.47 2.66C109.47 3.77 108.6 4.68 107.52 4.68Z" fill="white"/>
<path d="M33.76 11.33H30.9V2.87H21.37V27.85H30.9V19.39H33.76V27.85H43.28V2.87H33.76V11.33Z" fill="white"/>
<path d="M0 10.93H4.98V27.85H14.51V10.93H19.49V2.87H0V10.93Z" fill="white"/>
<path d="M89.19 22.6H88.56L88.05 25H88.69C89.54 25 90.02 24.33 90.02 23.52C90.02 22.98 89.79 22.6 89.19 22.6Z" fill="white"/>
<path d="M102.26 9.55V2.87H85.71V19.8H80.32V2.87H70.79V27.85H102.26V19.8H95.24V16.91H100.76V12.18H95.24V9.55H102.26ZM77.18 23.47C77.78 23.63 78.2 23.85 78.2 24.54C78.2 25.45 77.38 25.8 76.65 25.8C75.6 25.8 75.07 25.36 75.07 24.45H75.86C75.83 24.99 76.2 25.15 76.68 25.15C77.02 25.15 77.41 24.99 77.41 24.61C77.41 24.23 76.92 24.16 76.45 24.02C75.97 23.87 75.49 23.65 75.49 23C75.49 22.15 76.26 21.82 77 21.82C77.78 21.82 78.43 22.17 78.43 23.05H77.64C77.66 22.62 77.35 22.48 76.96 22.48C76.64 22.48 76.29 22.6 76.29 22.96C76.29 23.34 76.93 23.44 77.19 23.5L77.18 23.47ZM81.27 25.71L81.17 22.99H81.16L79.98 25.71H79.14L78.88 21.91H79.72L79.77 24.7H79.78L80.98 21.91H81.78L81.88 24.69L83.04 21.91H83.88L82.1 25.71H81.27ZM86.6 24.07H84.69L84.49 25H86.59L86.44 25.7H83.5L84.3 21.9H87.2L87.06 22.6H84.99L84.82 23.42H86.73L86.6 24.07ZM88.65 25.71H87.06L87.86 21.91H89.23C90.29 21.91 90.85 22.46 90.85 23.39C90.85 24.72 90.12 25.71 88.65 25.71ZM94.11 24.07H92.2L92 25H94.1L93.95 25.7H91.01L91.81 21.9H94.71L94.57 22.6H92.5L92.33 23.42H94.24L94.11 24.07ZM96.23 21.9L97.26 24.61L97.8 21.9H98.57L97.77 25.7H96.93L95.88 23.03L95.34 25.7H94.56L95.36 21.9H96.23Z" fill="white"/>
<path d="M58.58 18.61C58.58 19.42 57.92 20 57.11 20C56.3 20 55.64 19.43 55.64 18.61V2.75L46.11 2.88V19.41C46.11 24.54 50.6 28.78 57.11 28.78C63.62 28.78 68.11 24.54 68.11 19.41V2.87L58.58 2.74V18.61Z" fill="white"/>
</svg>
