<svg width="106" height="50" viewBox="0 0 106 50" fill="none" xmlns="http://www.w3.org/2000/svg">
<path fill-rule="evenodd" clip-rule="evenodd" d="M102.08 23.81L83.5202 19.57C83.1002 19.47 82.2802 19.1 81.9302 18.84L57.5202 0.82C56.8102 0.29 55.9002 0 54.9702 0C53.9502 0 52.9702 0.34 52.2202 0.96L46.5702 5.62L44.7302 4.32C44.0302 3.82 43.1502 3.55 42.2402 3.55C41.2002 3.55 40.2002 3.9 39.4402 4.54L22.3702 18.86C22.0602 19.12 21.3002 19.5 20.9102 19.6L4.12023 23.79C1.76023 24.19 -0.00976562 26.25 -0.00976562 28.66C-0.00976562 28.76 -0.00976562 31.12 0.620234 36.11C0.940234 38.65 1.89023 43.54 1.93023 43.74C2.41023 46.22 4.68023 48.16 7.21023 48.25C7.55023 48.26 41.0802 49.45 53.0402 49.45C65.0002 49.45 98.4902 48.26 98.8202 48.25C101.34 48.16 103.61 46.22 104.1 43.75C104.14 43.54 105.1 38.65 105.41 36.1C105.7 33.65 105.91 28.96 105.92 28.77C106.03 26.4 104.38 24.29 102.07 23.82L102.08 23.81ZM103.63 35.88C103.33 38.36 102.39 43.19 102.34 43.39C102.02 45.04 100.45 46.38 98.7602 46.44C98.4202 46.45 64.9502 47.64 53.0402 47.64C41.1102 47.64 7.61023 46.45 7.27023 46.44C5.59023 46.38 4.02023 45.04 3.70023 43.39C3.66023 43.19 2.72023 38.36 2.41023 35.88C1.80023 31 1.80023 28.74 1.80023 28.65C1.80023 27.1 2.95023 25.77 4.48023 25.54L21.3502 21.33C22.0002 21.17 23.0202 20.65 23.5302 20.22L40.6002 5.9C41.0402 5.53 41.6202 5.33 42.2402 5.33C42.7702 5.33 43.2902 5.49 43.6902 5.77L45.9402 7.36C46.1102 7.48 46.3502 7.55 46.6002 7.55C46.8902 7.55 47.1702 7.46 47.3502 7.31L53.3702 2.34C53.8002 1.99 54.3702 1.79 54.9702 1.79C55.5202 1.79 56.0402 1.95 56.4502 2.25L80.8602 20.27C81.4102 20.68 82.4502 21.15 83.1202 21.31L101.65 25.55C101.65 25.55 101.7 25.56 101.72 25.57C103.16 25.87 104.19 27.19 104.12 28.67C104.12 28.87 103.9 33.49 103.62 35.87L103.63 35.88Z" fill="white"/>
<path fill-rule="evenodd" clip-rule="evenodd" d="M59.1702 19.63L59.2502 17.71L56.3302 18.71L59.1702 19.63Z" fill="white"/>
<path fill-rule="evenodd" clip-rule="evenodd" d="M57.2202 17.53L59.2502 17.71L58.0002 16.51L56.1802 14.78L53.3102 17L56.3302 18.71L57.2202 17.53Z" fill="white"/>
<path fill-rule="evenodd" clip-rule="evenodd" d="M62.0502 16.97L61.8202 14.16L59.6302 16.37L62.3602 20.65L62.0502 16.97Z" fill="white"/>
<path fill-rule="evenodd" clip-rule="evenodd" d="M64.4202 19.08L66.2402 17.66L61.8302 14.16L62.0702 16.97L64.4202 19.08Z" fill="white"/>
<path fill-rule="evenodd" clip-rule="evenodd" d="M58.0002 16.51L59.2502 17.7L62.3702 20.68L59.6202 16.37L56.8102 11.97L58.3002 14.3L59.6202 16.37L60.3202 15.66L61.8102 14.16L60.6102 13.63L59.5102 13.15L61.8102 14.16L59.7502 12.53L54.5302 8.39L54.2602 12.96L57.9902 16.51H58.0002Z" fill="white"/>
<path fill-rule="evenodd" clip-rule="evenodd" d="M69.9802 20.44L67.2102 19.27L69.5702 20.9L69.9802 20.44Z" fill="white"/>
<path fill-rule="evenodd" clip-rule="evenodd" d="M63.0502 24.2L62.3802 20.68L56.8402 19.15L63.0502 24.2Z" fill="white"/>
<path fill-rule="evenodd" clip-rule="evenodd" d="M37.9402 18.72L36.1002 20.82L42.1302 18.37L42.6102 12.19L37.9402 18.72Z" fill="white"/>
<path fill-rule="evenodd" clip-rule="evenodd" d="M37.9402 18.72L34.9902 19.16L36.0802 20.83L37.9402 18.72Z" fill="white"/>
<path fill-rule="evenodd" clip-rule="evenodd" d="M30.0902 23.17L28.6902 23.38L29.1602 24.27L30.0902 23.17Z" fill="white"/>
<path fill-rule="evenodd" clip-rule="evenodd" d="M42.6202 12.16L42.1302 18.37L47.0302 14.9L44.9102 13.59L42.6202 12.16Z" fill="white"/>
<path fill-rule="evenodd" clip-rule="evenodd" d="M36.7002 23.56L40.4502 25.79L39.6802 23.47L41.3802 22.97L40.4502 25.79L43.4702 23.58L41.5502 20.92L39.2502 22.17L36.7002 23.56Z" fill="white"/>
<path fill-rule="evenodd" clip-rule="evenodd" d="M46.6802 21.2L47.1202 17.9L44.9002 20.09L46.6802 21.2Z" fill="white"/>
<path fill-rule="evenodd" clip-rule="evenodd" d="M47.0302 14.9L44.8902 20.08L47.1202 17.9L47.0202 14.94L47.0302 14.9Z" fill="white"/>
<path fill-rule="evenodd" clip-rule="evenodd" d="M49.9202 19.14L50.0102 19.08L53.3002 16.99L54.2602 12.96L54.5302 8.38L47.0202 14.9L49.9502 15.12V16.87H49.9402V15.12L47.0302 14.9L47.1202 17.89L49.9002 19.12V19.14L47.1202 17.89L46.6902 21.2L49.9202 19.14Z" fill="white"/>
<path fill-rule="evenodd" clip-rule="evenodd" d="M37.0902 25.37L41.5102 26.57L41.5502 26.48L36.6702 23.59L37.0902 25.37Z" fill="white"/>
<path fill-rule="evenodd" clip-rule="evenodd" d="M47.5402 26.18L47.2102 27.31L49.6702 28.25L49.0402 26.5L47.5402 26.18Z" fill="white"/>
<path fill-rule="evenodd" clip-rule="evenodd" d="M45.0902 22.92L41.0002 25.79L42.9402 26.36L45.0902 22.92Z" fill="white"/>
<path fill-rule="evenodd" clip-rule="evenodd" d="M42.9502 26.37L45.9002 27.25L45.1002 22.91L42.9502 26.37Z" fill="white"/>
<path fill-rule="evenodd" clip-rule="evenodd" d="M42.4002 27.25H45.9002L42.9702 26.38L42.4002 27.25Z" fill="white"/>
<path fill-rule="evenodd" clip-rule="evenodd" d="M59.8902 25.34L59.3302 27.55L61.8002 27.91L61.1102 26.36L59.8902 25.34Z" fill="white"/>
<path fill-rule="evenodd" clip-rule="evenodd" d="M47.7102 21.41L47.3702 22.87L50.1102 23.17L49.7102 21.21L47.7102 21.41Z" fill="white"/>
<path fill-rule="evenodd" clip-rule="evenodd" d="M55.4402 21.04L56.8702 22.77L59.0502 23.23L56.2402 18.99L55.4402 21.04Z" fill="white"/>
<path fill-rule="evenodd" clip-rule="evenodd" d="M63.0502 24.2L65.3702 24.28L66.2202 24.4L65.2602 21.78L65.9202 20.83L65.7902 19.79L66.9402 19.15L66.2102 17.7L62.3802 20.68L64.3002 22.54L63.0502 24.2Z" fill="white"/>
<path fill-rule="evenodd" clip-rule="evenodd" d="M54.9202 21.1L50.1702 21.23L50.8502 23.27L56.3302 22.84L54.9202 21.1Z" fill="white"/>
<path fill-rule="evenodd" clip-rule="evenodd" d="M34.0102 26.85L33.6002 28L35.2002 27.39L34.9802 26.65L34.0102 26.85Z" fill="white"/>
<path fill-rule="evenodd" clip-rule="evenodd" d="M36.1302 26.67L35.9702 27.36H38.2402L37.7302 26.9L36.1302 26.67Z" fill="white"/>
<path fill-rule="evenodd" clip-rule="evenodd" d="M26.0502 27.77L27.6002 27.55L26.9102 25.48L26.0502 27.77Z" fill="white"/>
<path fill-rule="evenodd" clip-rule="evenodd" d="M34.8702 23.66L33.5902 23.54L33.3302 24.81L35.0802 24.62L34.8702 23.66Z" fill="white"/>
<path fill-rule="evenodd" clip-rule="evenodd" d="M30.3302 23.47L29.4202 24.59L32.9102 24.87L33.3402 23.55L30.3302 23.47Z" fill="white"/>
<path fill-rule="evenodd" clip-rule="evenodd" d="M61.1402 26.05L61.7402 25.23L58.5302 21.82L60.7302 25.8L61.1402 26.05Z" fill="white"/>
<path fill-rule="evenodd" clip-rule="evenodd" d="M58.5102 21.79L61.7502 25.21L63.0802 24.65L58.4202 21.62L58.5102 21.79Z" fill="white"/>
<path fill-rule="evenodd" clip-rule="evenodd" d="M66.1202 20.27L66.8802 20.9L67.5602 20.52V20.19L66.9202 20.4L66.1202 20.27Z" fill="white"/>
<path fill-rule="evenodd" clip-rule="evenodd" d="M68.8202 22.59L68.0302 20.64L67.1502 21.17L67.5202 21.99L68.8502 22.68L69.5002 22.84L70.1102 22.86L70.3202 23.59L72.3302 23.15L71.3702 22.5L67.8402 20.11L68.8202 22.59Z" fill="white"/>
<path fill-rule="evenodd" clip-rule="evenodd" d="M78.3402 23.89L79.6202 26.99L81.4202 27.07L78.3402 23.89Z" fill="white"/>
<path fill-rule="evenodd" clip-rule="evenodd" d="M73.2002 26.45L74.1902 25.12L77.8702 23.86L74.0102 23.2L71.6302 20.94L71.4002 22.5L74.0002 23.2V23.23L73.2002 26.45Z" fill="white"/>
<path fill-rule="evenodd" clip-rule="evenodd" d="M74.9502 26.8L74.1902 25.12L73.2002 26.45L72.3902 27.54L74.9502 26.8Z" fill="white"/>
<path fill-rule="evenodd" clip-rule="evenodd" d="M23.1802 28.11L25.6702 27.92L26.6902 25.25L23.1802 28.11Z" fill="white"/>
<path fill-rule="evenodd" clip-rule="evenodd" d="M53.3202 17L52.9102 20.74L55.2702 20.92L53.3202 17Z" fill="white"/>
<path fill-rule="evenodd" clip-rule="evenodd" d="M71.0102 21.96L71.3402 20.9L69.6702 20.98L71.0102 21.96Z" fill="white"/>
<path fill-rule="evenodd" clip-rule="evenodd" d="M42.6102 12.17L35.0002 19.15L37.9402 18.72L42.6102 12.17Z" fill="white"/>
<path fill-rule="evenodd" clip-rule="evenodd" d="M34.9902 19.16L34.9102 19.25L30.2502 23.19L34.9402 23.2L36.7002 23.56L41.5502 20.92L44.9502 22.49L42.1302 18.37L36.0702 20.83L34.9902 19.16Z" fill="white"/>
<path fill-rule="evenodd" clip-rule="evenodd" d="M26.6802 24.87L28.6902 24.64L28.0802 23.58L26.6802 24.87Z" fill="white"/>
<path fill-rule="evenodd" clip-rule="evenodd" d="M44.8802 20.08L47.0302 14.9L42.1302 18.37L44.8802 20.08Z" fill="white"/>
<path fill-rule="evenodd" clip-rule="evenodd" d="M49.7702 20.98L52.9102 20.74L53.3102 17L46.6902 21.21L49.7702 20.98Z" fill="white"/>
<path fill-rule="evenodd" clip-rule="evenodd" d="M41.0002 25.79L42.3902 27.25L42.9702 26.37L41.0002 25.79Z" fill="white"/>
<path fill-rule="evenodd" clip-rule="evenodd" d="M54.2202 26.8L52.9302 26.69L51.6502 28.45L57.2502 27.89L56.7302 26.58L54.2202 26.8Z" fill="white"/>
<path fill-rule="evenodd" clip-rule="evenodd" d="M30.7902 27.04L29.1902 26.9L28.8502 27.76L32.4302 28.12L31.6002 26.97L30.7902 27.04Z" fill="white"/>
<path fill-rule="evenodd" clip-rule="evenodd" d="M66.3002 26.27L65.1902 24.95L63.1702 24.67L64.9302 26.31L66.3002 26.27Z" fill="white"/>
<path fill-rule="evenodd" clip-rule="evenodd" d="M68.2902 22.94L67.2102 22.61L67.7102 23.53L68.7602 23.62L68.2902 22.94Z" fill="white"/>
<path fill-rule="evenodd" clip-rule="evenodd" d="M73.7802 24.12L74.0002 23.2L71.3702 22.5L72.7902 23.45L70.7102 24.29L70.7902 24.53L71.7302 24.45L73.5102 25.2L73.7802 24.12Z" fill="white"/>
<path fill-rule="evenodd" clip-rule="evenodd" d="M74.9502 26.8L79.1102 26.99L77.8302 23.9L74.9502 26.8Z" fill="white"/>
<path fill-rule="evenodd" clip-rule="evenodd" d="M70.0802 26.92L69.4102 25.03L68.6402 26.58L65.2502 27L64.6702 28.14L71.2102 27.68L71.2302 27.58L70.5502 27.33L70.0802 26.92Z" fill="white"/>
<path fill-rule="evenodd" clip-rule="evenodd" d="M39.6802 23.47L40.4502 25.79L41.3702 22.98L39.6802 23.47Z" fill="white"/>
<path fill-rule="evenodd" clip-rule="evenodd" d="M42.6502 40.31C39.1702 40.31 37.4702 38.49 37.4702 38.49L39.1002 37.24C40.0802 38.36 42.1002 38.74 42.6902 38.76C42.7602 38.76 42.8302 38.76 42.9002 38.76C43.5002 38.76 44.2802 38.68 44.2802 38.41C44.2802 38.1 44.0902 37.84 41.7402 37.12C38.8502 36.24 37.6802 35.35 37.7002 34.37C37.7202 33.39 38.3102 32.42 41.1402 32.16C41.3002 32.15 41.4502 32.14 41.6002 32.14H41.7602C44.5202 32.18 46.1802 34.16 46.1802 34.16L44.0602 35.01C43.4302 34.19 42.2802 33.89 41.4102 33.89C41.2102 33.89 41.0202 33.91 40.8502 33.94C39.9802 34.1 40.1402 34.71 42.0602 35.31C43.9802 35.9 44.9502 36.17 46.0202 37.02C46.7702 37.62 47.4502 39.98 43.4302 40.29C43.1602 40.31 42.8902 40.32 42.6402 40.32" fill="white"/>
<path d="M21.5802 38.34C20.6102 37.47 19.4902 37.05 19.4902 37.05C19.4902 37.05 19.6002 37.05 19.7702 37.02L18.3102 36.43C18.0802 36.47 17.8302 36.48 17.5902 36.48C17.1502 36.48 16.7702 36.44 16.7702 36.44C16.7702 36.21 16.7402 36 16.7102 35.79L14.3402 34.84C15.0602 36.41 15.1202 37.61 14.9202 40.13L16.8502 40.3L16.9602 37.63C19.2902 37.95 20.8702 40.27 20.8702 40.27L20.9902 40.09L22.4802 41.16C22.4802 41.16 23.1202 40.01 23.8402 38.65L21.8602 37.85C21.7702 38.02 21.6802 38.18 21.5902 38.34H21.5802Z" fill="white"/>
<path d="M27.6802 40.97C27.6802 40.97 27.7602 40.97 27.8802 40.97C28.3602 40.97 29.5702 40.99 30.2302 41.22L26.9602 39.91C27.1802 40.33 27.4102 40.7 27.6702 40.97H27.6802Z" fill="white"/>
<path d="M16.5202 34.83C17.0202 34.83 18.8902 35.21 18.9502 35.95C18.9702 36.23 18.6802 36.37 18.3102 36.43L19.7702 37.02C20.2902 36.95 21.3602 36.7 21.3802 35.89C21.4302 33.96 15.5302 33.07 15.5302 33.07L14.3302 34.83L16.7002 35.78C16.6502 35.44 16.5802 35.11 16.4802 34.82C16.4802 34.82 16.5002 34.82 16.5102 34.82L16.5202 34.83Z" fill="white"/>
<path d="M37.1902 30.91L34.7902 31.75C34.8502 33.13 35.5202 37.69 35.5202 37.69C34.2502 35.58 30.6902 32.29 30.6802 32.23C30.5502 32.23 28.9002 32.96 28.9002 32.96C28.9002 32.96 29.4002 33.8 29.5902 35.48C29.8102 37.37 29.8202 39.99 29.8202 40.31C28.3102 37.05 27.3502 34.02 26.9402 31.22C26.9402 31.22 25.3102 31.74 24.5902 31.82C24.5902 31.82 23.2302 35.28 21.8602 37.85L23.8402 38.65L26.4602 38.75C26.6102 39.15 26.7902 39.55 26.9702 39.91L30.2402 41.22C30.1002 40.93 29.9602 40.64 29.8302 40.34L32.3802 40.03L32.1702 36.61C33.3202 37.59 35.7102 40.97 35.7102 40.97L37.5802 40.41C37.0202 37.7 37.2102 30.9 37.2102 30.9L37.1902 30.91ZM24.3802 37.59C24.8102 36.73 25.2202 35.89 25.4702 35.26C25.4702 35.26 25.6602 36.26 26.0202 37.47L24.3802 37.59Z" fill="white"/>
<path fill-rule="evenodd" clip-rule="evenodd" d="M14.6102 33.26L10.2202 40.12C10.2202 40.12 9.91024 38.1 9.85023 37.02C9.79023 35.94 9.84023 34.96 9.84023 34.96C9.84023 34.96 9.83024 34.96 9.81024 34.96C9.55023 34.96 7.84023 34.97 6.98023 35.27C6.98023 35.27 6.94023 34.4 7.41023 33.87C7.88023 33.34 10.1602 33.29 11.2402 33.26C11.6802 33.25 12.3202 33.25 12.9202 33.25C13.8002 33.25 14.6102 33.25 14.6102 33.25L13.4502 34.96L12.2002 34.92C12.2002 34.92 12.1402 38.03 12.6802 39.61C12.6802 39.61 11.0502 39.82 10.2202 40.11L14.6102 33.26Z" fill="white"/>
<path fill-rule="evenodd" clip-rule="evenodd" d="M96.1202 31.35C96.1202 31.35 94.6602 31.81 94.0302 31.88C94.0302 31.88 92.3602 36.13 90.9502 38.37C90.6302 35.07 89.4502 31.47 89.4502 31.47L87.0102 32.49L87.6102 33.72C88.6902 37.18 88.9602 40.68 88.9602 40.68L91.0402 40.14C91.0402 39.9 91.0402 39.65 91.0402 39.4L92.1602 40.21C92.1602 40.21 92.7302 39.18 93.3702 37.97L95.7102 38.06C96.0102 38.84 96.3702 39.58 96.8002 40.04C96.8002 40.04 98.3302 40.01 99.0802 40.26C97.5202 37.05 96.5302 34.08 96.1302 31.35M93.8402 37.02C94.2302 36.26 94.5902 35.51 94.8102 34.95C94.8102 34.95 94.9802 35.85 95.3002 36.92L93.8402 37.02Z" fill="white"/>
<path fill-rule="evenodd" clip-rule="evenodd" d="M83.6402 32.34L81.3902 32.55C81.7702 33.17 82.0002 34.07 82.1302 35.02C81.5502 33.91 80.2202 33.13 78.6702 33.13C76.5802 33.13 74.8902 34.54 74.8902 36.28C74.8902 38.02 76.5802 39.43 78.6702 39.43C80.3902 39.43 81.8502 38.47 82.3002 37.15C82.3402 38.66 82.2402 39.89 82.2402 39.89L82.8602 40.45C84.4002 39.43 88.0902 38.74 88.0902 38.74L88.2802 36.74C86.9902 36.97 84.4902 38.01 84.4902 38.01C84.5102 35.38 83.6402 32.34 83.6402 32.34ZM78.6902 37.99C77.9402 37.99 77.3302 37.25 77.3302 36.35C77.3302 35.45 77.9402 34.71 78.6902 34.71C79.4402 34.71 80.0502 35.45 80.0502 36.35C80.0502 37.25 79.4402 37.99 78.6902 37.99Z" fill="white"/>
<path fill-rule="evenodd" clip-rule="evenodd" d="M48.7102 32.09C48.7102 32.09 46.4002 37.97 44.7502 40.11L46.6002 41.44C46.6002 41.44 47.2502 40.29 47.9602 38.92L50.5802 39.02C50.9102 39.89 51.3202 40.73 51.8102 41.24C51.8102 41.24 53.5202 41.2 54.3702 41.49C52.6102 37.88 51.5102 34.55 51.0602 31.49C51.0602 31.49 49.4302 32.01 48.7102 32.09ZM48.5102 37.86C48.9402 37.01 49.3502 36.16 49.6002 35.53C49.6002 35.53 49.7902 36.54 50.1502 37.74L48.5102 37.86Z" fill="white"/>
<path fill-rule="evenodd" clip-rule="evenodd" d="M72.9702 35.2H75.1002L75.1302 33.56C75.1302 33.56 73.0802 33.51 72.0102 33.54C70.9302 33.57 68.6602 33.62 68.1802 34.15C67.7302 34.66 67.7502 35.48 67.7502 35.55C67.3002 34.1 66.9802 32.71 66.7802 31.37C66.7802 31.37 65.1502 31.89 64.4302 31.97C64.4302 31.97 62.8602 35.97 61.3802 38.57C61.1302 35.43 61.2502 30.92 61.2502 30.92L58.8502 31.76C58.9102 33.14 59.5802 37.7 59.5802 37.7C58.3102 35.59 54.7502 32.3 54.7302 32.24C54.7102 32.18 52.9402 32.97 52.9402 32.97C52.9402 32.97 53.4402 33.81 53.6302 35.49C53.8602 37.51 53.8602 40.35 53.8602 40.35L56.4202 40.04L56.2102 36.62C57.3602 37.6 59.7502 40.98 59.7502 40.98L61.2402 40.53L62.3002 41.29C62.3002 41.29 62.9502 40.14 63.6602 38.77L66.2802 38.87C66.6102 39.74 67.0202 40.58 67.5102 41.09C67.5102 41.09 69.2202 41.05 70.0702 41.34C69.0802 39.32 68.3102 37.38 67.7302 35.53C68.6602 35.2 70.5902 35.22 70.5902 35.22C70.5902 35.22 70.5402 36.21 70.6002 37.28C70.6602 38.36 70.9702 40.38 70.9702 40.38C71.8002 40.09 73.4302 39.88 73.4302 39.88C72.8902 38.3 72.9502 35.19 72.9502 35.19M64.2302 37.72C64.6602 36.87 65.0702 36.02 65.3202 35.39C65.3202 35.39 65.5102 36.4 65.8702 37.6L64.2302 37.72Z" fill="white"/>
</svg>
