<svg width="62" height="94" viewBox="0 0 62 94" fill="none" xmlns="http://www.w3.org/2000/svg">
<path d="M10.2798 91.8898C10.2798 91.2598 10.7498 90.7498 11.4098 90.7498C11.8198 90.7498 12.0598 90.8898 12.2698 91.0898L12.0198 91.3798C11.8398 91.2198 11.6598 91.1098 11.3998 91.1098C10.9798 91.1098 10.6698 91.4598 10.6698 91.8898C10.6698 92.3298 10.9698 92.6798 11.3998 92.6798C11.6698 92.6798 11.8398 92.5698 12.0298 92.3898L12.2798 92.6398C12.0498 92.8798 11.7998 93.0298 11.3898 93.0298C10.7498 93.0298 10.2698 92.5298 10.2698 91.8998" fill="white"/>
<path d="M14.1698 91.8898C14.1698 91.2698 14.6498 90.7498 15.3198 90.7498C15.9898 90.7498 16.4698 91.2598 16.4698 91.8798C16.4698 92.4998 15.9898 93.0198 15.3198 93.0198C14.6498 93.0198 14.1698 92.5098 14.1698 91.8898ZM16.0598 91.8898C16.0598 91.4598 15.7498 91.0998 15.3098 91.0998C14.8698 91.0998 14.5698 91.4498 14.5698 91.8798C14.5698 92.3098 14.8798 92.6698 15.3198 92.6698C15.7598 92.6698 16.0598 92.3198 16.0598 91.8898Z" fill="white"/>
<path d="M18.5698 90.7798H20.2098V91.1298H18.9598V91.7298H20.0698V92.0898H18.9598V92.9798H18.5698V90.7798Z" fill="white"/>
<path d="M22.2598 90.7798H23.8998V91.1298H22.6498V91.7298H23.7598V92.0898H22.6498V92.9798H22.2598V90.7798Z" fill="white"/>
<path d="M25.9598 90.7798H27.5898V91.1298H26.3398V91.6998H27.4498V92.0398H26.3398V92.6398H27.5998V92.9798H25.9598V90.7798Z" fill="white"/>
<path d="M29.6998 90.7798H31.3298V91.1298H30.0798V91.6998H31.1898V92.0398H30.0798V92.6398H31.3398V92.9798H29.6998V90.7798Z" fill="white"/>
<path d="M42.4098 90.7798H44.0398V91.1298H42.7898V91.6998H43.8998V92.0398H42.7898V92.6398H44.0498V92.9798H42.4098V90.7798Z" fill="white"/>
<path d="M46.6898 91.1398H45.9898V90.7798H47.7698V91.1398H47.0798V92.9798H46.6898V91.1398Z" fill="white"/>
<path d="M49.5998 91.8898C49.5998 91.2598 50.0698 90.7498 50.7298 90.7498C51.1398 90.7498 51.3798 90.8898 51.5898 91.0898L51.3398 91.3798C51.1598 91.2198 50.9698 91.1098 50.7198 91.1098C50.2998 91.1098 49.9898 91.4598 49.9898 91.8898C49.9898 92.3298 50.2898 92.6798 50.7198 92.6798C50.9898 92.6798 51.1598 92.5698 51.3498 92.3898L51.5998 92.6398C51.3698 92.8798 51.1198 93.0298 50.7098 93.0298C50.0698 93.0298 49.5898 92.5298 49.5898 91.8998" fill="white"/>
<path d="M36.1098 91.8698L35.6698 91.4298L36.1098 90.9898L36.5498 91.4298L37.0098 90.9798L37.4698 91.4398L37.0098 91.8898L37.4598 92.3298L37.0198 92.7798L36.5698 92.3298L36.1198 92.7798L35.6598 92.3298L36.1098 91.8698Z" fill="white"/>
<path d="M8.34983 76.4198H5.16983V73.8398H14.4798V76.4198H11.2998V84.4498H8.34983V76.4198Z" fill="white"/>
<path d="M18.3598 79.7998V73.8398H21.3498V79.7398C21.3498 81.2698 22.1198 81.9998 23.3098 81.9998C24.4998 81.9998 25.2698 81.2998 25.2698 79.8198V73.8498H28.2598V79.7298C28.2598 83.1598 26.2998 84.6598 23.2898 84.6598C20.2798 84.6598 18.3798 83.1298 18.3798 79.8098" fill="white"/>
<path d="M32.3498 79.1798V79.1498C32.3498 76.0598 34.7298 73.6298 37.9398 73.6298C40.1098 73.6298 41.4998 74.5398 42.4398 75.8398L40.2298 77.5498C39.6198 76.7898 38.9298 76.3098 37.9098 76.3098C36.4198 76.3098 35.3798 77.5698 35.3798 79.1098V79.1398C35.3798 80.7298 36.4298 81.9698 37.9098 81.9698C39.0198 81.9698 39.6698 81.4598 40.3098 80.6798L42.5198 82.2598C41.5198 83.6398 40.1698 84.6498 37.8198 84.6498C34.7898 84.6498 32.3498 82.3298 32.3498 79.1598" fill="white"/>
<path d="M46.4998 73.8398H49.4398V78.1498L53.0898 73.8398H56.5798L52.5598 78.3998L56.7198 84.4498H53.1798L50.5198 80.5098L49.4398 81.7098V84.4498H46.4998V73.8398Z" fill="white"/>
<path d="M29.6998 50.1698C29.6998 50.1698 29.6598 50.1898 29.6498 50.2098C29.6698 50.2098 29.6898 50.2198 29.7098 50.2298C29.7098 50.2098 29.7098 50.1898 29.6998 50.1698Z" fill="white"/>
<path d="M28.9798 49.9998C28.9798 49.9998 28.9598 49.9998 28.9498 49.9998H28.9798Z" fill="white"/>
<path d="M24.5398 48.0398C24.6698 48.2398 24.8598 48.3798 24.9998 48.5498C25.0598 48.6198 25.0898 48.7098 25.1498 48.7798C25.1798 48.8198 25.2198 48.8498 25.2598 48.8798C25.9198 49.0898 26.8498 49.3698 27.6898 49.6298C27.6498 49.6098 27.6098 49.5798 27.5598 49.5598C27.3398 49.4498 27.0798 49.3498 26.8198 49.2598C26.3398 49.0998 25.6998 48.9098 25.3798 48.6298C25.0998 48.3798 24.9398 48.0598 24.7298 47.7398C24.5998 47.8498 24.5998 47.6298 24.4998 47.5898C24.5798 47.8998 24.7798 48.0898 24.8998 48.3698C24.7598 48.2898 24.6598 48.0598 24.5398 48.0298" fill="white"/>
<path d="M13.8598 42.2798C13.9998 42.2498 14.1398 42.2298 14.2698 42.2198C14.2698 42.2198 14.1498 42.2198 13.8598 42.2798Z" fill="white"/>
<path d="M27.9698 28.1098C28.1498 27.8198 28.0298 27.6298 27.9398 27.4398C27.8098 27.5298 27.6298 27.4198 27.4698 27.3998C27.3798 27.3998 27.2898 27.4398 27.2198 27.4198C26.7898 27.3398 26.8498 26.5798 26.7998 26.2398C26.7798 26.1698 26.6698 26.2798 26.6398 26.1898C26.7198 26.1598 26.7598 26.0798 26.7598 26.0398C26.8098 26.1198 26.8298 26.2998 26.9098 26.3198C26.9098 25.8798 26.7698 25.4798 26.5398 25.1198C26.4498 25.2298 26.5798 25.3498 26.5298 25.3898C26.3998 25.0898 26.3598 24.6698 26.1598 24.4398C26.1098 24.7998 26.3498 25.1298 26.3798 25.4098C26.1298 24.9798 26.1698 24.4598 25.9898 24.0098C25.8698 24.2598 26.0298 24.5498 26.0398 24.7998C25.7698 24.5098 25.9098 24.0698 25.7698 23.7398C25.7198 23.6998 25.7398 23.8398 25.6998 23.7998C25.6698 23.6998 25.6998 23.5798 25.6098 23.4998C25.5198 23.5298 25.6098 23.6898 25.5598 23.7098C25.3698 23.5898 25.5098 23.3598 25.3998 23.2098C25.3498 23.3498 25.3998 23.4398 25.3698 23.5698C25.2498 23.4998 25.1498 23.4898 25.0398 23.4398C25.0798 23.4198 25.1398 23.3098 25.1198 23.2698C24.9298 23.1198 24.9098 23.4498 24.7398 23.3698C24.7998 23.3198 24.8798 23.1798 24.8398 23.1098C24.6298 22.9898 24.5798 23.2898 24.4498 23.3898C24.1298 23.3698 23.8498 23.4498 23.5198 23.4198C23.4898 23.3398 23.5298 23.2498 23.4398 23.1898C23.3698 23.2298 23.3598 23.3498 23.3598 23.4098C23.2898 23.3698 23.2398 23.4098 23.1698 23.3698C23.1098 23.2898 23.1898 23.1598 23.0598 23.1098C22.9798 23.1498 22.9798 23.2798 22.9698 23.3498C22.7998 23.3498 22.6998 23.5398 22.5598 23.6198C22.5298 23.5698 22.4998 23.5098 22.4198 23.5098C22.3198 23.5798 22.4198 23.6998 22.3198 23.7698C22.2398 23.7298 22.2998 23.6398 22.1798 23.6098C22.0698 23.6798 22.1398 23.7998 22.1198 23.8898C22.0798 23.9198 22.0398 23.9598 21.9998 23.9998C21.9898 23.9698 21.9598 23.9498 21.9098 23.9398C21.8898 24.0898 21.7798 24.0598 21.6798 24.0898C21.6798 24.0498 21.6398 24.0198 21.5798 23.9998C21.5198 24.0698 21.5798 24.0898 21.5598 24.1498C21.4398 24.1398 21.3198 24.3198 21.2098 24.1998C21.1998 24.3098 21.1298 24.3398 21.0398 24.3498C21.0398 24.3098 21.0098 24.2898 20.9598 24.2698C20.9198 24.3398 20.9598 24.3798 20.9598 24.4298C20.8398 24.4198 20.7498 24.5998 20.6198 24.4598C20.5698 24.5298 20.6198 24.5998 20.5198 24.7198C20.3498 24.7198 20.2598 24.9698 20.0998 25.0098C20.1798 25.2498 19.8498 25.2498 19.7498 25.4098C19.7898 25.5098 19.7798 25.5298 19.7298 25.6598C19.7098 25.6898 19.6598 25.6398 19.6298 25.6598C19.6898 25.8398 19.4698 25.7798 19.5498 25.9298C19.4898 25.9098 19.4298 25.8598 19.3898 25.8798C19.4698 26.1098 19.1398 26.1898 19.1798 26.4598C19.1298 26.4398 19.1398 26.3998 19.0798 26.4098C19.0198 26.4798 18.8898 26.5498 18.9098 26.6798C18.7098 26.6698 18.4398 26.6798 18.3598 26.8598C18.5298 26.8098 18.6998 26.7798 18.9098 26.8398C18.9098 26.9498 19.0098 27.0398 19.0798 27.1298C19.3398 27.1298 19.5798 27.0798 19.8298 27.0698C19.5598 27.2298 19.2098 27.1498 18.9498 27.3098C19.0198 27.3798 19.1298 27.3298 19.1298 27.3698C19.0398 27.3698 18.9898 27.4798 18.8798 27.4098C18.8398 27.5898 18.3998 27.7798 18.7398 27.8998C18.6298 27.9298 18.5498 27.9998 18.5598 28.1398C18.4698 28.1398 18.4298 28.1798 18.3498 28.0898C18.3898 28.0398 18.4898 28.0398 18.4598 27.9598C18.3898 27.8798 18.2698 27.9998 18.1798 28.0098C17.8498 27.9598 17.4698 28.0098 17.1998 27.9598C17.2598 27.9598 17.2998 27.8798 17.3198 27.8498C17.6498 27.8298 18.0298 27.9598 18.3198 27.8498C17.9398 27.7198 17.5498 27.7698 17.2498 27.6898C17.5798 27.3898 18.1198 27.6998 18.4898 27.5298C18.2098 27.4298 17.9798 27.4798 17.7198 27.4198C17.9598 27.1498 18.4398 27.5598 18.7098 27.3998C18.5898 27.2198 18.1398 27.3298 18.0498 27.1098C17.9898 27.2698 17.6698 27.0398 17.5598 27.2098C17.5798 27.2398 17.6498 27.2598 17.6598 27.2998C17.3398 27.3198 17.0798 27.4898 16.8098 27.6198C16.6498 27.5398 16.5098 27.4798 16.3698 27.4598C16.3998 27.6298 16.7598 27.6798 16.8498 27.8298C16.5598 27.8098 16.2098 27.3598 15.8998 27.4698C15.9498 27.6298 16.2698 27.6898 16.3598 27.8298C16.1198 27.8898 15.7298 27.5498 15.5098 27.6598C15.5098 27.6798 15.5898 27.7498 15.5398 27.7498C15.3798 27.6998 15.1898 27.5598 15.0698 27.6498C15.0298 27.7398 15.2198 27.7498 15.1998 27.8298C14.9998 27.8598 14.8398 27.7898 14.6198 27.7198C14.0698 27.5498 13.4698 27.5098 12.9298 27.3398C12.6898 27.4498 12.3498 27.2498 12.1498 27.4598C12.4098 27.4998 12.6498 27.4898 12.9198 27.5698C12.8798 27.5798 12.8598 27.6398 12.8398 27.6998C12.2998 27.6398 11.6998 27.4398 11.2598 27.6798C11.6398 27.7898 12.0998 27.7498 12.5298 27.8598C12.3798 27.9298 12.1398 28.0698 11.9898 27.8598C11.6898 27.9198 11.2898 27.7098 11.0198 27.8398C11.0498 27.8598 11.0698 27.8398 11.0998 27.8598C11.0298 27.9098 10.9498 27.9798 10.9798 28.0598C10.8398 28.0998 10.6698 28.0798 10.5598 28.2098C10.9198 28.3498 11.2398 28.1398 11.5398 28.2598C11.3998 28.2598 11.2898 28.3298 11.1798 28.3898C11.0098 28.4098 10.7498 28.3898 10.6798 28.5498C10.8398 28.4798 11.0398 28.5298 11.2198 28.4998C11.1298 28.5598 10.9398 28.5498 10.9798 28.7098C10.8598 28.7098 10.7198 28.6298 10.6498 28.7598C10.8198 28.8198 10.9398 28.7698 11.0998 28.8098C10.9098 28.9498 10.5998 28.7298 10.4398 28.9698C10.5798 29.1498 10.8398 28.9898 11.0498 29.0698C10.8998 29.0998 10.8098 29.2798 10.6798 29.3598C10.7598 29.4298 10.8898 29.3098 10.8898 29.4098C10.8098 29.4798 10.6598 29.3998 10.5498 29.3898C10.4998 29.6098 10.2098 29.4498 10.0998 29.6498C10.0998 29.6998 10.1398 29.7298 10.1598 29.7698C10.0798 29.7898 10.0898 29.8698 10.1098 29.9298C10.1798 29.9698 10.2898 29.8998 10.3098 29.9498C10.1798 29.9298 9.93983 30.0098 10.0298 30.1898C9.94983 30.2098 9.85983 30.1898 9.81983 30.3298C10.1198 30.4798 10.4798 30.1598 10.7398 30.2098C10.7198 30.3798 10.4898 30.2898 10.4098 30.4298C10.7198 30.4798 11.0498 30.3598 11.2698 30.2998C11.0598 30.3798 10.8698 30.5098 10.6598 30.5998C10.6198 30.5798 10.6198 30.5398 10.5498 30.5298C10.3198 30.5098 10.0098 30.4598 9.89983 30.6198C9.91983 30.6898 10.0498 30.6898 10.1098 30.7198C10.1198 30.9098 10.2398 31.0598 10.1498 31.2798C10.0798 31.2998 9.98983 31.2798 9.94983 31.3998C9.94983 31.5098 10.0898 31.4398 10.1098 31.4998C10.0398 31.7198 9.72983 31.9898 9.86983 32.1998C9.71983 32.2898 9.51983 32.4498 9.50983 32.6598C9.55983 32.7598 9.71983 32.7198 9.72983 32.7398C9.61983 32.8098 9.45983 32.9898 9.54983 33.1198C9.47983 33.1498 9.40983 33.2898 9.39983 33.3798C9.46983 33.4598 9.53983 33.3498 9.54983 33.4098C9.47983 33.4798 9.33983 33.6898 9.51983 33.7198C9.58983 33.7398 9.60983 33.6398 9.65983 33.6198C9.57983 33.8798 9.59983 34.1098 9.59983 34.3398C9.49983 34.3798 9.37983 34.5798 9.43983 34.6798C9.51983 34.7498 9.58983 34.6298 9.61983 34.6998C9.54983 34.7998 9.42983 34.8598 9.42983 35.0098C9.52983 35.0998 9.60983 34.9398 9.65983 35.0198C9.64983 35.0798 9.60983 35.0798 9.58983 35.1298C9.67983 35.2498 9.72983 35.3798 9.64983 35.5498C9.78983 35.7098 9.77983 35.9298 9.84983 36.1098C9.79983 36.1198 9.70983 36.0398 9.68983 36.1498C9.68983 36.2698 9.97983 36.2898 9.92983 36.4298C9.74983 36.3798 9.58983 36.3798 9.37983 36.2598C8.84983 36.3698 8.33983 36.5498 7.86983 36.8298C8.38983 36.7598 8.84983 36.5298 9.33983 36.3798C9.38983 36.4498 9.53983 36.4898 9.63983 36.5398C9.60983 36.5798 9.60983 36.6098 9.60983 36.6398C9.75983 36.7998 10.1498 36.7798 10.0898 37.0098C10.0298 37.0098 9.95983 36.9598 9.92983 37.0498C9.99983 37.1498 10.2298 37.1498 10.1998 37.3198C10.1198 37.2898 10.0498 37.2698 9.99983 37.2998C9.93983 37.4698 10.2498 37.4298 10.3098 37.5398C9.82983 37.5198 9.35983 37.5098 8.96983 37.7498C9.08983 38.0998 9.47983 37.9398 9.80983 37.8898C10.0698 37.8498 10.3198 37.7698 10.4898 37.8398C10.4298 37.8598 10.3398 37.7698 10.3098 37.8698C10.2898 37.9698 10.4798 37.9898 10.5198 38.0598C10.1598 38.0998 9.77983 38.0798 9.46983 38.2598C9.86983 38.3698 10.3498 37.9798 10.7798 38.2998C10.7298 38.3298 10.6498 38.2998 10.5898 38.2998C10.5498 38.2998 10.5498 38.3898 10.5098 38.3798C10.1198 38.4098 9.73983 38.4698 9.38983 38.6198C9.40983 38.7098 9.54983 38.6498 9.53983 38.6898C9.33983 38.7198 9.13983 38.7198 8.97983 38.8398C9.30983 38.8998 9.59983 38.8698 9.86983 38.7498C9.82983 38.6198 9.66983 38.6898 9.56983 38.6798C9.95983 38.5598 10.4498 38.4598 10.8398 38.5098C10.5798 38.5398 10.3098 38.5498 10.0898 38.6698C10.3098 38.8998 10.7098 38.4598 10.9498 38.7298C10.8098 38.7698 10.6498 38.7298 10.5498 38.8898C10.7498 39.0398 10.9398 38.7698 11.1398 38.7698C11.4298 38.8298 11.6998 38.8498 11.9698 38.8798C11.7298 39.0598 11.3898 38.9498 11.0598 38.8798C10.9898 38.9698 11.1198 38.9798 11.0898 39.0598C10.9898 39.0798 10.8798 39.0598 10.8098 39.1598C10.9498 39.2998 11.0598 39.0098 11.2298 39.0998C11.0998 39.2098 10.9298 39.2198 10.7798 39.2598C10.6298 39.2998 10.4498 39.3298 10.3198 39.4398C10.6798 39.5498 11.0398 39.1898 11.4398 39.1998C11.7598 39.1998 12.0798 39.3298 12.3998 39.3498C12.0798 39.3498 11.7298 39.2598 11.4298 39.3098C11.5798 39.4998 11.8698 39.5298 12.0898 39.5498C11.7398 39.6698 11.3698 39.7698 11.0098 39.8698C11.0698 39.8498 11.2798 40.0298 11.2798 40.0298C11.5198 39.8998 11.7698 39.7898 12.0398 39.7398C11.9598 39.8698 11.7698 39.9298 11.7498 40.0698C11.8998 39.9098 12.0798 39.8398 12.2398 39.7198C12.3598 39.7698 12.3998 39.7698 12.4898 39.8398C12.4298 39.9098 12.4798 39.9498 12.4598 40.0098C12.1898 40.0798 11.9398 40.1798 11.6698 40.2398C11.5398 40.2398 11.4298 40.2598 11.3198 40.2998C11.2098 40.3498 11.1098 40.5198 11.0998 40.5798C11.0998 40.5898 11.0998 40.6098 11.1298 40.6298C11.5198 40.4898 11.8898 40.2998 12.2498 40.2298C12.1598 40.2998 12.0798 40.3798 11.9998 40.4598C11.7298 40.5098 11.4598 40.5798 11.2098 40.6898C11.2598 40.7198 11.3198 40.7598 11.3898 40.7798C11.4098 40.7798 11.4198 40.7598 11.4398 40.7598C11.5398 40.7698 11.6898 40.5998 11.7298 40.7298C11.7098 40.7298 11.6898 40.7498 11.6598 40.7498C11.7298 40.7298 11.7498 40.7698 11.8998 40.9498C11.9198 40.9698 11.9298 40.9798 11.9498 40.9998C11.9698 41.0098 11.9998 41.0198 12.0198 41.0298C12.0198 41.0298 12.0098 41.0298 11.9998 41.0298C12.0798 41.0798 12.1598 41.1098 12.2398 41.1298C12.4998 41.0398 12.7698 40.9998 13.0398 40.9398C13.0798 40.9398 13.0698 40.9698 13.0598 40.9998C12.9098 41.0298 12.7598 41.0898 12.6198 41.1498H12.6398C13.0498 41.0798 13.4598 41.0198 13.8798 40.9898C13.6398 41.1498 13.3598 41.2898 13.0598 41.4098C13.1598 41.5298 13.4098 41.4798 13.5298 41.4698C13.6898 41.3998 13.8598 41.3398 14.0398 41.3298C13.8898 41.3798 13.7498 41.4298 13.5998 41.4698C13.6198 41.4698 13.6698 41.4698 13.7198 41.4698C14.1598 41.3198 14.6298 41.2398 15.0798 41.2798C14.6498 41.4298 14.2398 41.6098 13.8298 41.7898C13.8098 41.8198 13.7898 41.8598 13.8098 41.8998C13.8398 41.9798 13.9698 42.0698 14.0798 42.1298C14.5598 41.9898 15.0198 41.8098 15.4998 41.6798C15.5098 41.7398 15.4498 41.8198 15.4498 41.8898C15.1798 41.8498 14.9698 41.9998 14.7398 42.0698C14.7198 42.0598 14.7398 42.0298 14.7198 42.0098C14.5598 42.0598 14.3298 42.1198 14.1398 42.1498C14.2198 42.1898 14.2798 42.2098 14.2798 42.2098C13.8898 42.3598 13.4898 42.4998 13.0798 42.6698C13.0098 42.6998 12.9298 42.7298 12.8498 42.7598C12.8898 42.8598 12.9898 42.9198 13.0398 42.9898C13.1398 42.9498 13.2398 42.9098 13.3398 42.8598C13.2598 42.9298 13.1698 42.9898 13.0698 43.0498C13.0798 43.1098 12.9298 43.1498 12.7498 43.1998C12.6498 43.2398 12.5498 43.2698 12.4398 43.2898C12.3798 43.3098 12.3198 43.3398 12.2898 43.3698C12.1998 43.4698 11.9098 43.3298 11.5798 43.2898C11.5798 43.3198 11.5798 43.3498 11.6198 43.3598C11.7798 43.3398 11.9098 43.3798 12.1198 43.4398C12.5098 43.5398 12.8098 43.2398 13.0898 43.1698C13.0098 43.2698 12.9198 43.3798 12.8398 43.4998C12.8098 43.4698 12.8298 43.4198 12.7698 43.4498C12.3898 43.8798 11.8898 44.2198 11.5498 44.5998C11.9498 44.4998 12.2598 44.1298 12.5898 43.8298C12.4198 44.1398 12.1598 44.4298 12.0598 44.7998C11.7598 44.9498 11.4798 45.1298 11.1898 45.2998C11.5398 45.3598 11.7498 45.0398 12.0298 44.8998C11.8898 45.3098 11.6998 45.6798 11.4898 46.0898C11.7198 46.0398 11.7898 45.6498 11.9198 45.4298C12.3598 44.6998 12.7898 43.8798 13.2998 43.3498C13.4998 43.4098 13.7698 43.0798 13.9498 43.1198C13.9498 43.1198 14.0098 43.2198 14.0598 43.2398C14.2898 43.3498 14.5798 43.2398 14.8498 43.2598C14.7598 43.0298 14.3998 43.0898 14.2198 43.0598C14.0998 42.6998 13.6798 43.0998 13.5298 43.0798C13.6298 42.9998 13.6998 42.8498 13.8298 42.8498C13.8498 42.5898 14.1498 42.5298 14.3698 42.4498C14.5398 42.3798 14.7098 42.3198 14.8498 42.2798C14.8898 42.2198 14.8098 42.1998 14.8698 42.1798C15.0298 42.1298 15.2398 41.9898 15.3798 41.9998C15.2698 42.2298 15.1198 42.3898 15.0498 42.5898C14.8398 42.5898 14.5798 42.4398 14.4398 42.5998C14.4898 42.8598 14.8998 42.6698 14.9698 42.8498C15.0098 42.7598 15.0798 42.7798 15.1598 42.7998C15.1398 42.9798 15.0498 42.9798 14.9498 43.0498C15.0098 43.0898 15.0798 43.0098 15.0998 43.0798C15.0698 43.2098 15.0498 43.3398 15.0998 43.4498C15.2098 43.3098 15.2898 43.0998 15.3698 43.0198C15.3698 43.0998 15.3398 43.1998 15.4198 43.2598C15.6798 43.2098 15.8598 42.6498 16.0798 42.3598C16.1798 42.3098 16.3198 42.3598 16.3898 42.2498C16.3198 42.1798 16.1998 42.2198 16.1898 42.1798C16.2598 42.0198 16.3798 41.9798 16.5198 41.9798C16.5198 42.0398 16.3998 42.0598 16.4798 42.0998C16.5998 42.0798 16.6798 41.9398 16.7898 41.8898C16.8698 41.7698 17.0698 41.3998 17.2098 41.4598C17.0898 41.5998 16.9598 41.7198 16.8698 41.9298C17.0798 41.9398 17.2898 41.6398 17.4998 41.3898C17.6298 41.2298 17.7298 41.1098 17.8798 40.9398C17.9498 40.8598 18.3098 40.3898 18.2498 40.6498C18.5198 40.1698 18.7698 39.6398 19.1298 39.4298C18.9398 39.7298 18.9398 40.0698 18.7698 40.3398C18.6898 40.4598 18.5398 40.5798 18.4398 40.6998C18.0998 41.0898 17.7698 41.4498 17.4998 41.8398C17.9698 41.6098 18.2998 40.9898 18.6898 40.5598C18.6898 40.6398 18.6098 40.7498 18.6698 40.8098C18.3998 41.1098 18.0598 41.4698 17.8598 41.8298C18.2498 41.5798 18.5498 41.0798 18.8798 40.6698C18.9498 40.6898 18.8998 40.7598 18.9698 40.7298C19.2098 40.4198 19.2398 39.8798 19.5298 39.7298C19.3298 40.0598 19.3098 40.4698 19.1298 40.6798C18.8398 41.0198 18.4698 41.2998 18.2698 41.6998C18.6398 41.5298 18.8698 40.9798 19.2098 40.7398C19.4598 40.3298 19.4798 39.9098 19.6698 39.5798C19.8098 39.3398 20.0698 39.1498 20.2598 38.9698C20.4698 38.7698 20.6698 38.5898 20.8598 38.3898C20.9098 38.3298 20.7998 38.3298 20.8498 38.2698C21.2498 37.9298 21.6598 37.6298 21.9798 37.0698C22.3598 36.8198 22.8098 36.5498 23.1098 36.2198C23.0898 36.2398 22.9998 36.2898 23.0098 36.2398C23.0998 36.1498 23.2198 36.1298 23.3198 36.0398C23.2898 36.0998 23.2498 36.1598 23.3198 36.1798C23.5798 36.0798 23.8398 35.7398 24.0298 35.5798C24.0298 35.5898 23.9398 35.6098 23.9598 35.5798C24.0298 35.3198 24.4098 35.1698 24.5298 34.9198C24.5598 34.8598 24.5298 34.7898 24.5698 34.7298C24.6698 34.5998 24.9098 34.6598 24.9698 34.4798C24.9998 34.3898 24.9098 34.3098 24.9198 34.2398C25.0398 34.0998 25.1398 33.9098 25.2398 33.7098C25.4098 33.7398 25.5098 33.6098 25.6398 33.5498C25.5298 33.8998 25.2898 33.8698 25.1598 34.1698C25.2598 34.1998 25.3198 34.0698 25.3998 34.0498C25.2598 34.3698 25.0498 34.7098 25.1098 34.9598C25.3498 34.7798 25.4498 34.2398 25.7498 34.2098C25.8998 34.0098 26.0998 33.9698 26.2498 33.7898C26.2098 33.6698 26.0698 33.8298 26.0498 33.7698C26.0898 33.6698 26.2498 33.6298 26.1598 33.5398C25.9998 33.6998 25.8398 33.8598 25.6798 34.0098C25.8098 33.5698 26.1198 33.5998 26.3098 33.3298C26.1798 33.3298 26.0798 33.4398 25.9598 33.4698C26.0298 33.2598 26.1498 33.1798 26.2598 33.0798C26.2298 33.0598 26.1898 33.0498 26.2198 33.0098C26.3398 32.7598 26.4898 32.6098 26.6298 32.4298C26.6698 32.4498 26.6298 32.4898 26.6898 32.4998C26.9098 32.2198 27.0898 31.7998 27.1898 31.4498C27.2598 31.4798 27.4098 31.4598 27.4498 31.5498C27.2298 31.7998 27.1998 32.1298 27.0398 32.3598C26.9398 32.5098 26.7298 32.6398 26.6098 32.7898C26.4798 32.9398 26.2898 33.0898 26.2998 33.2998C26.6498 33.1598 26.8498 32.6298 27.1698 32.3998C27.1698 32.1098 27.5698 31.7398 27.5298 31.4898C27.3798 31.4098 27.2598 31.4198 27.1398 31.4198C27.0398 31.5398 26.9698 31.7398 26.8898 31.9098C26.5198 32.0598 26.2498 32.5298 25.9298 32.8098C26.0298 32.8498 26.0698 32.7298 26.1498 32.6998C25.9298 33.1698 25.6498 33.4598 25.3198 33.6198C25.6998 33.0698 26.0598 32.4398 26.5198 32.0798C26.4898 32.0298 26.4198 32.0998 26.4398 32.0398C26.6798 31.7898 27.0398 31.4698 27.2398 31.1298C27.2798 31.0698 27.3998 30.9498 27.3198 30.8598C27.1698 31.0998 26.9598 31.1898 26.7698 31.3298C26.9198 31.0998 27.1098 30.9998 27.2598 30.7898C27.1798 30.7098 27.1098 30.8798 27.0898 30.7998C27.2198 30.6598 27.4098 30.4598 27.4598 30.2198C27.3498 30.3298 27.2498 30.4598 27.1398 30.5598C27.2498 30.2098 27.6898 29.9298 27.7398 29.5398C27.6898 29.7198 27.4998 29.8498 27.3698 29.9698C27.5498 29.6198 27.7798 29.4398 27.9398 29.0198C27.8298 29.0398 27.7798 29.2098 27.6698 29.2398C27.9498 28.8498 27.8398 28.5698 28.0598 28.1598C28.0598 28.0998 27.9698 28.1598 27.9998 28.0898M14.1898 31.4798C14.1898 31.4798 18.8898 33.2098 21.4898 33.6998C19.5898 34.8198 16.5598 36.2598 14.1898 31.4798Z" fill="white"/>
<path d="M52.6598 37.8598C52.9998 37.9098 53.3798 38.0698 53.4998 37.7198C53.1198 37.4798 52.6398 37.4898 52.1598 37.5098C52.2098 37.3998 52.5298 37.4398 52.4698 37.2698C52.4198 37.2398 52.3498 37.2698 52.2698 37.2898C52.2398 37.1298 52.4698 37.1298 52.5398 37.0198C52.5198 36.9198 52.4398 36.9698 52.3798 36.9798C52.3198 36.7598 52.7098 36.7698 52.8598 36.6098C52.8598 36.5798 52.8598 36.5498 52.8298 36.4998C52.9198 36.4398 53.0798 36.4098 53.1298 36.3398C53.6198 36.4898 54.0798 36.7198 54.5998 36.7898C54.1298 36.5098 53.6198 36.3298 53.0898 36.2198C52.8798 36.3398 52.7198 36.3298 52.5398 36.3898C52.4998 36.2498 52.7898 36.2298 52.7798 36.1098C52.7598 35.9998 52.6698 36.0798 52.6198 36.0698C52.6898 35.8798 52.6798 35.6698 52.8198 35.5098C52.7398 35.3298 52.7898 35.1998 52.8798 35.0898C52.8598 35.0498 52.8198 35.0498 52.8098 34.9798C52.8598 34.8898 52.9398 35.0598 53.0398 34.9698C53.0398 34.8198 52.9098 34.7598 52.8498 34.6598C52.8798 34.5898 52.9498 34.7198 53.0298 34.6398C53.0898 34.5298 52.9598 34.3398 52.8698 34.2998C52.8698 34.0698 52.8898 33.8398 52.8098 33.5798C52.8598 33.5898 52.8798 33.6998 52.9498 33.6798C53.1298 33.6398 52.9798 33.4398 52.9198 33.3698C52.9198 33.3098 53.0098 33.4198 53.0698 33.3398C53.0698 33.2498 52.9998 33.1098 52.9198 33.0798C53.0098 32.9498 52.8498 32.7698 52.7398 32.6998C52.7498 32.6798 52.9098 32.7198 52.9598 32.6198C52.9498 32.4098 52.7498 32.2498 52.5998 32.1598C52.7398 31.9398 52.4298 31.6698 52.3598 31.4598C52.3798 31.3998 52.5198 31.4598 52.5198 31.3598C52.4798 31.2498 52.3898 31.2698 52.3198 31.2398C52.2298 31.0198 52.3498 30.8698 52.3598 30.6798C52.4198 30.6498 52.5498 30.6498 52.5698 30.5798C52.4598 30.4198 52.1498 30.4698 51.9198 30.4898C51.8598 30.4998 51.8598 30.5398 51.8098 30.5598C51.5998 30.4698 51.4098 30.3398 51.1998 30.2598C51.4198 30.3198 51.7498 30.4498 52.0598 30.3898C51.9798 30.2498 51.7498 30.3398 51.7198 30.1698C51.9798 30.1298 52.3398 30.4498 52.6398 30.2898C52.5998 30.1598 52.5098 30.1798 52.4398 30.1498C52.5298 29.9698 52.2898 29.8898 52.1598 29.9098C52.1798 29.8598 52.2898 29.9298 52.3598 29.8898C52.3698 29.8298 52.3898 29.7498 52.3098 29.7298C52.3298 29.6898 52.3698 29.6598 52.3698 29.6098C52.2598 29.4198 51.9698 29.5798 51.9198 29.3498C51.7998 29.3598 51.6598 29.4498 51.5798 29.3698C51.5798 29.2598 51.7098 29.3898 51.7898 29.3198C51.6598 29.2398 51.5698 29.0598 51.4198 29.0298C51.6298 28.9498 51.8898 29.1098 52.0298 28.9298C51.8798 28.6998 51.5598 28.9098 51.3698 28.7698C51.5198 28.7298 51.6498 28.7798 51.8198 28.7198C51.7498 28.5898 51.6098 28.6598 51.4898 28.6698C51.5298 28.5098 51.3398 28.5198 51.2498 28.4598C51.4198 28.4898 51.6298 28.4398 51.7898 28.5098C51.7198 28.3598 51.4598 28.3598 51.2898 28.3498C51.1798 28.2798 51.0598 28.2198 50.9198 28.2198C51.2198 28.0998 51.5398 28.3098 51.8998 28.1698C51.7898 28.0398 51.6198 28.0598 51.4798 28.0198C51.5098 27.9398 51.4298 27.8698 51.3598 27.8198C51.3898 27.7998 51.4098 27.8198 51.4398 27.7998C51.1598 27.6698 50.7698 27.8798 50.4698 27.8198C50.3298 28.0198 50.0798 27.8798 49.9298 27.8198C50.3598 27.7098 50.8198 27.7498 51.1998 27.6398C50.7598 27.4098 50.1598 27.6098 49.6198 27.6598C49.5998 27.6098 49.5798 27.5498 49.5398 27.5298C49.8098 27.4598 50.0498 27.4598 50.3098 27.4198C50.1098 27.2098 49.7598 27.4098 49.5298 27.2998C48.9898 27.4698 48.3898 27.5098 47.8398 27.6798C47.6198 27.7498 47.4598 27.8198 47.2598 27.7898C47.2398 27.7098 47.4298 27.6998 47.3898 27.6098C47.2798 27.5198 47.0898 27.6598 46.9198 27.7098C46.8698 27.7098 46.9498 27.6498 46.9498 27.6298C46.7198 27.5198 46.3398 27.8598 46.0998 27.7998C46.1898 27.6598 46.5098 27.5998 46.5598 27.4398C46.2498 27.3298 45.8998 27.7798 45.6098 27.7998C45.6998 27.6498 46.0598 27.5998 46.0898 27.4298C45.9498 27.4498 45.8098 27.5098 45.6498 27.5898C45.3698 27.4598 45.1098 27.2898 44.7998 27.2698C44.7998 27.2298 44.8698 27.2098 44.8998 27.1798C44.7898 27.0098 44.4798 27.2398 44.4098 27.0798C44.3298 27.2998 43.8698 27.1898 43.7498 27.3698C44.0198 27.5298 44.4998 27.1198 44.7398 27.3898C44.4798 27.4498 44.2498 27.3898 43.9698 27.4998C44.3398 27.6698 44.8898 27.3598 45.2098 27.6598C44.9098 27.7298 44.5098 27.6898 44.1398 27.8198C44.4298 27.9298 44.8098 27.7998 45.1398 27.8198C45.1598 27.8498 45.1998 27.9198 45.2598 27.9298C44.9898 27.9698 44.6098 27.9298 44.2798 27.9698C44.1898 27.9498 44.0698 27.8298 43.9998 27.9198C43.9698 28.0098 44.0698 28.0098 44.1098 28.0498C44.0298 28.1398 43.9898 28.0898 43.8998 28.0998C43.8998 27.9598 43.8198 27.8898 43.7198 27.8598C44.0598 27.7298 43.6098 27.5498 43.5798 27.3698C43.4698 27.4398 43.4198 27.3298 43.3298 27.3298C43.3298 27.2898 43.4398 27.3298 43.5098 27.2698C43.2498 27.1098 42.8898 27.1898 42.6298 27.0298C42.8798 27.0398 43.1198 27.0898 43.3798 27.0898C43.4498 26.9998 43.5398 26.9098 43.5498 26.7998C43.7498 26.7498 43.9298 26.7698 44.0998 26.8198C44.0198 26.6498 43.7498 26.6298 43.5498 26.6398C43.5598 26.5098 43.4398 26.4398 43.3798 26.3698C43.3298 26.3498 43.3298 26.3898 43.2798 26.4198C43.3298 26.1498 42.9998 26.0698 43.0698 25.8398C43.0298 25.8198 42.9698 25.8698 42.9098 25.8898C42.9898 25.7498 42.7698 25.7998 42.8298 25.6198C42.8098 25.5998 42.7598 25.6498 42.7298 25.6198C42.6798 25.4998 42.6698 25.4698 42.7098 25.3698C42.6098 25.2198 42.2798 25.2098 42.3598 24.9798C42.1998 24.9398 42.1098 24.6998 41.9398 24.6898C41.8398 24.5698 41.8898 24.4998 41.8398 24.4298C41.7098 24.5798 41.6198 24.3898 41.4998 24.3998C41.4998 24.3498 41.5398 24.3098 41.4998 24.2398C41.4498 24.2598 41.4298 24.2898 41.4198 24.3198C41.3398 24.2998 41.2598 24.2798 41.2498 24.1698C41.1398 24.2898 41.0198 24.1098 40.8998 24.1198C40.8698 24.0598 40.9298 24.0398 40.8798 23.9698C40.8198 23.9898 40.7898 24.0198 40.7798 24.0598C40.6798 24.0398 40.5598 24.0598 40.5498 23.9098C40.4998 23.9298 40.4798 23.9498 40.4598 23.9698C40.4198 23.9398 40.3798 23.8898 40.3398 23.8598C40.3198 23.7698 40.3898 23.6498 40.2798 23.5798C40.1598 23.6098 40.2298 23.6998 40.1498 23.7398C40.0398 23.6698 40.1498 23.5498 40.0498 23.4798C39.9798 23.4798 39.9498 23.5398 39.9198 23.5898C39.7798 23.5098 39.6798 23.3098 39.5098 23.3198C39.5098 23.2498 39.5098 23.1298 39.4198 23.0798C39.2898 23.1398 39.3698 23.2598 39.3098 23.3398C39.2398 23.3798 39.1898 23.3398 39.1198 23.3798C39.1198 23.3198 39.1198 23.1998 39.0398 23.1598C38.9498 23.2098 38.9898 23.3098 38.9598 23.3798C38.6398 23.4098 38.3498 23.3298 38.0298 23.3498C37.8998 23.2498 37.8498 22.9398 37.6398 23.0698C37.5998 23.1298 37.6798 23.2698 37.7398 23.3298C37.5798 23.4098 37.5598 23.0698 37.3698 23.2298C37.3598 23.2698 37.4098 23.3898 37.4498 23.3998C37.3298 23.4598 37.2398 23.4598 37.1198 23.5298C37.0898 23.3998 37.1398 23.3098 37.0898 23.1698C36.9798 23.3198 37.1198 23.5498 36.9298 23.6698C36.8698 23.6498 36.9698 23.4898 36.8798 23.4598C36.7898 23.5398 36.8198 23.6598 36.7898 23.7598C36.7498 23.7998 36.7598 23.6598 36.7198 23.6998C36.5798 24.0398 36.7198 24.4698 36.4498 24.7598C36.4498 24.4998 36.6098 24.2198 36.4998 23.9698C36.3298 24.4198 36.3598 24.9398 36.1098 25.3698C36.1398 25.0998 36.3798 24.7598 36.3298 24.3998C36.1398 24.6298 36.0898 25.0398 35.9598 25.3498C35.9098 25.2998 36.0398 25.1898 35.9498 25.0798C35.7298 25.4398 35.5898 25.8398 35.5798 26.2798C35.6598 26.2598 35.6698 26.0798 35.7298 25.9998C35.7298 26.0398 35.7698 26.1298 35.8498 26.1498C35.8198 26.2398 35.7098 26.1298 35.6898 26.1998C35.6298 26.5398 35.6898 27.2998 35.2698 27.3798C35.1998 27.3898 35.1098 27.3498 35.0298 27.3598C34.8698 27.3698 34.6898 27.4798 34.5598 27.3998C34.4598 27.5898 34.3398 27.7798 34.5298 28.0698C34.5598 28.1498 34.4598 28.0798 34.4698 28.1398C34.6898 28.5498 34.5798 28.8298 34.8598 29.2198C34.7598 29.1898 34.6998 29.0198 34.5898 28.9998C34.7398 29.4098 34.9798 29.5998 35.1598 29.9498C35.0298 29.8298 34.8398 29.6998 34.7898 29.5198C34.8398 29.9098 35.2798 30.1898 35.3898 30.5398C35.2798 30.4398 35.1698 30.3098 35.0698 30.1998C35.1098 30.4398 35.2998 30.6398 35.4398 30.7798C35.4198 30.8598 35.3498 30.6898 35.2698 30.7698C35.4198 30.9798 35.6098 31.0798 35.7598 31.3098C35.5698 31.1798 35.3598 31.0898 35.2098 30.8398C35.1298 30.9198 35.2498 31.0398 35.2898 31.1098C35.4998 31.4398 35.8498 31.7598 36.0898 32.0198C36.1098 32.0698 36.0398 32.0098 36.0098 32.0598C36.4698 32.4098 36.8198 33.0498 37.2098 33.5998C36.8798 33.4398 36.5998 33.1598 36.3798 32.6798C36.4498 32.7098 36.4998 32.8298 36.5898 32.7898C36.2598 32.5098 35.9998 32.0398 35.6298 31.8898C35.5498 31.7298 35.4698 31.5198 35.3798 31.3998C35.2598 31.3998 35.1398 31.3798 34.9898 31.4698C34.9498 31.7098 35.3598 32.0798 35.3498 32.3798C35.6698 32.5998 35.8698 33.1398 36.2198 33.2798C36.2198 33.0698 36.0398 32.9198 35.9098 32.7698C35.7798 32.6198 35.5798 32.4998 35.4798 32.3398C35.3198 32.0998 35.2998 31.7698 35.0698 31.5298C35.1098 31.4398 35.2498 31.4598 35.3298 31.4298C35.4198 31.7798 35.6098 32.1998 35.8298 32.4798C35.8898 32.4698 35.8498 32.4198 35.8898 32.4098C36.0298 32.5798 36.1898 32.7298 36.2998 32.9898C36.3298 33.0298 36.2898 33.0398 36.2598 33.0598C36.3698 33.1598 36.4898 33.2498 36.5598 33.4498C36.4398 33.4198 36.3498 33.3098 36.2098 33.3098C36.3998 33.5898 36.7098 33.5498 36.8398 33.9898C36.6798 33.8298 36.5198 33.6698 36.3598 33.5198C36.2698 33.6098 36.4298 33.6498 36.4698 33.7498C36.4498 33.8098 36.3098 33.6598 36.2698 33.7698C36.4198 33.9498 36.6298 33.9898 36.7698 34.1898C37.0598 34.2198 37.1698 34.7598 37.4098 34.9398C37.4698 34.6898 37.2598 34.3498 37.1198 34.0298C37.2098 34.0498 37.2598 34.1698 37.3598 34.1498C37.2298 33.8498 36.9898 33.8798 36.8798 33.5298C37.0098 33.5898 37.1198 33.7198 37.2798 33.6898C37.3798 33.8798 37.4798 34.0698 37.5998 34.2198C37.5998 34.2898 37.5198 34.3698 37.5498 34.4598C37.6098 34.6398 37.8498 34.5798 37.9498 34.7098C37.9898 34.7598 37.9598 34.8398 37.9898 34.8998C38.1098 35.1498 38.4998 35.2998 38.5598 35.5598C38.5798 35.5998 38.4998 35.5798 38.4898 35.5598C38.6798 35.7198 38.9398 36.0598 39.1998 36.1598C39.2698 36.1398 39.2298 36.0798 39.1998 36.0198C39.2898 36.1098 39.4098 36.1298 39.5098 36.2198C39.5098 36.2698 39.4298 36.2198 39.4098 36.1998C39.6998 36.5298 40.1598 36.7998 40.5398 37.0498C40.8598 37.6098 41.2698 37.8998 41.6698 38.2498C41.7198 38.3098 41.6098 38.3098 41.6598 38.3698C41.8498 38.5698 42.0498 38.7498 42.2598 38.9498C42.4498 39.1298 42.7098 39.3098 42.8498 39.5598C43.0398 39.8898 43.0598 40.3098 43.3098 40.7198C43.6498 40.9498 43.8898 41.4998 44.2498 41.6798C44.0498 41.2798 43.6798 40.9998 43.3898 40.6598C43.2098 40.4398 43.1798 40.0398 42.9898 39.7098C43.2798 39.8498 43.3098 40.3998 43.5598 40.6998C43.6298 40.7298 43.5798 40.6598 43.6498 40.6398C43.9798 41.0498 44.2798 41.5498 44.6698 41.7998C44.4698 41.4398 44.1298 41.0798 43.8598 40.7798C43.9198 40.7198 43.8398 40.6198 43.8398 40.5298C44.2398 40.9598 44.5598 41.5798 45.0298 41.8098C44.7598 41.4098 44.4298 41.0598 44.0898 40.6698C43.9898 40.5498 43.8398 40.4398 43.7598 40.3098C43.5898 40.0498 43.5898 39.7098 43.3998 39.3998C43.7598 39.6098 44.0098 40.1398 44.2798 40.6198C44.2198 40.3598 44.5798 40.8298 44.6498 40.9098C44.7998 41.0798 44.8898 41.1998 45.0298 41.3598C45.2398 41.6098 45.4498 41.9098 45.6598 41.8998C45.5698 41.6898 45.4398 41.5698 45.3198 41.4298C45.4598 41.3698 45.6598 41.7398 45.7398 41.8598C45.8498 41.8998 45.9298 42.0498 46.0498 42.0698C46.1398 42.0298 46.0198 41.9998 46.0198 41.9498C46.1498 41.9498 46.2698 41.9798 46.3498 42.1498C46.3498 42.1898 46.2198 42.1498 46.1498 42.2198C46.2198 42.3398 46.3598 42.2798 46.4598 42.3298C46.6798 42.6298 46.8598 43.1798 47.1198 43.2298C47.2098 43.1798 47.1698 43.0798 47.1698 42.9898C47.2598 43.0798 47.3398 43.2798 47.4398 43.4198C47.4798 43.3098 47.4598 43.1798 47.4298 43.0498C47.4598 42.9798 47.5198 43.0698 47.5798 43.0298C47.4798 42.9598 47.3898 42.9598 47.3698 42.7798C47.4498 42.7598 47.5198 42.7498 47.5598 42.8298C47.6298 42.6498 48.0398 42.8298 48.0898 42.5798C47.9398 42.4198 47.6798 42.5798 47.4798 42.5698C47.4098 42.3598 47.2598 42.2098 47.1498 41.9798C47.2798 41.9698 47.4898 42.1098 47.6598 42.1598C47.7298 42.1798 47.6498 42.2098 47.6898 42.2598C47.8298 42.2998 47.9898 42.3598 48.1698 42.4298C48.3898 42.5098 48.6898 42.5698 48.7098 42.8298C48.8398 42.8298 48.9098 42.9798 49.0098 43.0598C48.8598 43.0698 48.4398 42.6798 48.3198 43.0398C48.1398 43.0698 47.7898 43.0198 47.6898 43.2398C47.9598 43.2198 48.2498 43.3298 48.4798 43.2198C48.5198 43.1998 48.5898 43.0998 48.5898 43.0998C48.7598 43.0598 49.0298 43.3898 49.2398 43.3298C49.7498 43.8598 50.1798 44.6798 50.6198 45.4098C50.7498 45.6298 50.8198 46.0198 51.0498 46.0698C50.8398 45.6598 50.6498 45.2898 50.5098 44.8798C50.7898 45.0098 50.9998 45.3398 51.3498 45.2798C51.0598 45.1098 50.7798 44.9298 50.4798 44.7798C50.3798 44.4098 50.1198 44.1298 49.9498 43.8098C50.2798 44.1098 50.5898 44.4798 50.9898 44.5798C50.6398 44.1998 50.1498 43.8598 49.7698 43.4298C49.7098 43.4098 49.7398 43.4598 49.6998 43.4798C49.6198 43.3598 49.5398 43.2598 49.4498 43.1498C49.7198 43.2198 50.0298 43.5098 50.4198 43.4198C50.6298 43.3698 50.7598 43.3198 50.9198 43.3398C50.9598 43.3398 50.9598 43.2998 50.9598 43.2698C50.6298 43.3098 50.3398 43.4498 50.2498 43.3498C50.2198 43.3198 50.1698 43.2898 50.0998 43.2698C49.9998 43.2498 49.8998 43.2198 49.7898 43.1798C49.6098 43.1298 49.4598 43.0898 49.4698 43.0298C49.3698 42.9698 49.2798 42.9098 49.1998 42.8398C49.2898 42.8798 49.3998 42.9298 49.4998 42.9698C49.5498 42.8998 49.6498 42.8398 49.6898 42.7398C49.6098 42.7098 49.5398 42.6798 49.4598 42.6498C49.0498 42.4798 48.6498 42.3398 48.2598 42.1898C48.2598 42.1898 48.3198 42.1698 48.3998 42.1298C48.2098 42.0998 47.9698 42.0298 47.8198 41.9898C47.7898 41.9998 47.8198 42.0298 47.7998 42.0498C47.5598 41.9898 47.3598 41.8298 47.0898 41.8698C47.0898 41.7998 47.0198 41.7198 47.0398 41.6598C47.5198 41.7898 47.9798 41.9698 48.4598 42.1098C48.5698 42.0498 48.6998 41.9598 48.7298 41.8798C48.7498 41.8298 48.7298 41.7998 48.7098 41.7698C48.2898 41.5898 47.8798 41.4098 47.4598 41.2598C47.9198 41.2098 48.3798 41.2998 48.8198 41.4498C48.8698 41.4498 48.9198 41.4498 48.9398 41.4498C48.7898 41.3998 48.6498 41.3598 48.4998 41.3098C48.6798 41.3198 48.8498 41.3898 49.0098 41.4498C49.1398 41.4598 49.3898 41.5098 49.4798 41.3898C49.1798 41.2698 48.8998 41.1298 48.6598 40.9698C49.0798 40.9998 49.4998 41.0498 49.8998 41.1298H49.9198C49.7698 41.0698 49.6298 40.9998 49.4798 40.9798C49.4798 40.9598 49.4698 40.9298 49.4998 40.9198C49.7698 40.9698 50.0398 41.0198 50.2998 41.1098C50.3798 41.0898 50.4598 41.0598 50.5398 41.0098C50.5398 41.0098 50.5298 41.0098 50.5198 41.0098C50.5398 40.9998 50.5698 40.9898 50.5898 40.9798C50.6098 40.9598 50.6298 40.9498 50.6398 40.9298C50.7898 40.7498 50.8198 40.7198 50.8798 40.7298C50.8598 40.7298 50.8398 40.7098 50.8098 40.6998C50.8598 40.5698 50.9998 40.7398 51.0998 40.7298C51.1198 40.7298 51.1398 40.7498 51.1498 40.7498C51.2098 40.7298 51.2798 40.6998 51.3298 40.6598C51.0798 40.5498 50.8098 40.4698 50.5398 40.4298C50.4598 40.3498 50.3798 40.2598 50.2898 40.1998C50.6498 40.2698 51.0198 40.4598 51.4098 40.5998C51.4298 40.5798 51.4398 40.5598 51.4398 40.5498C51.4298 40.4898 51.3298 40.3198 51.2198 40.2698C51.1098 40.2298 50.9898 40.2098 50.8698 40.2098C50.5998 40.1498 50.3498 40.0398 50.0798 39.9798C50.0598 39.9198 50.1098 39.8798 50.0498 39.8098C50.1398 39.7398 50.1798 39.7398 50.2998 39.6898C50.4598 39.8098 50.6398 39.8798 50.7898 40.0398C50.7698 39.8998 50.5698 39.8498 50.4998 39.7098C50.7698 39.7598 51.0198 39.8798 51.2598 39.9998C51.2598 39.9998 51.4698 39.8198 51.5298 39.8398C51.1698 39.7298 50.7998 39.6398 50.4498 39.5198C50.6698 39.4998 50.9598 39.4698 51.1098 39.2798C50.8098 39.2198 50.4598 39.3098 50.1398 39.3198C50.4598 39.2998 50.7798 39.1698 51.0998 39.1698C51.4998 39.1698 51.8598 39.5198 52.2198 39.4098C52.0898 39.2998 51.9098 39.2698 51.7598 39.2298C51.6098 39.1898 51.4398 39.1798 51.3098 39.0698C51.4798 38.9798 51.5898 39.2698 51.7298 39.1298C51.6598 39.0298 51.5498 39.0498 51.4498 39.0298C51.4198 38.9598 51.5598 38.9398 51.4798 38.8498C51.1498 38.9298 50.8098 39.0398 50.5698 38.8498C50.8498 38.8198 51.1198 38.7998 51.3998 38.7398C51.5998 38.7398 51.7898 39.0098 51.9898 38.8598C51.8898 38.7098 51.7298 38.7398 51.5898 38.6998C51.8298 38.4298 52.2298 38.8698 52.4498 38.6398C52.2198 38.5198 51.9498 38.5198 51.6998 38.4798C52.0998 38.4298 52.5798 38.5298 52.9698 38.6498C52.8698 38.6598 52.7098 38.5898 52.6698 38.7198C52.9298 38.8398 53.2298 38.8698 53.5598 38.8098C53.3998 38.6898 53.1898 38.6898 52.9898 38.6598C52.9898 38.6198 53.1298 38.6698 53.1398 38.5898C52.7898 38.4398 52.4098 38.3798 52.0198 38.3498C51.9798 38.3598 51.9798 38.2698 51.9398 38.2698C51.8798 38.2698 51.7998 38.2998 51.7498 38.2698C52.1798 37.9498 52.6598 38.3498 53.0598 38.2298C52.7498 38.0498 52.3598 38.0698 52.0098 38.0298C52.0498 37.9498 52.2398 37.9298 52.2198 37.8398C52.1898 37.7398 52.0998 37.8298 52.0398 37.8098C52.2098 37.7398 52.4598 37.8198 52.7198 37.8598M40.2098 33.7098C42.8098 33.2198 47.5098 31.4798 47.5098 31.4798C45.1398 36.2598 42.1098 34.8298 40.2098 33.7098Z" fill="white"/>
<path d="M48.1798 42.2298C48.3098 42.2398 48.4498 42.2598 48.5898 42.2898C48.2998 42.2298 48.1798 42.2298 48.1798 42.2298Z" fill="white"/>
<path d="M0.0198269 8.74977C-0.0301731 9.21977 0.229827 9.58976 0.229827 9.97976C0.229827 10.0798 0.169827 10.1698 0.189827 10.2798C0.259827 10.7798 0.739827 11.1598 0.839827 11.5298C0.689827 11.4398 0.639827 11.2498 0.439827 11.2098C0.369827 11.6298 0.859827 11.8398 1.06983 12.1198C0.989827 12.3798 1.30983 12.5798 1.38983 12.8198C1.63983 12.8498 1.83983 13.1098 2.10983 13.1598C2.20983 13.1798 2.30983 13.1498 2.40983 13.1598C2.57983 13.1898 2.74983 13.3198 2.93983 13.2398C3.16983 13.3698 3.41983 13.4798 3.67983 13.5798C3.66983 13.7198 3.46983 13.6298 3.38983 13.6598C3.35983 13.7298 3.39983 13.7498 3.36983 13.8298C3.80983 14.1298 4.19983 14.4598 4.54983 14.8398C4.45983 14.9998 4.38983 15.1898 4.29983 15.4098C4.20983 15.6398 3.94983 15.8998 4.04983 16.1098C3.85983 16.6598 3.61983 17.2798 3.51983 17.7998C3.47983 18.0198 3.41983 18.2298 3.35983 18.4498C4.62983 17.0098 5.92983 15.5898 6.64983 14.4598C7.35983 13.3298 8.72983 12.0798 9.25983 11.6698C9.78983 11.2498 10.9198 10.2398 11.4598 9.94977C11.9898 9.64977 13.9598 8.34977 14.2798 7.92977C14.5998 7.50977 14.6598 7.15977 15.0798 6.73977C15.2298 6.59977 15.3698 6.45977 15.5098 6.31977C15.5698 6.15977 15.6398 6.00977 15.6598 5.80977C15.5298 5.76977 15.5298 5.98977 15.4698 5.95977C15.3698 5.56977 15.6398 5.36977 15.5998 5.04977C15.3498 5.18977 15.3298 5.54977 15.1798 5.78977C15.1798 5.62977 15.2598 5.47977 15.3298 5.34977C15.4998 5.00977 15.6298 4.66977 15.6898 4.22977C15.5598 4.22977 15.5598 4.37977 15.4798 4.43977C15.4198 4.03977 15.3398 3.55977 15.3098 3.18977C15.1198 2.64977 14.7298 2.30977 14.4398 1.85977C14.3998 1.89977 14.4398 1.90977 14.4398 1.96977C14.2698 1.80977 14.0398 1.61977 13.7598 1.45977C13.4598 1.28977 13.0598 0.959766 12.7298 1.11977C12.2698 0.869766 11.7798 0.649766 11.1198 0.589766C10.9398 0.469766 10.8198 0.169766 10.5498 0.209766C10.6298 0.309766 10.7698 0.459766 10.7798 0.549766C10.4398 0.579766 10.4798 0.229766 10.1198 0.279766C10.1298 0.339766 10.2698 0.399766 10.2298 0.449766C9.95983 0.389766 9.80983 0.449766 9.61983 0.319766C9.55983 0.349766 9.65983 0.439766 9.57983 0.419766C9.48983 0.419766 9.39983 0.309766 9.47983 0.269766C9.26983 0.269766 9.04983 0.169766 8.81983 0.159766C8.53983 0.149766 8.22983 0.279766 7.99983 0.139766C7.97983 0.179766 8.05983 0.209766 7.99983 0.229766C7.78983 0.249766 7.53983 0.229766 7.40983 0.329766C7.40983 0.359766 7.43983 0.369766 7.42983 0.409766C7.69983 0.409766 8.19983 0.219766 8.22983 0.489766C7.99983 0.529766 7.71983 0.529766 7.48983 0.579766C7.47983 0.619766 7.51983 0.719766 7.46983 0.729766C7.39983 0.659766 7.34983 0.589766 7.23983 0.669766C7.23983 0.759766 7.33983 0.879766 7.23983 0.919766C7.13983 0.889766 7.12983 0.769766 7.06983 0.689766C7.00983 0.719766 6.90983 0.709766 6.81983 0.709766C6.82983 0.789766 6.91983 0.889766 6.87983 0.959766C6.76983 0.899766 6.73983 0.779766 6.66983 0.679766C6.56983 0.679766 6.43983 0.739766 6.34983 0.679766C6.45983 0.629766 6.65983 0.679766 6.64983 0.489766C6.42983 0.469766 6.26983 0.659766 6.05983 0.719766C5.81983 0.789766 5.55983 0.799766 5.29983 0.889766C5.06983 0.959766 4.83983 1.04977 4.59983 1.13977C4.01983 1.37977 3.28983 1.53977 3.20983 2.19977C3.12983 2.22977 3.05983 2.38977 2.99983 2.36977C3.02983 2.29977 3.07983 2.23977 3.12983 2.17977C2.70983 2.39977 2.42983 2.75977 2.15983 3.12977C1.94983 3.40977 1.78983 3.76977 1.56983 4.01977C1.51983 4.07977 1.42983 4.09977 1.37983 4.16977C1.21983 4.35977 1.09983 4.61977 0.999827 4.84977C0.849827 5.18977 0.789827 5.66977 0.559827 5.79977C0.629827 5.40977 0.899827 5.09977 0.959827 4.75977C0.249827 5.56977 -0.0901731 6.95977 0.0198269 8.34977C0.0298269 8.51977 0.0398269 8.62977 0.0198269 8.74977Z" fill="white"/>
<path d="M46.8298 4.45977C46.9498 4.93977 46.6898 5.71977 46.8098 6.27977C46.8398 6.39977 46.9898 6.47977 46.9198 6.61977C46.3298 5.95977 45.2398 5.78977 44.1698 5.60977C44.2498 5.78977 44.3498 5.92977 44.4998 5.94977C45.0198 6.02977 45.6198 6.03977 46.0198 6.23977C46.0198 6.26977 45.9998 6.27977 46.0198 6.29977C46.3698 6.46977 46.7498 6.61977 47.0398 6.84977C46.9298 7.02977 46.6098 7.26977 46.5598 7.50977C47.3298 8.15977 48.3998 9.03977 49.1498 9.76977C49.1898 9.78977 49.2198 9.81977 49.2398 9.85977C49.2498 9.86977 49.2598 9.87977 49.2698 9.88977C49.2698 9.88977 49.2698 9.88977 49.2698 9.87977C49.3398 9.85977 49.3398 9.90977 49.3798 9.91977C49.3798 9.93977 49.3598 9.95977 49.3398 9.95977C49.3798 9.99977 49.4198 10.0498 49.4598 10.0898C49.5398 9.93977 49.6498 10.1198 49.7798 10.1098C49.7598 10.1698 49.6798 10.1698 49.6498 10.2198C49.5798 10.1798 49.5398 10.1098 49.4598 10.0898C49.5698 10.2098 49.6898 10.3398 49.8098 10.4598C49.8198 10.4598 49.8298 10.4598 49.8398 10.4598C49.8698 10.3898 49.7398 10.3098 49.8798 10.2698C49.8298 10.4298 49.9398 10.4798 49.9598 10.6098C49.9598 10.6098 49.9698 10.6198 49.9798 10.6298C50.0998 10.6598 50.1998 10.6698 50.3298 10.6498C50.3598 10.7898 50.5898 10.7298 50.7098 10.7798C50.6698 10.8498 50.4698 10.8498 50.5198 10.9498C50.7098 11.0598 50.8498 10.8298 50.9798 10.8898C50.8498 11.0198 50.7098 11.1398 50.5798 11.2698C50.7798 11.1498 50.9498 11.0498 51.2098 11.0398C51.3198 11.1398 51.4298 11.2498 51.5698 11.3198C51.3898 11.4498 51.1198 11.4798 51.0598 11.7198C51.3598 11.6798 51.5098 11.4798 51.7398 11.3598C51.7898 11.4298 51.9098 11.4298 51.9298 11.5298C51.7998 11.6098 51.6098 11.6298 51.5698 11.8098C51.7298 11.8698 51.8298 11.6898 51.9698 11.6598C51.9598 11.7698 52.0498 11.7798 52.0998 11.8298C51.9598 11.9198 51.7398 11.9198 51.6998 12.1098C51.9398 12.1598 52.0998 11.8298 52.3598 11.9998C52.1598 12.1298 51.8498 12.1498 51.7698 12.3998C52.1098 12.3998 52.3398 12.1198 52.6398 12.0198C52.6798 12.0798 52.7298 12.1398 52.7498 12.2298C52.4198 12.3698 52.1398 12.5498 51.8198 12.6998C51.8498 12.7398 51.8798 12.7698 51.9098 12.8098C52.0198 12.7498 52.1598 12.6998 52.3298 12.6098C52.4998 12.5098 52.8698 12.1498 52.9198 12.4798C52.6398 12.6598 52.2498 12.7298 52.0498 12.9898C52.0498 12.9898 52.0498 12.9998 52.0598 12.9998C52.4598 12.9698 52.7598 12.5698 53.1698 12.5598C53.1798 12.5898 53.1998 12.6098 53.2098 12.6398C52.8998 12.8298 52.4998 12.9298 52.2798 13.2098C52.6498 13.2298 52.9098 12.8398 53.2298 12.8098C53.0298 13.0998 52.5298 13.0998 52.3498 13.4098C52.3498 13.4198 52.3698 13.4398 52.3698 13.4498C52.7598 13.4498 53.0298 12.9998 53.3798 13.0498C53.1398 13.2798 52.6598 13.2698 52.5098 13.5998C52.8198 13.5598 53.0998 13.2998 53.4198 13.1998C53.4898 13.2598 53.6298 13.3698 53.6298 13.4298C53.3698 13.5398 52.9098 13.5998 52.6998 13.8298C53.0098 13.8298 53.2898 13.6198 53.6098 13.5598C53.6398 13.6198 53.7198 13.6298 53.7098 13.7298C53.4098 13.8098 53.1698 13.9398 52.8898 14.0298C52.9298 14.0598 52.9698 14.0898 53.0198 14.1298C53.3298 13.9898 53.8698 13.6298 53.9398 13.9998C53.7698 13.9898 53.4498 14.1898 53.1998 14.2598C53.2298 14.2798 53.2698 14.2998 53.2998 14.3298C53.5298 14.2398 53.7898 14.1798 54.0098 14.0698C54.0898 14.0898 54.1198 14.1698 54.1598 14.2398C53.9498 14.3198 53.7398 14.3998 53.5298 14.4798C53.5698 14.5098 53.6098 14.5298 53.6598 14.5598C53.8598 14.4898 54.0598 14.4198 54.2498 14.3298C54.3198 14.3898 54.3698 14.4798 54.4398 14.5398C54.2798 14.5698 54.1098 14.6598 53.9298 14.7198C53.9698 14.7398 54.0098 14.7698 54.0498 14.7898C54.2698 14.6898 54.5198 14.5598 54.6298 14.7898C54.5198 14.8398 54.3998 14.8798 54.2798 14.9198C54.3598 14.9698 54.4498 15.0098 54.5298 15.0598C54.6298 15.0198 54.7398 14.9998 54.7798 14.9098C54.7598 15.0098 54.6998 15.0698 54.6198 15.1098C54.6698 15.1398 54.7198 15.1598 54.7698 15.1898C54.8798 15.1298 54.9998 15.1098 55.0398 15.2698C54.9698 15.2598 54.9098 15.2198 54.8698 15.2498C55.7198 15.7198 56.5398 16.1398 56.8398 16.3298C56.6998 16.2398 56.5198 16.1298 56.4598 16.0398C56.6198 16.0598 56.8598 16.1798 56.8998 16.3798C57.1598 16.5798 57.6498 16.8298 58.1198 17.1398C57.8198 16.3498 57.5898 15.4998 57.3098 14.6898C57.5898 14.5698 57.9398 14.4998 58.1598 14.3098C57.8198 14.2798 57.5598 14.4398 57.3098 14.4398C57.5098 14.3998 57.6998 14.2998 57.8998 14.2298C58.0898 14.1598 58.3598 14.1498 58.4498 13.9598C58.2898 13.8998 58.0698 14.0598 57.9398 14.0198C58.2598 13.8198 58.7198 13.7598 59.0598 13.5798C58.9998 13.5398 58.8698 13.5698 58.7798 13.5598C58.9198 13.4198 59.1198 13.3298 59.3298 13.2598C59.3298 13.1698 59.2798 13.2598 59.2198 13.2398C59.3998 13.0798 59.6498 12.9898 59.9198 12.8998C59.9198 12.8498 59.9198 12.8198 59.9598 12.8198C60.3998 12.5198 60.7998 12.1798 61.0798 11.7198C61.1398 11.6898 61.2098 11.6498 61.2298 11.5698C61.2798 11.5698 61.2298 11.4898 61.2498 11.4598C61.4798 10.9898 61.8098 10.4798 61.8598 9.84977C62.0098 8.16977 61.6098 6.43976 61.2498 5.19977C61.1698 5.19977 61.0598 5.21977 61.0598 5.13977C61.0598 5.06977 61.1198 5.07977 61.1898 5.07977C61.1398 4.92977 61.0798 4.77977 60.9998 4.65977C60.9298 4.71977 60.7798 4.74977 60.7798 4.82977C60.7498 4.71977 60.5998 4.92977 60.5498 4.80977C60.6298 4.67977 60.7898 4.63977 60.9298 4.57977C60.8398 4.33977 60.7198 4.12977 60.4698 4.04977C60.2198 3.46977 59.8698 2.99977 59.4598 2.58977C59.4398 2.62977 59.4198 2.65977 59.3498 2.64977C59.3098 2.63977 59.3498 2.54977 59.3098 2.53977C59.2598 2.58977 59.2398 2.67977 59.1198 2.66977C59.0898 2.49977 59.2998 2.48977 59.2498 2.36977C59.2098 2.36977 59.1998 2.31977 59.1398 2.32977C59.0598 2.38977 59.1998 2.46977 59.1398 2.49977C59.0898 2.49977 59.0998 2.42977 59.0298 2.43977C58.9798 2.52977 58.9198 2.61977 58.8198 2.64977C58.7798 2.61977 58.8198 2.52977 58.7798 2.49977C58.9698 2.44977 58.8898 2.30977 58.9098 2.13977C58.8198 2.19977 58.6698 2.35977 58.6998 2.45977C58.6998 2.40977 58.6098 2.41977 58.5898 2.37977C58.6398 2.29977 58.6898 2.22977 58.7398 2.14977C58.6398 2.10977 58.5998 2.00977 58.4898 1.97977C58.3698 2.09977 58.3198 2.28977 58.1698 2.37977C58.1298 2.17977 58.3198 2.02977 58.3998 1.88977C58.3798 1.85977 58.2498 1.81977 58.2998 1.77977C58.3498 1.79977 58.3698 1.84977 58.4498 1.83977C58.4798 1.76977 58.5398 1.72977 58.5798 1.66977C58.4998 1.62977 58.4298 1.57977 58.3498 1.53977C58.1698 1.71977 58.0198 2.03977 57.8198 2.12977C57.8998 1.84977 58.1398 1.72977 58.2398 1.46977C57.7998 1.28977 57.3798 1.10977 56.9298 0.939766C56.8598 1.00977 56.8498 1.12977 56.7398 1.14977C56.7398 1.02977 56.7898 0.959766 56.8198 0.879766C56.7498 0.869766 56.7098 0.819766 56.6298 0.819766C56.5298 0.819766 56.5798 0.949766 56.4598 0.929766C56.4598 0.869766 56.4998 0.839766 56.4998 0.779766C56.4298 0.789766 56.4298 0.739766 56.3498 0.759766C56.2698 0.819766 56.2698 1.03977 56.1598 0.989766C56.1498 0.859766 56.2298 0.839766 56.2198 0.709766C56.0698 0.709766 55.9598 0.659766 55.7998 0.669766C55.7998 0.639766 55.8698 0.539766 55.7798 0.539766C55.7598 0.699766 55.5198 0.629766 55.3598 0.639766C55.3798 0.529766 55.5298 0.449766 55.4698 0.319766C55.3398 0.389766 55.2998 0.539766 55.1998 0.639766H54.9898C55.0298 0.509766 55.1598 0.359766 55.1398 0.239766C54.9798 0.329766 54.9298 0.519766 54.7998 0.639766C54.7298 0.629766 54.6198 0.669766 54.5898 0.619766C54.6598 0.449766 54.8298 0.159766 54.7798 0.00976562C54.6198 0.189766 54.5098 0.419766 54.3998 0.639766C54.3598 0.629766 54.2598 0.669766 54.2498 0.619766C54.2998 0.469766 54.4298 0.289766 54.3798 0.109766C54.1898 0.229766 54.2398 0.689766 53.9398 0.619766C53.9398 0.479766 54.0698 0.319766 53.9798 0.219766C53.8498 0.309766 53.8798 0.569766 53.7498 0.659766C53.7098 0.649766 53.6098 0.689766 53.5998 0.639766C53.6598 0.609766 53.7798 0.639766 53.7898 0.559766C53.7898 0.479766 53.6398 0.559766 53.6398 0.479766C53.6698 0.409766 53.6898 0.349766 53.6798 0.249766C53.5298 0.249766 53.5698 0.449766 53.4698 0.499766C53.4298 0.489766 53.3298 0.529766 53.3198 0.479766C53.3598 0.369766 53.3898 0.259766 53.3798 0.0997656C53.2398 0.169766 53.2498 0.389766 53.1898 0.539766C53.0898 0.519766 53.0098 0.619766 52.9398 0.559766C53.0098 0.499766 53.0898 0.579766 53.1098 0.479766C52.6498 0.399766 52.3098 0.679766 51.9298 0.669766C52.0398 0.619766 52.2698 0.589766 52.2498 0.479766C51.8398 0.389766 51.5698 0.629766 51.2798 0.729766C51.2798 0.689766 51.3998 0.619766 51.2998 0.619766C50.9298 0.639766 50.7298 0.949766 50.3898 0.939766C50.5398 0.819766 50.7798 0.679766 50.8498 0.559766C50.5398 0.609766 50.2898 0.959766 49.9598 0.999766C49.8698 1.00977 49.7698 0.969766 49.6898 0.979766C49.5798 0.989766 49.4998 1.14977 49.3698 1.03977C49.4398 0.919766 49.6298 0.919766 49.6598 0.769766C49.4598 0.779766 49.2498 0.909766 49.0498 1.01977C48.7098 1.20977 48.3298 1.25977 48.1598 1.54977C47.8798 1.34977 47.7898 1.60977 47.6698 1.73977C47.5398 1.88977 47.2598 2.05977 47.2298 2.17977C47.1798 2.33977 47.2598 2.48977 47.1398 2.55977C47.1098 2.52977 47.0998 2.47977 47.0098 2.49977C46.8798 2.60977 46.9798 2.95977 46.8398 3.06977C46.8198 2.97977 46.8898 2.80977 46.7798 2.81977C46.4998 3.33977 46.6898 4.22977 46.7798 4.80977C46.8198 4.71977 46.7998 4.55977 46.8398 4.46977M55.5498 15.3898C55.5498 15.3898 55.3898 15.3498 55.3798 15.2898C55.4998 15.2598 55.4898 15.3698 55.5498 15.3898ZM55.2898 15.1498C55.2898 15.1498 55.2298 15.1698 55.2298 15.1898C55.1498 15.1898 55.1398 15.1098 55.0598 15.1098C55.1298 15.0398 55.2798 15.0298 55.2898 15.1498ZM55.0398 14.8798C55.1098 14.8798 55.0798 14.9598 55.1498 14.9598C55.1098 14.9998 55.0198 14.9998 54.9598 15.0198C54.9098 14.9598 55.0298 14.9398 55.0398 14.8698M54.8498 14.5998C54.7898 14.6198 54.7498 14.6698 54.6998 14.7098C54.6398 14.6898 54.6298 14.6298 54.5698 14.5998C54.6298 14.5598 54.8298 14.4498 54.8398 14.5998M54.7198 14.4298C54.5398 14.5698 54.4098 14.4198 54.3198 14.2998C54.3498 14.2298 54.4598 14.2498 54.5098 14.1898C54.5998 14.2498 54.6298 14.3598 54.7198 14.4198M54.4498 14.0998C54.3498 14.2098 54.1198 14.1998 54.1098 14.0198C54.2798 13.9498 54.3598 13.9598 54.4498 14.0998ZM54.2598 13.8798C54.0698 13.9698 53.9498 13.9198 53.8598 13.7698C53.9998 13.6398 54.1998 13.7098 54.2598 13.8798ZM53.6698 13.5298C53.7898 13.4598 53.8498 13.5998 53.9498 13.6098C53.9098 13.6498 53.8398 13.6698 53.7598 13.6698C53.7598 13.5998 53.6398 13.5598 53.6798 13.5198M50.0698 10.2298C50.0698 10.2298 49.9398 10.2398 49.8998 10.2698C49.9298 10.2098 50.0098 10.1998 50.0698 10.2298Z" fill="white"/>
<path d="M29.8398 58.3098C29.8398 58.3098 29.9198 58.2198 29.9198 58.1798C29.9098 58.2098 29.8798 58.2298 29.8498 58.2498C29.8498 58.2498 29.8498 58.2298 29.8298 58.2298C29.8298 58.2798 29.7698 58.2898 29.7498 58.3198C29.7098 58.3498 29.6798 58.3798 29.6798 58.4098C29.7098 58.3898 29.7498 58.3698 29.7898 58.3398C29.8098 58.3398 29.8298 58.3198 29.8398 58.2998" fill="white"/>
<path d="M33.2998 58.2898C33.2098 58.3198 33.1498 58.3698 33.0798 58.4198C33.0998 58.4998 33.0698 58.5398 33.0798 58.6098C33.1698 58.6398 33.1998 58.5198 33.2498 58.5698C33.0198 58.6298 33.0798 58.9498 33.0498 59.1798C33.1498 59.1798 33.1798 59.2598 33.2698 59.2698C33.2698 59.1098 33.2698 59.0198 33.2198 58.8898C33.3498 58.7698 33.2898 58.4898 33.3198 58.2898" fill="white"/>
<path d="M29.3998 58.8198C29.4698 58.8398 29.5698 58.7198 29.5998 58.6298C29.4498 58.6298 29.4298 58.7198 29.3998 58.8198Z" fill="white"/>
<path d="M30.1398 58.7998C30.1798 58.6998 30.2998 58.6698 30.3298 58.5698C30.2698 58.5698 30.1998 58.5798 30.1398 58.5898C30.1398 58.6498 30.0698 58.7498 30.1398 58.7998Z" fill="white"/>
<path d="M30.7598 58.5598C30.7798 58.6198 30.7498 58.7398 30.7998 58.7698C30.8198 58.6898 30.9398 58.6798 30.9098 58.5498C30.8598 58.5498 30.8098 58.5498 30.7598 58.5598Z" fill="white"/>
<path d="M31.4298 58.5198C31.1498 58.5798 31.1098 58.8298 30.9398 58.9898C31.1398 58.8698 31.2998 58.7098 31.4298 58.5198Z" fill="white"/>
<path d="M29.9598 58.6898C29.9198 58.7798 29.8298 58.8198 29.7898 58.9198C29.8598 58.9198 29.8898 58.9598 29.9598 58.9498C29.9398 58.8698 30.0498 58.7098 29.9598 58.6998" fill="white"/>
<path d="M32.9698 58.6598C32.9598 58.5998 33.0198 58.5098 32.9498 58.4698C32.8798 58.5498 32.6598 58.6098 32.7598 58.7598C32.8098 58.7098 32.9098 58.6998 32.9598 58.6598" fill="white"/>
<path d="M31.6798 58.5998C31.6498 58.6498 31.5998 58.6898 31.6298 58.7998C31.7298 58.8198 31.7798 58.6198 31.6798 58.5998Z" fill="white"/>
<path d="M32.6398 58.7498C32.5898 58.7698 32.5298 58.7798 32.5398 58.8398C32.5998 58.8398 32.6298 58.7998 32.6398 58.7498Z" fill="white"/>
<path d="M32.7398 58.9398C32.7098 59.6098 32.6498 60.2598 32.6398 60.9398C32.7098 60.9398 32.7298 60.8998 32.8098 60.9098C32.7898 60.8098 32.8298 60.7698 32.8098 60.6798C32.7798 60.6398 32.6798 60.6798 32.6998 60.5798C32.6998 60.5098 32.8198 60.5498 32.8398 60.4998C32.8598 59.9398 32.9198 59.4098 32.9498 58.8598C32.8998 58.8198 32.8198 58.9298 32.7398 58.9398Z" fill="white"/>
<path d="M32.4198 60.8698C32.3998 60.9598 32.2598 60.8398 32.2798 60.9698C32.3398 61.0298 32.4298 60.9498 32.5098 60.9498C32.5098 60.2698 32.5698 59.6498 32.6198 59.0098C32.5998 59.0098 32.5798 59.0098 32.5598 59.0098C32.4698 59.5898 32.4798 60.2598 32.4198 60.8698Z" fill="white"/>
<path d="M30.2498 59.2798C30.1898 59.2798 30.1198 59.2898 30.0598 59.2998C30.0598 59.3798 30.2598 59.3398 30.2498 59.2798Z" fill="white"/>
<path d="M32.3998 59.0898C32.3398 59.0898 32.2798 59.0898 32.2498 59.1198C32.2098 59.5698 32.1798 60.0298 32.1598 60.5098C32.1598 60.5698 32.2598 60.4898 32.2498 60.5498C32.1498 60.7798 31.7098 60.7898 31.7398 61.0598C31.9298 61.0098 32.0398 60.8398 32.2898 60.7798C32.3198 60.2098 32.3498 59.6498 32.3998 59.0898Z" fill="white"/>
<path d="M33.7198 58.9798C33.6198 59.3198 33.8998 59.5898 33.7698 59.8498C33.6998 59.8698 33.7498 59.7398 33.6998 59.7298C33.6598 60.0298 33.6698 60.3698 33.6298 60.6698C33.6998 60.6498 33.7498 60.6098 33.8398 60.6098C33.8098 60.0798 34.0598 59.3598 33.7198 58.9898" fill="white"/>
<path d="M31.5598 60.2298C31.6398 60.2198 31.6998 60.1798 31.7898 60.1698C31.7898 59.8298 31.8098 59.5098 31.8298 59.1898C31.7398 59.2098 31.6698 59.2398 31.5998 59.2698C31.5698 59.5798 31.5598 59.8998 31.5598 60.2298Z" fill="white"/>
<path d="M32.0998 59.1598C32.0398 59.1598 31.9698 59.1698 31.9098 59.1798C31.8898 59.5798 31.9098 60.0198 31.8898 60.3698C31.9098 60.4098 31.9898 60.3698 31.9998 60.4198C31.7998 60.6798 31.4198 60.7898 31.1598 60.9998C31.5398 60.9998 31.6998 60.6598 32.0398 60.5598C32.0198 60.0598 32.1098 59.6398 32.1098 59.1498" fill="white"/>
<path d="M31.2498 59.3798C31.2998 59.6498 31.1298 60.0198 31.2998 60.1998C31.1898 60.1798 31.2298 60.2898 31.2298 60.3798C31.3298 60.3598 31.4098 60.3098 31.4698 60.2498C31.4498 59.8998 31.5098 59.6298 31.4898 59.2898C31.3998 59.3098 31.3198 59.3398 31.2398 59.3798" fill="white"/>
<path d="M33.0298 59.2898C33.0298 59.7098 32.9798 60.0998 32.9698 60.5098C33.0398 60.5098 33.1098 60.4998 33.1798 60.4898C33.1198 60.0798 33.4298 59.4498 33.0298 59.2898Z" fill="white"/>
<path d="M33.3798 59.4498C33.4398 59.5098 33.4898 59.5898 33.5698 59.6498C33.5898 59.4998 33.4598 59.3798 33.3898 59.2598C33.4098 59.3398 33.3598 59.3698 33.3898 59.4498" fill="white"/>
<path d="M33.9998 59.4698C33.9998 59.8498 33.9498 60.1698 33.9698 60.5498C34.0698 60.5298 34.1398 60.4898 34.2398 60.4598C34.2298 60.1298 34.2498 59.8298 34.2698 59.5198C34.1498 59.5998 34.0798 59.4998 34.0098 59.4598" fill="white"/>
<path d="M33.3798 59.6498C33.3498 59.9098 33.3398 60.1898 33.3198 60.4598C33.3798 60.4598 33.4498 60.4498 33.5098 60.4398C33.5498 60.1098 33.6098 59.7798 33.3798 59.6498Z" fill="white"/>
<path d="M33.4798 60.5698C33.4598 60.6298 33.3498 60.5898 33.3098 60.5798C33.3298 60.6598 33.2798 60.6898 33.3098 60.7698C33.3798 60.7498 33.4598 60.7298 33.5098 60.6898C33.4998 60.6498 33.5198 60.5598 33.4798 60.5698Z" fill="white"/>
<path d="M32.9498 60.8898C33.0298 60.8898 33.0798 60.8598 33.1398 60.8298C33.1598 60.7698 33.1398 60.6798 33.1598 60.6198C33.0898 60.6198 33.0198 60.6298 32.9498 60.6398C32.9498 60.7298 32.9298 60.7898 32.9498 60.8898Z" fill="white"/>
<path d="M31.5798 61.0098C31.5498 61.0698 31.4398 61.0598 31.4198 61.1298C31.4898 61.1198 31.5898 61.1298 31.6298 61.0898C31.6298 61.0498 31.6098 61.0198 31.5798 61.0098Z" fill="white"/>
<path d="M31.0798 61.0998C31.0798 61.0998 31.0998 61.1498 31.1098 61.1798C31.1698 61.1798 31.2398 61.1698 31.2998 61.1598C31.2698 61.0998 31.1198 61.0698 31.0798 61.0898" fill="white"/>
<path d="M29.3498 58.7198C29.3498 58.7798 29.2398 58.7498 29.2298 58.7898C29.2898 58.7698 29.2898 58.8098 29.3398 58.7998C29.3398 58.7698 29.3998 58.7198 29.3498 58.7098" fill="white"/>
<path d="M30.4598 59.0498C30.6598 59.0498 30.6698 58.7798 30.6398 58.6498C30.5398 58.7498 30.4198 58.8298 30.4598 59.0498Z" fill="white"/>
<path d="M34.3898 59.1098C34.3898 59.2598 34.4498 59.3298 34.4798 59.4398C34.5298 59.4398 34.4198 59.2698 34.4298 59.1698C34.3898 59.1698 34.4098 59.1098 34.3798 59.1098" fill="white"/>
<path d="M34.7798 59.8898C34.7098 59.9198 34.6398 59.9698 34.5898 59.8898C34.5598 59.7998 34.6598 59.8198 34.6398 59.7398C34.5898 59.7098 34.5398 59.4498 34.5198 59.5398C34.5598 59.6098 34.5698 59.6498 34.5598 59.7298C34.5098 59.7598 34.4898 59.8098 34.3998 59.8098C34.3998 60.0098 34.3598 60.2798 34.3998 60.4498C34.5498 60.3798 34.6798 60.2898 34.7998 60.1998C34.7798 60.0798 34.7998 60.0098 34.7998 59.8998" fill="white"/>
<path d="M36.2298 54.5398L36.1998 54.4598C36.1998 54.4598 36.1798 54.4998 36.1798 54.5298C36.1998 54.5298 36.2098 54.5398 36.2298 54.5398Z" fill="white"/>
<path d="M31.8198 57.8898L31.6498 57.9098C31.6498 57.9098 31.6298 57.9898 31.6198 58.0098C31.5798 58.0698 31.6198 58.1598 31.6498 58.1998C31.6498 58.2098 31.6498 58.2298 31.6498 58.2398C31.6698 58.2398 31.6898 58.2198 31.6998 58.2098H31.7998C31.7998 58.2098 31.8598 58.2998 31.8998 58.3598C31.8298 58.2498 31.8998 58.1598 31.8998 58.0598C32.0598 57.9098 32.1698 57.7298 32.3198 57.5798C32.2598 57.5798 32.2098 57.5898 32.1498 57.5898C32.0498 57.6998 31.9598 57.8198 31.8598 57.9398C31.8398 57.9198 31.8298 57.8898 31.8198 57.8698" fill="white"/>
<path d="M30.1198 58.0898H30.0398L30.0498 58.2198C30.0498 58.2198 30.1298 58.1598 30.1198 58.0998" fill="white"/>
<path d="M29.2098 58.1998C29.2798 58.1898 29.2398 58.0898 29.2798 58.0498C29.3598 58.0498 29.4098 58.0798 29.4798 58.0998C29.4498 57.9598 29.2998 57.9698 29.1698 57.9598C29.1498 57.9998 29.1498 58.0698 29.1698 58.1298H29.1398L29.1498 58.1598V58.3098C29.1498 58.3098 29.2498 58.5398 29.2298 58.3098C29.2298 58.2698 29.2298 58.2398 29.2198 58.2098" fill="white"/>
<path d="M33.7798 58.0098C33.7798 58.0098 33.8398 58.2998 33.7798 57.9398C33.7698 57.8798 33.7598 57.8198 33.7498 57.7698C33.8198 57.6698 33.8498 57.5598 33.8498 57.3998C33.7398 57.3798 33.7198 57.4398 33.6898 57.4798C33.4798 57.6898 33.2198 57.8798 33.2698 58.1998C33.4898 58.1798 33.4898 57.9698 33.5798 57.8298H33.5998C33.5998 57.8598 33.5898 57.9098 33.6298 57.8998L33.7898 58.0098H33.7798Z" fill="white"/>
<path d="M33.9398 57.5798C33.9698 57.4698 34.2298 57.3498 34.1698 57.2798C34.1098 57.3398 33.9698 57.3298 33.8998 57.3898C33.9198 57.4498 33.8898 57.5598 33.9398 57.5798Z" fill="white"/>
<path d="M27.3898 58.0598C27.4198 58.1298 27.4698 58.1698 27.5298 58.1998C27.5498 58.0898 27.5898 57.9898 27.6298 57.8898C27.4498 57.8598 27.4298 57.9698 27.3898 58.0598Z" fill="white"/>
<path d="M31.3298 57.9798C31.4198 57.8498 31.5398 57.7198 31.5698 57.5998C31.5398 57.5998 31.4998 57.5998 31.4598 57.5998C31.3398 57.8598 31.1298 58.0498 30.9898 58.2998C31.1398 58.2598 31.2398 58.0898 31.3198 57.9698" fill="white"/>
<path d="M35.3398 57.2698C35.3398 57.2698 35.3398 57.3498 35.3498 57.3998C35.3898 57.3998 35.3898 57.3698 35.4298 57.3698C35.4298 57.3098 35.3798 57.2998 35.3398 57.2698Z" fill="white"/>
<path d="M33.2198 57.5998C33.2998 57.6398 33.3698 57.5298 33.3998 57.4798C33.1598 57.4798 32.9798 57.6098 33.0898 57.8198C33.1198 57.7298 33.2298 57.7198 33.2198 57.5998Z" fill="white"/>
<path d="M32.3998 57.8998C32.4898 57.7898 32.6698 57.6698 32.6298 57.5598C32.4298 57.7598 32.2198 57.9598 32.0898 58.2198C32.2198 58.1798 32.2998 58.0098 32.3998 57.8998Z" fill="white"/>
<path d="M35.1198 57.4998C35.0398 57.4698 35.0198 57.3798 34.9198 57.3698C34.8798 57.4298 34.8698 57.5098 34.8798 57.6098C34.9698 57.6398 35.0798 57.5698 35.1198 57.4998Z" fill="white"/>
<path d="M32.9598 57.6898C32.8998 57.7998 32.7098 57.9098 32.8298 58.1098C32.9298 58.0298 33.0298 57.8498 32.9598 57.6898Z" fill="white"/>
<path d="M35.4698 57.5498C35.5598 57.5498 35.5798 57.6298 35.6698 57.6398C35.6698 57.5798 35.6698 57.5298 35.6598 57.4698C35.5898 57.4398 35.5298 57.5098 35.4798 57.5498" fill="white"/>
<path d="M34.6498 57.6498C34.6298 57.6998 34.4798 57.7498 34.5598 57.8298C34.6098 57.7698 34.7198 57.7698 34.7598 57.7098C34.7098 57.7098 34.7098 57.6398 34.6498 57.6598" fill="white"/>
<path d="M34.8898 57.9398C34.9898 57.8998 35.1198 57.8998 35.2498 57.8898C35.3098 57.5198 34.8998 57.7998 34.8898 57.9398Z" fill="white"/>
<path d="M35.6498 57.8798C35.5798 57.7998 35.5098 57.7098 35.3598 57.7098C35.3698 57.7898 35.3698 57.8698 35.3598 57.9198C35.4598 57.9798 35.5498 58.0598 35.6498 58.1298C35.6298 58.0298 35.6698 57.9798 35.6498 57.8798Z" fill="white"/>
<path d="M32.6098 58.1198C32.5498 58.1198 32.5398 58.1698 32.5098 58.2098C32.5398 58.2298 32.5698 58.2298 32.6198 58.2198C32.6198 58.1898 32.6198 58.1498 32.6198 58.1198" fill="white"/>
<path d="M33.0698 58.2098C33.1698 58.2398 33.1998 58.1098 33.1398 58.0798C33.1398 58.1398 33.0598 58.1398 33.0698 58.2098Z" fill="white"/>
<path d="M34.7398 58.9298C34.7498 58.6098 34.7698 58.2898 34.7598 57.9498C34.6998 57.9198 34.5998 58.0298 34.5098 58.0398C34.4698 58.4298 34.5698 58.6898 34.7398 58.9298Z" fill="white"/>
<path d="M34.4098 58.0698C34.4098 58.0698 34.2798 58.1198 34.2298 58.1498C34.2098 58.4498 34.2298 58.6798 34.4098 58.8098C34.3598 58.5398 34.4798 58.2898 34.4098 58.0698Z" fill="white"/>
<path d="M35.2198 58.0898C35.0698 58.1098 34.9598 58.0598 34.8898 58.1598C35.0598 58.5198 35.0698 59.0698 35.2498 59.4198C35.2198 58.9698 35.2498 58.4798 35.2198 58.0898Z" fill="white"/>
<path d="M34.0798 59.1798C34.0498 58.8398 34.1798 58.4298 34.0998 58.1798C34.0498 58.2298 33.9098 58.2198 33.8798 58.2798C33.8998 58.6398 33.7898 59.0398 34.0798 59.1798Z" fill="white"/>
<path d="M35.5098 58.2898C35.4498 58.2698 35.4298 58.2098 35.3798 58.1898C35.3798 58.8098 35.4198 59.4598 35.3898 60.0598C35.5998 60.0298 35.5098 59.7498 35.4998 59.5598C35.4598 59.1098 35.3698 58.5298 35.5198 58.2898" fill="white"/>
<path d="M27.7898 58.7498C27.8598 58.6498 27.8398 58.3998 27.8098 58.2798C27.6298 58.3198 27.6698 58.6798 27.7898 58.7498Z" fill="white"/>
<path d="M28.8898 58.0398C28.8798 58.1398 28.8598 58.3398 28.9798 58.3498C28.9798 58.2798 29.0398 58.0098 28.8898 58.0398Z" fill="white"/>
<path d="M28.0898 58.7798C28.2498 58.6498 28.1098 58.1398 28.0598 57.9598C27.9498 58.1198 28.0098 58.5898 28.0898 58.7798Z" fill="white"/>
<path d="M28.5998 58.0398C28.5798 58.1898 28.5498 58.4498 28.6798 58.5198C28.7698 58.4098 28.7098 58.1698 28.6598 58.0298C28.6398 58.0298 28.6198 58.0298 28.5998 58.0298" fill="white"/>
<path d="M34.7598 56.9998C34.5198 57.1798 34.2698 57.4598 34.1398 57.6698C34.3098 57.4298 34.8198 57.3698 34.7598 56.9998Z" fill="white"/>
<path d="M31.1498 57.6298C30.7898 57.7298 30.4998 58.0098 30.4398 58.3098C30.6498 58.0598 30.8798 57.8298 31.1498 57.6298Z" fill="white"/>
<path d="M31.8698 57.6098C31.6998 57.6098 31.6198 57.7998 31.5898 57.8698C31.6598 57.7698 31.7998 57.7198 31.8698 57.6098Z" fill="white"/>
<path d="M32.2398 58.1898C32.3798 58.0498 32.6398 57.7998 32.6898 57.7098C32.5398 57.8498 32.2898 58.0998 32.2398 58.1898Z" fill="white"/>
<path d="M40.9398 52.4298C41.0898 52.2098 41.2398 51.8698 41.2398 51.8698C41.2398 51.8698 41.0898 52.1398 40.9398 52.4298Z" fill="white"/>
<path d="M41.9898 50.3598C41.9898 50.3598 42.0598 50.4898 42.0098 50.6398C41.9998 50.6698 41.9798 50.7198 41.9598 50.7798C41.9198 50.6998 41.8898 50.6198 41.8898 50.5698C41.8698 50.4198 41.7798 50.4998 41.7398 50.5798C41.6998 50.6598 41.5498 50.7798 41.6298 51.0698C41.6798 51.2298 41.6798 51.3398 41.6798 51.4298C41.5998 51.5498 41.3598 52.1098 41.2498 52.3998C41.2498 52.3798 41.2498 52.3598 41.2498 52.3398C41.1898 52.1098 41.2198 52.2898 41.2498 52.4298C41.2198 52.5098 41.1898 52.5698 41.1898 52.5698L41.0798 52.7298C41.0798 52.7298 40.9998 52.8098 40.9598 52.8598C40.9298 52.8798 40.9098 52.8998 40.8998 52.9098C40.8498 52.9698 40.6998 52.9798 40.7098 53.0798C40.7098 53.1698 40.6698 53.1798 40.6298 53.2598C40.5398 53.3498 40.4498 53.4098 40.3498 53.4598C40.3598 53.4298 40.3698 53.3998 40.3698 53.3498C40.3698 53.1798 40.5698 53.1598 40.5998 53.0598C40.6198 53.0098 40.7798 52.6998 40.9398 52.3998C40.9098 52.4398 40.8798 52.4798 40.8598 52.5098C40.6798 52.7098 40.6898 52.8298 40.3998 52.9598C40.1198 53.0898 39.9698 53.3698 39.9698 53.3698C39.9698 53.3698 39.9698 53.4998 39.9698 53.6798C39.7798 53.8098 39.5698 53.9798 39.4798 54.0798C39.4798 54.0798 39.4698 54.0798 39.4598 54.0798C39.3598 54.0898 39.1498 54.1798 38.8598 54.4498C38.7198 54.5098 38.6198 54.5598 38.6198 54.5598C38.6198 54.5598 38.1198 54.6998 37.7398 54.8698C37.3598 55.0398 37.1098 54.9798 37.1098 54.9798C37.1098 54.9798 36.9498 55.0298 36.7898 55.0498C36.3798 54.9998 36.0098 54.8798 35.6698 54.7898C35.5398 54.8298 35.3298 54.8698 35.1298 54.9098C34.8298 54.9698 34.5698 54.9598 34.4898 54.9698C34.4098 54.9698 34.0998 54.9998 34.0298 55.0098C33.9598 55.0098 33.3498 55.0698 33.2998 55.0698C33.2398 55.0698 32.8798 55.1098 32.8298 55.1098C32.7798 55.1098 32.3698 55.1498 32.3698 55.1498C32.3698 55.1498 32.2298 55.0198 32.1998 54.9998C32.1698 54.9798 32.1198 54.8098 32.0798 54.6598C32.0398 54.5198 32.0298 54.2798 32.0298 54.2498C32.0298 54.2198 31.9598 53.1998 31.9598 53.1998C31.9598 53.1298 31.9398 53.0598 31.9298 52.9798C31.8798 52.6498 31.8598 52.2098 31.8698 51.8398C31.8598 51.6898 31.8498 51.5398 31.8498 51.3798C31.8698 51.3798 31.8798 51.3798 31.8998 51.3798C31.9098 51.2598 31.9298 51.1598 31.9498 51.0998C31.9698 51.0398 31.9898 50.9698 32.0198 50.9098C32.0398 50.8698 32.0598 50.8298 32.0798 50.7898C32.0798 50.7898 32.0798 50.7898 32.0698 50.7798C32.0698 50.7798 32.0798 50.7798 32.0898 50.7798C32.1098 50.7398 32.1398 50.6998 32.1698 50.6598C32.1398 50.6598 32.1098 50.6498 32.0798 50.6498C32.0998 50.5498 32.2098 50.5298 32.2498 50.4398C32.2598 50.4598 32.2798 50.4898 32.2898 50.5098C32.3198 50.4698 32.3598 50.4398 32.3898 50.3998C32.3698 50.3698 32.3498 50.3498 32.3398 50.3298C32.4098 50.2798 32.4998 50.2398 32.5598 50.1798C32.5998 50.1798 32.6098 50.1898 32.5998 50.2198C33.1998 49.7498 34.0798 49.3898 34.8498 49.0398C34.9498 48.9898 35.0498 48.9498 35.1498 48.8998C35.1698 48.8898 35.1998 48.8798 35.2198 48.8598C36.1598 48.3498 36.7998 47.9198 37.1698 47.6598C37.1898 47.6498 37.1998 47.6298 37.2198 47.6198C37.2198 47.6198 37.2198 47.6198 37.2298 47.6198C37.4498 47.4598 37.5598 47.3698 37.5598 47.3698C37.7498 47.1998 37.9098 47.0098 38.0398 46.7898C37.8698 46.5698 38.2298 46.3998 38.0898 46.1498C37.9098 46.3598 37.8598 46.6798 37.7498 46.9398C37.5598 47.0198 37.4198 47.1498 37.2198 47.2398C37.0498 46.9998 37.1398 46.9798 37.2898 46.8098C37.4798 46.5998 37.6998 46.3398 37.7598 46.1098C37.7298 46.0598 37.6798 46.1598 37.6498 46.0998C37.7398 45.8398 37.8098 45.5698 37.7898 45.2198C37.8998 45.1798 37.9698 45.1098 38.0498 45.0498C38.0298 45.0798 38.0298 45.1098 38.0498 45.1298C38.6798 44.8398 38.7498 44.0698 38.9598 43.4198C38.8998 43.4198 38.8698 43.3698 38.8298 43.3498C38.6598 43.5298 38.5598 43.7698 38.4198 43.9798C38.3798 43.9598 38.3598 43.9298 38.2898 43.9498C38.0998 44.2598 37.8998 44.5598 37.6898 44.8498C37.6098 44.6398 37.6298 44.4598 37.4998 44.3398C37.4098 44.3198 37.4798 44.4398 37.3998 44.4298C36.6398 44.3698 36.4998 44.8498 36.2798 45.1798C36.3198 45.1098 36.3098 45.0698 36.2798 45.0098C35.9798 45.0098 35.9198 45.2098 35.6398 45.2298C35.6398 45.1598 35.6998 45.1598 35.6698 45.0798C35.5298 45.0598 35.5698 45.1898 35.4898 45.2198L35.0698 45.2598C35.1498 45.1298 35.1798 44.9498 35.3098 44.8598C35.3998 44.9898 35.2498 45.0598 35.2798 45.1998C35.4498 45.1898 35.4098 44.9998 35.4698 44.8898C35.5498 44.9198 35.6398 44.9498 35.7698 44.9298C35.7698 44.8498 35.7698 44.8298 35.8398 44.7798C35.7098 44.7598 35.5398 44.7798 35.4298 44.7298C35.4298 44.6898 35.4998 44.7098 35.4898 44.6598C34.9898 44.5898 34.5198 44.4498 34.0498 44.4498C33.1498 44.4398 32.6298 44.8198 31.9898 45.0898C31.7798 45.1798 31.5398 45.2798 31.3098 45.3598C31.0098 45.4598 30.7398 45.6798 30.4898 45.6398C30.2898 45.6098 30.0698 45.5098 29.8198 45.4598C29.5798 45.4198 29.3398 45.3898 29.1098 45.3298C28.6498 45.2198 28.1798 45.0198 27.7398 44.9998C26.9698 44.9698 26.4098 45.2298 25.6598 45.4798C25.6098 45.5298 25.7398 45.5498 25.6498 45.5898C25.5598 45.6398 25.4098 45.6398 25.3198 45.6798C25.2998 45.7598 25.4098 45.6798 25.3898 45.7598C25.2298 45.8398 25.1298 45.9698 24.8998 45.9898C24.8498 46.0198 24.9498 46.0798 24.8998 46.1198C24.7698 46.0698 24.7298 45.9198 24.6598 45.7998C24.4598 45.6798 24.3198 45.4998 23.9398 45.5898C23.8898 45.5798 23.8798 45.4998 23.8098 45.5198C23.7298 45.5098 23.6998 45.6398 23.6698 45.5998C23.5998 45.5098 23.6998 45.5298 23.6998 45.4498C23.3498 45.2298 22.9398 45.0798 22.6598 44.7598C22.4598 44.5298 22.3398 44.2098 22.1098 44.0398C22.1898 44.2198 22.2998 44.3798 22.3698 44.5698C22.2198 44.4998 22.1698 44.2998 22.0398 44.1998C22.0398 44.2398 22.1098 44.3298 22.0498 44.3698C21.9898 44.2598 21.9398 44.1398 21.8498 44.0698C21.8798 44.3098 22.0498 44.4898 22.0998 44.7098C22.1098 44.7798 22.0998 44.8498 22.1198 44.9198C22.1998 45.1798 22.4598 45.2898 22.6298 45.4898C22.7498 45.6198 22.8098 45.8698 23.0198 45.7998C23.0898 45.7298 22.9198 45.6798 22.9798 45.6298C23.0398 45.6898 23.3598 45.7198 23.3598 45.5798C23.3398 45.5298 23.1798 45.5398 23.2298 45.4898C23.3598 45.4898 23.4498 45.5698 23.5998 45.5598C23.4198 46.0498 23.4498 46.7998 23.6898 47.2898C23.7098 47.3498 23.6398 47.3398 23.6598 47.3998C23.8498 47.6098 23.9998 47.8698 24.2598 47.9798C24.5898 48.3298 24.7698 48.8398 25.3798 48.8598C25.9098 49.3798 26.7398 49.5398 27.4598 49.8498C27.1898 49.8298 26.9398 49.6598 26.6998 49.6798C27.3498 49.9298 28.0798 50.0798 28.7898 50.2598C28.7898 50.2798 28.7898 50.2998 28.7798 50.3298C28.8298 50.3298 28.8698 50.3498 28.9098 50.3598C28.9098 50.3298 28.9098 50.2998 28.9198 50.2798C29.2598 50.3198 29.5598 50.4098 29.8698 50.4898C29.8698 50.5098 29.8698 50.5398 29.8698 50.5598C29.9098 50.5698 29.9498 50.5898 29.9798 50.5998C29.9798 50.5798 29.9798 50.5598 29.9798 50.5398C30.0198 50.5398 30.0098 50.5898 30.0698 50.5698C30.0698 50.5898 30.0698 50.6098 30.0698 50.6298C30.1198 50.6498 30.1698 50.6798 30.2098 50.7198C30.2098 50.6998 30.2098 50.6698 30.2098 50.6398C30.2398 50.6398 30.2698 50.6698 30.2998 50.6798C30.2998 50.7098 30.2998 50.7498 30.2998 50.7898L30.9198 51.3898L30.8098 52.3298C30.8098 52.3298 30.8898 52.8998 30.9198 53.1098C30.9498 53.3098 31.0098 53.6998 31.0098 53.9098C31.0098 53.9498 30.9898 53.9998 30.9598 54.0298V54.2998L30.9798 54.4898C30.9798 54.4898 30.9598 54.7798 30.9398 54.9198C30.9198 55.0598 30.8898 54.9598 30.8198 54.9898C30.7498 55.0198 30.5398 55.0698 30.4098 55.1298C30.2798 55.1898 30.1198 55.1098 30.0798 55.2098C30.0398 55.3098 29.8398 55.3398 29.7998 55.3698C29.7598 55.3998 29.4798 55.6898 29.2698 55.6598C29.0598 55.6298 28.7798 55.8298 28.6298 55.8798C28.4698 55.9298 27.8198 56.0898 27.6198 56.1298C27.4298 56.1698 26.8198 56.3198 26.4998 56.2998C26.2498 56.2898 25.4198 56.2798 25.0798 56.2798C24.8798 56.3198 24.6598 56.3398 24.4198 56.3498C24.4198 56.2898 24.4198 56.2298 24.3498 56.2498C24.2598 56.2998 24.1698 56.3198 24.0798 56.3098C23.8598 56.3898 23.5398 56.4198 23.0998 56.3498C22.7798 56.2898 22.4398 56.2198 22.1098 56.1398C22.2398 56.2098 22.3698 56.2798 22.4498 56.3298C22.6698 56.4598 22.8998 56.5498 23.1098 56.6598C23.3098 56.7698 23.9198 57.0098 23.9998 57.0298C24.1398 57.0598 24.2498 57.0898 24.3098 57.0998C24.5398 57.1298 24.5298 57.4098 24.3098 57.6798C24.3998 57.7198 24.4598 57.7898 24.4898 57.8898C24.6298 58.4198 25.1598 58.4898 25.0498 60.1998C25.3498 60.6798 25.6598 61.1398 26.0998 61.4498C26.0798 61.4798 26.0798 61.5298 26.0998 61.5498C26.4398 61.7198 26.8198 61.8898 27.2598 61.9798C27.6798 62.0698 28.0798 62.2498 28.4998 62.3198C28.9798 62.3998 29.5098 62.3698 30.0298 62.3598C30.6098 62.3398 31.0098 62.5298 31.5698 62.5198C32.0998 62.5098 32.7798 62.4998 33.2798 62.3698C33.2498 62.4398 33.2798 62.4998 33.3398 62.5298C33.4798 62.4698 33.6098 62.3698 33.7498 62.3298C35.6998 61.7698 37.3098 61.0198 38.4398 59.8498C38.6798 59.5998 38.8598 59.2498 39.2498 59.1398C39.2698 59.0298 39.1898 59.0398 39.1698 58.9798C39.2398 58.7198 39.4598 58.4898 39.6698 58.3998C39.6498 57.7798 39.6598 57.1298 39.7398 56.5998C39.4398 56.4798 39.3398 56.2298 39.0398 55.9598C38.7198 55.6598 39.3398 55.5598 39.5898 55.5298C39.6998 55.4498 39.9298 55.3698 40.0598 55.2998C40.1598 55.2498 40.2798 55.1898 40.4098 55.1298C40.3498 55.1398 40.2998 55.1498 40.2798 55.1498C40.2398 55.1498 40.1498 55.1498 40.0398 55.1298C40.0798 55.1098 40.1298 55.0898 40.1798 55.0598C40.4098 54.9298 40.5498 54.7798 40.6598 54.7198C40.7598 54.6598 41.0198 54.4198 41.1198 54.2398C41.2098 54.0598 41.2898 53.8698 41.4198 53.7798C41.5498 53.6998 41.5498 53.4098 41.6998 52.9698C41.6998 52.9398 41.7198 52.9198 41.7298 52.8898C41.7598 52.8398 41.7898 52.7898 41.8098 52.7398C41.8098 52.7198 41.8298 52.6998 41.8298 52.6798C41.8898 52.5898 41.9198 52.6198 41.9298 52.5498C41.9398 52.4498 41.9898 52.0698 42.0198 51.8598C42.0198 51.8598 42.0198 51.8598 42.0398 51.8498C42.2198 51.7598 42.0798 51.5098 42.1798 51.4998C42.2798 51.4898 42.1698 51.3798 42.1598 51.2298C42.1598 51.1898 42.1398 51.1398 42.1198 51.0798C42.1698 50.9598 42.2798 50.9198 42.3198 50.8498C42.3598 50.7598 42.0398 50.3998 42.0398 50.3998M24.7198 46.1998C24.6998 46.3098 24.6398 46.3798 24.5898 46.4598C24.5798 46.3998 24.6398 46.2398 24.7198 46.1998ZM24.5898 46.9098C24.6598 46.7398 24.6898 46.5398 24.7998 46.4298C24.7698 46.6898 24.5798 46.9998 24.4898 47.2798C24.3898 47.1798 24.5298 47.0398 24.5898 46.9098ZM24.7698 47.5298C24.8098 47.1998 24.9798 46.8098 25.1298 46.4998C25.0998 46.8398 24.8598 47.1698 24.7698 47.5298ZM24.9498 47.8998C24.9998 47.5398 25.2298 47.1698 25.3198 46.7898C25.4098 47.0598 25.2598 47.2598 25.1698 47.4998C25.0998 47.6698 25.0498 47.8398 24.9498 47.8998ZM25.1798 47.9798C25.1698 47.7598 25.3298 47.5198 25.3698 47.2798C25.4598 47.5598 25.1998 47.7198 25.1798 47.9798ZM25.4198 47.6898C25.4198 47.6898 25.4198 47.5298 25.4898 47.5398C25.4898 47.6098 25.4398 47.6398 25.4198 47.6898ZM25.5398 48.4798C25.5998 48.2698 25.7098 48.0898 25.7598 47.8698C25.7998 48.0198 25.6498 48.3298 25.5398 48.4798ZM27.9698 49.8398C28.2398 49.8298 28.5198 50.0098 28.7998 50.0698C28.5398 50.0698 28.2598 49.8898 27.9698 49.8398ZM28.7998 48.1998C28.5798 48.4198 28.4998 48.5098 28.0998 48.4898C27.7598 48.4798 27.3898 48.3698 27.1298 48.2498C27.1098 48.1898 27.2498 48.2498 27.2298 48.1998C27.0598 48.0798 26.6798 48.1998 26.6498 47.9098C26.2398 47.9598 25.9198 47.6998 25.6398 47.5098C25.4298 47.2998 25.5798 46.7598 25.3798 46.5098C25.0998 46.8298 25.0298 47.3298 24.8298 47.7198C24.9498 47.2898 25.1498 46.7598 25.3498 46.3398C25.4498 46.3398 25.5098 46.4098 25.6098 46.4198C25.6398 46.8098 25.7198 47.1298 25.8998 47.3298C25.9398 47.3498 25.9998 47.3498 26.0498 47.3598C26.5298 47.8498 27.2298 48.0598 28.0298 48.1598C28.0698 48.1898 28.0098 48.2198 28.0598 48.2598C28.4498 48.1698 28.7298 48.0698 28.9798 47.8598C29.0998 47.7598 29.1798 47.5998 29.2598 47.4798C29.3398 47.3698 29.4198 47.1798 29.5798 47.2198C29.4198 47.4998 29.0998 47.8798 28.7898 48.1798M28.0198 47.9698C28.0198 47.9698 28.1098 47.9498 28.1398 47.9398C28.1498 48.0398 28.0698 47.9798 28.0198 47.9698ZM28.8698 47.7498C28.7198 47.7798 28.6298 47.7498 28.4898 47.7598C28.6298 47.5198 28.9098 47.3998 29.0298 47.1398C29.0298 47.3098 28.8398 47.4898 28.8698 47.7498ZM29.2798 46.8898C29.2898 46.6998 29.1098 46.7598 29.0898 46.6098C29.0298 46.6098 28.9798 46.6198 28.9698 46.6598C28.4398 46.5498 27.8198 46.3898 27.1398 46.3898C26.6298 46.3898 26.1698 46.5098 25.7998 46.3398C25.9198 46.2098 26.1398 46.2698 26.2498 46.1098C26.3298 46.0898 26.2998 46.1898 26.3598 46.1798C26.6398 46.1698 27.1498 46.1198 27.5398 46.1198C27.6298 46.1198 27.6998 46.1198 27.7598 46.1898C28.0398 46.0798 28.4298 46.2398 28.7698 46.3998C29.1198 46.5598 29.4698 46.6898 29.5898 47.0298C29.4598 47.0098 29.4098 46.8998 29.2798 46.8898ZM29.5298 46.0398C29.6098 45.9198 29.6998 45.8198 29.7998 45.7198C29.7998 45.8198 29.6598 45.9798 29.5298 46.0398ZM38.6298 55.9098C38.6298 55.9098 38.6198 55.9398 38.6198 55.9598C38.6198 55.9798 38.6198 55.9998 38.6198 56.0298C38.5798 55.9898 38.5398 55.9498 38.5098 55.9098C38.5598 55.8998 38.5998 55.8998 38.6398 55.9098M31.7398 48.8198C31.7098 48.6998 31.8198 48.6898 31.8298 48.5998C31.8498 48.5998 31.8698 48.5998 31.8698 48.6198C31.8798 48.7398 31.8098 48.7798 31.7398 48.8198ZM31.7098 48.5198C31.6598 48.3298 31.8098 48.2998 31.8498 48.1898C31.9198 48.3198 31.8198 48.4798 31.7098 48.5198ZM31.6798 48.1598C31.6998 47.9798 31.8198 47.7098 32.0098 47.7898C31.9698 47.9698 31.7998 48.0398 31.6798 48.1598ZM35.4698 46.5398C35.4698 46.5398 35.5298 46.5398 35.5498 46.5398C35.6798 46.3598 35.7198 46.1098 35.7198 45.8298C35.7698 45.8298 35.7998 45.8598 35.8698 45.8298C35.8898 45.9898 35.8898 46.1798 35.9298 46.3098C35.8598 46.2898 35.8698 46.3098 35.8298 46.3398C35.8298 46.8598 35.3998 47.1098 34.9698 47.1998C34.9498 47.4098 34.6398 47.4798 34.4098 47.5698C34.4098 47.6198 34.4698 47.6098 34.5198 47.5998C34.2398 47.8298 33.8698 47.9898 33.3698 48.0398C33.3698 47.9798 33.3398 47.9698 33.3398 47.9198C33.2698 47.9498 33.2998 48.0498 33.2298 48.0798C33.0498 48.0398 32.8498 48.0198 32.7098 47.9298C32.7298 47.8998 32.7298 47.8698 32.7198 47.8198C32.5598 47.5998 32.2198 47.5898 32.0698 47.3698C32.0398 47.3698 32.0098 47.3698 31.9898 47.3698C31.8898 47.3698 32.0298 47.2998 32.0198 47.2598C31.9498 47.2198 31.8698 47.2798 31.8298 47.3198C31.7798 47.1998 31.8798 47.0298 32.0198 47.0098C32.4398 47.3998 32.8298 47.8298 33.5998 47.8098C33.6498 47.8098 33.6398 47.7498 33.6298 47.6998C34.4298 47.4598 35.0698 47.0998 35.4798 46.5398M34.6898 44.7198C34.6198 44.8298 34.5598 44.9298 34.5298 45.0698C34.4598 45.0898 34.4498 45.0398 34.3798 45.0698C34.4198 44.9098 34.4498 44.6498 34.6898 44.7298M34.3998 44.7298C34.3398 44.8298 34.2698 44.9098 34.2598 45.0598C34.1998 45.0598 34.1198 45.0798 34.0898 45.0598C34.1498 44.9198 34.1598 44.6598 34.3998 44.7398M34.0798 44.7298C34.0298 44.8298 33.9798 44.9298 33.9598 45.0598C33.9198 45.0598 33.8698 45.0598 33.8298 45.0698C33.9098 44.9498 33.8298 44.7098 34.0798 44.7298ZM33.8298 45.7298C33.8998 45.7698 33.9798 45.8198 34.1098 45.7898C33.6098 45.9998 32.9398 46.0698 32.4998 46.3298C32.4298 46.3798 32.4398 46.2998 32.3498 46.3298C32.3298 46.4098 32.2298 46.4298 32.1498 46.4698C32.4498 46.0898 33.1398 45.8498 33.8298 45.7298ZM32.1598 46.6198C31.9798 46.8198 31.6298 46.9198 31.5698 47.1598C31.5998 46.9198 31.8398 46.6898 32.1598 46.6198ZM31.6898 47.2298C31.6998 47.3498 31.5998 47.5498 31.4698 47.6098C31.4998 47.4498 31.6198 47.3598 31.6898 47.2298ZM31.2398 48.1798C30.9998 48.4498 30.9098 47.8598 31.2298 48.0298C31.2298 48.0798 31.2298 48.1298 31.2398 48.1798ZM30.0698 47.4798C30.0198 47.4798 29.9998 47.4498 29.9598 47.4498C29.8898 47.2498 30.0798 47.1798 30.1598 47.3098C30.1598 47.3898 30.0998 47.4298 30.0698 47.4898M29.9298 46.2998C29.9698 46.1698 30.1198 45.9798 30.2798 45.8898C30.3298 45.9098 30.0698 46.2498 29.9298 46.2998ZM30.2898 47.7998C30.2098 47.5898 30.4298 47.5298 30.5498 47.6098C30.5498 47.6798 30.5898 47.6698 30.5798 47.7398C30.5298 47.8298 30.3798 47.8998 30.2898 47.8098M30.5198 47.0298C30.5198 47.1298 30.4698 47.1698 30.3598 47.1698C30.2598 47.0298 30.4498 46.8698 30.5198 47.0298ZM30.3398 46.1198C30.3398 46.0198 30.4598 45.8598 30.6598 45.8598C30.6098 45.9898 30.4598 46.0498 30.3398 46.1198ZM30.8098 47.4098C30.5898 47.0098 31.2098 47.2698 30.8098 47.4098V47.4098ZM30.6798 46.6198C30.7898 46.4898 31.0098 46.3298 31.1598 46.2998C31.1098 46.4998 30.8398 46.5098 30.6798 46.6198ZM37.0498 59.4698C35.8198 60.2898 34.3398 61.0298 33.4598 61.2198C33.4598 61.3098 33.5098 61.3498 33.4998 61.4498C33.3998 61.4498 33.4298 61.3098 33.3998 61.2298C33.3498 61.2398 33.2998 61.2498 33.2498 61.2598C33.2498 61.3398 33.3198 61.4098 33.2698 61.4598C33.1698 61.4798 33.1798 61.3698 33.1698 61.2798C33.1198 61.2898 33.0698 61.2998 33.0198 61.3098C33.0198 61.3798 33.0498 61.4098 33.0598 61.4798C33.0298 61.5098 32.9698 61.5098 32.9098 61.5098C32.9098 61.4298 32.8798 61.3998 32.8698 61.3398C32.8298 61.3498 32.7898 61.3598 32.7398 61.3698C32.7498 61.4298 32.7598 61.4898 32.7798 61.5398C32.6798 61.5698 32.6398 61.4698 32.6398 61.3898C32.5898 61.3998 32.5398 61.4098 32.4898 61.4198C32.4998 61.4598 32.5198 61.5098 32.5298 61.5598C32.4998 61.5998 32.4098 61.5898 32.3398 61.5998C32.3198 61.5698 32.3098 61.5098 32.2998 61.4598C32.2498 61.4598 32.1998 61.4798 32.1598 61.4898C32.1598 61.5298 32.1698 61.5698 32.1698 61.6198C32.1098 61.6198 32.0398 61.6298 31.9798 61.6398C31.9798 61.5998 31.9698 61.5698 31.9598 61.5298C31.9098 61.5298 31.8598 61.5498 31.8098 61.5498C31.8098 61.5798 31.8098 61.5998 31.8098 61.6298C31.7798 61.6298 31.7398 61.6298 31.6998 61.6298C31.6798 61.6198 31.6798 61.5898 31.6698 61.5598C31.6198 61.5598 31.5698 61.5598 31.5198 61.5798C31.5198 61.5998 31.5198 61.6098 31.5198 61.6298C31.4798 61.6298 31.4698 61.6098 31.4598 61.5898C31.4098 61.5898 31.3598 61.5898 31.3098 61.5998C31.3098 61.5998 31.2698 61.6098 31.2498 61.5998C30.6598 61.6398 29.9998 61.5998 29.2298 61.4298C29.2498 61.4598 29.2598 61.4898 29.2598 61.5198C29.1998 61.4998 29.1598 61.4598 29.1398 61.4098C28.6898 61.2998 28.2098 61.1498 27.6898 60.9398C26.3598 60.3998 25.6498 59.4798 25.2698 58.6698C25.2498 58.6598 25.2498 58.6398 25.2498 58.6298C25.2198 58.5598 25.1798 58.4798 25.1598 58.4098C25.1498 58.4198 25.1398 58.4398 25.1198 58.4498C25.0798 58.3998 25.0898 58.3598 25.1198 58.3198C25.0398 58.1198 24.9898 57.9298 24.9498 57.7598C24.9498 57.7598 24.9498 57.7598 24.9398 57.7598C24.9398 57.7598 24.9398 57.7498 24.9398 57.7398C24.8498 57.3598 24.8298 57.1098 24.8298 57.1098C24.7998 57.0898 24.8098 57.0498 24.8498 57.0198C24.9398 56.7398 25.3298 56.8298 25.5398 56.8998C25.5398 56.8798 25.5498 56.8498 25.5698 56.8298C25.6298 56.8298 25.6798 56.8198 25.7398 56.8198C25.7698 56.8598 25.7698 56.9298 25.8298 56.9398C25.9498 56.9398 25.9798 56.8498 26.0798 56.8298C26.2598 57.0398 26.6498 56.9898 26.8098 57.2098C26.8498 57.2098 26.8898 57.2098 26.9398 57.1998C26.8998 57.2998 26.8498 57.3798 26.7998 57.4698C26.8298 57.4698 26.8598 57.4798 26.8898 57.4898C26.9298 57.3998 26.9698 57.3198 27.0098 57.2298C27.0098 57.2298 29.1998 57.4598 30.5498 57.3098C31.9098 57.1498 32.9798 56.7698 33.2498 56.6998C33.5198 56.6198 34.1498 56.4398 34.4998 56.3598C34.8498 56.2798 35.2998 56.1098 35.2998 56.1098C35.2998 56.1098 35.6198 56.1098 35.7798 56.0798C35.6698 56.1298 35.4998 56.3898 35.4498 56.4698C35.3098 56.6798 35.0298 56.7498 34.8498 56.9198C34.8698 56.9898 34.8498 57.0198 34.8498 57.0698C34.9998 57.0298 35.0498 56.8998 35.1898 56.8498C35.1598 56.9698 35.0798 57.0398 35.0498 57.1598C35.0998 57.2098 35.1398 57.2698 35.2098 57.2998C35.2098 57.1798 35.1898 57.0698 35.1598 56.9898C35.2198 56.9698 35.1898 56.8898 35.2598 56.8798C35.3498 57.0198 35.4598 57.2398 35.6298 57.2098C35.5898 57.0698 35.4198 56.9798 35.4898 56.7998C35.5098 56.7998 35.5098 56.7798 35.5298 56.7798C35.6998 56.8298 35.7298 57.0498 35.8998 57.1098C35.9398 57.0898 36.0598 57.0198 36.0898 57.0498C36.0498 57.1198 35.9598 57.1498 35.9398 57.2298C36.3198 57.3998 36.6698 57.6198 36.8798 57.9998C36.8598 58.0298 36.8498 58.0698 36.7998 58.0698C36.4198 57.8798 36.1998 57.4998 35.7598 57.3798C35.7198 57.6098 35.7398 57.8198 35.9298 57.8698C35.9498 57.8198 35.9598 57.7498 36.0498 57.7498C36.1598 57.8198 36.1198 58.0698 36.2498 58.1098C36.2498 57.9998 36.2498 57.8798 36.3598 57.8698C36.5098 57.8698 36.4598 58.1098 36.5398 58.1898C36.5998 58.0798 36.6898 58.2098 36.7698 58.1298C36.8298 58.1298 36.8198 58.2298 36.8698 58.2498C37.0298 58.1898 36.9998 58.5598 37.0598 58.6998C37.0798 58.5298 37.1098 58.3498 37.1598 58.1998C37.2098 58.2298 37.3098 58.1998 37.3398 58.2698C37.3198 58.4998 37.3898 58.6798 37.4098 58.8398C37.3598 58.8498 37.3298 58.8398 37.2998 58.8298C37.3098 58.8898 37.2498 58.9798 37.3198 59.0198C37.4898 58.8698 37.6998 58.7598 37.8798 58.6298C37.6698 58.8898 37.3598 59.1998 37.0498 59.4698ZM36.4298 56.6898C36.6198 56.5898 36.7898 56.7298 36.9098 56.7998C36.8598 56.6798 36.7098 56.6698 36.6198 56.5898C36.8698 56.3498 37.3298 56.8698 37.4098 57.1998C37.4598 57.2698 37.5398 57.4098 37.4598 57.4898C37.3498 57.5098 37.3298 57.4298 37.2598 57.3998C37.2998 57.4798 37.3398 57.5598 37.3698 57.6498C37.3698 57.6898 37.4398 57.6498 37.4598 57.6798C37.5298 57.8198 37.5898 57.9998 37.6498 58.1698C37.6998 58.3198 37.8498 58.5198 37.7298 58.6498C37.4498 58.4998 37.4798 58.0398 37.3498 57.7298C37.2998 57.6198 37.1798 57.4598 37.1098 57.3698C37.0498 57.2998 36.9598 57.2298 36.8698 57.2398C36.9298 57.3698 37.1898 57.4698 37.2698 57.6498C37.2698 57.7498 37.1998 57.7898 37.1398 57.8298C37.1698 57.9698 37.2798 58.0198 37.2798 58.1998C36.9698 58.0898 36.9598 57.7398 36.7998 57.5198C36.5998 57.2598 36.2298 57.2198 36.1098 56.8998C36.4598 56.8298 36.5898 57.1898 36.9598 57.1198C36.8998 56.9398 36.5298 56.9198 36.4598 56.6798M38.0098 58.1998C37.8698 58.1698 37.8398 57.9698 37.7898 57.8398C37.7198 57.6498 37.6598 57.4798 37.6298 57.2198C37.6298 57.1898 37.6498 57.1798 37.6498 57.1498C37.6698 57.1498 37.6898 57.1498 37.7098 57.1498C37.7998 57.2898 37.8598 57.4898 37.9298 57.6798C37.9898 57.8398 38.1398 58.0598 38.0198 58.1998M38.3498 57.5198C38.2998 57.3398 38.2298 57.1398 38.2398 56.9598C38.1598 56.9398 38.0698 56.9398 38.0398 56.8698C38.1098 57.1798 38.1998 57.4798 38.2698 57.7898C38.2398 57.8898 38.2098 57.9898 38.1698 58.0798C37.9798 57.6998 37.8698 57.0898 37.8798 56.6498C37.7298 56.5298 37.6598 56.3098 37.4598 56.2398C37.4998 56.3498 37.7198 56.4498 37.7698 56.6398C37.7798 56.7298 37.6998 56.7298 37.6998 56.8098C37.7398 56.8398 37.7998 56.9198 37.7598 56.9698C37.4798 56.7398 37.2198 56.4798 36.9798 56.2098C36.5398 56.2898 36.1498 55.9598 35.8198 56.0898C35.8898 55.9898 35.9898 55.8498 36.0698 55.8198C36.0998 55.8098 36.1298 55.7998 36.1598 55.7898L36.2098 55.8098C36.2098 55.8098 36.2698 55.8098 36.3498 55.7898C36.6198 55.8198 36.9198 55.9898 37.2498 55.9298C37.2698 55.9498 37.2898 55.9698 37.3098 55.9898C37.4598 55.9898 37.6198 55.9998 37.7798 56.0098C37.7598 55.9898 37.7498 55.9698 37.7398 55.9498C37.7798 55.9598 37.8098 55.9898 37.8398 56.0098C37.9298 56.0098 38.0098 56.0098 38.0998 56.0098C38.0998 56.0098 38.0598 55.9598 38.0398 55.9298C38.1098 55.9298 38.1798 55.9198 38.2498 55.9098C38.2898 55.9398 38.3198 55.9798 38.3598 56.0098C38.4498 56.0098 38.5398 56.0298 38.6198 56.0498C38.6198 56.1298 38.5998 56.2498 38.5798 56.3798C38.4998 56.2598 38.4098 56.1398 38.2498 56.1898C38.3198 56.2998 38.4698 56.3798 38.5598 56.4998C38.5398 56.6098 38.5198 56.7398 38.4998 56.8698C38.4098 56.5598 38.1798 56.3698 37.9898 56.1898C37.9198 56.1898 37.8498 56.1998 37.7798 56.2098C37.9198 56.3898 38.0598 56.5698 38.2098 56.7498C38.2098 56.6698 38.1998 56.5798 38.2798 56.5698C38.3598 56.7198 38.3998 56.9298 38.4498 57.1198C38.4198 57.2498 38.3898 57.3798 38.3598 57.5098" fill="white"/>
</svg>
