<svg width="89" height="60" viewBox="0 0 89 60" fill="none" xmlns="http://www.w3.org/2000/svg">
<path d="M62.6001 5.96972C62.8801 5.89972 63.1601 5.82972 63.4501 5.76972C64.0501 5.63972 65.3001 5.43972 66.5701 5.45972C68.5101 5.48972 70.9101 5.65972 70.7501 5.67972C69.0901 5.84972 67.2301 6.54972 66.0401 7.46972C64.7901 8.42972 63.7701 9.75972 62.7801 11.1897C62.1101 12.1597 60.0901 13.7697 57.8301 14.4697C55.1001 15.3197 52.1101 15.0097 51.7001 12.6397C51.5901 12.0097 51.8101 11.4197 51.7301 11.1997C51.7301 11.1997 51.7301 11.2097 51.7301 11.2197C51.6501 11.0097 51.0301 10.8097 50.6001 10.3097C49.0401 8.48972 50.7001 5.94972 53.0701 4.34972C55.0401 3.01972 57.5501 2.44972 58.7101 2.53972C60.4301 2.66972 62.0901 2.70972 63.6201 2.33972C65.0801 1.98972 66.4201 1.19972 67.5901 0.00972075C67.7101 -0.110279 66.6901 1.64972 65.4901 3.19972C64.7001 4.20972 63.7601 5.05972 63.2801 5.44972C63.0501 5.62972 62.8201 5.80972 62.6001 5.97972M51.7301 11.1897C53.6201 12.5797 55.2601 11.4197 56.7901 9.91972C57.4901 9.22972 58.1001 8.40972 58.8301 7.78972C57.8901 7.96972 56.8701 7.92972 55.8901 8.04972C53.7901 8.29972 51.8601 8.84972 51.7201 11.1897" fill="white"/>
<path d="M26.5801 0.0197207C27.5601 0.0297207 28.4701 0.139721 29.3601 0.279721C30.9301 0.529721 32.4401 1.09972 33.8201 1.87972C35.1601 2.63972 36.9301 3.92972 39.0401 4.72972C40.1501 5.15972 41.3301 5.65972 42.5501 6.00972C43.6901 6.33972 44.8801 6.49972 45.8301 7.01972C46.4101 7.33972 47.1101 7.63972 47.5901 8.00972C49.3301 9.34972 50.3101 11.0897 50.7401 12.9697C48.3801 10.3497 46.2401 9.37972 43.1401 7.99972C43.0301 7.94972 41.4101 7.34972 41.4101 7.17972C41.8201 7.75972 42.6001 8.06972 43.1301 8.39972C44.7901 9.41972 46.0201 9.93972 47.7301 11.3697C48.3101 11.8497 48.9201 12.2997 49.2801 12.6897C50.1101 13.5997 50.8301 14.5497 51.2101 15.6097C51.5401 16.5097 51.5701 17.4897 51.7401 18.5597C51.8401 19.2097 51.9501 20.3897 52.0201 20.9897C52.0901 21.5597 52.6101 22.5697 52.6101 22.9497C51.3701 21.4597 49.4901 20.5797 47.6201 21.4297C47.7201 20.5897 47.5701 19.7797 47.5601 19.0497C47.5401 15.8597 46.8301 13.6097 45.1801 11.9797C43.6701 10.4997 41.3201 9.57972 39.1901 8.28972C37.0201 6.96972 35.0001 5.04972 32.6401 3.19972C30.7501 1.71972 28.6801 0.459721 26.5801 0.0197207Z" fill="white"/>
<path d="M45.6901 14.6297C47.0001 16.1697 46.6301 19.7297 46.6301 21.8497C46.1601 21.6197 45.5701 21.1897 45.2701 20.4897C44.8401 19.4597 44.7601 18.0597 44.8401 16.8697C44.9001 16.0597 44.9901 15.3497 45.2701 14.9297C45.2901 14.8897 45.4101 14.8197 45.4401 14.7897C45.4601 14.7697 45.6401 14.6597 45.6801 14.6297" fill="white"/>
<path d="M67.4201 20.1397C68.1701 20.7497 68.6401 21.0397 67.8801 21.9597C67.6401 22.2497 67.2301 22.3097 66.7501 22.2997C65.1901 22.2497 65.3701 21.4297 65.7701 20.7497C65.9701 20.4097 66.1301 19.9497 66.4201 19.8097C66.6901 19.6797 67.0801 19.8597 67.4301 20.1397" fill="white"/>
<path d="M4.65012 52.0097L4.34012 52.8597C4.00012 52.3797 3.32012 51.9397 2.54012 51.9397C0.98012 51.9397 0.02012 53.1397 0.02012 54.5897C0.02012 56.0397 1.05012 57.2397 2.49012 57.2397C3.19012 57.2397 3.83012 56.8697 4.19012 56.2897V57.3197C4.19012 58.3497 3.55012 58.9597 2.50012 58.9597C1.88012 58.9597 1.29012 58.6297 1.00012 58.1497L0.31012 58.5497C0.73012 59.2797 1.54012 59.7797 2.51012 59.7797C4.03012 59.7797 5.06012 58.8497 5.06012 57.3197V52.0197H4.67012L4.65012 52.0097ZM4.18012 54.5897C4.18012 55.5997 3.52012 56.4297 2.54012 56.4297C1.56012 56.4297 0.88012 55.6097 0.88012 54.5897C0.88012 53.5697 1.51012 52.7497 2.53012 52.7497C3.48012 52.7497 4.15012 53.5297 4.18012 54.4997V54.5897Z" fill="white"/>
<path d="M10.5101 51.9297C8.98012 51.9297 7.98012 53.1297 7.98012 54.5797C7.98012 56.0297 9.02012 57.2297 10.5101 57.2297C12.0001 57.2297 13.0401 56.0297 13.0401 54.5797C13.0401 53.1297 12.0101 51.9297 10.5101 51.9297ZM10.5101 56.4097C9.50012 56.4097 8.86012 55.5897 8.86012 54.5897C8.86012 53.5897 9.50012 52.7697 10.5101 52.7697C11.5201 52.7697 12.1701 53.5897 12.1701 54.5897C12.1701 55.5897 11.5201 56.4097 10.5101 56.4097Z" fill="white"/>
<path d="M15.4301 52.0397H16.3701L16.5501 50.4897H17.1901V52.0397H18.6901V52.7697H17.1901V55.4897C17.1901 56.0997 17.5001 56.4097 17.9401 56.4097H18.7001L18.7301 57.1297C18.4901 57.1697 18.2401 57.1897 17.9401 57.1897C16.8601 57.1897 16.3401 56.4397 16.3401 55.4797V52.7597H15.4301V52.0297V52.0397Z" fill="white"/>
<path d="M26.0401 52.0297V57.1397H25.5001L25.3101 56.3797C24.9801 56.8997 24.3701 57.2397 23.7101 57.2397C22.2801 57.2397 21.5501 56.3097 21.5501 54.8697V52.0297H22.4101V54.8697C22.4101 55.8797 22.8101 56.4197 23.7801 56.4197C24.6101 56.4197 25.1901 55.8597 25.1801 54.8897V52.0297H26.0401Z" fill="white"/>
<path d="M30.1501 57.1397H29.2901V51.9997H29.6801L29.9901 52.8197C30.2801 52.2997 30.8701 51.9397 31.5201 51.9397C32.0301 51.9397 32.5201 52.1197 32.9201 52.4397L32.4701 53.0997C32.1501 52.8697 31.8501 52.7497 31.4901 52.7497C30.8201 52.7497 30.2501 53.2797 30.1401 53.9697V57.1397H30.1501Z" fill="white"/>
<path d="M37.5001 54.5197L40.0401 57.1397H38.9001L36.7701 54.9397H36.3101V57.1397H35.4501V49.2197H36.3101V54.1797H36.7401L38.7001 52.0397H39.8001L37.5001 54.5197Z" fill="white"/>
<path d="M43.5401 52.0397H42.6801V57.1397H43.5401V52.0397Z" fill="white"/>
<path d="M43.1101 49.6597C43.4501 49.6597 43.7301 49.9397 43.7301 50.2997C43.7301 50.6397 43.4501 50.9297 43.1101 50.9297C42.7701 50.9297 42.4901 50.6397 42.4901 50.2997C42.4901 49.9397 42.7701 49.6597 43.1101 49.6597Z" fill="white"/>
<path d="M48.5601 58.4697C48.2301 59.3097 47.6401 59.7497 46.7601 59.7497C46.5901 59.7497 46.4001 59.7297 46.2701 59.7097L46.3201 58.9997H46.7401C47.2501 58.9997 47.5501 58.7897 47.7401 58.3397L48.2301 57.1297L46.1901 52.0397H47.1001L48.6601 56.0797L50.2201 52.0397H51.1301L48.5501 58.4697H48.5601Z" fill="white"/>
<path d="M58.1201 54.4597C58.1201 53.1197 57.2101 51.9297 55.7201 51.9297C54.2301 51.9297 53.2601 53.1297 53.2601 54.5797C53.2601 56.1097 54.2901 57.2297 55.8601 57.2297C56.7401 57.2297 57.5101 56.8597 58.0201 56.1397L57.3001 55.7597C56.9301 56.2697 56.4101 56.4597 55.8601 56.4597C54.8401 56.4597 54.2101 55.7897 54.1501 54.8697H58.1001C58.1101 54.8097 58.1201 54.6397 58.1201 54.4497V54.4597ZM57.2401 54.1697H54.1701C54.2401 53.3397 54.8401 52.6997 55.7201 52.6997C56.6001 52.6997 57.1901 53.3497 57.2301 54.1597L57.2401 54.1697Z" fill="white"/>
<path d="M61.9701 55.9197C62.3401 55.9197 62.6301 56.2097 62.6301 56.5897C62.6301 56.9697 62.3401 57.2497 61.9701 57.2497C61.6201 57.2497 61.3201 56.9597 61.3201 56.5897C61.3201 56.2197 61.6201 55.9197 61.9701 55.9197Z" fill="white"/>
<path d="M68.2601 51.9297C69.1101 51.9297 69.8201 52.3097 70.3201 52.9797L69.6601 53.4697C69.3201 53.0397 68.8301 52.7597 68.2601 52.7597C67.2401 52.7597 66.6101 53.5797 66.6101 54.5797C66.6101 55.5797 67.2801 56.3997 68.3101 56.3997C68.8901 56.3997 69.3001 56.1997 69.6901 55.8397L70.2601 56.4197C69.7901 56.8997 69.1101 57.2297 68.3101 57.2297C66.8101 57.2297 65.7401 56.0297 65.7401 54.5797C65.7401 53.1297 66.7201 51.9297 68.2601 51.9297Z" fill="white"/>
<path d="M75.3901 51.9297C73.8601 51.9297 72.8601 53.1297 72.8601 54.5797C72.8601 56.0297 73.9001 57.2297 75.3901 57.2297C76.8801 57.2297 77.9201 56.0297 77.9201 54.5797C77.9201 53.1297 76.8901 51.9297 75.3901 51.9297ZM75.3901 56.4097C74.3801 56.4097 73.7401 55.5897 73.7401 54.5897C73.7401 53.5897 74.3801 52.7697 75.3901 52.7697C76.4001 52.7697 77.0501 53.5897 77.0501 54.5897C77.0501 55.5897 76.4001 56.4097 75.3901 56.4097Z" fill="white"/>
<path d="M85.2901 57.1397H84.4401V54.2197C84.4401 53.3497 83.9801 52.7497 83.1201 52.7497C82.4801 52.7497 81.9401 53.1597 81.7301 53.7597V57.1397H80.8701V51.9997H81.2601L81.6001 52.7897C81.9301 52.2997 82.5001 51.9397 83.1501 51.9397C83.9001 51.9397 84.5501 52.3097 84.9201 52.8997C85.3501 52.2797 85.9901 51.9397 86.6801 51.9397C87.8701 51.9397 88.7601 52.7797 88.7601 54.1597V57.1397H87.9101V54.2297C87.9101 53.3797 87.5201 52.7497 86.6201 52.7497C85.9801 52.7497 85.4601 53.1897 85.2601 53.7597V57.1397H85.2901Z" fill="white"/>
<path d="M31.4401 22.9397C31.5801 22.5897 32.0201 21.9697 32.6501 21.5697C33.0501 21.3097 33.5501 21.1797 33.9501 21.0397C34.2501 20.9397 34.4701 20.7897 34.6701 20.8297C34.9201 20.8797 35.0601 21.1297 35.0601 21.4297C35.0601 21.6097 34.9101 21.8397 34.7701 22.0097C34.5401 22.2897 34.1101 22.5097 33.6801 22.7497C33.4801 22.8597 33.3001 22.9997 33.1101 23.1197C32.2801 23.5997 31.5601 24.0697 31.5601 24.0497C31.3401 24.0197 31.3201 23.7397 31.3201 23.5297C31.3201 23.2897 31.3501 23.1197 31.4401 22.9497" fill="white"/>
<path d="M35.2501 25.1497C35.3801 25.1497 35.6701 24.8497 36.0301 24.6097C36.4701 24.3097 37.0101 24.0497 37.1901 23.9097C37.6701 23.5197 38.3401 23.3397 38.6401 22.5697C38.7301 22.3497 38.4601 21.9697 38.3101 21.9397C38.2601 21.9397 36.5501 22.5097 36.3901 22.5997C35.8001 22.9297 34.1401 24.5997 35.2301 25.1497" fill="white"/>
<path d="M5.72012 25.4997C4.83012 26.0297 -2.93988 29.8097 1.22012 30.5297C2.15012 30.6897 3.38012 30.6197 4.78012 30.2097C7.83012 29.3097 11.3401 27.3897 12.5401 26.7097C14.9801 25.3197 17.4401 23.8397 20.0301 22.6297C22.9601 21.2597 26.0401 20.1897 29.0901 19.4097C32.2001 18.6097 35.4301 17.9597 38.8201 18.0697C39.3201 18.0897 39.1801 18.3497 38.9901 18.5497C42.0901 17.8497 37.3501 16.8297 36.6101 16.7397C33.1101 16.3497 29.5601 16.5497 26.2501 17.1397C20.8401 18.0897 12.1101 21.6697 5.72012 25.5097" fill="white"/>
<path d="M18.1301 37.1597C17.0701 36.5697 18.2601 32.2597 18.7201 31.1497C19.2601 29.8497 19.7701 28.4097 20.0801 27.1397C20.4501 25.6397 20.3201 24.3797 19.6701 23.7097C19.2101 23.2397 21.5101 23.0597 22.2201 23.4497C24.8401 24.8997 24.7801 27.0197 23.8101 28.6197C23.1901 29.6497 21.9901 30.3097 21.5301 30.9697C20.2601 32.7897 19.3701 34.7697 18.1301 37.1697" fill="white"/>
<path d="M26.2401 24.5297C28.5401 22.3597 30.5901 24.0997 30.6801 26.2897C30.7101 26.9097 30.4501 27.5697 30.1701 28.1697C30.0501 28.4297 29.9401 28.7997 29.7801 29.1397C29.5201 29.6997 29.1901 30.2397 29.0401 30.6297C30.1201 30.6297 36.5701 24.2497 36.6701 27.6997L36.7501 30.5497C36.7701 31.3197 37.3901 33.6597 36.2801 33.6597C34.5901 33.6597 35.2401 30.0897 35.0901 28.7597C35.3901 29.1997 31.4201 31.8897 29.6401 32.3897C29.3201 32.4797 29.0401 32.4997 28.8101 32.4697C28.4101 32.4297 28.1201 32.2597 27.8701 32.1297C27.2101 31.7697 26.9901 31.1597 27.3901 30.3297C27.8101 29.4397 28.2701 28.3397 28.6501 27.3597C29.2201 25.8697 29.5601 24.8497 28.2401 25.0797C27.7801 25.1597 26.2401 25.0897 26.2401 24.5297Z" fill="white"/>
<path d="M39.0701 26.3997C39.9401 26.3597 40.3701 27.5997 40.2701 27.8397C41.9801 26.5697 43.7301 25.1797 45.4301 24.0497C46.3501 23.4297 47.2101 22.8197 48.1501 22.4997C49.1701 22.1397 51.5901 22.8597 50.6401 24.1897C50.5301 24.3397 50.5801 24.5697 50.5101 24.7597C50.4501 24.9197 50.2501 25.0397 50.2201 25.1497C49.7901 26.9197 49.2601 25.5397 49.0401 25.3697C48.8101 25.1797 48.3701 25.2697 48.0101 25.2997C46.8801 25.3797 45.1301 26.4597 44.0901 27.0997C42.8401 27.8697 42.2001 28.6497 41.2801 29.0397C40.9301 29.1897 40.4301 28.8697 40.3001 28.9997C40.1301 29.1697 40.1801 29.4197 40.1501 29.6797C40.0301 30.6597 39.5801 31.6297 39.5601 32.6197C39.5601 33.2397 39.5801 33.6597 39.2301 33.6397C38.7001 33.5997 38.2701 32.9097 38.1801 32.2797C38.0301 31.2497 38.5701 29.2397 38.7601 28.2097C38.8601 27.6597 38.9801 26.9697 39.0601 26.4197" fill="white"/>
<path d="M54.7901 18.8097C54.6601 18.8097 54.5301 18.8197 54.4101 18.7797C53.9901 18.6197 55.0201 18.1697 55.2501 18.3397C56.8901 19.4597 56.3701 21.3597 55.8101 22.9097C55.5501 23.6197 55.2001 24.2197 55.1801 24.7097C56.3101 24.5197 57.5901 23.6397 58.8101 23.0997C59.2901 22.8897 59.8101 22.7397 60.2001 22.6097C60.2701 22.5897 60.4501 22.4097 60.5201 22.3797C61.0701 22.1197 61.6201 22.8597 61.6201 23.3097C61.6201 23.3597 61.5101 23.7897 61.1501 23.8097C60.3101 23.8397 58.8701 24.6097 57.5801 25.2797C57.1601 25.4997 56.7001 25.6697 56.3401 25.8697C56.0001 26.0597 55.7301 26.2197 55.5801 26.2797C54.9701 26.5297 52.9201 27.5797 54.7001 27.7597C55.9701 27.8897 57.2001 28.3197 58.4501 28.5297C59.2201 28.6597 59.8201 28.6597 60.3701 28.9297C60.8401 29.1597 61.3601 29.7997 60.7001 30.4697C60.3701 30.7997 60.2201 30.7697 59.7901 30.7697C59.2001 30.7697 59.5801 30.0097 59.1401 30.0097C58.6301 30.0497 56.2801 29.2697 54.5901 29.1397C53.7501 29.0797 53.0601 29.2497 52.8301 29.8697C52.6201 30.4597 52.4001 30.9997 52.2901 31.5897C52.2401 31.8497 52.0101 32.0997 52.1601 32.3897C52.1601 32.3897 52.5801 32.4397 52.6101 32.5397C52.6901 32.8897 52.2401 33.3697 52.0001 33.2597C51.4101 32.9997 50.9901 32.4397 50.8901 31.8297C50.7401 30.8797 51.0801 29.8497 50.7101 29.9397C50.0201 30.1097 49.5401 30.3797 49.2101 30.3197C48.6201 30.2197 47.9701 28.9597 48.2501 28.3997C48.3801 28.1397 48.6801 27.8397 49.2101 27.4997C49.7001 27.1797 50.3801 27.0097 50.9901 26.7197C51.4701 26.4897 51.8901 26.1697 52.2301 25.7897C52.5101 25.4797 52.8701 24.8097 53.1801 23.9297C53.4201 23.2497 53.5801 22.4197 53.9301 21.7197C54.3301 20.9297 54.9901 19.7397 54.7901 18.8297" fill="white"/>
<path d="M64.5901 32.7997C64.3401 32.7297 63.9901 32.5097 63.8801 32.4097C63.6701 32.1997 63.3901 32.5697 63.2301 32.4997C62.3101 32.1197 61.8101 31.6497 61.6401 30.9997C61.5601 30.7097 62.2101 29.5597 62.3201 29.2997C62.7201 28.3897 63.1901 27.3897 63.5601 26.7097C64.6901 24.6497 65.3301 23.9497 65.3301 23.6297C68.1701 23.6297 64.7301 28.6597 64.8701 29.6497C65.0601 30.9597 65.4701 31.3497 65.4201 31.7697C65.3901 32.0297 65.3001 32.2997 64.5901 32.7897" fill="white"/>
<path d="M70.4001 22.7797C70.6701 23.2197 70.5601 24.1397 70.3201 24.9397C70.0501 25.8397 69.3801 26.7497 69.3101 27.5097C69.0001 30.6497 73.7301 26.6797 74.2901 26.2997C75.2601 25.6397 76.2101 24.9697 76.7201 24.9697C77.2501 25.3197 77.3101 25.9997 77.2201 26.8897C76.7601 31.1097 74.7201 35.5997 73.3101 39.9297C72.9801 40.9297 72.1601 43.1497 71.7701 45.1697C71.5501 46.2997 71.9401 47.5397 71.4901 48.0197C70.8301 48.7197 69.4601 48.2197 68.3301 45.8897C68.0801 45.3797 67.9201 44.2097 68.3901 42.7897C68.9001 41.2697 70.0901 39.4597 71.0601 37.5497C72.3401 35.0197 73.9801 32.5097 75.0001 30.4397C76.0501 28.3297 76.3201 26.6097 76.1301 26.5897C75.6401 27.0297 74.6001 28.0897 73.3401 28.9497C71.8301 29.9697 69.6401 31.0797 68.2001 29.3497C67.7101 28.7497 67.5001 27.9497 67.5101 27.1897C67.5301 25.4497 68.8201 24.4697 69.6701 23.6197C69.9801 23.3097 70.3301 23.1097 70.4101 22.7897" fill="white"/>
<path d="M86.8501 21.8297C85.3101 21.1097 83.0401 22.6997 80.9901 24.6397C79.3601 26.1897 77.8101 27.9297 77.8701 29.3797C77.8901 29.8597 78.1901 30.3397 78.6001 30.7197C78.9601 31.0597 79.5301 31.5197 80.2201 31.6097C82.0701 31.8497 84.1101 30.5397 85.3101 29.4397C86.1801 28.6397 87.2701 27.8397 87.7001 26.9697C87.8401 26.6797 87.7001 26.3097 87.7001 26.0097C86.6401 26.5797 83.4501 28.7297 81.6801 29.6497C80.5801 30.2197 79.9901 30.3697 80.4001 29.0497C80.5401 28.6097 80.8401 28.3997 81.1701 28.2997C82.2301 27.9597 83.4501 27.0597 84.7301 26.2197C85.7301 25.5697 86.8101 25.0097 87.5401 24.4697L88.4101 23.8197C89.7701 22.8097 87.2001 22.0197 86.8501 21.8497V21.8297ZM83.7501 25.0597C83.6301 25.1697 83.4901 25.2297 83.3601 25.3397C82.6701 25.9497 81.8601 26.4697 81.2601 27.0897C81.2701 26.6797 82.0501 25.5897 82.3801 25.2597C82.6101 25.0297 82.8001 24.7397 83.0301 24.4897C83.4401 24.0397 83.8901 23.6397 84.3801 23.3497C84.7401 23.1397 85.1401 22.9597 85.6201 22.9797C86.3901 23.0197 83.9401 24.8597 83.7401 25.0497L83.7501 25.0597Z" fill="white"/>
</svg>
