<svg width="139" height="18" viewBox="0 0 139 18" fill="none" xmlns="http://www.w3.org/2000/svg">
<path fill-rule="evenodd" clip-rule="evenodd" d="M7.21412 0H24.4433L16.6868 18H0L7.21412 0Z" fill="white"/>
<path fill-rule="evenodd" clip-rule="evenodd" d="M121.771 0H139L131.244 18H114.557L121.771 0Z" fill="white"/>
<path fill-rule="evenodd" clip-rule="evenodd" d="M27.0585 1.74706H31.6574L26.7836 13.6815C26.7836 13.6815 26.2413 14.9672 27.0511 15.058C27.8609 15.1487 28.4924 15.1487 29.124 13.6815C29.7555 12.1235 33.9978 1.74706 33.9978 1.74706H38.24L33.7303 13.2277C33.7303 13.2277 32.5564 17.637 26.6053 17.5462C26.6053 17.5462 24.1684 17.7277 23.0911 16.9034C21.9173 15.9882 22.0064 14.7933 22.3705 13.6891C22.6379 12.6756 27.0585 1.75462 27.0585 1.75462V1.74706Z" fill="white"/>
<path fill-rule="evenodd" clip-rule="evenodd" d="M34.0052 17.2588L40.142 1.74706H46.0931L44.5552 13.0387L49.0649 1.74706H52.4974L46.3606 17.2588H40.7735L42.5715 4.22017L37.3411 17.2588H34.0052Z" fill="white"/>
<path fill-rule="evenodd" clip-rule="evenodd" d="M54.392 1.74706H58.8126L52.6757 17.2588H48.166L54.392 1.74706Z" fill="white"/>
<path fill-rule="evenodd" clip-rule="evenodd" d="M67.3789 1.74706H60.8854L54.6594 17.2664H59.08L61.8735 10.1042C61.9627 10.1042 62.141 10.195 62.8691 10.195C63.9538 10.2857 63.6789 11.4807 63.6789 11.4807C63.6789 11.4807 62.3267 15.058 62.1484 15.4286C61.881 16.0714 62.0593 17.2664 62.0593 17.2664H66.4799C66.2124 16.9941 66.4799 15.7084 66.4799 15.7084C66.4799 15.7084 67.9212 12.4941 68.2853 10.9361C68.6493 9.37815 67.2897 9.18908 67.2005 9.09832C67.2005 9.00756 65.7592 8.91681 65.7592 8.91681C69.0059 8.45546 70.1798 7.07899 70.9005 4.32605C71.532 1.66387 67.3863 1.75462 67.3863 1.75462L67.3789 1.74706ZM66.205 4.86303C65.9375 5.87647 65.6626 6.97311 64.942 7.43445C64.3104 7.80504 63.8572 7.98655 62.7799 7.8958L64.407 3.9479C64.407 3.9479 66.4799 3.85714 66.2124 4.86303H66.205Z" fill="white"/>
<path fill-rule="evenodd" clip-rule="evenodd" d="M79.0136 1.46723C73.3299 1.46723 72.1561 5.59664 72.1561 5.59664C72.1561 5.59664 69.266 12.5773 68.9093 13.7723C68.5453 14.9672 68.1887 17.7202 72.7876 17.5387C79.1919 17.5387 80.2766 13.2202 80.2766 13.2202C80.2766 13.2202 83.0701 6.33025 83.345 5.32437C83.7091 4.31092 84.6972 1.46723 79.0136 1.46723ZM79.1919 4.96134C78.9244 6.06555 75.5811 13.8706 75.5811 13.8706C75.5811 13.8706 75.3137 15.2471 73.7757 15.0655C72.7802 15.0655 73.1442 14.3319 73.1442 14.0521C73.2334 13.7798 76.755 4.96134 76.755 4.96134C76.755 4.96134 77.3865 3.85714 78.1963 3.9479C79.0061 3.9479 79.3702 3.85714 79.1919 4.96134Z" fill="white"/>
<path fill-rule="evenodd" clip-rule="evenodd" d="M84.6972 1.74706H89.1178L88.308 7.8958L92.3645 1.74706H96.696L89.0287 11.5714L86.7701 17.2588H82.3495L84.608 11.5714L84.6972 1.74706Z" fill="white"/>
<path fill-rule="evenodd" clip-rule="evenodd" d="M98.6797 1.74706L89.3927 17.2664H93.0926L95.3512 13.5H97.699L96.7034 17.2664H101.124L104.735 1.74706H98.6797ZM98.3156 11.1101H96.6885L100.203 4.12941L98.3082 11.1101H98.3156Z" fill="white"/>
<path fill-rule="evenodd" clip-rule="evenodd" d="M108.598 1.74706H113.108L107.788 14.8765H112.566L111.667 17.2588H102.469L108.598 1.74706Z" fill="white"/>
<path fill-rule="evenodd" clip-rule="evenodd" d="M114.824 4.12941H114.557V2.47311H115.277C115.641 2.47311 115.82 2.56387 115.82 2.93445C115.82 3.20672 115.641 3.3958 115.367 3.3958L115.909 4.12941H115.545L115.092 3.3958H114.824V4.12941ZM115.188 3.21429C115.367 3.21429 115.552 3.21429 115.552 2.94202C115.552 2.66975 115.374 2.66975 115.188 2.66975H114.824V3.22185H115.188V3.21429ZM115.188 4.86303C114.289 4.86303 113.658 4.12941 113.658 3.30504C113.658 2.2916 114.378 1.74706 115.188 1.74706C115.998 1.74706 116.719 2.29916 116.719 3.30504C116.719 4.22017 115.998 4.86303 115.188 4.86303ZM115.188 2.01933C114.468 2.01933 114.014 2.48067 114.014 3.30504C114.014 3.9479 114.468 4.59076 115.188 4.59076C115.82 4.59076 116.362 4.03866 116.362 3.30504C116.362 2.48067 115.82 2.01933 115.188 2.01933Z" fill="white"/>
</svg>
