<svg width="63" height="63" viewBox="0 0 63 63" fill="none" xmlns="http://www.w3.org/2000/svg">
<path d="M31.44 59.99C15.78 59.99 2.96 47.1 2.96 31.44C2.96 27.92 3.59 24.59 4.78 21.44L21.44 54.95C21.63 55.39 21.94 55.77 22.45 55.77C22.96 55.77 23.27 55.39 23.46 54.95L31.13 37.78C31.19 37.59 31.32 37.4 31.51 37.4C31.7 37.4 31.76 37.59 31.89 37.78L39.56 54.95C39.75 55.39 40.06 55.77 40.57 55.77C41.08 55.77 41.39 55.39 41.58 54.95L58.24 21.44C59.43 24.58 60.06 27.92 60.06 31.44C59.93 47.1 47.11 59.99 31.45 59.99H31.44ZM31.44 24.96C31.25 24.96 31.19 24.77 31.06 24.58L22.13 4.46C25.02 3.39 28.17 2.83 31.44 2.83C34.71 2.83 37.85 3.4 40.75 4.46L31.82 24.58C31.69 24.83 31.63 24.96 31.44 24.96ZM22.32 45.65C22.13 45.65 22.07 45.46 21.94 45.27L7.48 16.1C10.06 12.14 13.52 8.81 17.73 6.48L28.17 29.68C28.3 30.06 28.61 30.18 28.92 30.18H33.95C34.33 30.18 34.58 30.12 34.77 29.68L45.21 6.48C49.36 8.81 52.88 12.14 55.46 16.1L40.87 45.28C40.81 45.47 40.68 45.66 40.49 45.66C40.3 45.66 40.24 45.47 40.11 45.28L34.64 32.83C34.45 32.39 34.2 32.33 33.82 32.33H28.79C28.41 32.33 28.16 32.39 27.97 32.83L22.69 45.28C22.63 45.47 22.5 45.66 22.31 45.66L22.32 45.65ZM31.44 62.88C48.86 62.88 62.88 48.86 62.88 31.44C62.88 14.02 48.86 0 31.44 0C14.02 0 0 14.02 0 31.44C0 48.86 14.02 62.88 31.44 62.88Z" fill="white"/>
</svg>
