<svg width="95" height="19" viewBox="0 0 95 19" fill="none" xmlns="http://www.w3.org/2000/svg">
<path d="M40.91 10.48C40.47 10.38 40.11 10.3 39.85 10.23C39.58 10.17 39.38 10.09 39.24 10.01C39.1 9.93 39.01 9.84 38.97 9.75C38.93 9.66 38.91 9.54 38.91 9.4C38.91 9.12 39.04 8.9 39.29 8.74C39.54 8.58 39.87 8.49 40.28 8.49C41.06 8.49 41.86 8.7 42.68 9.13L44.17 6.24C42.86 5.7 41.52 5.43 40.13 5.43C39.28 5.43 38.51 5.54 37.82 5.75C37.13 5.96 36.53 6.26 36.05 6.66C35.56 7.05 35.18 7.53 34.92 8.09C34.66 8.65 34.53 9.29 34.53 9.99C34.53 10.95 34.8 11.71 35.35 12.25C35.9 12.8 36.86 13.21 38.23 13.49C38.64 13.57 38.97 13.65 39.22 13.72C39.47 13.79 39.66 13.87 39.79 13.97C39.92 14.06 40.01 14.16 40.05 14.26C40.09 14.37 40.11 14.5 40.11 14.66C40.11 14.94 39.98 15.17 39.72 15.35C39.46 15.53 39.12 15.62 38.72 15.62C37.61 15.62 36.43 15.2 35.19 14.35L33.57 17.49C35.22 18.45 36.89 18.93 38.59 18.93C39.47 18.93 40.28 18.82 41.01 18.6C41.74 18.38 42.37 18.07 42.9 17.67C43.42 17.27 43.83 16.78 44.12 16.19C44.41 15.6 44.56 14.94 44.56 14.21C44.56 13.23 44.26 12.43 43.65 11.8C43.04 11.17 42.13 10.73 40.91 10.49V10.48Z" fill="white"/>
<path d="M14.84 0C14.43 0 14.06 0.25 13.91 0.63L9.68 11.24L5.47 0.63C5.32 0.25 4.95 0 4.54 0H0L7.76 18.47H11.58L19.37 0H14.83H14.84Z" fill="white"/>
<path d="M30.51 7.34C29.83 6.74 29.03 6.28 28.11 5.94C27.19 5.6 26.19 5.44 25.11 5.44C24.03 5.44 23.01 5.61 22.08 5.95C21.16 6.29 20.36 6.76 19.69 7.36C19.02 7.96 18.5 8.66 18.12 9.47C17.74 10.28 17.56 11.15 17.56 12.08C17.56 13.11 17.75 14.04 18.12 14.89C18.49 15.73 19.01 16.45 19.67 17.06C20.33 17.67 21.12 18.13 22.03 18.46C22.95 18.79 23.94 18.95 25.02 18.95C26.1 18.95 27.13 18.79 28.07 18.46C29.01 18.13 29.81 17.67 30.48 17.08C31.15 16.48 31.68 15.77 32.06 14.95C32.44 14.13 32.64 13.22 32.64 12.22C32.64 11.22 32.45 10.31 32.08 9.49C31.7 8.67 31.18 7.96 30.5 7.36L30.51 7.34ZM27.74 13.29C27.59 13.64 27.38 13.95 27.13 14.21C26.88 14.47 26.57 14.68 26.22 14.82C25.87 14.97 25.5 15.04 25.11 15.04C24.72 15.04 24.35 14.97 24 14.82C23.65 14.67 23.35 14.47 23.09 14.21C22.84 13.95 22.63 13.64 22.48 13.29C22.33 12.94 22.25 12.55 22.25 12.13C22.25 11.74 22.33 11.37 22.48 11.03C22.63 10.69 22.84 10.39 23.09 10.12C23.34 9.86 23.64 9.66 24 9.51C24.35 9.36 24.72 9.29 25.11 9.29C25.5 9.29 25.87 9.36 26.22 9.51C26.57 9.66 26.87 9.86 27.13 10.12C27.38 10.38 27.59 10.69 27.74 11.04C27.89 11.39 27.97 11.76 27.97 12.15C27.97 12.54 27.89 12.94 27.74 13.29Z" fill="white"/>
<path d="M66.41 6.75C66.03 6.38 65.58 6.11 65.06 5.94C64.54 5.77 63.98 5.68 63.39 5.68C61.54 5.68 60.12 6.47 59.13 8.06C58.15 6.49 56.73 5.71 54.87 5.71C53.37 5.71 52.01 6.29 50.8 7.45V6.41C50.8 6.13 50.58 5.91 50.3 5.91H46.37V18.48H50.8V12.28C50.8 11.61 50.85 11.07 50.96 10.65C51.07 10.23 51.21 9.91 51.4 9.67C51.59 9.43 51.8 9.27 52.05 9.19C52.29 9.11 52.56 9.07 52.83 9.07C53.16 9.07 53.44 9.12 53.69 9.21C53.93 9.3 54.13 9.47 54.29 9.71C54.44 9.96 54.56 10.29 54.65 10.7C54.73 11.12 54.77 11.64 54.77 12.28V18.48H59.2V12.28C59.2 10.21 59.91 9.17 61.33 9.17C61.59 9.17 61.84 9.21 62.07 9.29C62.3 9.37 62.5 9.53 62.67 9.75C62.84 9.98 62.97 10.3 63.06 10.71C63.15 11.12 63.19 11.64 63.19 12.28V18.48H67.62V10.32C67.62 9.49 67.51 8.78 67.29 8.19C67.07 7.6 66.77 7.12 66.4 6.76L66.41 6.75Z" fill="white"/>
<path d="M81.44 7.3C80.85 6.7 80.13 6.23 79.29 5.92C78.44 5.6 77.49 5.44 76.42 5.44C75.35 5.44 74.37 5.6 73.52 5.92C72.66 6.24 71.93 6.69 71.33 7.28C70.73 7.87 70.26 8.58 69.93 9.42C69.6 10.26 69.44 11.2 69.44 12.25C69.44 13.3 69.61 14.18 69.95 14.99C70.29 15.81 70.78 16.51 71.41 17.1C72.04 17.69 72.79 18.14 73.68 18.46C74.56 18.78 75.53 18.94 76.6 18.94C80.06 18.94 82.23 17.5 83.09 14.63H78.8C78.31 15.41 77.58 15.81 76.62 15.81C74.82 15.81 73.93 14.86 73.93 12.94H83.26V12.47C83.26 11.38 83.1 10.39 82.79 9.52C82.48 8.65 82.03 7.91 81.44 7.3ZM74.05 10.36C74.16 9.71 74.44 9.2 74.87 8.84C75.3 8.48 75.86 8.3 76.55 8.3C77.24 8.3 77.76 8.49 78.22 8.86C78.68 9.24 78.98 9.73 79.13 10.35H74.06L74.05 10.36Z" fill="white"/>
<path d="M94.01 5.63H93.63C92.71 5.63 91.91 5.83 91.23 6.23C90.54 6.63 89.96 7.21 89.49 7.96V6.4C89.49 6.12 89.27 5.9 88.99 5.9H85.06V18.47H89.49V13.08C89.49 11.9 89.75 11.01 90.26 10.4C90.78 9.79 91.55 9.48 92.57 9.48C93.26 9.48 93.89 9.63 94.48 9.92V5.68C94.3 5.65 94.14 5.63 94 5.63H94.01Z" fill="white"/>
</svg>
