<svg width="106" height="25" viewBox="0 0 106 25" fill="none" xmlns="http://www.w3.org/2000/svg">
<path fill-rule="evenodd" clip-rule="evenodd" d="M19.38 1.93C13.8 1.93 9.28 6.45 9.28 12.03C9.28 17.61 13.8 22.13 19.38 22.13C24.96 22.13 29.48 17.61 29.48 12.03C29.48 6.45 24.96 1.93 19.38 1.93ZM25.12 14.74V18.29H13.19L18.52 9.36H13.35V5.83H25.54L20.18 14.74H25.13H25.12Z" fill="white"/>
<path fill-rule="evenodd" clip-rule="evenodd" d="M16.66 24.06C7.24 23.23 0 18.16 0 12.03C0 5.9 7.23 0.83 16.65 0C16.69 0 16.72 0.03 16.72 0.07C16.72 0.1 16.7 0.13 16.67 0.13C11.24 1.36 7.18 6.22 7.18 12.03C7.18 17.84 11.24 22.69 16.67 23.93C16.7 23.93 16.72 23.96 16.72 23.99C16.72 24.03 16.69 24.06 16.65 24.06H16.66Z" fill="white"/>
<path fill-rule="evenodd" clip-rule="evenodd" d="M22.11 24.06C31.53 23.23 38.77 18.16 38.77 12.03C38.77 5.9 31.53 0.83 22.12 0C22.08 0 22.05 0.03 22.05 0.07C22.05 0.1 22.07 0.13 22.1 0.13C27.53 1.36 31.59 6.22 31.59 12.03C31.59 17.84 27.53 22.69 22.1 23.93C22.07 23.93 22.05 23.96 22.05 23.99C22.05 24.03 22.08 24.06 22.12 24.06H22.11Z" fill="white"/>
<path fill-rule="evenodd" clip-rule="evenodd" d="M47.54 16.17L54.37 4.85H42.36V8.04H48.06L41.18 19.37H53.62V16.17H47.54Z" fill="white"/>
<path fill-rule="evenodd" clip-rule="evenodd" d="M61.44 4.36C57.26 4.36 53.41 7.44 53.41 11.83C53.41 16.53 56.78 19.84 61.44 19.84C66.1 19.84 69.47 16.53 69.47 11.83C69.47 7.44 65.62 4.36 61.44 4.36ZM61.44 8.02C63.69 8.02 65.54 9.85 65.54 11.85C65.54 14.35 63.69 16.18 61.44 16.18C59.19 16.18 57.34 14.35 57.34 11.85C57.34 9.85 59.19 8.02 61.44 8.02Z" fill="white"/>
<path fill-rule="evenodd" clip-rule="evenodd" d="M78.2 13.42C80.26 13.05 81.38 11.32 81.38 9.32C81.38 6.22 79.2 4.85 76.33 4.85H70.69V19.37H74.46V13.78H74.5L78.06 19.37H82.76L78.2 13.42ZM74.47 7.74H74.84C76.07 7.74 77.46 7.97 77.46 9.55C77.46 11.13 76.07 11.36 74.84 11.36H74.47V7.74Z" fill="white"/>
<path fill-rule="evenodd" clip-rule="evenodd" d="M87.56 4.85H83.78V19.37H92.08V16.17H87.56V4.85Z" fill="white"/>
<path fill-rule="evenodd" clip-rule="evenodd" d="M101.75 4.85V12.5C101.75 14.39 101.62 16.45 99.19 16.45C96.76 16.45 96.63 14.39 96.63 12.5V4.85H92.85V13.02C92.85 14.89 92.93 16.74 94.37 18.14C95.58 19.33 97.49 19.76 99.19 19.76C100.89 19.76 102.79 19.34 104 18.14C105.44 16.73 105.52 14.88 105.52 13.02V4.85H101.75Z" fill="white"/>
</svg>
