<svg width="433" height="125" viewBox="0 0 433 125" fill="none" xmlns="http://www.w3.org/2000/svg">
<mask id="path-1-outside-1_69_7176" maskUnits="userSpaceOnUse" x="-1" y="-1" width="435" height="127" fill="black">
<rect fill="white" x="-1" y="-1" width="435" height="127"/>
<path d="M0.02 27.024C0.02 19.3413 3.34533 13.0347 9.996 8.10399C16.6467 3.17333 26.6227 0.707996 39.924 0.707996C53.2253 0.707996 63.4307 3.17333 70.54 8.10399C77.764 13.0347 81.376 20.4307 81.376 30.292C81.376 33.5027 81.0893 36.4267 80.516 39.064C79.9427 41.5867 78.624 44.2813 76.56 47.148C74.6107 49.9 72.6613 52.3653 70.712 54.544C68.8773 56.7227 65.6667 59.5893 61.08 63.144C54.2 68.648 46.976 74.152 39.408 79.656C31.84 85.0453 27.4253 88.1987 26.164 89.116L15.672 96.684H56.952C64.864 96.684 70.4827 94.964 73.808 91.524C77.1333 88.084 79.484 82.6947 80.86 75.356H83.784L82.064 123H1.224V103.048L18.596 87.052C30.4067 76.2733 38.7773 66.6987 43.708 58.328C48.6387 49.8427 51.104 40.5547 51.104 30.464C51.104 20.2587 50.0147 13.3213 47.836 9.65199C45.6573 5.86799 41.988 3.97599 36.828 3.97599C31.668 3.97599 28.056 5.29466 25.992 7.93199C23.928 10.5693 22.896 13.092 22.896 15.5C22.896 17.908 23.24 20.0293 23.928 21.864H29.088C30.0053 24.272 30.464 27.196 30.464 30.636C30.464 33.9613 29.0307 36.8853 26.164 39.408C23.2973 41.816 19.5133 43.02 14.812 43.02C10.1107 43.02 6.44133 41.5293 3.804 38.548C1.28133 35.452 0.02 31.6107 0.02 27.024ZM144.974 124.72C128.348 124.72 115.677 119.101 106.962 107.864C98.3623 96.6267 94.0623 80.9173 94.0623 60.736C94.0623 40.5547 98.7063 25.5333 107.994 15.672C117.282 5.696 129.953 0.707996 146.006 0.707996C162.174 0.707996 174.845 5.63866 184.018 15.5C193.306 25.3613 197.95 41.0707 197.95 62.628C197.95 84.1853 193.306 99.952 184.018 109.928C174.73 119.789 161.716 124.72 144.974 124.72ZM129.322 56.264V71.572C129.322 82.6947 129.38 90.5493 129.494 95.136C129.724 99.7227 130.354 104.481 131.386 109.412C132.418 114.343 134.081 117.553 136.374 119.044C138.668 120.42 141.362 121.108 144.458 121.108C147.554 121.108 149.848 120.936 151.338 120.592C152.944 120.248 154.32 119.56 155.466 118.528C156.728 117.381 157.76 116.292 158.562 115.26C159.365 114.113 159.996 112.393 160.454 110.1C161.028 107.807 161.486 105.685 161.83 103.736C162.174 101.787 162.404 98.92 162.518 95.136C162.748 87.7973 162.862 80.4013 162.862 72.948V57.812C162.862 35.3373 162.002 20.832 160.282 14.296C158.677 7.64533 153.976 4.31999 146.178 4.31999C138.381 4.31999 133.622 7.70266 131.902 14.468C130.182 21.2333 129.322 35.1653 129.322 56.264ZM259.193 124.72C242.566 124.72 229.896 119.101 221.181 107.864C212.581 96.6267 208.281 80.9173 208.281 60.736C208.281 40.5547 212.925 25.5333 222.213 15.672C231.501 5.696 244.172 0.707996 260.225 0.707996C276.393 0.707996 289.064 5.63866 298.237 15.5C307.525 25.3613 312.169 41.0707 312.169 62.628C312.169 84.1853 307.525 99.952 298.237 109.928C288.949 119.789 275.934 124.72 259.193 124.72ZM243.541 56.264V71.572C243.541 82.6947 243.598 90.5493 243.713 95.136C243.942 99.7227 244.573 104.481 245.605 109.412C246.637 114.343 248.3 117.553 250.593 119.044C252.886 120.42 255.581 121.108 258.677 121.108C261.773 121.108 264.066 120.936 265.557 120.592C267.162 120.248 268.538 119.56 269.685 118.528C270.946 117.381 271.978 116.292 272.781 115.26C273.584 114.113 274.214 112.393 274.673 110.1C275.246 107.807 275.705 105.685 276.049 103.736C276.393 101.787 276.622 98.92 276.737 95.136C276.966 87.7973 277.081 80.4013 277.081 72.948V57.812C277.081 35.3373 276.221 20.832 274.501 14.296C272.896 7.64533 268.194 4.31999 260.397 4.31999C252.6 4.31999 247.841 7.70266 246.121 14.468C244.401 21.2333 243.541 35.1653 243.541 56.264ZM432.87 71.228H396.578V107.176H390.042V71.228H354.782V65.552H390.042V31.84H396.578V65.552H432.87V71.228Z"/>
</mask>
<path d="M9.996 8.10399L9.40044 7.30068H9.40044L9.996 8.10399ZM70.54 8.10399L69.9701 8.92573L69.9763 8.92994L70.54 8.10399ZM80.516 39.064L81.4912 39.2856L81.4932 39.2764L80.516 39.064ZM76.56 47.148L75.7484 46.5637L75.744 46.57L76.56 47.148ZM70.712 54.544L69.9668 53.8772L69.9568 53.8884L69.9471 53.8999L70.712 54.544ZM61.08 63.144L60.4674 62.3536L60.4613 62.3583L60.4553 62.3631L61.08 63.144ZM39.408 79.656L39.9881 80.4706L39.9962 80.4647L39.408 79.656ZM26.164 89.116L26.749 89.927L26.7522 89.9247L26.164 89.116ZM15.672 96.684L15.087 95.873L12.5763 97.684H15.672V96.684ZM73.808 91.524L73.089 90.829V90.829L73.808 91.524ZM80.86 75.356V74.356H80.0301L79.8771 75.1717L80.86 75.356ZM83.784 75.356L84.7833 75.3921L84.8208 74.356H83.784V75.356ZM82.064 123V124H83.0286L83.0634 123.036L82.064 123ZM1.224 123H0.224V124H1.224V123ZM1.224 103.048L0.546628 102.312L0.224 102.609V103.048H1.224ZM18.596 87.052L17.9219 86.3134L17.9186 86.3164L18.596 87.052ZM43.708 58.328L44.5696 58.8355L44.5726 58.8304L43.708 58.328ZM47.836 9.65199L46.9693 10.151L46.9762 10.1625L47.836 9.65199ZM25.992 7.932L25.2045 7.31569V7.31569L25.992 7.932ZM23.928 21.864L22.9917 22.2151L23.235 22.864H23.928V21.864ZM29.088 21.864L30.0225 21.508L29.7772 20.864H29.088V21.864ZM26.164 39.408L26.8072 40.1737L26.816 40.1663L26.8246 40.1587L26.164 39.408ZM3.804 38.548L3.02877 39.1797L3.04157 39.1954L3.055 39.2106L3.804 38.548ZM1.02 27.024C1.02 19.6856 4.17233 13.6664 10.5916 8.9073L9.40044 7.30068C2.51834 12.4029 -0.98 18.9971 -0.98 27.024H1.02ZM10.5916 8.9073C16.9935 4.16101 26.717 1.708 39.924 1.708V-0.292004C26.5283 -0.292004 16.2998 2.18564 9.40044 7.30068L10.5916 8.9073ZM39.924 1.708C53.1238 1.708 63.096 4.15819 69.9701 8.92571L71.1099 7.28228C63.7653 2.18846 53.3269 -0.292004 39.924 -0.292004V1.708ZM69.9763 8.92994C76.8891 13.6482 80.376 20.712 80.376 30.292H82.376C82.376 20.1493 78.6389 12.4211 71.1037 7.27804L69.9763 8.92994ZM80.376 30.292C80.376 33.4443 80.0945 36.2957 79.5388 38.8516L81.4932 39.2764C82.0842 36.5576 82.376 33.5611 82.376 30.292H80.376ZM79.5409 38.8424C79.006 41.196 77.761 43.7685 75.7485 46.5637L77.3715 47.7323C79.487 44.7942 80.8794 41.9773 81.4911 39.2856L79.5409 38.8424ZM75.744 46.57C73.8133 49.2956 71.8874 51.7307 69.9668 53.8772L71.4572 55.2108C73.4353 53 75.408 50.5043 77.376 47.726L75.744 46.57ZM69.9471 53.8999C68.1839 55.9937 65.0433 58.8073 60.4674 62.3536L61.6926 63.9344C66.2901 60.3714 69.5708 57.4516 71.4769 55.1881L69.9471 53.8999ZM60.4553 62.3631C53.588 67.857 46.3762 73.3517 38.8198 78.8473L39.9962 80.4647C47.5758 74.9523 54.812 69.439 61.7047 63.9249L60.4553 62.3631ZM38.8279 78.8414C31.2625 84.229 26.8423 87.3862 25.5758 88.3073L26.7522 89.9247C28.0083 89.0112 32.4175 85.8617 39.9881 80.4706L38.8279 78.8414ZM25.579 88.305L15.087 95.873L16.257 97.495L26.749 89.927L25.579 88.305ZM15.672 97.684H56.952V95.684H15.672V97.684ZM56.952 97.684C64.9661 97.684 70.9215 95.9489 74.527 92.219L73.089 90.829C70.0439 93.9791 64.7619 95.684 56.952 95.684V97.684ZM74.527 92.219C78.0449 88.5798 80.4495 82.9718 81.8429 75.5403L79.8771 75.1717C78.5185 82.4175 76.2218 87.5882 73.089 90.829L74.527 92.219ZM80.86 76.356H83.784V74.356H80.86V76.356ZM82.7847 75.3199L81.0647 122.964L83.0634 123.036L84.7833 75.3921L82.7847 75.3199ZM82.064 122H1.224V124H82.064V122ZM2.224 123V103.048H0.224V123H2.224ZM1.90137 103.784L19.2734 87.7876L17.9186 86.3164L0.546628 102.312L1.90137 103.784ZM19.2701 87.7906C31.1134 76.9822 39.5663 67.3296 44.5696 58.8355L42.8464 57.8205C37.9884 66.0677 29.6999 75.5645 17.9219 86.3134L19.2701 87.7906ZM44.5726 58.8304C49.5945 50.188 52.104 40.7259 52.104 30.464H50.104C50.104 40.3834 47.6828 49.4973 42.8434 57.8256L44.5726 58.8304ZM52.104 30.464C52.104 25.3304 51.8303 20.9891 51.2749 17.4519C50.7216 13.9282 49.8786 11.1334 48.6959 9.14145L46.9762 10.1625C47.9721 11.8399 48.7631 14.3484 49.2991 17.7621C49.833 21.1622 50.104 25.3922 50.104 30.464H52.104ZM48.7026 9.15303C46.3101 4.99751 42.2685 2.97599 36.828 2.97599V4.97599C41.7075 4.97599 45.0046 6.73848 46.9694 10.151L48.7026 9.15303ZM36.828 2.97599C31.5297 2.97599 27.5423 4.32848 25.2045 7.31569L26.7795 8.5483C28.5697 6.26085 31.8063 4.97599 36.828 4.97599V2.97599ZM25.2045 7.31569C23.0557 10.0614 21.896 12.7957 21.896 15.5H23.896C23.896 13.3883 24.8003 11.0773 26.7795 8.5483L25.2045 7.31569ZM21.896 15.5C21.896 18.0014 22.2532 20.2458 22.9917 22.2151L24.8643 21.5129C24.2268 19.8129 23.896 17.8146 23.896 15.5H21.896ZM23.928 22.864H29.088V20.864H23.928V22.864ZM28.1535 22.22C29.0157 24.4833 29.464 27.2793 29.464 30.636H31.464C31.464 27.1127 30.995 24.0607 30.0225 21.508L28.1535 22.22ZM29.464 30.636C29.464 33.6299 28.1898 36.2933 25.5034 38.6573L26.8246 40.1587C29.8716 37.4774 31.464 34.2928 31.464 30.636H29.464ZM25.5208 38.6423C22.8766 40.8634 19.3399 42.02 14.812 42.02V44.02C19.6867 44.02 23.7181 42.7686 26.8072 40.1737L25.5208 38.6423ZM14.812 42.02C10.3402 42.02 6.9658 40.6129 4.553 37.8854L3.055 39.2106C5.91686 42.4457 9.88113 44.02 14.812 44.02V42.02ZM4.57924 37.9163C2.22317 35.0248 1.02 31.4165 1.02 27.024H-0.98C-0.98 31.8048 0.3395 35.8792 3.02877 39.1797L4.57924 37.9163ZM106.962 107.864L106.168 108.472L106.172 108.477L106.962 107.864ZM107.994 15.672L108.722 16.3576L108.726 16.3534L107.994 15.672ZM184.018 15.5L183.286 16.1811L183.29 16.1856L184.018 15.5ZM184.018 109.928L184.746 110.614L184.75 110.609L184.018 109.928ZM129.494 95.136L128.495 95.161L128.495 95.1735L128.496 95.1859L129.494 95.136ZM131.386 109.412L130.408 109.617L131.386 109.412ZM136.374 119.044L135.829 119.882L135.844 119.892L135.86 119.901L136.374 119.044ZM151.338 120.592L151.129 119.614L151.121 119.616L151.113 119.618L151.338 120.592ZM155.466 118.528L156.135 119.271L156.139 119.268L155.466 118.528ZM158.562 115.26L159.352 115.874L159.367 115.854L159.382 115.833L158.562 115.26ZM160.454 110.1L159.484 109.857L159.478 109.881L159.474 109.904L160.454 110.1ZM161.83 103.736L162.815 103.91L161.83 103.736ZM162.518 95.136L161.519 95.1048L161.519 95.1057L162.518 95.136ZM160.282 14.296L159.31 14.5306L159.313 14.5406L159.315 14.5505L160.282 14.296ZM131.902 14.468L130.933 14.2216V14.2216L131.902 14.468ZM144.974 123.72C128.598 123.72 116.244 118.201 107.753 107.251L106.172 108.477C115.11 120.001 128.098 125.72 144.974 125.72V123.72ZM107.756 107.256C99.3364 96.254 95.0623 80.7886 95.0623 60.736H93.0623C93.0623 81.0461 97.3883 96.9994 106.168 108.472L107.756 107.256ZM95.0623 60.736C95.0623 40.6869 99.6781 25.9602 108.722 16.3576L107.266 14.9864C97.7346 25.1065 93.0623 40.4224 93.0623 60.736H95.0623ZM108.726 16.3534C117.791 6.61684 130.177 1.708 146.006 1.708V-0.292004C129.729 -0.292004 116.773 4.77515 107.262 14.9906L108.726 16.3534ZM146.006 1.708C161.957 1.708 174.339 6.56343 183.286 16.1811L184.751 14.8189C175.351 4.7139 162.392 -0.292004 146.006 -0.292004V1.708ZM183.29 16.1856C192.325 25.778 196.95 41.1814 196.95 62.628H198.95C198.95 40.9599 194.288 24.9447 184.746 14.8144L183.29 16.1856ZM196.95 62.628C196.95 84.0732 192.326 99.5378 183.286 109.247L184.75 110.609C194.287 100.366 198.95 84.2975 198.95 62.628H196.95ZM183.29 109.242C174.234 118.858 161.51 123.72 144.974 123.72V125.72C161.922 125.72 175.226 120.721 184.746 110.614L183.29 109.242ZM128.322 56.264V71.572H130.322V56.264H128.322ZM128.322 71.572C128.322 82.6946 128.38 90.5605 128.495 95.161L130.494 95.111C130.38 90.5382 130.322 82.6947 130.322 71.572H128.322ZM128.496 95.1859C128.728 99.8294 129.366 104.64 130.408 109.617L132.365 109.207C131.343 104.323 130.72 99.6159 130.493 95.0861L128.496 95.1859ZM130.408 109.617C131.453 114.61 133.187 118.165 135.829 119.882L136.919 118.206C134.975 116.942 133.384 114.076 132.365 109.207L130.408 109.617ZM135.86 119.901C138.332 121.385 141.21 122.108 144.458 122.108V120.108C141.515 120.108 139.004 119.455 136.889 118.187L135.86 119.901ZM144.458 122.108C147.57 122.108 149.957 121.937 151.563 121.566L151.113 119.618C149.738 119.935 147.539 120.108 144.458 120.108V122.108ZM151.548 121.57C153.313 121.192 154.85 120.428 156.135 119.271L154.797 117.785C153.789 118.692 152.575 119.304 151.129 119.614L151.548 121.57ZM156.139 119.268C157.431 118.094 158.505 116.962 159.352 115.874L157.773 114.646C157.014 115.622 156.025 116.669 154.794 117.788L156.139 119.268ZM159.382 115.833C160.299 114.522 160.965 112.646 161.435 110.296L159.474 109.904C159.026 112.141 158.431 113.704 157.743 114.687L159.382 115.833ZM161.424 110.343C162.002 108.031 162.466 105.886 162.815 103.91L160.846 103.562C160.506 105.485 160.053 107.583 159.484 109.857L161.424 110.343ZM162.815 103.91C163.172 101.888 163.403 98.9634 163.518 95.1663L161.519 95.1057C161.405 98.8766 161.177 101.685 160.846 103.562L162.815 103.91ZM163.518 95.1672C163.748 87.818 163.862 80.4116 163.862 72.948H161.862C161.862 80.3911 161.748 87.7767 161.519 95.1048L163.518 95.1672ZM163.862 72.948V57.812H161.862V72.948H163.862ZM163.862 57.812C163.862 46.5643 163.647 37.2977 163.216 30.0178C162.785 22.7565 162.136 17.4118 161.249 14.0415L159.315 14.5505C160.148 17.7162 160.79 22.8921 161.219 30.1362C161.647 37.3616 161.862 46.585 161.862 57.812H163.862ZM161.254 14.0614C160.406 10.5473 158.714 7.82541 156.13 5.99758C153.56 4.17978 150.212 3.31999 146.178 3.31999V5.31999C149.942 5.31999 152.844 6.12287 154.975 7.63041C157.092 9.12791 158.553 11.394 159.31 14.5306L161.254 14.0614ZM146.178 3.31999C142.141 3.31999 138.779 4.19581 136.182 6.04193C133.573 7.89633 131.84 10.6562 130.933 14.2216L132.872 14.7144C133.685 11.5145 135.191 9.20031 137.341 7.67205C139.502 6.1355 142.419 5.31999 146.178 5.31999V3.31999ZM130.933 14.2216C129.177 21.1287 128.322 35.1878 128.322 56.264H130.322C130.322 35.1429 131.188 21.338 132.872 14.7144L130.933 14.2216ZM221.181 107.864L220.387 108.472L220.391 108.477L221.181 107.864ZM222.213 15.672L222.941 16.3576L222.945 16.3534L222.213 15.672ZM298.237 15.5L297.505 16.1811L297.509 16.1856L298.237 15.5ZM298.237 109.928L298.965 110.614L298.969 110.609L298.237 109.928ZM243.713 95.136L242.713 95.161L242.714 95.1735L242.714 95.1859L243.713 95.136ZM245.605 109.412L244.626 109.617L245.605 109.412ZM250.593 119.044L250.048 119.882L250.063 119.892L250.079 119.901L250.593 119.044ZM265.557 120.592L265.348 119.614L265.34 119.616L265.332 119.618L265.557 120.592ZM269.685 118.528L270.354 119.271L270.358 119.268L269.685 118.528ZM272.781 115.26L273.57 115.874L273.586 115.854L273.6 115.833L272.781 115.26ZM274.673 110.1L273.703 109.857L273.697 109.881L273.693 109.904L274.673 110.1ZM276.049 103.736L277.034 103.91L276.049 103.736ZM276.737 95.136L275.738 95.1048L275.738 95.1057L276.737 95.136ZM274.501 14.296L273.529 14.5306L273.531 14.5406L273.534 14.5505L274.501 14.296ZM246.121 14.468L245.152 14.2216V14.2216L246.121 14.468ZM259.193 123.72C242.817 123.72 230.463 118.201 221.971 107.251L220.391 108.477C229.328 120.001 242.316 125.72 259.193 125.72V123.72ZM221.975 107.256C213.555 96.254 209.281 80.7886 209.281 60.736H207.281C207.281 81.0461 211.607 96.9994 220.387 108.472L221.975 107.256ZM209.281 60.736C209.281 40.6869 213.897 25.9602 222.941 16.3576L221.485 14.9864C211.953 25.1065 207.281 40.4224 207.281 60.736H209.281ZM222.945 16.3534C232.01 6.61684 244.396 1.708 260.225 1.708V-0.292004C243.948 -0.292004 230.992 4.77515 221.481 14.9906L222.945 16.3534ZM260.225 1.708C276.176 1.708 288.558 6.56343 297.505 16.1811L298.969 14.8189C289.569 4.7139 276.611 -0.292004 260.225 -0.292004V1.708ZM297.509 16.1856C306.544 25.778 311.169 41.1814 311.169 62.628H313.169C313.169 40.9599 308.506 24.9447 298.965 14.8144L297.509 16.1856ZM311.169 62.628C311.169 84.0732 306.544 99.5378 297.505 109.247L298.969 110.609C308.506 100.366 313.169 84.2975 313.169 62.628H311.169ZM297.509 109.242C288.453 118.858 275.728 123.72 259.193 123.72V125.72C276.14 125.72 289.445 120.721 298.965 110.614L297.509 109.242ZM242.541 56.264V71.572H244.541V56.264H242.541ZM242.541 71.572C242.541 82.6946 242.598 90.5605 242.713 95.161L244.713 95.111C244.598 90.5382 244.541 82.6947 244.541 71.572H242.541ZM242.714 95.1859C242.947 99.8294 243.585 104.64 244.626 109.617L246.584 109.207C245.562 104.323 244.938 99.6159 244.712 95.0861L242.714 95.1859ZM244.626 109.617C245.671 114.61 247.405 118.165 250.048 119.882L251.138 118.206C249.194 116.942 247.603 114.076 246.584 109.207L244.626 109.617ZM250.079 119.901C252.55 121.385 255.429 122.108 258.677 122.108V120.108C255.733 120.108 253.222 119.455 251.108 118.187L250.079 119.901ZM258.677 122.108C261.788 122.108 264.176 121.937 265.782 121.566L265.332 119.618C263.957 119.935 261.758 120.108 258.677 120.108V122.108ZM265.767 121.57C267.532 121.192 269.069 120.428 270.354 119.271L269.016 117.785C268.008 118.692 266.793 119.304 265.348 119.614L265.767 121.57ZM270.358 119.268C271.65 118.094 272.724 116.962 273.57 115.874L271.992 114.646C271.233 115.622 270.243 116.669 269.012 117.788L270.358 119.268ZM273.6 115.833C274.518 114.522 275.184 112.646 275.654 110.296L273.693 109.904C273.245 112.141 272.649 113.704 271.962 114.687L273.6 115.833ZM275.643 110.343C276.221 108.031 276.685 105.886 277.034 103.91L275.064 103.562C274.725 105.485 274.272 107.583 273.703 109.857L275.643 110.343ZM277.034 103.91C277.391 101.888 277.622 98.9634 277.737 95.1663L275.738 95.1057C275.623 98.8766 275.396 101.685 275.064 103.562L277.034 103.91ZM277.737 95.1672C277.966 87.818 278.081 80.4116 278.081 72.948H276.081C276.081 80.3911 275.967 87.7767 275.738 95.1048L277.737 95.1672ZM278.081 72.948V57.812H276.081V72.948H278.081ZM278.081 57.812C278.081 46.5643 277.866 37.2977 277.434 30.0178C277.004 22.7565 276.355 17.4118 275.468 14.0415L273.534 14.5505C274.367 17.7162 275.008 22.8921 275.438 30.1362C275.866 37.3616 276.081 46.585 276.081 57.812H278.081ZM275.473 14.0614C274.625 10.5473 272.933 7.82541 270.349 5.99758C267.779 4.17978 264.431 3.31999 260.397 3.31999V5.31999C264.161 5.31999 267.062 6.12287 269.194 7.63041C271.311 9.12791 272.772 11.394 273.529 14.5306L275.473 14.0614ZM260.397 3.31999C256.359 3.31999 252.998 4.19581 250.401 6.04193C247.792 7.89633 246.058 10.6562 245.152 14.2216L247.09 14.7144C247.904 11.5145 249.41 9.20031 251.559 7.67205C253.721 6.1355 256.637 5.31999 260.397 5.31999V3.31999ZM245.152 14.2216C243.396 21.1287 242.541 35.1878 242.541 56.264H244.541C244.541 35.1429 245.406 21.338 247.09 14.7144L245.152 14.2216ZM432.87 71.228V72.228H433.87V71.228H432.87ZM396.578 71.228V70.228H395.578V71.228H396.578ZM396.578 107.176V108.176H397.578V107.176H396.578ZM390.042 107.176H389.042V108.176H390.042V107.176ZM390.042 71.228H391.042V70.228H390.042V71.228ZM354.782 71.228H353.782V72.228H354.782V71.228ZM354.782 65.552V64.552H353.782V65.552H354.782ZM390.042 65.552V66.552H391.042V65.552H390.042ZM390.042 31.84V30.84H389.042V31.84H390.042ZM396.578 31.84H397.578V30.84H396.578V31.84ZM396.578 65.552H395.578V66.552H396.578V65.552ZM432.87 65.552H433.87V64.552H432.87V65.552ZM432.87 70.228H396.578V72.228H432.87V70.228ZM395.578 71.228V107.176H397.578V71.228H395.578ZM396.578 106.176H390.042V108.176H396.578V106.176ZM391.042 107.176V71.228H389.042V107.176H391.042ZM390.042 70.228H354.782V72.228H390.042V70.228ZM355.782 71.228V65.552H353.782V71.228H355.782ZM354.782 66.552H390.042V64.552H354.782V66.552ZM391.042 65.552V31.84H389.042V65.552H391.042ZM390.042 32.84H396.578V30.84H390.042V32.84ZM395.578 31.84V65.552H397.578V31.84H395.578ZM396.578 66.552H432.87V64.552H396.578V66.552ZM431.87 65.552V71.228H433.87V65.552H431.87Z" fill="#EC008C" mask="url(#path-1-outside-1_69_7176)"/>
</svg>
