<svg width="438" height="125" viewBox="0 0 438 125" fill="none" xmlns="http://www.w3.org/2000/svg">
<mask id="path-1-outside-1_69_7175" maskUnits="userSpaceOnUse" x="-1" y="-1" width="440" height="127" fill="black">
<rect fill="white" x="-1" y="-1" width="440" height="127"/>
<path d="M2.224 27.024C2.224 19.456 5.664 13.2067 12.544 8.27599C19.424 3.23066 29.6293 0.707996 43.16 0.707996C69.304 0.707996 82.376 9.82399 82.376 28.056C82.376 35.5093 79.28 41.7013 73.088 46.632C67.0107 51.448 58.2387 54.8307 46.772 56.78V57.124C60.9907 58.156 71.4827 61.4813 78.248 67.1C85.0133 72.7187 88.396 80 88.396 88.944C88.396 99.952 83.924 108.667 74.98 115.088C66.1507 121.509 53.824 124.72 38 124.72C31.808 124.72 26.0173 124.032 20.628 122.656C15.3533 121.28 10.5947 118.585 6.352 114.572C2.224 110.444 0.16 105.571 0.16 99.952C0.16 94.3333 1.47867 89.976 4.116 86.88C6.868 83.784 10.5947 82.236 15.296 82.236C19.9973 82.236 23.724 83.4973 26.476 86.02C29.228 88.428 30.604 91.352 30.604 94.792C30.604 98.1173 30.1453 100.984 29.228 103.392H23.896C23.208 105.227 22.864 107.119 22.864 109.068C22.864 117.209 27.68 121.28 37.312 121.28C44.0773 121.28 48.664 118.7 51.072 113.54C53.5947 108.38 54.856 100.927 54.856 91.18C54.856 81.4333 53.652 74.3813 51.244 70.024C48.9507 65.552 45.5107 62.1693 40.924 59.876C36.796 60.7933 31.808 61.5387 25.96 62.112L25.444 58.328C35.5347 57.296 42.128 54.888 45.224 51.104C48.4347 47.32 50.04 40.612 50.04 30.98C50.04 21.2333 49.0653 14.296 47.116 10.168C45.2813 5.92533 42.128 3.804 37.656 3.804C33.184 3.804 29.9733 5.18 28.024 7.93199C26.1893 10.5693 25.272 13.092 25.272 15.5C25.272 17.908 25.616 20.0293 26.304 21.864H31.292C32.2093 24.272 32.668 27.196 32.668 30.636C32.668 33.9613 31.2347 36.8853 28.368 39.408C25.5013 41.816 21.7173 43.02 17.016 43.02C12.3147 43.02 8.64533 41.5293 6.008 38.548C3.48533 35.452 2.224 31.6107 2.224 27.024ZM149.67 124.72C133.043 124.72 120.372 119.101 111.658 107.864C103.058 96.6267 98.7577 80.9173 98.7577 60.736C98.7577 40.5547 103.402 25.5333 112.69 15.672C121.978 5.696 134.648 0.707996 150.702 0.707996C166.87 0.707996 179.54 5.63866 188.714 15.5C198.002 25.3613 202.646 41.0707 202.646 62.628C202.646 84.1853 198.002 99.952 188.714 109.928C179.426 119.789 166.411 124.72 149.67 124.72ZM134.018 56.264V71.572C134.018 82.6947 134.075 90.5493 134.19 95.136C134.419 99.7227 135.05 104.481 136.082 109.412C137.114 114.343 138.776 117.553 141.07 119.044C143.363 120.42 146.058 121.108 149.154 121.108C152.25 121.108 154.543 120.936 156.034 120.592C157.639 120.248 159.015 119.56 160.162 118.528C161.423 117.381 162.455 116.292 163.258 115.26C164.06 114.113 164.691 112.393 165.15 110.1C165.723 107.807 166.182 105.685 166.526 103.736C166.87 101.787 167.099 98.92 167.214 95.136C167.443 87.7973 167.558 80.4013 167.558 72.948V57.812C167.558 35.3373 166.698 20.832 164.978 14.296C163.372 7.64533 158.671 4.31999 150.874 4.31999C143.076 4.31999 138.318 7.70266 136.598 14.468C134.878 21.2333 134.018 35.1653 134.018 56.264ZM263.888 124.72C247.262 124.72 234.591 119.101 225.876 107.864C217.276 96.6267 212.976 80.9173 212.976 60.736C212.976 40.5547 217.62 25.5333 226.908 15.672C236.196 5.696 248.867 0.707996 264.92 0.707996C281.088 0.707996 293.759 5.63866 302.932 15.5C312.22 25.3613 316.864 41.0707 316.864 62.628C316.864 84.1853 312.22 99.952 302.932 109.928C293.644 119.789 280.63 124.72 263.888 124.72ZM248.236 56.264V71.572C248.236 82.6947 248.294 90.5493 248.408 95.136C248.638 99.7227 249.268 104.481 250.3 109.412C251.332 114.343 252.995 117.553 255.288 119.044C257.582 120.42 260.276 121.108 263.372 121.108C266.468 121.108 268.762 120.936 270.252 120.592C271.858 120.248 273.234 119.56 274.38 118.528C275.642 117.381 276.674 116.292 277.476 115.26C278.279 114.113 278.91 112.393 279.368 110.1C279.942 107.807 280.4 105.685 280.744 103.736C281.088 101.787 281.318 98.92 281.432 95.136C281.662 87.7973 281.776 80.4013 281.776 72.948V57.812C281.776 35.3373 280.916 20.832 279.196 14.296C277.591 7.64533 272.89 4.31999 265.092 4.31999C257.295 4.31999 252.536 7.70266 250.816 14.468C249.096 21.2333 248.236 35.1653 248.236 56.264ZM437.565 71.228H401.273V107.176H394.737V71.228H359.477V65.552H394.737V31.84H401.273V65.552H437.565V71.228Z"/>
</mask>
<path d="M12.544 8.27599L13.1266 9.08886L13.1354 9.0824L12.544 8.27599ZM73.088 46.632L73.7091 47.4157L73.7109 47.4143L73.088 46.632ZM46.772 56.78L46.6044 55.7941L45.772 55.9356V56.78H46.772ZM46.772 57.124H45.772V58.054L46.6996 58.1214L46.772 57.124ZM74.98 115.088L74.3968 114.276L74.3918 114.279L74.98 115.088ZM20.628 122.656L20.3756 123.624L20.3806 123.625L20.628 122.656ZM6.352 114.572L5.64489 115.279L5.65471 115.289L5.6648 115.298L6.352 114.572ZM4.116 86.88L3.36859 86.2156L3.36159 86.2235L3.35476 86.2315L4.116 86.88ZM26.476 86.02L25.8003 86.7572L25.8088 86.765L25.8175 86.7726L26.476 86.02ZM29.228 103.392V104.392H29.9172L30.1625 103.748L29.228 103.392ZM23.896 103.392V102.392H23.203L22.9597 103.041L23.896 103.392ZM51.072 113.54L50.1736 113.101L50.1696 113.109L50.1658 113.117L51.072 113.54ZM51.244 70.024L50.3542 70.4803L50.3613 70.4941L50.3688 70.5077L51.244 70.024ZM40.924 59.876L41.3712 58.9816L41.0537 58.8228L40.7071 58.8998L40.924 59.876ZM25.96 62.112L24.9692 62.2471L25.0993 63.2012L26.0576 63.1072L25.96 62.112ZM25.444 58.328L25.3423 57.3332L24.3134 57.4384L24.4532 58.4631L25.444 58.328ZM45.224 51.104L44.4615 50.457L44.4557 50.4638L44.45 50.4708L45.224 51.104ZM47.116 10.168L46.1981 10.5649L46.2047 10.5801L46.2118 10.595L47.116 10.168ZM28.024 7.932L27.2079 7.35396L27.2031 7.36093L28.024 7.932ZM26.304 21.864L25.3677 22.2151L25.611 22.864H26.304V21.864ZM31.292 21.864L32.2265 21.508L31.9812 20.864H31.292V21.864ZM28.368 39.408L29.0112 40.1737L29.02 40.1663L29.0286 40.1587L28.368 39.408ZM6.008 38.548L5.23277 39.1797L5.24557 39.1954L5.259 39.2106L6.008 38.548ZM3.224 27.024C3.224 19.8202 6.47262 13.8574 13.1265 9.08881L11.9615 7.46317C4.85538 12.5559 1.224 19.0918 1.224 27.024H3.224ZM13.1354 9.0824C19.7696 4.21727 29.7265 1.708 43.16 1.708V-0.292004C29.5322 -0.292004 19.0784 2.24405 11.9526 7.46959L13.1354 9.0824ZM43.16 1.708C56.1465 1.708 65.7084 3.97766 72 8.36524C78.2261 12.7071 81.376 19.2125 81.376 28.056H83.376C83.376 18.6675 79.9899 11.4989 73.144 6.72475C66.3636 1.99633 56.3175 -0.292004 43.16 -0.292004V1.708ZM81.376 28.056C81.376 35.1836 78.4358 41.0952 72.4651 45.8497L73.7109 47.4143C80.1242 42.3074 83.376 35.835 83.376 28.056H81.376ZM72.4669 45.8482C66.5711 50.5204 57.9817 53.86 46.6044 55.7941L46.9396 57.7659C58.4956 55.8013 67.4503 52.3755 73.7091 47.4157L72.4669 45.8482ZM45.772 56.78V57.124H47.772V56.78H45.772ZM46.6996 58.1214C60.8286 59.1469 71.0762 62.4436 77.6091 67.8693L78.8869 66.3307C71.8892 60.519 61.1527 57.1651 46.8444 56.1266L46.6996 58.1214ZM77.6091 67.8693C84.1412 73.2943 87.396 80.2915 87.396 88.944H89.396C89.396 79.7085 85.8855 72.1431 78.8869 66.3307L77.6091 67.8693ZM87.396 88.944C87.396 99.6298 83.0792 108.042 74.3968 114.276L75.5632 115.9C84.7688 109.291 89.396 100.274 89.396 88.944H87.396ZM74.3918 114.279C65.7948 120.532 53.7038 123.72 38 123.72V125.72C53.9442 125.72 66.5066 122.487 75.5682 115.897L74.3918 114.279ZM38 123.72C31.8821 123.72 26.1753 123.04 20.8754 121.687L20.3806 123.625C25.8593 125.024 31.7339 125.72 38 125.72V123.72ZM20.8804 121.688C15.7802 120.358 11.1685 117.752 7.0392 113.846L5.6648 115.298C10.0208 119.419 14.9264 122.202 20.3756 123.624L20.8804 121.688ZM7.05911 113.865C3.11048 109.916 1.16 105.294 1.16 99.952H-0.84C-0.84 105.847 1.33752 110.972 5.64489 115.279L7.05911 113.865ZM1.16 99.952C1.16 94.4806 2.44393 90.385 4.87724 87.5285L3.35476 86.2315C0.513401 89.567 -0.84 94.186 -0.84 99.952H1.16ZM4.86341 87.5444C7.39896 84.6919 10.8375 83.236 15.296 83.236V81.236C10.3518 81.236 6.33704 82.8761 3.36859 86.2156L4.86341 87.5444ZM15.296 83.236C19.8146 83.236 23.277 84.4442 25.8003 86.7572L27.1517 85.2828C24.171 82.5505 20.1801 81.236 15.296 81.236V83.236ZM25.8175 86.7726C28.368 89.0043 29.604 91.6603 29.604 94.792H31.604C31.604 91.0437 30.088 87.8517 27.1345 85.2674L25.8175 86.7726ZM29.604 94.792C29.604 98.0293 29.157 100.769 28.2935 103.036L30.1625 103.748C31.1337 101.199 31.604 98.2054 31.604 94.792H29.604ZM29.228 102.392H23.896V104.392H29.228V102.392ZM22.9597 103.041C22.2298 104.987 21.864 106.998 21.864 109.068H23.864C23.864 107.239 24.1862 105.466 24.8323 103.743L22.9597 103.041ZM21.864 109.068C21.864 113.341 23.1358 116.713 25.8305 118.991C28.4929 121.241 32.3791 122.28 37.312 122.28V120.28C32.6129 120.28 29.2751 119.284 27.1215 117.463C25.0002 115.67 23.864 112.936 23.864 109.068H21.864ZM37.312 122.28C40.8185 122.28 43.8364 121.611 46.3163 120.217C48.8069 118.816 50.6935 116.716 51.9782 113.963L50.1658 113.117C49.0425 115.524 47.4318 117.294 45.3357 118.473C43.2289 119.659 40.5708 120.28 37.312 120.28V122.28ZM51.9704 113.979C54.5912 108.619 55.856 100.987 55.856 91.18H53.856C53.856 100.867 52.5982 108.141 50.1736 113.101L51.9704 113.979ZM55.856 91.18C55.856 81.3973 54.6556 74.1298 52.1192 69.5403L50.3688 70.5077C52.6485 74.6328 53.856 81.4694 53.856 91.18H55.856ZM52.1338 69.5677C49.7412 64.9022 46.1441 61.368 41.3712 58.9816L40.4768 60.7704C44.8772 62.9706 48.1601 66.2018 50.3542 70.4803L52.1338 69.5677ZM40.7071 58.8998C36.6303 59.8058 31.6845 60.546 25.8624 61.1168L26.0576 63.1072C31.9315 62.5313 36.9617 61.7809 41.1409 60.8522L40.7071 58.8998ZM26.9508 61.9769L26.4348 58.1929L24.4532 58.4631L24.9692 62.2471L26.9508 61.9769ZM25.5457 59.3228C30.6404 58.8018 34.8995 57.9292 38.3001 56.6873C41.696 55.4471 44.2973 53.8158 45.998 51.7372L44.45 50.4708C43.0547 52.1762 40.8114 53.6409 37.6139 54.8087C34.4212 55.9747 30.3383 56.8222 25.3423 57.3332L25.5457 59.3228ZM45.9865 51.751C49.4406 47.6801 51.04 40.6569 51.04 30.98H49.04C49.04 40.5671 47.4287 46.9599 44.4615 50.457L45.9865 51.751ZM51.04 30.98C51.04 21.2162 50.0713 14.0844 48.0202 9.74099L46.2118 10.595C48.0594 14.5076 49.04 21.2504 49.04 30.98H51.04ZM48.0339 9.77109C47.0571 7.51228 45.7001 5.75391 43.9332 4.56528C42.164 3.37513 40.0549 2.804 37.656 2.804V4.804C39.7291 4.804 41.4326 5.29353 42.8168 6.22472C44.2033 7.15742 45.3403 8.58105 46.1981 10.5649L48.0339 9.77109ZM37.656 2.804C32.9758 2.804 29.4031 4.25495 27.208 7.35398L28.84 8.51001C30.5435 6.10504 33.3922 4.804 37.656 4.804V2.804ZM27.2031 7.36093C25.2902 10.1107 24.272 12.8296 24.272 15.5H26.272C26.272 13.3544 27.0885 11.0279 28.8449 8.50306L27.2031 7.36093ZM24.272 15.5C24.272 18.0014 24.6292 20.2458 25.3677 22.2151L27.2403 21.5129C26.6028 19.8129 26.272 17.8146 26.272 15.5H24.272ZM26.304 22.864H31.292V20.864H26.304V22.864ZM30.3575 22.22C31.2197 24.4833 31.668 27.2793 31.668 30.636H33.668C33.668 27.1127 33.199 24.0607 32.2265 21.508L30.3575 22.22ZM31.668 30.636C31.668 33.6299 30.3938 36.2933 27.7074 38.6573L29.0286 40.1587C32.0756 37.4774 33.668 34.2928 33.668 30.636H31.668ZM27.7248 38.6423C25.0806 40.8634 21.5439 42.02 17.016 42.02V44.02C21.8907 44.02 25.9221 42.7686 29.0112 40.1737L27.7248 38.6423ZM17.016 42.02C12.5442 42.02 9.1698 40.6129 6.757 37.8854L5.259 39.2106C8.12086 42.4457 12.0851 44.02 17.016 44.02V42.02ZM6.78324 37.9163C4.42717 35.0248 3.224 31.4165 3.224 27.024H1.224C1.224 31.8048 2.5435 35.8792 5.23277 39.1797L6.78324 37.9163ZM111.658 107.864L110.864 108.472L110.867 108.477L111.658 107.864ZM112.69 15.672L113.418 16.3576L113.422 16.3534L112.69 15.672ZM188.714 15.5L187.981 16.1811L187.986 16.1856L188.714 15.5ZM188.714 109.928L189.442 110.614L189.446 110.609L188.714 109.928ZM134.19 95.136L133.19 95.161L133.19 95.1735L133.191 95.1859L134.19 95.136ZM136.082 109.412L135.103 109.617L136.082 109.412ZM141.07 119.044L140.525 119.882L140.54 119.892L140.555 119.901L141.07 119.044ZM156.034 120.592L155.824 119.614L155.816 119.616L155.809 119.618L156.034 120.592ZM160.162 118.528L160.831 119.271L160.834 119.268L160.162 118.528ZM163.258 115.26L164.047 115.874L164.062 115.854L164.077 115.833L163.258 115.26ZM165.15 110.1L164.18 109.857L164.174 109.881L164.169 109.904L165.15 110.1ZM166.526 103.736L167.51 103.91L166.526 103.736ZM167.214 95.136L166.214 95.1048L166.214 95.1057L167.214 95.136ZM164.978 14.296L164.006 14.5306L164.008 14.5406L164.011 14.5505L164.978 14.296ZM136.598 14.468L135.628 14.2216V14.2216L136.598 14.468ZM149.67 123.72C133.293 123.72 120.94 118.201 112.448 107.251L110.867 108.477C119.805 120.001 132.793 125.72 149.67 125.72V123.72ZM112.452 107.256C104.032 96.254 99.7577 80.7886 99.7577 60.736H97.7577C97.7577 81.0461 102.084 96.9994 110.864 108.472L112.452 107.256ZM99.7577 60.736C99.7577 40.6869 104.373 25.9602 113.418 16.3576L111.962 14.9864C102.43 25.1065 97.7577 40.4224 97.7577 60.736H99.7577ZM113.422 16.3534C122.487 6.61684 134.872 1.708 150.702 1.708V-0.292004C134.424 -0.292004 121.469 4.77515 111.958 14.9906L113.422 16.3534ZM150.702 1.708C166.652 1.708 179.035 6.56343 187.981 16.1811L189.446 14.8189C180.046 4.7139 167.087 -0.292004 150.702 -0.292004V1.708ZM187.986 16.1856C197.02 25.778 201.646 41.1814 201.646 62.628H203.646C203.646 40.9599 198.983 24.9447 189.442 14.8144L187.986 16.1856ZM201.646 62.628C201.646 84.0732 197.021 99.5378 187.982 109.247L189.446 110.609C198.982 100.366 203.646 84.2975 203.646 62.628H201.646ZM187.986 109.242C178.93 118.858 166.205 123.72 149.67 123.72V125.72C166.617 125.72 179.922 120.721 189.442 110.614L187.986 109.242ZM133.018 56.264V71.572H135.018V56.264H133.018ZM133.018 71.572C133.018 82.6946 133.075 90.5605 133.19 95.161L135.189 95.111C135.075 90.5382 135.018 82.6947 135.018 71.572H133.018ZM133.191 95.1859C133.423 99.8294 134.061 104.64 135.103 109.617L137.06 109.207C136.038 104.323 135.415 99.6159 135.188 95.0861L133.191 95.1859ZM135.103 109.617C136.148 114.61 137.882 118.165 140.525 119.882L141.615 118.206C139.671 116.942 138.079 114.076 137.06 109.207L135.103 109.617ZM140.555 119.901C143.027 121.385 145.905 122.108 149.154 122.108V120.108C146.21 120.108 143.699 119.455 141.584 118.187L140.555 119.901ZM149.154 122.108C152.265 122.108 154.652 121.937 156.259 121.566L155.809 119.618C154.434 119.935 152.234 120.108 149.154 120.108V122.108ZM156.243 121.57C158.008 121.192 159.546 120.428 160.831 119.271L159.493 117.785C158.484 118.692 157.27 119.304 155.824 119.614L156.243 121.57ZM160.834 119.268C162.126 118.094 163.2 116.962 164.047 115.874L162.468 114.646C161.71 115.622 160.72 116.669 159.489 117.788L160.834 119.268ZM164.077 115.833C164.995 114.522 165.66 112.646 166.13 110.296L164.169 109.904C163.722 112.141 163.126 113.704 162.438 114.687L164.077 115.833ZM166.12 110.343C166.698 108.031 167.162 105.886 167.51 103.91L165.541 103.562C165.202 105.485 164.748 107.583 164.18 109.857L166.12 110.343ZM167.51 103.91C167.867 101.888 168.098 98.9634 168.213 95.1663L166.214 95.1057C166.1 98.8766 165.872 101.685 165.541 103.562L167.51 103.91ZM168.213 95.1672C168.443 87.818 168.558 80.4116 168.558 72.948H166.558C166.558 80.3911 166.443 87.7767 166.214 95.1048L168.213 95.1672ZM168.558 72.948V57.812H166.558V72.948H168.558ZM168.558 57.812C168.558 46.5643 168.343 37.2977 167.911 30.0178C167.48 22.7565 166.832 17.4118 165.945 14.0415L164.011 14.5505C164.844 17.7162 165.485 22.8921 165.914 30.1362C166.343 37.3616 166.558 46.585 166.558 57.812H168.558ZM165.95 14.0614C165.102 10.5473 163.409 7.82541 160.825 5.99758C158.255 4.17978 154.907 3.31999 150.874 3.31999V5.31999C154.637 5.31999 157.539 6.12287 159.67 7.63041C161.787 9.12791 163.248 11.394 164.006 14.5306L165.95 14.0614ZM150.874 3.31999C146.836 3.31999 143.474 4.19581 140.877 6.04193C138.269 7.89633 136.535 10.6562 135.628 14.2216L137.567 14.7144C138.38 11.5145 139.886 9.20031 142.036 7.67205C144.198 6.1355 147.114 5.31999 150.874 5.31999V3.31999ZM135.628 14.2216C133.872 21.1287 133.018 35.1878 133.018 56.264H135.018C135.018 35.1429 135.883 21.338 137.567 14.7144L135.628 14.2216ZM225.876 107.864L225.082 108.472L225.086 108.477L225.876 107.864ZM226.908 15.672L227.636 16.3576L227.64 16.3534L226.908 15.672ZM302.932 15.5L302.2 16.1811L302.204 16.1856L302.932 15.5ZM302.932 109.928L303.66 110.614L303.664 110.609L302.932 109.928ZM248.408 95.136L247.409 95.161L247.409 95.1735L247.41 95.1859L248.408 95.136ZM250.3 109.412L249.322 109.617L250.3 109.412ZM255.288 119.044L254.743 119.882L254.758 119.892L254.774 119.901L255.288 119.044ZM270.252 120.592L270.043 119.614L270.035 119.616L270.028 119.618L270.252 120.592ZM274.38 118.528L275.049 119.271L275.053 119.268L274.38 118.528ZM277.476 115.26L278.266 115.874L278.281 115.854L278.296 115.833L277.476 115.26ZM279.368 110.1L278.398 109.857L278.392 109.881L278.388 109.904L279.368 110.1ZM280.744 103.736L281.729 103.91L280.744 103.736ZM281.432 95.136L280.433 95.1048L280.433 95.1057L281.432 95.136ZM279.196 14.296L278.224 14.5306L278.227 14.5406L278.229 14.5505L279.196 14.296ZM250.816 14.468L249.847 14.2216V14.2216L250.816 14.468ZM263.888 123.72C247.512 123.72 235.158 118.201 226.667 107.251L225.086 108.477C234.024 120.001 247.012 125.72 263.888 125.72V123.72ZM226.671 107.256C218.25 96.254 213.976 80.7886 213.976 60.736H211.976C211.976 81.0461 216.302 96.9994 225.082 108.472L226.671 107.256ZM213.976 60.736C213.976 40.6869 218.592 25.9602 227.636 16.3576L226.18 14.9864C216.649 25.1065 211.976 40.4224 211.976 60.736H213.976ZM227.64 16.3534C236.705 6.61684 249.091 1.708 264.92 1.708V-0.292004C248.643 -0.292004 235.687 4.77515 226.177 14.9906L227.64 16.3534ZM264.92 1.708C280.871 1.708 293.254 6.56343 302.2 16.1811L303.665 14.8189C294.265 4.7139 281.306 -0.292004 264.92 -0.292004V1.708ZM302.204 16.1856C311.239 25.778 315.864 41.1814 315.864 62.628H317.864C317.864 40.9599 313.202 24.9447 303.66 14.8144L302.204 16.1856ZM315.864 62.628C315.864 84.0732 311.24 99.5378 302.201 109.247L303.664 110.609C313.201 100.366 317.864 84.2975 317.864 62.628H315.864ZM302.204 109.242C293.148 118.858 280.424 123.72 263.888 123.72V125.72C280.836 125.72 294.14 120.721 303.66 110.614L302.204 109.242ZM247.236 56.264V71.572H249.236V56.264H247.236ZM247.236 71.572C247.236 82.6946 247.294 90.5605 247.409 95.161L249.408 95.111C249.294 90.5382 249.236 82.6947 249.236 71.572H247.236ZM247.41 95.1859C247.642 99.8294 248.28 104.64 249.322 109.617L251.279 109.207C250.257 104.323 249.634 99.6159 249.407 95.0861L247.41 95.1859ZM249.322 109.617C250.367 114.61 252.101 118.165 254.743 119.882L255.833 118.206C253.889 116.942 252.298 114.076 251.279 109.207L249.322 109.617ZM254.774 119.901C257.246 121.385 260.124 122.108 263.372 122.108V120.108C260.429 120.108 257.918 119.455 255.803 118.187L254.774 119.901ZM263.372 122.108C266.484 122.108 268.871 121.937 270.477 121.566L270.028 119.618C268.652 119.935 266.453 120.108 263.372 120.108V122.108ZM270.462 121.57C272.227 121.192 273.764 120.428 275.049 119.271L273.711 117.785C272.703 118.692 271.489 119.304 270.043 119.614L270.462 121.57ZM275.053 119.268C276.345 118.094 277.419 116.962 278.266 115.874L276.687 114.646C275.928 115.622 274.939 116.669 273.708 117.788L275.053 119.268ZM278.296 115.833C279.214 114.522 279.879 112.646 280.349 110.296L278.388 109.904C277.94 112.141 277.345 113.704 276.657 114.687L278.296 115.833ZM280.339 110.343C280.917 108.031 281.38 105.886 281.729 103.91L279.76 103.562C279.42 105.485 278.967 107.583 278.398 109.857L280.339 110.343ZM281.729 103.91C282.086 101.888 282.317 98.9634 282.432 95.1663L280.433 95.1057C280.319 98.8766 280.091 101.685 279.76 103.562L281.729 103.91ZM282.432 95.1672C282.662 87.818 282.776 80.4116 282.776 72.948H280.776C280.776 80.3911 280.662 87.7767 280.433 95.1048L282.432 95.1672ZM282.776 72.948V57.812H280.776V72.948H282.776ZM282.776 57.812C282.776 46.5643 282.561 37.2977 282.13 30.0178C281.699 22.7565 281.05 17.4118 280.163 14.0415L278.229 14.5505C279.062 17.7162 279.704 22.8921 280.133 30.1362C280.562 37.3616 280.776 46.585 280.776 57.812H282.776ZM280.168 14.0614C279.32 10.5473 277.628 7.82541 275.044 5.99758C272.474 4.17978 269.126 3.31999 265.092 3.31999V5.31999C268.856 5.31999 271.758 6.12287 273.889 7.63041C276.006 9.12791 277.467 11.394 278.224 14.5306L280.168 14.0614ZM265.092 3.31999C261.055 3.31999 257.693 4.19581 255.096 6.04193C252.487 7.89633 250.754 10.6562 249.847 14.2216L251.786 14.7144C252.599 11.5145 254.105 9.20031 256.255 7.67205C258.416 6.1355 261.333 5.31999 265.092 5.31999V3.31999ZM249.847 14.2216C248.091 21.1287 247.236 35.1878 247.236 56.264H249.236C249.236 35.1429 250.102 21.338 251.786 14.7144L249.847 14.2216ZM437.565 71.228V72.228H438.565V71.228H437.565ZM401.273 71.228V70.228H400.273V71.228H401.273ZM401.273 107.176V108.176H402.273V107.176H401.273ZM394.737 107.176H393.737V108.176H394.737V107.176ZM394.737 71.228H395.737V70.228H394.737V71.228ZM359.477 71.228H358.477V72.228H359.477V71.228ZM359.477 65.552V64.552H358.477V65.552H359.477ZM394.737 65.552V66.552H395.737V65.552H394.737ZM394.737 31.84V30.84H393.737V31.84H394.737ZM401.273 31.84H402.273V30.84H401.273V31.84ZM401.273 65.552H400.273V66.552H401.273V65.552ZM437.565 65.552H438.565V64.552H437.565V65.552ZM437.565 70.228H401.273V72.228H437.565V70.228ZM400.273 71.228V107.176H402.273V71.228H400.273ZM401.273 106.176H394.737V108.176H401.273V106.176ZM395.737 107.176V71.228H393.737V107.176H395.737ZM394.737 70.228H359.477V72.228H394.737V70.228ZM360.477 71.228V65.552H358.477V71.228H360.477ZM359.477 66.552H394.737V64.552H359.477V66.552ZM395.737 65.552V31.84H393.737V65.552H395.737ZM394.737 32.84H401.273V30.84H394.737V32.84ZM400.273 31.84V65.552H402.273V31.84H400.273ZM401.273 66.552H437.565V64.552H401.273V66.552ZM436.565 65.552V71.228H438.565V65.552H436.565Z" fill="#EC008C" mask="url(#path-1-outside-1_69_7175)"/>
</svg>
