<svg width="131" height="179" viewBox="0 0 131 179" fill="none" xmlns="http://www.w3.org/2000/svg">
<path d="M61.6548 177.579L32.2391 160.596C30.2677 159.458 29.7087 157.368 30.8478 155.395L55.0092 113.546C55.0092 113.546 55.0143 113.537 55.016 113.534C55.4282 112.82 55.4285 111.935 55.0172 111.224C54.6074 110.513 53.8406 110.068 53.0179 110.069C53.0118 110.07 53.0066 110.069 52.999 110.068L4.70683 110.074C2.43051 110.074 0.900473 108.545 0.902787 106.266L0.921428 72.2758C0.921328 71.1573 1.2857 70.2041 1.972 69.5172C2.6583 68.8302 3.61284 68.4685 4.73092 68.4676L53.0292 68.4612C53.8453 68.4545 54.6072 68.0129 55.0152 67.3063C55.4232 66.5996 55.426 65.71 55.0164 64.9956C55.0143 64.9924 55.0116 64.9869 55.0104 64.9823L30.8782 23.1758C30.3199 22.2071 30.1573 21.2004 30.4077 20.2617C30.6595 19.3239 31.3042 18.5326 32.2715 17.9726L61.6961 0.961999C62.6649 0.402817 63.6712 0.239496 64.6094 0.489269C65.5466 0.740512 66.3372 1.38497 66.8963 2.35222L91.0537 44.2066C91.4669 44.9113 92.231 45.3505 93.0476 45.3499C93.8702 45.3489 94.6353 44.9052 95.0481 44.1935C95.0498 44.1906 95.0523 44.1862 95.054 44.1832L119.218 2.32999C119.777 1.36186 120.569 0.716117 121.507 0.46437C122.445 0.212623 123.451 0.374535 124.42 0.933887L153.836 17.917C155.807 19.0552 156.366 21.1448 155.227 23.1178L131.12 64.8726C131.138 64.9063 131.137 64.9474 131.118 64.9812C130.706 65.6951 130.705 66.5804 131.117 67.2918C131.528 68.0033 132.293 68.4472 133.116 68.4461C133.12 68.4464 133.126 68.446 133.13 68.4462L181.367 68.44C182.485 68.4391 183.438 68.803 184.124 69.4891C184.81 70.1752 185.171 71.1298 185.171 72.2484L185.152 106.236C185.15 108.513 183.62 110.045 181.344 110.045L133.034 110.051C132.221 110.059 131.462 110.503 131.057 111.205C130.651 111.907 130.647 112.786 131.047 113.497L155.195 155.336C156.333 157.308 155.773 159.4 153.8 160.539L124.377 177.548C123.408 178.107 122.401 178.27 121.463 178.02C120.526 177.769 119.736 177.125 119.176 176.157L95.0349 134.33C95.0349 134.33 95.0257 134.319 95.0229 134.313C94.6102 133.601 93.844 133.159 93.0236 133.159C92.2094 133.159 91.4716 133.579 91.0473 134.28L66.8553 176.182C65.7162 178.155 63.6271 178.716 61.6556 177.577L61.6548 177.579ZM55.2198 113.632C55.2198 113.632 55.2147 113.641 55.2121 113.646L31.0431 155.508C29.9718 157.363 30.4988 159.329 32.3513 160.398L61.767 177.381C63.621 178.452 65.585 177.925 66.6563 176.069L90.8491 134.166C91.3142 133.394 92.1258 132.934 93.0205 132.934C93.9153 132.933 94.7516 133.41 95.2063 134.182C95.2113 134.187 95.2155 134.193 95.2197 134.2L119.372 176.045C119.901 176.96 120.644 177.569 121.521 177.803C122.399 178.037 123.345 177.883 124.26 177.353L153.684 160.344C155.538 159.271 156.064 157.305 154.995 155.452L130.847 113.613C130.407 112.832 130.412 111.867 130.857 111.096C131.303 110.324 132.136 109.838 133.03 109.827L181.341 109.82C183.482 109.82 184.92 108.38 184.922 106.238L184.941 72.2506C184.942 71.1937 184.602 70.2957 183.961 69.6533C183.318 69.0101 182.42 68.6701 181.365 68.6716L133.111 68.6784C133.111 68.6784 133.101 68.6785 133.096 68.6775C132.197 68.6717 131.362 68.1857 130.914 67.4082C130.488 66.6661 130.465 65.7522 130.851 64.9918C130.832 64.9573 130.832 64.9139 130.852 64.8787L155.028 23.0049C156.099 21.1494 155.574 19.1849 153.72 18.1145L124.304 1.13137C123.389 0.603373 122.442 0.448017 121.564 0.683601C120.686 0.919185 119.943 1.52831 119.415 2.44356L95.244 44.3085C95.244 44.3085 95.2397 44.3159 95.238 44.3188C94.7841 45.0949 93.9452 45.5783 93.0467 45.5786C92.1505 45.5782 91.3121 45.0981 90.8576 44.3225L66.7002 2.46817C66.1713 1.55363 65.4287 0.944718 64.5519 0.710764C63.6737 0.475962 62.7271 0.630691 61.8125 1.16043L32.3864 18.1702C31.4718 18.6999 30.8627 19.4432 30.6282 20.3205C30.3929 21.1993 30.5469 22.1462 31.0758 23.0607L55.2125 64.8796C55.2125 64.8796 55.2173 64.8883 55.2185 64.8929C55.6621 65.6739 55.6576 66.641 55.2089 67.4181C54.7603 68.1953 53.9244 68.6803 53.0262 68.6867L4.73088 68.6948C3.67441 68.694 2.77654 69.0356 2.13399 69.6773C1.49144 70.319 1.15003 71.2188 1.15085 72.2751L1.13159 106.263C1.12993 108.405 2.56746 109.844 4.70942 109.843L53.0214 109.836C53.0214 109.836 53.035 109.836 53.0403 109.838C53.9361 109.845 54.7696 110.331 55.2165 111.106C55.6641 111.883 55.6657 112.85 55.2229 113.63L55.2198 113.632Z" fill="#EC008C"/>
</svg>
