<svg width="27" height="23" viewBox="0 0 27 23" fill="none" xmlns="http://www.w3.org/2000/svg">
<path d="M24.0488 7.76943H17.262L17.6898 7.215C18.369 6.43433 18.739 5.4846 18.739 4.50751C18.739 2.02627 16.3833 0 13.4986 0C10.6139 0 8.25811 2.02627 8.25811 4.50751C8.25811 5.4846 8.62809 6.43433 9.30735 7.21252C9.30735 7.21252 9.30735 7.21252 9.30735 7.215L9.73804 7.76943H2.95118L0 23H27L24.0488 7.76943ZM19.3749 13.7488L23.8667 14.3927L25.2917 21.7544H22.618L16.3081 20.3397L19.372 13.7488H19.3749ZM23.6152 13.0974L19.5801 12.5181C19.5281 12.2297 19.4356 11.8419 19.2651 11.3993C19.002 10.7206 18.5511 9.8852 17.7909 9.01254H22.8233L23.6152 13.0949V13.0974ZM13.4986 1.2456C15.6028 1.2456 17.2909 2.69755 17.2909 4.50751C17.2909 5.21608 17.0221 5.90477 16.5307 6.46914C16.5307 6.46914 16.5162 6.48903 16.5075 6.49897L13.7067 10.1114C13.6373 10.1114 13.5679 10.1015 13.4957 10.1015C13.4234 10.1015 13.3569 10.109 13.2847 10.1114L10.4838 6.49897C10.4838 6.49897 10.4693 6.47908 10.4607 6.47162C9.96927 5.90974 9.70046 5.21857 9.70046 4.51C9.70046 2.70003 11.3885 1.24808 13.4928 1.24808L13.4986 1.2456ZM15.0912 11.6181C15.4496 11.7722 15.4843 11.9015 15.4843 11.8866C15.4843 11.8717 15.4496 12.001 15.0912 12.1551C14.7328 12.3093 14.1489 12.4311 13.4986 12.4311C12.8482 12.4311 12.2643 12.3117 11.9059 12.1551C11.5475 12.001 11.5128 11.8717 11.5128 11.8866C11.5128 11.9015 11.5475 11.7722 11.9059 11.6181C12.0822 11.5435 12.3106 11.4764 12.5765 11.4267L12.9002 11.8419C13.0332 12.0159 13.2615 12.1178 13.5014 12.1178C13.7414 12.1178 13.9697 12.0134 14.1027 11.8419L14.4264 11.4242C14.6894 11.4739 14.9207 11.541 15.0941 11.6156L15.0912 11.6181ZM11.7325 10.3402C11.5677 10.3899 11.4087 10.4446 11.2613 10.5092C10.6399 10.7753 10.0676 11.2302 10.0676 11.8891C10.0676 12.5479 10.6399 13.0004 11.2613 13.2689C11.8828 13.535 12.6545 13.6767 13.5014 13.6767C14.3484 13.6767 15.1172 13.535 15.7416 13.2689C16.363 13.0029 16.9353 12.5479 16.9353 11.8891C16.9353 11.2302 16.363 10.7778 15.7416 10.5092C15.5942 10.4446 15.4352 10.3899 15.2704 10.3402L16.1318 9.22635C17.1145 10.1786 17.6262 11.0935 17.895 11.7946C18.1175 12.3714 18.1754 12.7717 18.1898 12.9482L14.9004 20.0215L7.9864 18.4701C8.12515 16.7173 8.21186 12.625 6.48913 9.01254H10.7035L11.7296 10.3377L11.7325 10.3402ZM4.17675 9.01503H4.91671C6.64522 12.262 6.66256 16.2822 6.55272 18.1494L2.5812 17.2568L4.17964 9.01254L4.17675 9.01503ZM2.34129 18.4875L16.8978 21.7544H1.70828L2.34129 18.4875Z" fill="white"/>
<path d="M13.4986 6.68295C14.886 6.68295 16.0277 5.7009 16.0277 4.50751C16.0277 3.31413 14.886 2.33207 13.4986 2.33207C12.1111 2.33207 10.9694 3.31413 10.9694 4.50751C10.9694 5.7009 12.1111 6.68295 13.4986 6.68295ZM13.4986 3.57518C14.1056 3.57518 14.5825 3.98541 14.5825 4.50751C14.5825 5.02962 14.1056 5.43984 13.4986 5.43984C12.8916 5.43984 12.4146 5.02962 12.4146 4.50751C12.4146 3.98541 12.8916 3.57518 13.4986 3.57518Z" fill="white"/>
</svg>
