<svg width="12" height="10" viewBox="0 0 12 10" fill="none" xmlns="http://www.w3.org/2000/svg">
<path d="M11.7447 6.17076H8.59961C8.59961 6.17076 8.49516 6.19086 8.46035 6.24111C8.42553 6.28131 8.43714 6.34161 8.46035 6.3818L10.0271 8.73338C10.0967 8.84393 10.0619 8.95447 9.93424 9.01477L8.04255 9.96947C7.91489 10.0298 7.78723 9.99962 7.7176 9.88907L6.15087 7.53749C6.15087 7.53749 6.06963 7.46715 6.01161 7.46715C5.95358 7.46715 5.90716 7.4973 5.87234 7.53749L4.30561 9.88907C4.22437 9.99962 4.09671 10.0298 3.96905 9.96947L2.05416 9.01477C1.9265 8.95447 1.89168 8.83388 1.96132 8.73338L3.52805 6.3818C3.52805 6.3818 3.56286 6.29136 3.52805 6.24111C3.49323 6.20091 3.44681 6.17076 3.38878 6.17076H0.243714C0.104449 6.17076 0 6.09037 0 5.95973V4.05032C0 3.92973 0.0928433 3.83929 0.243714 3.83929H3.38878C3.38878 3.83929 3.49323 3.81919 3.52805 3.76894C3.56286 3.72874 3.55126 3.67849 3.52805 3.62825L1.96132 1.26662C1.89168 1.15607 1.9265 1.04553 2.05416 0.985232L3.96905 0.0305319C4.09671 -0.0297651 4.22437 0.000383377 4.294 0.110928L5.86074 2.46251C5.86074 2.46251 5.94197 2.53285 6 2.53285C6.05803 2.53285 6.10445 2.5027 6.13927 2.46251L7.706 0.110928C7.77563 0.000383377 7.90329 -0.0297651 8.03095 0.0305319L9.94584 0.985232C10.0735 1.04553 10.1083 1.16612 10.0387 1.26662L8.47195 3.6182C8.47195 3.6182 8.43714 3.70864 8.47195 3.75889C8.50677 3.79909 8.55319 3.82924 8.61122 3.82924H11.7563C11.8956 3.82924 12 3.90963 12 4.04028V5.94968C12 6.07027 11.9072 6.16072 11.7563 6.16072L11.7447 6.17076Z" fill="#EC008C"/>
</svg>
