<svg width="72" height="36" viewBox="0 0 72 36" fill="none" xmlns="http://www.w3.org/2000/svg">
<path d="M70.3399 9.33446L54.1632 0H16.9462L0.769449 9.33446C-0.000311858 9.7798 -0.215609 10.5879 0.226782 11.3547L7.03076 23.143C7.47316 23.9127 8.28126 24.128 9.05102 23.6856L25.8147 14.012C26.1067 13.8469 26.4753 13.8321 26.785 14.012C27.0947 14.1919 27.2687 14.5163 27.2687 14.8526V34.2057C27.2687 35.0934 27.8615 35.6862 28.7492 35.6862H42.3602C43.2479 35.6862 43.8407 35.0934 43.8407 34.2057V14.8349C43.8466 14.5075 44.0176 14.189 44.3244 14.012C44.634 13.8321 45.0057 13.8439 45.2947 14.012L62.0584 23.6856C62.8281 24.128 63.6362 23.9127 64.0786 23.143L70.8826 11.3547C71.325 10.585 71.1097 9.77685 70.3399 9.33446Z" fill="black"/>
</svg>
