<svg width="242" height="121" viewBox="0 0 242 121" fill="none" xmlns="http://www.w3.org/2000/svg">
<path d="M2.61074 89.35L57.4607 121L183.651 121L238.501 89.35C241.111 87.84 241.841 85.1 240.341 82.5L217.271 42.53C215.771 39.92 213.031 39.19 210.421 40.69L153.581 73.49C152.591 74.05 151.341 74.1 150.291 73.49C149.241 72.88 148.651 71.78 148.651 70.64L148.651 5.02C148.651 2.00999 146.641 -6.29487e-07 143.631 -8.9263e-07L97.4807 -4.92719e-06C94.4707 -5.19033e-06 92.4607 2.00999 92.4607 5.01999L92.4607 70.7C92.4407 71.81 91.8607 72.89 90.8207 73.49C89.7707 74.1 88.5107 74.06 87.5307 73.49L30.6907 40.69C28.0807 39.19 25.3407 39.92 23.8407 42.53L0.77074 82.5C-0.72926 85.11 0.00073532 87.85 2.61074 89.35Z" fill="#EC008C"/>
</svg>
