<svg width="639" height="1087" viewBox="0 0 639 1087" fill="none" xmlns="http://www.w3.org/2000/svg">
<path d="M214.386 1086.8H13.9964C0.566376 1086.8 -8.45361 1077.78 -8.45361 1064.35V779.49C-8.45361 779.49 -8.45361 779.43 -8.45361 779.41C-8.45361 774.55 -11.0636 770.03 -15.2636 767.61C-19.4536 765.19 -24.6836 765.18 -28.8836 767.61C-28.9136 767.63 -28.9436 767.64 -28.9836 767.66L-275.704 910.03C-287.334 916.74 -299.664 913.44 -306.374 901.8L-406.544 728.22C-409.844 722.51 -410.794 716.57 -409.314 711.04C-407.834 705.51 -404.024 700.85 -398.314 697.55L-151.564 555.16C-147.414 552.72 -144.824 548.22 -144.824 543.41C-144.824 538.6 -147.434 534.05 -151.634 531.61C-151.654 531.6 -151.684 531.58 -151.704 531.56L-398.324 389.26C-404.034 385.96 -407.834 381.3 -409.324 375.77C-410.804 370.24 -409.844 364.3 -406.554 358.59L-306.394 185.02C-303.094 179.31 -298.434 175.51 -292.904 174.02C-287.374 172.54 -281.434 173.5 -275.724 176.79L-28.8336 319.26C-24.6436 321.64 -19.4436 321.63 -15.2736 319.22C-11.0736 316.79 -8.47363 312.27 -8.46362 307.42C-8.46362 307.4 -8.46362 307.37 -8.46362 307.35V22.46C-8.46362 15.87 -6.32361 10.24 -2.27362 6.19C1.77637 2.14 7.39636 0 13.9964 0H214.386C227.816 0 236.836 9.02 236.836 22.45V306.67C237.026 306.79 237.146 307 237.146 307.23C237.146 312.09 239.756 316.61 243.956 319.03C248.156 321.45 253.376 321.46 257.576 319.03C257.596 319.02 257.626 319 257.646 318.99L504.086 176.78C509.796 173.48 515.736 172.53 521.266 174.01C526.796 175.49 531.456 179.3 534.756 185.01L634.916 358.58C641.626 370.21 638.326 382.54 626.696 389.25L379.886 531.67C375.756 534.11 373.186 538.61 373.186 543.39C373.186 548.17 375.756 552.67 379.896 555.12L626.696 697.54C638.326 704.25 641.636 716.58 634.916 728.21L534.756 901.77C531.456 907.48 526.796 911.28 521.266 912.77C515.736 914.25 509.796 913.29 504.086 910L257.356 767.62C257.356 767.62 257.276 767.59 257.246 767.57C253.036 765.15 247.816 765.15 243.626 767.57C239.466 769.97 236.936 774.29 236.836 779.12V1064.34C236.836 1077.77 227.816 1086.79 214.386 1086.79V1086.8ZM-7.12363 779.31C-7.12363 779.31 -7.12363 779.37 -7.12363 779.4V1064.35C-7.12363 1076.98 1.36639 1085.46 13.9864 1085.46H214.376C227.006 1085.46 235.486 1076.98 235.486 1064.35V779.12C235.586 773.81 238.376 769.07 242.946 766.43C247.516 763.79 253.196 763.76 257.796 766.36C257.836 766.37 257.876 766.39 257.916 766.41L504.756 908.85C510.156 911.96 515.746 912.88 520.916 911.49C526.096 910.1 530.476 906.52 533.586 901.12L633.746 727.56C640.056 716.62 636.946 705.03 626.016 698.72L379.216 556.3C374.666 553.61 371.846 548.67 371.846 543.42C371.846 538.17 374.666 533.23 379.206 530.54L626.016 388.11C636.956 381.8 640.056 370.21 633.746 359.27L533.586 185.7C530.476 180.3 526.086 176.72 520.916 175.33C515.736 173.94 510.146 174.85 504.756 177.97L258.236 320.23C258.236 320.23 258.186 320.26 258.156 320.27C253.546 322.89 247.846 322.87 243.266 320.22C238.896 317.69 236.086 313.09 235.816 308.07C235.616 307.95 235.486 307.73 235.486 307.49V22.46C235.486 9.83 227.006 1.35 214.376 1.35H13.9864C7.75638 1.35 2.45639 3.35 -1.33362 7.14C-5.12363 10.93 -7.12363 16.23 -7.12363 22.46V307.43C-7.12363 307.43 -7.12363 307.48 -7.12363 307.5C-7.15363 312.8 -10.0136 317.74 -14.6036 320.39C-19.1836 323.03 -24.8836 323.05 -29.4936 320.43L-276.384 177.96C-281.784 174.85 -287.374 173.93 -292.544 175.32C-297.724 176.71 -302.104 180.29 -305.214 185.69L-405.384 359.26C-408.494 364.66 -409.414 370.25 -408.024 375.42C-406.634 380.6 -403.054 384.98 -397.654 388.09L-150.974 530.44C-150.974 530.44 -150.924 530.47 -150.904 530.49C-146.334 533.17 -143.504 538.12 -143.504 543.41C-143.504 548.7 -146.344 553.64 -150.914 556.32L-397.644 698.71C-403.044 701.82 -406.624 706.21 -408.014 711.38C-409.404 716.55 -408.494 722.15 -405.374 727.54L-305.214 901.11C-298.904 912.05 -287.314 915.16 -276.374 908.84L-29.5536 766.41C-29.5536 766.41 -29.4836 766.37 -29.4536 766.36C-24.8536 763.76 -19.1636 763.78 -14.5936 766.42C-10.0136 769.07 -7.15363 774 -7.11362 779.29L-7.12363 779.31Z" fill="#EC008C"/>
</svg>
