<svg width="355" height="88" viewBox="0 0 355 88" fill="none" xmlns="http://www.w3.org/2000/svg">
<path d="M64.3792 53.5047C64.3792 66.2395 60.7871 75.1106 53.6029 80.118C46.9761 84.7545 37.8719 87.0727 26.2905 87.0727H0V85.3109H6.13135V23.9241H0V22.1623H28.7059C40.597 22.1623 49.5153 24.6041 55.4609 29.4879C61.4064 34.3098 64.3792 42.3154 64.3792 53.5047ZM24.2467 85.3109H27.7769C34.0321 85.3109 38.4913 83.1163 41.1544 78.7271C43.8794 74.2761 45.2419 66.8577 45.2419 56.4721V51.0938C45.2419 37.1844 42.5788 28.8079 37.2526 25.9642C34.7134 24.6041 31.1213 23.9241 26.4763 23.9241H24.2467V85.3109Z" fill="white"/>
<path d="M114.72 58.4194V51.5574C114.72 40.2445 114.162 33.1043 113.048 30.137C111.809 26.7369 110.044 24.6351 107.752 23.8314C106.452 23.3368 104.872 23.0896 103.014 23.0896C101.156 23.0896 99.5462 23.3368 98.1836 23.8314C96.883 24.326 95.7992 25.1914 94.9322 26.4278C94.0651 27.6642 93.3529 28.9624 92.7955 30.3224C92.3 31.6825 91.8974 33.5989 91.5878 36.0717C91.2162 39.6572 91.0304 44.9427 91.0304 51.9283V58.6048C91.0304 66.1468 91.3091 71.5251 91.8665 74.7397C92.4858 77.8925 93.229 80.1489 94.0961 81.5089C96.016 84.5381 98.9888 86.0527 103.014 86.0527C107.907 86.0527 111.066 84.0126 112.49 79.9326C113.977 75.7906 114.72 68.6196 114.72 58.4194ZM102.829 88C92.4858 88 84.7442 85.2181 79.6038 79.6544C74.5253 74.0288 71.986 65.9305 71.986 55.3593C71.986 44.7264 74.7111 36.3808 80.1612 30.3224C85.6732 24.2023 93.4458 21.1423 103.479 21.1423C113.512 21.1423 121.068 24.0478 126.146 29.8588C131.287 35.608 133.857 43.7991 133.857 54.432C133.857 65.065 131.256 73.3179 126.053 79.1907C120.913 85.0636 113.171 88 102.829 88Z" fill="white"/>
<path d="M139.064 22.1623H166.376C175.728 22.1623 182.695 23.5223 187.278 26.2424C191.861 28.9006 194.153 33.6916 194.153 40.6154C194.153 48.281 191.366 53.5666 185.792 56.4721C180.59 59.1303 173.313 60.4594 163.961 60.4594H163.217V85.3109H174.83V87.0727H139.064V85.3109H145.102V23.9241H139.064V22.1623ZM163.217 23.9241V58.6976H165.168C168.884 58.6976 171.455 57.4303 172.879 54.8957C174.303 52.3611 175.016 48.2501 175.016 42.5627V38.1117C175.016 32.857 174.334 29.1788 172.972 27.0769C171.671 24.9751 169.256 23.9241 165.726 23.9241H163.217Z" fill="white"/>
<path d="M198.871 22.1623H227.205V23.9241H222.096V85.3109H227.205V87.0727H198.871V85.3109H203.981V23.9241H198.871V22.1623ZM212.806 17.2476C209.524 17.2476 207.17 16.4131 205.746 14.7439C204.383 13.0748 203.702 11.0039 203.702 8.53109C203.702 6.05831 204.445 4.01827 205.932 2.41096C207.48 0.803653 209.802 0 212.899 0C215.996 0 218.349 0.741835 219.959 2.2255C221.57 3.64735 222.375 5.7183 222.375 8.43836C222.375 11.0966 221.601 13.2294 220.052 14.8367C218.504 16.444 216.089 17.2476 212.806 17.2476Z" fill="white"/>
<path d="M284.382 23.9241V87.0727H271.376L239.512 27.0769V85.3109H244.621V87.0727H231.894V85.3109H237.003V23.9241H231.894V22.1623H257.534L281.874 68.7123V23.9241H276.764V22.1623H289.492V23.9241H284.382Z" fill="white"/>
<path d="M327.13 86.1454C330.165 86.1454 332.085 85.589 332.89 84.4763C333.757 83.3635 334.191 81.478 334.191 78.8198V60.8303H328.245V58.7903H355V60.8303H351.377V86.98H349.983C348.869 85.4345 347.289 84.6617 345.246 84.6617C344.379 84.6617 341.777 85.2181 337.442 86.3309C333.169 87.4436 329.515 88 326.48 88C316.385 88 308.55 85.2799 302.976 79.8398C297.464 74.3997 294.708 66.2395 294.708 55.3593C294.708 44.4173 297.588 35.9789 303.348 30.0443C309.17 24.1096 316.973 21.1423 326.759 21.1423C330.536 21.1423 334.314 21.6368 338.092 22.6259C341.932 23.5532 344.162 24.0169 344.781 24.0169C345.4 24.0169 345.865 23.8932 346.175 23.6459C346.484 23.3368 346.825 22.8423 347.196 22.1623H348.218L348.962 42.2845H347.289C344.255 36.288 341.189 31.5897 338.092 28.1897C335.058 24.7278 331.651 22.9968 327.873 22.9968C318.398 22.9968 313.66 32.2388 313.66 50.7229V58.0485C313.66 67.3214 314.806 74.3379 317.097 79.098C319.451 83.7963 322.795 86.1454 327.13 86.1454Z" fill="white"/>
</svg>
