<svg width="114" height="23" viewBox="0 0 114 23" fill="none" xmlns="http://www.w3.org/2000/svg">
<path d="M113.277 4.12402H110.346C110.297 4.12402 110.248 4.09702 110.221 4.05145C110.194 4.0042 110.195 3.9485 110.221 3.90462L111.684 1.36799C111.751 1.25154 111.718 1.13002 111.601 1.06251L109.817 0.0330106C109.701 -0.0344979 109.579 -0.000743665 109.512 0.115708L108.048 2.65234C108.023 2.69622 107.976 2.72491 107.922 2.72491C107.868 2.72491 107.821 2.69622 107.795 2.65234L106.332 0.115708C106.264 -0.000743665 106.143 -0.0328102 106.027 0.0330106L104.243 1.06251C104.126 1.13002 104.094 1.25154 104.16 1.36799L105.621 3.90125C105.647 3.94513 105.648 4.00082 105.621 4.04808C105.594 4.09533 105.546 4.12065 105.495 4.12065V4.12402H102.568C102.433 4.12402 102.344 4.21347 102.344 4.34849V6.4075C102.344 6.54251 102.433 6.63196 102.568 6.63196H105.497C105.547 6.63196 105.596 6.65897 105.623 6.70622C105.65 6.75348 105.648 6.80917 105.623 6.85305L104.16 9.38968C104.092 9.50614 104.126 9.62765 104.243 9.69516L106.027 10.7247C106.143 10.7922 106.264 10.7584 106.332 10.642L107.795 8.10702C107.821 8.06314 107.868 8.03276 107.922 8.03276C107.976 8.03276 108.023 8.06146 108.048 8.10534L109.512 10.6403C109.579 10.7567 109.701 10.7888 109.817 10.723L111.601 9.69347C111.718 9.62596 111.75 9.50445 111.684 9.388L110.221 6.85137C110.195 6.80749 110.194 6.75179 110.221 6.70454C110.248 6.65728 110.297 6.63196 110.347 6.63196H113.276C113.411 6.63196 113.5 6.54251 113.5 6.4075V4.34849C113.5 4.21347 113.411 4.12402 113.276 4.12402H113.277ZM105.751 4.12065V4.12402H105.75V4.12065H105.751Z" fill="#DA007E"/>
<path d="M53.2329 9.30867C52.5426 8.56946 51.5485 8.17791 50.3586 8.17791C49.6143 8.17791 48.9712 8.30111 48.389 8.55427C47.8674 8.78211 47.4084 9.10952 46.9864 9.55508C46.6674 9.12134 46.2641 8.78211 45.7847 8.54752C45.2835 8.3028 44.7113 8.17791 44.0868 8.17791C42.9104 8.17791 41.9248 8.58802 41.3509 9.30699V8.69266C41.3509 8.52726 41.2362 8.4125 41.0708 8.4125H38.9931C38.8277 8.4125 38.7129 8.52726 38.7129 8.69266V18.9607C38.7129 19.1261 38.8277 19.2409 38.9931 19.2409H41.0708C41.2362 19.2409 41.3509 19.1261 41.3509 18.9607V12.7179C41.3509 12.0563 41.5298 11.4976 41.8657 11.1027C42.21 10.6993 42.7062 10.485 43.3003 10.485C43.8944 10.485 44.4024 10.6926 44.7383 11.101C45.0573 11.4892 45.2261 12.0478 45.2261 12.7179V18.9607C45.2261 19.1261 45.3408 19.2409 45.5062 19.2409H47.5164C47.6818 19.2409 47.7966 19.1261 47.7966 18.9607V12.7179C47.7966 12.0563 47.9755 11.4976 48.3113 11.1027C48.6556 10.6993 49.1518 10.485 49.7459 10.485C50.34 10.485 50.8464 10.6926 51.1839 11.101C51.5029 11.4892 51.6734 12.0478 51.6734 12.7179V18.9607C51.6734 19.1261 51.7881 19.2409 51.9535 19.2409H53.9637C54.1291 19.2409 54.2439 19.1261 54.2439 18.9607V12.1508C54.2439 10.9998 53.8945 10.0175 53.2329 9.30867Z" fill="black"/>
<path d="M77.1301 4.00251H75.0508C74.8854 4.00251 74.7706 4.11727 74.7706 4.28267V9.39812C74.509 9.06227 74.1765 8.7973 73.7816 8.60659C73.2887 8.36862 72.6929 8.24879 72.0128 8.24879C71.098 8.24879 70.3149 8.46651 69.687 8.89519C69.044 9.33399 68.5781 9.98376 68.3064 10.8259C68.0296 11.6782 67.9317 12.4613 67.9317 13.8166C67.9317 15.1718 68.0296 15.9549 68.3064 16.8072C68.5798 17.6493 69.044 18.2974 69.687 18.7379C70.3166 19.1666 71.098 19.3843 72.0128 19.3843C72.6929 19.3843 73.2887 19.2645 73.7816 19.0265C74.1765 18.8358 74.5073 18.5708 74.7706 18.235V18.9624C74.7706 19.1278 74.8854 19.2425 75.0508 19.2425H77.1301C77.2955 19.2425 77.4103 19.1278 77.4103 18.9624V4.28267C77.4103 4.11727 77.2955 4.00251 77.1301 4.00251ZM72.6457 17.0755C72.1714 17.0755 71.7664 16.9624 71.4457 16.7363C71.1267 16.5135 70.8955 16.1861 70.7588 15.7625C70.6018 15.268 70.5427 14.7414 70.5427 13.8149C70.5427 12.8883 70.6018 12.3617 70.7588 11.8672C70.8955 11.4436 71.1267 11.1162 71.4457 10.8934C71.7664 10.669 72.1697 10.5542 72.6457 10.5542C73.6145 10.5542 74.2744 11.0082 74.5546 11.8672C74.7115 12.3601 74.7706 12.8883 74.7706 13.8149C74.7706 14.7414 74.7115 15.2697 74.5546 15.7625C74.2761 16.6215 73.6162 17.0738 72.6457 17.0738V17.0755Z" fill="black"/>
<path d="M11.0115 8.41081H8.94226C8.77348 8.41081 8.65534 8.52895 8.65534 8.69772V18.9556C8.65534 19.1244 8.77348 19.2425 8.94226 19.2425H11.0115C11.1802 19.2425 11.2984 19.1244 11.2984 18.9556V8.69772C11.2984 8.52895 11.1802 8.41081 11.0115 8.41081ZM8.71778 18.9556C8.71778 19.0231 8.73972 19.0788 8.78023 19.1193C8.74141 19.0805 8.71778 19.0231 8.71778 18.9556ZM11.1819 19.1092C11.2005 19.089 11.214 19.0636 11.2241 19.0366C11.2157 19.0653 11.2005 19.089 11.1819 19.1092Z" fill="black"/>
<path d="M11.0115 4.0042H8.94226C8.77348 4.0042 8.65534 4.12234 8.65534 4.29111V6.35687C8.65534 6.52564 8.77348 6.64378 8.94226 6.64378H11.0115C11.1802 6.64378 11.2984 6.52564 11.2984 6.35687V4.29111C11.2984 4.12234 11.1802 4.0042 11.0115 4.0042Z" fill="black"/>
<path d="M26.9204 8.41081H24.8512C24.6825 8.41081 24.5643 8.52895 24.5643 8.69772V18.9556C24.5643 19.1244 24.6825 19.2425 24.8512 19.2425H26.9204C27.0892 19.2425 27.2074 19.1244 27.2074 18.9556V8.69772C27.2074 8.52895 27.0892 8.41081 26.9204 8.41081Z" fill="black"/>
<path d="M26.9204 4.0042H24.8512C24.6825 4.0042 24.5643 4.12234 24.5643 4.29111V6.35687C24.5643 6.52564 24.6825 6.64378 24.8512 6.64378H26.9204C27.0892 6.64378 27.2074 6.52564 27.2074 6.35687V4.29111C27.2074 4.12234 27.0892 4.0042 26.9204 4.0042Z" fill="black"/>
<path d="M6.51355 5.47251V4.29111C6.51355 4.17634 6.45954 4.08183 6.36502 4.03626C6.32452 4.01601 6.27726 4.0042 6.22494 4.0042H5.2359C2.94559 4.0042 1.646 5.24635 1.58018 7.50282C1.58018 7.50789 1.58018 7.51295 1.58018 7.51295V8.33824C1.58018 8.39393 1.5633 8.4125 1.50591 8.4125H0.786922C0.618144 8.4125 0.5 8.53064 0.5 8.69772V10.4513C0.5 10.62 0.618144 10.7382 0.786922 10.7382H1.50591C1.56161 10.7382 1.58018 10.755 1.58018 10.8124V18.9573C1.58018 19.1261 1.69832 19.2442 1.8671 19.2442H3.93631C4.10509 19.2442 4.22323 19.1261 4.22323 18.9573V10.8124C4.22323 10.7567 4.24011 10.7382 4.2975 10.7382H6.23169C6.40047 10.7382 6.51861 10.62 6.51861 10.4513V8.69772C6.51861 8.52895 6.40047 8.4125 6.23169 8.4125H4.2975C4.2418 8.4125 4.22323 8.39393 4.22323 8.33824V8.28255C4.22323 8.28255 4.22323 8.27073 4.22323 8.26398V7.91125C4.22323 7.39987 4.23167 7.07583 4.3937 6.89187C4.55066 6.71466 4.86965 6.64547 5.53295 6.64547H6.23C6.39878 6.64547 6.51692 6.52733 6.51692 6.35855V5.47251H6.51355Z" fill="black"/>
<path d="M59.0692 14.6334H65.6009C65.7849 14.6334 65.9047 14.5237 65.9047 14.3516C65.9047 13.506 65.8777 12.8816 65.8186 12.3871C65.7646 11.9331 65.6853 11.5618 65.5486 11.1432C65.2498 10.2369 64.6946 9.48588 63.9418 8.97282C63.1773 8.45132 62.2068 8.17622 61.1367 8.17622C58.9848 8.17622 57.3426 9.28505 56.7451 11.1432C56.5072 11.8841 56.3907 12.7449 56.3907 13.7794C56.3907 14.814 56.5105 15.5971 56.7671 16.3937C57.3781 18.2941 59.0101 19.3826 61.2464 19.3826C62.1933 19.3826 63.0676 19.2105 63.8439 18.8713C64.5646 18.5573 65.1705 18.1152 65.6482 17.5565C65.7612 17.4164 65.7494 17.2696 65.6178 17.1633L64.6203 16.284C64.5022 16.1793 64.352 16.1253 64.1849 16.1253C63.9908 16.1253 63.7899 16.203 63.6195 16.3447L63.6093 16.3532L63.5891 16.3684C63.5638 16.3903 63.5368 16.4106 63.5114 16.4291C63.4895 16.446 63.4676 16.4612 63.4473 16.4764L63.4406 16.4831C63.341 16.554 63.238 16.6198 63.1317 16.6772C63.0557 16.7194 62.9899 16.7498 62.9444 16.7717L62.8633 16.8055C62.4532 16.9759 61.984 17.062 61.4675 17.062C60.8903 17.062 60.3975 16.9253 60.0009 16.657C59.6076 16.3903 59.3207 16.0005 59.1502 15.4975C59.0473 15.214 59 14.9625 59 14.7043C59 14.6503 59.0169 14.6334 59.0709 14.6334H59.0692ZM61.1587 10.3888C61.6346 10.3888 62.0718 10.5103 62.4228 10.7382C62.7756 10.9694 63.0338 11.3052 63.1688 11.7103C63.2583 11.982 63.2971 12.2453 63.2971 12.593C63.2971 12.647 63.2802 12.6638 63.2262 12.6638H59.0692C59.0152 12.6638 58.9983 12.647 58.9983 12.593C58.9983 12.2453 59.0371 11.982 59.1266 11.7103C59.4017 10.8833 60.1612 10.3888 61.1587 10.3888Z" fill="black"/>
<path d="M36.9391 9.06564C36.3804 8.50701 35.5399 8.17284 34.6893 8.17284C33.2142 8.17284 32.4175 8.82093 31.9973 9.41838V8.69266C31.9973 8.52726 31.8825 8.4125 31.7171 8.4125H29.6513C29.4859 8.4125 29.3711 8.52726 29.3711 8.69266V18.959C29.3711 19.1244 29.4859 19.2392 29.6513 19.2392H31.7171C31.8825 19.2392 31.9973 19.1244 31.9973 18.959V13.2562C31.9973 12.3955 32.1542 11.717 32.4648 11.2394C32.7939 10.7348 33.2834 10.4799 33.9247 10.4799C34.3332 10.4799 34.7315 10.5846 35.1433 10.7989L35.2327 10.8462V10.8377C35.3087 10.8664 35.4252 10.9002 35.5517 10.9002C35.7408 10.9002 35.9011 10.8242 36.0142 10.6808L36.9863 9.45044C37.0505 9.36943 37.1163 9.24117 36.9374 9.06396L36.9391 9.06564ZM29.4808 19.1058C29.4808 19.1058 29.4774 19.1008 29.4741 19.0974C29.4757 19.1008 29.4774 19.1025 29.4808 19.1058Z" fill="black"/>
<path d="M99.8746 11.8166V11.5837C99.8746 11.5719 99.8746 11.555 99.8746 11.5365V11.5027C99.8678 11.263 99.8138 10.6842 99.478 10.0648C99.2248 9.59727 98.8619 9.20404 98.3995 8.89687C97.8239 8.51545 97.0948 8.26567 96.229 8.15765C96.0197 8.14078 95.807 8.13065 95.5961 8.13065C93.8053 8.13065 92.5463 8.77367 92.4939 8.80067C92.1969 8.93569 91.9133 9.0994 91.6517 9.28673C91.5353 9.37281 91.5117 9.51964 91.591 9.65128L92.18 10.701L92.1851 10.7095C92.2138 10.7601 92.3775 11.0065 92.7319 11.0065C92.8298 11.0065 92.9328 10.9879 93.0425 10.9508L93.0391 10.9593L93.1657 10.9019C93.1657 10.9019 93.245 10.8664 93.3648 10.8158C93.4171 10.7955 93.4745 10.7736 93.5319 10.7534C93.542 10.75 94.5564 10.3753 95.5437 10.3753C96.5311 10.3753 97.1792 10.7618 97.3716 11.523V11.5314C97.3716 11.5314 97.3767 11.5415 97.3784 11.5483C97.3834 11.5685 97.3885 11.5921 97.3936 11.6175C97.3936 11.6242 97.3969 11.631 97.3969 11.6377C97.429 11.8048 97.4425 11.9888 97.4391 12.1845V12.6352C97.4391 12.6892 97.4222 12.7044 97.3699 12.7044H95.2281C93.883 12.7044 92.8332 12.9811 92.1074 13.528C91.3395 14.1068 90.9496 14.9743 90.9496 16.1085C90.9496 17.1582 91.3192 18.0156 92.0214 18.5894C92.656 19.1075 93.5302 19.3809 94.5513 19.3809C95.8678 19.3809 96.9024 18.981 97.4847 18.2519V18.959C97.4847 19.1244 97.5995 19.2392 97.7649 19.2392H99.6012C99.7666 19.2392 99.8813 19.1244 99.8813 18.959V11.9786C99.8813 11.9297 99.8813 11.8757 99.8796 11.8166H99.8746ZM93.4087 16.0224C93.4087 15.5481 93.5775 15.2123 93.9269 14.9963C94.2847 14.7735 94.8383 14.6638 95.6214 14.6638H97.3699C97.4239 14.6638 97.4391 14.6807 97.4391 14.733V15.5414C97.4391 16.1135 97.245 16.5506 96.8602 16.8392C96.4788 17.1262 95.9066 17.2713 95.1623 17.2713C93.9994 17.2713 93.4104 16.8511 93.4104 16.0207L93.4087 16.0224Z" fill="black"/>
<path d="M22.9305 18.9269L19.1094 12.7179L22.4225 8.907C22.4816 8.84624 22.5002 8.76692 22.4715 8.69604C22.4428 8.62684 22.3753 8.58465 22.2909 8.58465H20.0613C19.874 8.58465 19.7491 8.65047 19.5989 8.8243L16.1018 12.9373V4.28098C16.1018 4.11558 15.987 4.00082 15.8216 4.00082H13.7406C13.5752 4.00082 13.4604 4.11558 13.4604 4.28098V18.9607C13.4604 19.1261 13.5752 19.2409 13.7406 19.2409H15.8216C15.987 19.2409 16.1018 19.1261 16.1018 18.9607V16.7228C16.1086 16.6333 16.1575 16.1945 16.4394 15.8199L17.452 14.6503L20.0748 18.9928C20.171 19.1615 20.2993 19.2409 20.4765 19.2409H22.7719C22.8529 19.2409 22.9187 19.202 22.9525 19.1362C22.9846 19.0704 22.9778 18.9894 22.9322 18.9269H22.9305Z" fill="black"/>
<path d="M89.3192 8.50532C89.2753 8.44457 89.1994 8.41081 89.1099 8.41081H87.034C86.8855 8.41081 86.769 8.50532 86.7133 8.67072L84.4753 15.4469L82.131 8.67072C82.0753 8.50532 81.9588 8.41081 81.8103 8.41081H79.6466C79.5571 8.41081 79.4795 8.44457 79.4373 8.50532C79.3968 8.56102 79.3884 8.63359 79.4137 8.70954V8.71291L83.0306 18.0409H83.0221L83.0643 18.1287L83.0964 18.213C83.1453 18.3632 83.2112 18.6687 83.1015 19.0518L82.9529 19.4873C82.6238 20.3666 82.212 20.6923 81.4373 20.6923H81.0441C80.8787 20.6923 80.7639 20.8071 80.7639 20.9725V22.7209C80.7639 22.8863 80.8787 23.0011 81.0441 23.0011H81.7209C82.6475 23.0011 83.3023 22.7783 83.8441 22.2804C84.3859 21.7809 84.8416 20.9809 85.3192 19.683L89.3395 8.71291V8.71122C89.3648 8.63528 89.3564 8.56271 89.3158 8.50701L89.3192 8.50532Z" fill="black"/>
</svg>
