<svg width="26" height="25" viewBox="0 0 26 25" fill="none" xmlns="http://www.w3.org/2000/svg">
<circle cx="13" cy="12.5" r="12.5" fill="#282B37"/>
<path d="M17.2985 18.819H9.25102C8.13897 18.819 7.23047 17.9105 7.23047 16.7985V8.75102C7.23047 7.63897 8.13897 6.73047 9.25102 6.73047H17.2985C18.4105 6.73047 19.319 7.63897 19.319 8.75102V16.7985C19.319 17.9155 18.4155 18.819 17.2985 18.819Z" fill="white"/>
<path d="M13.2766 15.8799C12.4476 15.8799 11.6681 15.5573 11.0823 14.9714C10.4965 14.3856 10.1738 13.6062 10.1738 12.7771C10.1738 11.9481 10.4965 11.1686 11.0823 10.5828C11.6681 9.99701 12.4476 9.67432 13.2766 9.67432C14.1057 9.67432 14.8851 9.99701 15.471 10.5828C16.0568 11.1686 16.3795 11.9481 16.3795 12.7771C16.3795 13.6062 16.0568 14.3856 15.471 14.9714C14.8802 15.5573 14.1057 15.8799 13.2766 15.8799ZM13.2766 10.3346C11.9313 10.3346 10.8341 11.4268 10.8341 12.7771C10.8341 14.1225 11.9263 15.2197 13.2766 15.2197C14.622 15.2197 15.7192 14.1275 15.7192 12.7771C15.7142 11.4318 14.622 10.3346 13.2766 10.3346Z" fill="#282B37"/>
<path d="M16.9844 9.57237C17.3135 9.57237 17.5802 9.30564 17.5802 8.97662C17.5802 8.64759 17.3135 8.38086 16.9844 8.38086C16.6554 8.38086 16.3887 8.64759 16.3887 8.97662C16.3887 9.30564 16.6554 9.57237 16.9844 9.57237Z" fill="white"/>
</svg>
