<svg width="973" height="1087" viewBox="0 0 973 1087" fill="none" xmlns="http://www.w3.org/2000/svg">
<path d="M548.386 1086.8H347.996C334.566 1086.8 325.546 1077.78 325.546 1064.35V779.49C325.546 779.49 325.546 779.43 325.546 779.41C325.546 774.55 322.936 770.03 318.736 767.61C314.546 765.19 309.316 765.18 305.116 767.61C305.086 767.63 305.056 767.64 305.016 767.66L58.2964 910.03C46.6664 916.74 34.3364 913.44 27.6264 901.8L-72.5436 728.22C-75.8436 722.51 -76.7936 716.57 -75.3136 711.04C-73.8336 705.51 -70.0236 700.85 -64.3136 697.55L182.436 555.16C186.586 552.72 189.176 548.22 189.176 543.41C189.176 538.6 186.566 534.05 182.366 531.61C182.346 531.6 182.316 531.58 182.296 531.56L-64.3236 389.26C-70.0336 385.96 -73.8336 381.3 -75.3236 375.77C-76.8036 370.24 -75.8436 364.3 -72.5536 358.59L27.6064 185.02C30.9064 179.31 35.5664 175.51 41.0964 174.02C46.6264 172.54 52.5664 173.5 58.2764 176.79L305.166 319.26C309.356 321.64 314.556 321.63 318.726 319.22C322.926 316.79 325.526 312.27 325.536 307.42C325.536 307.4 325.536 307.37 325.536 307.35V22.46C325.536 15.87 327.676 10.24 331.726 6.19C335.776 2.14 341.396 0 347.996 0H548.386C561.816 0 570.836 9.02 570.836 22.45V306.67C571.026 306.79 571.146 307 571.146 307.23C571.146 312.09 573.756 316.61 577.956 319.03C582.156 321.45 587.376 321.46 591.576 319.03C591.596 319.02 591.626 319 591.646 318.99L838.086 176.78C843.796 173.48 849.736 172.53 855.266 174.01C860.796 175.49 865.456 179.3 868.756 185.01L968.916 358.58C975.626 370.21 972.326 382.54 960.696 389.25L713.886 531.67C709.756 534.11 707.186 538.61 707.186 543.39C707.186 548.17 709.756 552.67 713.896 555.12L960.696 697.54C972.326 704.25 975.636 716.58 968.916 728.21L868.756 901.77C865.456 907.48 860.796 911.28 855.266 912.77C849.736 914.25 843.796 913.29 838.086 910L591.356 767.62C591.356 767.62 591.276 767.59 591.246 767.57C587.036 765.15 581.816 765.15 577.626 767.57C573.466 769.97 570.936 774.29 570.836 779.12V1064.34C570.836 1077.77 561.816 1086.79 548.386 1086.79V1086.8ZM326.876 779.31C326.876 779.31 326.876 779.37 326.876 779.4V1064.35C326.876 1076.98 335.366 1085.46 347.986 1085.46H548.376C561.006 1085.46 569.486 1076.98 569.486 1064.35V779.12C569.586 773.81 572.376 769.07 576.946 766.43C581.516 763.79 587.196 763.76 591.796 766.36C591.836 766.37 591.876 766.39 591.916 766.41L838.756 908.85C844.156 911.96 849.746 912.88 854.916 911.49C860.096 910.1 864.476 906.52 867.586 901.12L967.746 727.56C974.056 716.62 970.946 705.03 960.016 698.72L713.216 556.3C708.666 553.61 705.846 548.67 705.846 543.42C705.846 538.17 708.666 533.23 713.206 530.54L960.016 388.11C970.956 381.8 974.056 370.21 967.746 359.27L867.586 185.7C864.476 180.3 860.086 176.72 854.916 175.33C849.736 173.94 844.146 174.85 838.756 177.97L592.236 320.23C592.236 320.23 592.186 320.26 592.156 320.27C587.546 322.89 581.846 322.87 577.266 320.22C572.896 317.69 570.086 313.09 569.816 308.07C569.616 307.95 569.486 307.73 569.486 307.49V22.46C569.486 9.83 561.006 1.35 548.376 1.35H347.986C341.756 1.35 336.456 3.35 332.666 7.14C328.876 10.93 326.876 16.23 326.876 22.46V307.43C326.876 307.43 326.876 307.48 326.876 307.5C326.846 312.8 323.986 317.74 319.396 320.39C314.816 323.03 309.116 323.05 304.506 320.43L57.6164 177.96C52.2164 174.85 46.6264 173.93 41.4564 175.32C36.2764 176.71 31.8964 180.29 28.7864 185.69L-71.3836 359.26C-74.4936 364.66 -75.4136 370.25 -74.0236 375.42C-72.6336 380.6 -69.0536 384.98 -63.6536 388.09L183.026 530.44C183.026 530.44 183.076 530.47 183.096 530.49C187.666 533.17 190.496 538.12 190.496 543.41C190.496 548.7 187.656 553.64 183.086 556.32L-63.6436 698.71C-69.0436 701.82 -72.6236 706.21 -74.0136 711.38C-75.4036 716.55 -74.4936 722.15 -71.3736 727.54L28.7864 901.11C35.0964 912.05 46.6864 915.16 57.6264 908.84L304.446 766.41C304.446 766.41 304.516 766.37 304.546 766.36C309.146 763.76 314.836 763.78 319.406 766.42C323.986 769.07 326.846 774 326.886 779.29L326.876 779.31Z" fill="black"/>
</svg>
