<svg width="26" height="25" viewBox="0 0 26 25" fill="none" xmlns="http://www.w3.org/2000/svg">
<circle cx="13" cy="12.5" r="12.5" fill="#282B37"/>
<path d="M10.0743 9.91309H7.44141V18.3094H10.0743V9.91309Z" fill="white"/>
<path d="M17.1969 9.73137C17.0998 9.71924 16.9967 9.71317 16.8935 9.70711C15.4193 9.64644 14.5882 10.52 14.297 10.8962C14.2181 10.9993 14.1817 11.06 14.1817 11.06V9.93764H11.6641V18.3339H14.1817H14.297C14.297 17.4785 14.297 16.6292 14.297 15.7738C14.297 15.3127 14.297 14.8517 14.297 14.3906C14.297 13.8203 14.2545 13.2136 14.5397 12.6919C14.7823 12.2551 15.2191 12.0367 15.7105 12.0367C17.1665 12.0367 17.1969 13.3532 17.1969 13.4745C17.1969 13.4806 17.1969 13.4866 17.1969 13.4866V18.3703H19.8298V12.8921C19.8298 11.0175 18.8773 9.91337 17.1969 9.73137Z" fill="white"/>
<path d="M8.75927 8.82714C9.6036 8.82714 10.2881 8.14267 10.2881 7.29833C10.2881 6.454 9.6036 5.76953 8.75927 5.76953C7.91493 5.76953 7.23047 6.454 7.23047 7.29833C7.23047 8.14267 7.91493 8.82714 8.75927 8.82714Z" fill="white"/>
</svg>
