<svg width="148" height="150" viewBox="0 0 148 150" fill="none" xmlns="http://www.w3.org/2000/svg">
<path d="M57.9297 142.588C58.2355 140.366 59.0746 138.905 60.4445 138.204C61.7104 137.553 63.3509 137.367 65.3674 137.646L69.9455 138.275L69.9026 138.582L68.8345 138.435L67.3605 149.144L68.4286 149.291L68.3857 149.598L63.3873 148.909C61.3175 148.624 59.8226 147.987 58.9042 146.998C57.9857 146.01 57.6604 144.538 57.9297 142.587V142.588ZM65.6809 138.001L65.0669 137.916C63.978 137.767 63.1453 138.045 62.5703 138.751C61.9953 139.458 61.5829 140.717 61.3331 142.528L61.2043 143.466C60.8699 145.892 61.1327 147.417 61.9914 148.042C62.4012 148.34 63.01 148.545 63.8192 148.656L64.2069 148.709L65.6809 138.001Z" fill="#231F20"/>
<path d="M53.2788 144.273C53.8343 144.43 54.1894 144.683 54.3456 145.032C54.5017 145.382 54.5199 145.766 54.4015 146.185C54.2831 146.604 54.0567 146.914 53.7237 147.113C53.3906 147.313 52.9613 147.338 52.437 147.189C51.914 147.041 51.5498 146.806 51.3468 146.483C51.1439 146.16 51.1074 145.77 51.2362 145.315C51.365 144.859 51.5992 144.532 51.9375 144.334C52.277 144.136 52.7232 144.115 53.2788 144.273ZM55.9588 143.86L52.1092 142.771L54.1452 135.576L53.2657 135.327L53.3464 135.045L58.013 136.365L57.9336 136.648L57.0698 136.403L55.1144 143.316L56.042 143.579L55.9614 143.862L55.9588 143.86Z" fill="#231F20"/>
<path d="M43.6711 140.54L43.1429 140.625C42.9555 140.912 43.0128 141.118 43.3159 141.241C43.7491 141.417 44.1017 141.172 44.3723 140.508C44.479 140.245 44.5661 139.929 44.6351 139.557C44.0783 138.731 43.9612 137.917 44.2877 137.116C44.6143 136.315 45.1438 135.805 45.8788 135.586C46.6139 135.368 47.4556 135.451 48.4027 135.836C48.7956 135.996 49.1885 136.201 49.5788 136.455C50.1369 136.352 50.4452 136.231 50.5025 136.09C50.5597 135.948 50.2657 135.747 49.6204 135.485L48.0775 134.858C45.7878 133.927 44.9772 132.641 45.6446 130.998C46.005 130.11 46.636 129.547 47.5376 129.308C48.4391 129.07 49.6217 129.246 51.084 129.84C53.5754 130.852 54.6018 131.897 54.1634 132.976C53.9253 133.562 53.3737 133.808 52.5073 133.714L51.7657 132.937C51.9648 132.677 52.1183 132.417 52.225 132.154C52.5775 131.286 52.1079 130.592 50.8173 130.067C50.0302 129.747 49.3654 129.648 48.8242 129.769C48.2817 129.89 47.9226 130.168 47.747 130.601C47.5714 131.034 47.5818 131.376 47.7795 131.627C47.9773 131.878 48.4599 132.159 49.2262 132.47L50.6937 133.066C51.5107 133.398 52.0402 133.771 52.2822 134.188C52.5242 134.604 52.5645 135.01 52.4032 135.409C52.2419 135.807 51.9804 136.09 51.62 136.253C51.2596 136.419 50.6768 136.567 49.8715 136.697C50.9071 137.505 51.1803 138.509 50.6924 139.709C50.3854 140.465 49.865 140.964 49.1326 141.208C48.4001 141.45 47.4881 141.351 46.3992 140.908C45.7435 140.642 45.2348 140.289 44.8732 139.848C44.8237 140.145 44.7535 140.404 44.6624 140.626C44.4334 141.191 44.116 141.538 43.7114 141.667C43.3068 141.796 42.9178 141.785 42.5444 141.633C42.171 141.482 41.9109 141.261 41.7638 140.972C41.6168 140.683 41.6129 140.367 41.7521 140.025C41.8913 139.682 42.0852 139.464 42.335 139.372C42.5835 139.28 42.8371 139.285 43.0947 139.39C43.3523 139.496 43.5358 139.649 43.6476 139.852C43.7582 140.056 43.7686 140.285 43.6763 140.542L43.6711 140.54ZM47.1147 145.34L46.8545 145.286C46.8767 144.826 46.7739 144.467 46.5436 144.208C46.3133 143.95 45.9087 143.703 45.3285 143.467C44.7483 143.232 44.2929 143.124 43.9625 143.142C43.632 143.16 43.3198 143.357 43.0271 143.732L42.8189 143.594C43.7374 141.852 44.8224 141.235 46.0727 141.742C46.8389 142.053 47.2605 142.536 47.3359 143.189C47.4101 143.759 47.3359 144.476 47.1147 145.337V145.34ZM48.0267 139.013L48.3585 138.196C48.633 137.521 48.7618 137.038 48.7436 136.749C48.7266 136.46 48.5992 136.268 48.3611 136.172C48.1243 136.075 47.9044 136.125 47.7028 136.319C47.5011 136.512 47.25 136.978 46.9508 137.715L46.6503 138.456C46.3303 139.243 46.1715 139.78 46.1715 140.068C46.1715 140.355 46.2912 140.548 46.528 140.644C46.7648 140.741 46.9964 140.685 47.2214 140.476C47.4465 140.268 47.7158 139.78 48.0267 139.014V139.013Z" fill="#231F20"/>
<path d="M44.1069 132.253C44.3632 133.229 44.1758 134.277 43.5423 135.401C42.9087 136.525 42.0813 137.193 41.0574 137.402C40.0335 137.613 38.9902 137.419 37.9273 136.821C35.7742 135.608 35.3487 133.946 36.6523 131.83L40.6645 134.089L40.9768 133.533C41.4997 132.603 41.7769 131.835 41.8068 131.228C41.8367 130.62 41.5583 130.151 40.9689 129.819C39.8683 129.2 38.8171 129.382 37.8128 130.365L37.5812 130.178C38.1458 129.596 38.7703 129.248 39.4533 129.133C40.1363 129.019 40.9481 129.226 41.8861 129.754C43.109 130.443 43.8493 131.275 44.1069 132.25V132.253ZM40.4902 134.367L39.0253 133.542L38.6324 134.24C38.1992 135.008 37.9494 135.557 37.883 135.888C37.8154 136.218 37.9169 136.46 38.1875 136.613C38.4581 136.765 38.7417 136.727 39.037 136.501C39.3323 136.274 39.6875 135.796 40.0986 135.066L40.4915 134.368L40.4902 134.367Z" fill="#231F20"/>
<path d="M29.4957 130.441C29.8183 130.683 30.258 130.685 30.8148 130.45C31.3717 130.214 31.866 129.81 32.2967 129.235L34.9207 125.734L33.9931 125.039L34.1688 124.804L38.2447 127.86L38.0678 128.095L37.3496 127.556L33.0408 133.305L33.7589 133.844L33.5833 134.08L30.435 131.72L31.3756 130.465C30.9293 130.825 30.4558 131.003 29.9536 131.001C29.4514 130.999 28.9961 130.845 28.5863 130.538C28.1765 130.231 27.9306 129.866 27.846 129.443C27.7628 129.02 27.8786 128.596 28.1947 128.174C28.5108 127.752 28.8504 127.499 29.212 127.416C29.5737 127.333 29.9523 127.441 30.3491 127.737C30.7459 128.034 30.9397 128.384 30.9306 128.786C30.9228 129.188 30.6756 129.566 30.1891 129.924L29.7181 129.572C29.1678 129.853 29.0924 130.144 29.4931 130.443L29.4957 130.441Z" fill="#231F20"/>
<path d="M23.666 132.053L20.7284 129.338L28.84 120.56L28.1687 119.939L28.3677 119.723L31.9285 123.015L31.7294 123.231L31.0698 122.621L23.1573 131.182L23.8651 131.837L23.666 132.053Z" fill="#231F20"/>
<path d="M26.627 119.291C26.5425 120.296 26.0143 121.222 25.0424 122.07C24.0706 122.919 23.0663 123.27 22.0307 123.125C20.9951 122.981 20.0766 122.45 19.2752 121.53C17.6516 119.667 17.8064 117.958 19.7423 116.401L22.7683 119.872L23.2484 119.453C24.0524 118.752 24.5702 118.119 24.8018 117.557C25.0333 116.994 24.9266 116.459 24.483 115.951C23.653 115 22.6005 114.819 21.3256 115.411L21.1694 115.157C21.8967 114.798 22.6005 114.678 23.2835 114.798C23.9652 114.918 24.6612 115.385 25.369 116.196C26.2914 117.255 26.7116 118.286 26.627 119.291ZM22.5107 120.075L21.4049 118.807L20.8026 119.333C20.1378 119.912 19.7188 120.347 19.5445 120.635C19.3702 120.924 19.3858 121.186 19.5888 121.42C19.793 121.654 20.0714 121.714 20.4266 121.599C20.7817 121.485 21.2748 121.152 21.9071 120.602L22.5094 120.076L22.5107 120.075Z" fill="#231F20"/>
<path d="M13.4599 112.698C13.6823 113.034 14.096 113.183 14.6997 113.148C15.3033 113.113 15.9044 112.896 16.5028 112.498L20.1469 110.074L19.5055 109.109L19.7501 108.946L22.5706 113.187L22.326 113.35L21.829 112.602L15.8472 116.58L16.3441 117.328L16.0995 117.491L13.9204 114.214L15.2253 113.346C14.6841 113.536 14.178 113.545 13.7058 113.376C13.2335 113.207 12.8562 112.909 12.5726 112.482C12.289 112.057 12.1784 111.63 12.2409 111.202C12.3033 110.775 12.5544 110.415 12.9941 110.122C13.4338 109.829 13.8385 109.705 14.2053 109.747C14.5735 109.79 14.8948 110.018 15.1693 110.43C15.4439 110.843 15.5102 111.237 15.3671 111.613C15.2253 111.989 14.8649 112.264 14.2886 112.438L13.9633 111.949C13.3506 112.029 13.1828 112.279 13.4599 112.695V112.698Z" fill="#231F20"/>
<path d="M9.15625 108.367C9.42295 108.878 9.48279 109.31 9.33578 109.664C9.18877 110.017 8.92207 110.295 8.53568 110.496C8.1493 110.697 7.76941 110.745 7.39473 110.64C7.02005 110.535 6.70782 110.241 6.45543 109.758C6.20304 109.275 6.12628 108.85 6.22125 108.48C6.31753 108.111 6.57512 107.817 6.99533 107.598C7.41555 107.38 7.81364 107.325 8.18963 107.436C8.56691 107.546 8.88825 107.857 9.15495 108.368L9.15625 108.367ZM11.2964 110.032L9.44637 106.486L16.0761 103.027L15.6533 102.216L15.9135 102.081L18.1564 106.381L17.8962 106.516L17.4812 105.72L11.1116 109.044L11.5578 109.897L11.2977 110.032H11.2964Z" fill="#231F20"/>
<path d="M8.9572 105.056L8.684 105.164L6.93939 100.763L7.21259 100.655L7.53784 101.475L11.9208 97.8228L6.18353 98.0595L6.58683 99.0769L6.31362 99.1849L5.46539 97.0448L5.73859 96.9368L6.03912 97.6953L15.3463 97.2907C16.43 97.2477 17.2431 97.3583 17.7869 97.6224C18.3307 97.8865 18.721 98.3171 18.9578 98.9143C19.1946 99.5114 19.244 100.036 19.1074 100.488C18.9708 100.941 18.6898 101.251 18.2644 101.42C17.8389 101.589 17.4708 101.606 17.1611 101.471C16.8502 101.337 16.6225 101.087 16.4781 100.723C16.1451 99.8822 16.3272 99.3241 17.0258 99.047C17.178 98.9871 17.3719 98.9455 17.6087 98.9221L17.8194 99.4529C18.0848 99.4412 18.28 99.3748 18.4088 99.2551C18.5363 99.1341 18.5584 98.9676 18.4738 98.7556C18.3099 98.3406 17.9586 98.053 17.42 97.8917C16.8814 97.7304 16.1347 97.6692 15.1785 97.7083L14.1052 97.7473L14.6346 99.0834L8.71132 104.434L8.9585 105.056H8.9572Z" fill="#231F20"/>
<path d="M1.0668 97.6419L0 93.7871L11.5188 90.5998L11.2742 89.719L11.5578 89.6409L12.851 94.314L12.5674 94.3921L12.328 93.527L1.09282 96.6363L1.34911 97.5652L1.0655 97.6432L1.0668 97.6419Z" fill="#231F20"/>
<path d="M10.3076 88.3569C9.70526 89.1661 8.76856 89.6735 7.49491 89.8803C6.22125 90.0872 5.18308 89.8556 4.38038 89.1869C3.57768 88.5182 3.0781 87.5815 2.88166 86.3781C2.48616 83.9388 3.52043 82.5688 5.98578 82.2683L6.72343 86.8126L7.3518 86.7112C8.40429 86.5407 9.17836 86.2766 9.67143 85.9202C10.1645 85.565 10.357 85.0537 10.2491 84.3876C10.0461 83.1413 9.24732 82.4336 7.85267 82.2631V81.9652C8.66058 82.0433 9.32277 82.3139 9.83796 82.7757C10.3544 83.2376 10.6992 84.0012 10.8709 85.0641C11.096 86.4497 10.9074 87.5477 10.3063 88.3569H10.3076ZM6.39949 86.8504L6.13019 85.1903L5.34049 85.3191C4.47014 85.4609 3.88471 85.6079 3.58418 85.7614C3.28366 85.915 3.15876 86.1452 3.2082 86.451C3.25764 86.7567 3.46319 86.9557 3.82616 87.0455C4.18913 87.1353 4.78238 87.1132 5.6098 86.9792L6.39949 86.8504Z" fill="#231F20"/>
<path d="M6.10807 73.9174L6.11978 73.4438L4.86304 73.4126C3.82876 73.3879 3.13404 73.4282 2.77758 73.5336C2.42111 73.639 2.23897 73.8549 2.23117 74.1815C2.22597 74.3779 2.2741 74.5562 2.37297 74.7162C2.47315 74.8762 2.61235 74.9595 2.79189 74.9634C2.97142 74.9673 3.15486 74.9399 3.3409 74.8788L3.35131 74.4703C3.58158 74.3883 3.85739 74.3519 4.17873 74.3597C4.50007 74.3675 4.77457 74.5106 5.00094 74.7877C5.22861 75.0661 5.33659 75.4109 5.32618 75.8246C5.30407 76.76 4.84092 77.218 3.93674 77.1958C2.59804 77.1633 1.95666 76.0094 2.01261 73.7353C2.04383 72.4408 2.28581 71.5509 2.73855 71.0657C3.19129 70.5817 4.0057 70.3527 5.18048 70.3813L8.49405 70.462C9.05998 70.4763 9.34619 70.3254 9.354 70.0093C9.3631 69.6398 8.80759 69.4082 7.68875 69.3158L7.71087 69.0713C8.66708 69.1376 9.32147 69.3341 9.67274 69.658C10.024 69.9819 10.1905 70.5036 10.1736 71.2218C10.1411 72.5279 9.72087 73.2682 8.91037 73.4451C9.32017 73.5973 9.6194 73.8159 9.80934 74.1034C9.99798 74.3909 10.0864 74.8073 10.0734 75.3511C10.0344 76.9617 9.3566 77.7514 8.04001 77.7188C7.26724 77.7006 6.74424 77.3793 6.47104 76.7574C6.19784 76.1355 6.07685 75.1884 6.10807 73.9148V73.9174ZM9.19528 74.5562C9.3605 74.5002 9.44376 74.3883 9.44897 74.2192C9.45287 74.0501 9.31887 73.8888 9.04436 73.7353C8.76986 73.5817 8.38867 73.4985 7.89951 73.4868L6.38127 73.4503L6.37867 73.5648C6.36176 74.24 6.84962 74.5887 7.83966 74.6134L8.10116 74.6199C8.66708 74.6342 9.03266 74.6121 9.19658 74.5562H9.19528Z" fill="#231F20"/>
<path d="M2.60195 68.923L2.31183 68.88L3.01045 64.1965L3.30057 64.2394L3.17047 65.1111L8.79458 64.151L3.71298 61.4775L3.55166 62.5599L3.26154 62.517L3.60109 60.2403L3.89121 60.2832L3.77022 61.0911L12.0236 65.409C12.9824 65.9151 13.6316 66.4199 13.9685 66.9208C14.3068 67.4229 14.4278 67.9915 14.3328 68.6263C14.2379 69.2612 14.018 69.74 13.6732 70.0626C13.3285 70.3852 12.9291 70.5127 12.4776 70.4451C12.0262 70.3774 11.6984 70.2083 11.4967 69.9351C11.2951 69.6632 11.2235 69.3328 11.2807 68.9451C11.4134 68.0513 11.8519 67.6597 12.5947 67.7703C12.756 67.795 12.9447 67.8562 13.1619 67.9537L13.0774 68.5183C13.3116 68.6419 13.5145 68.6823 13.6862 68.6419C13.858 68.6016 13.9594 68.4676 13.9933 68.2425C14.0596 67.8015 13.8996 67.3761 13.5145 66.9663C13.1294 66.5565 12.5141 66.1298 11.6671 65.6835L10.7187 65.1787L10.5067 66.5994L2.69822 68.2581L2.59934 68.9203L2.60195 68.923Z" fill="#231F20"/>
<path d="M3.82746 59.111L4.97752 55.3473L6.4138 55.7857C5.98578 55.4735 5.67875 55.1001 5.49271 54.6669C5.30667 54.235 5.31968 53.669 5.53304 52.9717C6.02611 51.3585 7.14234 50.8173 8.88044 51.3481L13.5809 52.7844L13.8476 51.9101L14.1286 51.996L12.7782 56.4154L12.4971 56.3295L12.6923 55.6894L7.6172 54.1387C6.99273 53.9474 6.57642 53.8668 6.36826 53.8941C6.16141 53.9214 6.02351 54.045 5.95716 54.2636C5.85568 54.5966 5.98448 54.957 6.34354 55.346C6.70261 55.735 7.19438 56.0238 7.81885 56.215L12.129 57.5316L12.3345 56.8603L12.6155 56.9462L11.2599 61.3812L10.9789 61.2953L11.2417 60.4367L4.37127 58.3369L4.10847 59.1956L3.82746 59.1097V59.111Z" fill="#231F20"/>
<path d="M7.2165 48.7618L8.84141 45.106L15.6741 48.1438L16.0449 47.3086L16.3129 47.4283L14.3432 51.8594L14.0752 51.7397L14.4395 50.9188L7.87479 48.0007L7.4832 48.8815L7.2152 48.7618H7.2165Z" fill="#231F20"/>
<path d="M16.7917 38.9199L17.0519 38.5244L16.0007 37.8349C15.1368 37.2677 14.5254 36.9346 14.1663 36.8358C13.8085 36.7369 13.5392 36.824 13.3597 37.0972C13.2517 37.2612 13.1984 37.4381 13.1984 37.6254C13.1984 37.8141 13.2725 37.9572 13.4234 38.0561C13.5744 38.1549 13.7435 38.2278 13.9347 38.2746L14.1585 37.9338C14.3966 37.9871 14.6516 38.1016 14.9196 38.2772C15.1876 38.4529 15.345 38.7196 15.3918 39.076C15.4386 39.4325 15.3476 39.7825 15.1212 40.1285C14.6073 40.9117 13.9725 41.0548 13.2179 40.5578C12.099 39.8228 12.1628 38.5049 13.4117 36.6029C14.1221 35.5205 14.7986 34.8934 15.4386 34.7204C16.0787 34.5486 16.8905 34.7854 17.8728 35.4307L20.6438 37.2495C21.1174 37.5604 21.44 37.5838 21.6131 37.3197C21.816 37.0101 21.4674 36.5209 20.5658 35.8509L20.7141 35.6558C21.4908 36.2178 21.9422 36.7291 22.0697 37.1909C22.1972 37.6515 22.0632 38.1823 21.669 38.7833C20.9522 39.8748 20.2028 40.282 19.4222 40.0036C19.6902 40.3497 19.8281 40.6931 19.8372 41.0379C19.845 41.3827 19.7006 41.782 19.4014 42.2361C18.5168 43.5826 17.5241 43.8948 16.4235 43.1715C15.7782 42.7474 15.5024 42.1997 15.5987 41.5271C15.6949 40.8545 16.093 39.9867 16.7917 38.9212V38.9199ZM19.0749 41.0938C19.244 41.1342 19.3754 41.0834 19.4678 40.9416C19.5601 40.8011 19.5315 40.593 19.3793 40.3172C19.2284 40.0413 18.9474 39.7694 18.5376 39.5014L17.2678 38.6675L17.2054 38.7625C16.8346 39.3271 17.0636 39.88 17.8923 40.4238L18.1108 40.5669C18.5844 40.8779 18.9057 41.0522 19.0749 41.0925V41.0938Z" fill="#231F20"/>
<path d="M26.4176 32.7117L25.4444 32.0859C25.849 32.9406 25.676 33.7915 24.924 34.6371C24.3022 35.337 23.5671 35.6558 22.7189 35.5933C21.8707 35.5309 20.947 35.056 19.9465 34.1662C17.9209 32.3656 17.6243 30.66 19.0567 29.0494C19.6928 28.3339 20.3121 28.0386 20.9131 28.1661L17.3134 24.9657L16.6512 25.7098L16.4313 25.5147L19.1438 22.4639L28.0763 30.405L28.6084 29.8066L28.8283 30.0017L26.4202 32.7104L26.4176 32.7117ZM24.2267 33.517C24.5871 33.677 24.8733 33.6367 25.0867 33.3973C25.3 33.1579 25.3794 32.8561 25.3221 32.4931C25.2662 32.1301 25.0307 31.7646 24.6157 31.3951L21.9552 29.0299C21.6053 28.719 21.2475 28.5238 20.8806 28.4458C20.5137 28.3677 20.2106 28.4614 19.9725 28.7307C19.7345 28.9987 19.7501 29.3408 20.022 29.7572C20.2926 30.1735 20.8767 30.7784 21.7705 31.5746L22.4054 32.1392C23.2601 32.899 23.8664 33.3582 24.2267 33.5183V33.517Z" fill="#231F20"/>
<path d="M29.6297 24.3035L29.9926 23.9991L29.1834 23.0363C28.5186 22.244 28.0282 21.7497 27.7133 21.5519C27.3985 21.3542 27.1162 21.3607 26.8651 21.5714C26.7155 21.6976 26.6127 21.8511 26.5581 22.032C26.5034 22.2128 26.5346 22.3715 26.6504 22.5094C26.7662 22.6473 26.908 22.7657 27.0772 22.8646L27.3894 22.6018C27.6027 22.7215 27.8135 22.9036 28.0191 23.1495C28.2259 23.3954 28.3001 23.6959 28.2415 24.0498C28.1843 24.4037 27.9969 24.7146 27.6795 24.98C26.9627 25.5823 26.3135 25.5368 25.7332 24.846C24.872 23.8208 25.3117 22.5771 27.055 21.1135C28.0464 20.2809 28.8738 19.8737 29.5373 19.8919C30.1995 19.9114 30.9098 20.3706 31.6657 21.2709L33.798 23.8091C34.1623 24.2423 34.4654 24.3581 34.7061 24.1552C34.9897 23.9171 34.7958 23.3473 34.1245 22.447L34.3223 22.3026C34.9051 23.0636 35.1913 23.6842 35.1809 24.1617C35.1705 24.6404 34.8895 25.1101 34.3392 25.5719C33.3387 26.4124 32.5048 26.5867 31.8361 26.0962C31.9935 26.5047 32.0274 26.8742 31.9363 27.2059C31.8452 27.5377 31.5915 27.8785 31.1752 28.2285C29.9419 29.2641 28.9011 29.2784 28.0542 28.2701C27.5572 27.6782 27.4518 27.0745 27.7367 26.4579C28.0217 25.8412 28.6526 25.1244 29.6271 24.3048L29.6297 24.3035ZM31.1934 27.0407C31.3443 27.1279 31.4849 27.1162 31.6136 27.0082C31.7424 26.9002 31.775 26.6921 31.7086 26.385C31.6423 26.078 31.4523 25.7371 31.1375 25.3625L30.1605 24.1994L30.0733 24.2723C29.5568 24.7068 29.6167 25.3026 30.2541 26.0611L30.422 26.2614C30.7862 26.6947 31.0438 26.9549 31.1947 27.0407H31.1934Z" fill="#231F20"/>
<path d="M40.6333 21.1187L39.88 20.2405C40.0218 21.1759 39.612 21.9409 38.648 22.5355C37.8518 23.0272 37.0556 23.1209 36.262 22.8178C35.4671 22.5146 34.7191 21.7939 34.0165 20.6542C32.5933 18.3476 32.7988 16.6277 34.6332 15.4972C35.4489 14.9937 36.1254 14.8896 36.6653 15.1837L34.1362 11.0843L33.288 11.6073L33.1332 11.3575L36.6068 9.21479L42.8827 19.3871L43.5631 18.9669L43.7179 19.2167L40.6333 21.12V21.1187ZM38.3046 21.2605C38.6038 21.5168 38.89 21.561 39.1632 21.3932C39.4364 21.2254 39.5977 20.9587 39.6485 20.5944C39.6992 20.2314 39.5782 19.8125 39.2868 19.3403L37.4173 16.3116C37.1714 15.9135 36.8839 15.6234 36.5547 15.4425C36.2256 15.2617 35.9082 15.2656 35.6024 15.4543C35.2967 15.6429 35.2134 15.9759 35.3539 16.4521C35.4945 16.9283 35.8782 17.6763 36.5079 18.695L36.9541 19.417C37.5539 20.3902 38.004 21.0042 38.3033 21.2618L38.3046 21.2605Z" fill="#231F20"/>
<path d="M46.1273 13.9907L46.5618 13.8033L46.0649 12.6481C45.6563 11.6983 45.3298 11.083 45.0852 10.8033C44.8406 10.5236 44.5687 10.4481 44.2682 10.5769C44.0887 10.6537 43.9456 10.7721 43.8415 10.9295C43.7374 11.0869 43.7205 11.2482 43.7921 11.4134C43.8623 11.5787 43.9651 11.7335 44.0978 11.8779L44.4725 11.7166C44.6429 11.8922 44.7912 12.1277 44.9187 12.423C45.0449 12.7183 45.0306 13.0266 44.8732 13.3493C44.7158 13.6719 44.4464 13.9152 44.0666 14.0778C43.2066 14.4473 42.5978 14.217 42.2413 13.387C41.7131 12.1576 42.4924 11.0934 44.583 10.1944C45.7734 9.68314 46.6828 9.53223 47.3112 9.74039C47.9409 9.94984 48.4873 10.5938 48.9517 11.6749L50.2605 14.7205C50.4843 15.2409 50.7406 15.4386 51.0307 15.3138C51.3702 15.168 51.3494 14.567 50.9669 13.5106L51.1985 13.4286C51.5368 14.3263 51.6317 15.0015 51.4834 15.4569C51.3351 15.9122 50.9318 16.2804 50.2709 16.564C49.0714 17.0805 48.2219 17.0063 47.7236 16.3441C47.7574 16.7799 47.682 17.1442 47.4998 17.4356C47.3164 17.7271 46.9755 17.9807 46.476 18.1954C44.9955 18.8316 43.9963 18.5454 43.4759 17.3355C43.1702 16.6251 43.243 16.0163 43.6945 15.5089C44.1459 15.0015 44.9564 14.4954 46.126 13.992L46.1273 13.9907ZM46.8363 17.0636C46.956 17.1898 47.0926 17.2197 47.2487 17.1533C47.4036 17.087 47.4933 16.897 47.5193 16.5835C47.5441 16.27 47.4608 15.8888 47.267 15.4386L46.6672 14.044L46.5618 14.0895C45.9413 14.3562 45.8281 14.9443 46.2184 15.855L46.3211 16.0943C46.5449 16.6147 46.7166 16.9374 46.8363 17.0636Z" fill="#231F20"/>
<path d="M50.2722 8.00229L54.0802 7.00834L54.46 8.46153C54.5017 7.93333 54.6591 7.47669 54.9297 7.0903C55.2003 6.70521 55.6882 6.4203 56.3946 6.23556C58.0273 5.81015 59.0733 6.47624 59.5312 8.23516L60.7724 12.9902L61.657 12.7599L61.7312 13.0449L57.2597 14.2118L57.1856 13.9269L57.8335 13.7578L56.4935 8.62285C56.3282 7.99058 56.1799 7.59378 56.0472 7.43116C55.9145 7.26854 55.7376 7.2165 55.5164 7.27374C55.1795 7.36221 54.9401 7.66013 54.797 8.17011C54.6539 8.68009 54.6656 9.25122 54.8308 9.88219L55.9692 14.2431L56.6483 14.0661L56.7224 14.351L52.2354 15.5219L52.1612 15.237L53.0303 15.0106L51.2167 8.05953L50.3477 8.2859L50.2735 8.00098L50.2722 8.00229Z" fill="#231F20"/>
<path d="M66.0998 11.6645C65.3648 11.0088 64.9615 10.0305 64.8873 8.73213C64.8145 7.43376 65.1293 6.4125 65.8344 5.66964C66.5396 4.92678 67.566 4.51698 68.9138 4.44152C70.2617 4.36607 71.2842 4.63276 71.9841 5.24162C72.6841 5.85048 73.0705 6.8184 73.1459 8.14409C73.302 10.9152 71.9998 12.3788 69.2391 12.5349C67.8809 12.6116 66.8336 12.3215 66.0998 11.6658V11.6645ZM70.06 9.10291L69.9819 7.71737C69.9221 6.66358 69.8219 5.89731 69.6801 5.41985C69.5383 4.9424 69.2612 4.71603 68.8488 4.73944C68.6094 4.75245 68.4208 4.83181 68.2816 4.97622C68.1424 5.12063 68.0487 5.3522 68.0019 5.67094C67.9316 6.16531 67.9251 6.91337 67.981 7.91252L68.0526 9.18357C68.119 10.3688 68.1944 11.0778 68.279 11.3133C68.3635 11.5487 68.4468 11.74 68.5327 11.8883C68.6667 12.142 68.9073 12.2591 69.256 12.2396C69.6801 12.2161 69.9429 11.9559 70.0457 11.459C70.1237 11.1064 70.129 10.3206 70.06 9.10291Z" fill="#231F20"/>
<path d="M74.4469 0L78.4409 0.214661L77.7995 12.1498L78.7128 12.1992L78.6972 12.4932L73.8549 12.233L73.8706 11.939L74.7669 11.9872L75.3927 0.346059L74.4313 0.29402L74.4469 0Z" fill="#231F20"/>
<path d="M80.5758 4.55991L84.4254 5.37302L84.1144 6.84312C84.6946 5.83096 85.5845 5.45108 86.7827 5.70477C87.9809 5.95846 88.5859 6.687 88.5989 7.8904C89.2142 6.8184 90.1184 6.40859 91.3114 6.66098C92.8765 6.99143 93.4723 8.04652 93.0963 9.82495L92.0803 14.6333L92.9753 14.822L92.9142 15.1095L88.4896 14.1741L88.5507 13.8866L89.1102 14.005L90.2069 8.81279C90.3773 8.00359 90.4085 7.51442 90.2992 7.34659C90.2485 7.26984 90.1705 7.2191 90.0638 7.19698C89.7541 7.13193 89.4393 7.28155 89.118 7.64842C88.7953 8.01399 88.5676 8.51617 88.4324 9.15625L87.48 13.6615L88.0551 13.7825L87.9939 14.07L83.888 13.2023L83.9492 12.9148L84.5086 13.0331L85.6053 7.84096C85.7758 7.03176 85.807 6.54259 85.6977 6.37477C85.647 6.29671 85.5689 6.24727 85.4622 6.22516C85.1643 6.16271 84.8469 6.33184 84.5125 6.73384C84.1769 7.13584 83.9427 7.65102 83.81 8.27939L82.8785 12.6884L83.4535 12.8094L83.3924 13.0969L78.9678 12.1615L79.0289 11.874L79.9071 12.06L81.3928 5.03086L80.5146 4.84482L80.5758 4.55731V4.55991Z" fill="#231F20"/>
<path d="M98.0114 13.3441L98.4485 13.5249L98.9299 12.3631C99.3254 11.4082 99.5388 10.7447 99.5687 10.374C99.5986 10.0032 99.4633 9.756 99.1615 9.6311C98.9806 9.55565 98.7972 9.53613 98.6125 9.57126C98.4264 9.60638 98.3002 9.70656 98.2313 9.87308C98.1623 10.0396 98.1233 10.2204 98.1116 10.4156L98.4889 10.5717C98.4811 10.8163 98.416 11.0869 98.2937 11.3835C98.1701 11.6801 97.9386 11.8844 97.5977 11.9963C97.2568 12.1082 96.8952 12.0847 96.5127 11.926C95.6475 11.567 95.3886 10.9711 95.7347 10.1359C96.2473 8.89866 97.5548 8.71652 99.6558 9.58817C100.853 10.0838 101.594 10.6303 101.883 11.2274C102.172 11.8245 102.091 12.6663 101.641 13.7513L100.371 16.8125C100.154 17.3355 100.192 17.6568 100.483 17.7778C100.825 17.9196 101.24 17.4851 101.731 16.4742L101.951 16.5835C101.544 17.4513 101.126 17.9912 100.697 18.2019C100.267 18.4127 99.7209 18.3801 99.0574 18.1056C97.8514 17.6048 97.3115 16.9452 97.439 16.1269C97.1502 16.4547 96.8366 16.6551 96.501 16.7279C96.164 16.8008 95.7451 16.7331 95.2416 16.5237C93.7533 15.907 93.2616 14.9898 93.7663 13.7734C94.063 13.0592 94.5495 12.6871 95.2286 12.6559C95.9064 12.6246 96.8353 12.8536 98.0114 13.3415V13.3441ZM96.3032 15.9942C96.2954 16.1672 96.3696 16.2869 96.5257 16.3519C96.6818 16.417 96.8809 16.3493 97.1228 16.149C97.3648 15.9486 97.5795 15.6221 97.7668 15.1706L98.3484 13.7682L98.243 13.724C97.6198 13.4651 97.1177 13.7942 96.7391 14.7088L96.6389 14.9495C96.4216 15.4725 96.3097 15.8211 96.3032 15.9942Z" fill="#231F20"/>
<path d="M105.714 21.5337L105.867 21.2826L106.509 21.6716L106.891 17.476L106.582 17.3849L104.665 20.5567L105.307 20.9457L105.155 21.1968L101.145 18.7717L101.298 18.5207L102.067 18.9851L108.099 9.00924L107.274 8.51097L107.427 8.25988L110.849 10.3297L106.751 17.1065L107.026 17.1572L111.75 16.4456L110.436 15.652L110.588 15.4009L113.341 17.0649L113.189 17.316L112.21 16.724L109.694 17.1299L109.248 23.3277L109.751 23.6322L109.599 23.8833L105.714 21.535V21.5337Z" fill="#231F20"/>
<path d="M111.798 22.7943L115.01 18.7769L114.309 18.2162L114.492 17.9873L115.193 18.548L116.509 16.9035L119.35 18.2136L117.565 20.4448L119.222 21.7705L119.039 21.9995L117.382 20.6738L113.946 24.9709C113.626 25.3703 113.432 25.6955 113.363 25.9479C113.294 26.199 113.388 26.4267 113.643 26.6309C113.898 26.8352 114.223 26.8859 114.618 26.7831C115.014 26.6817 115.417 26.4332 115.831 26.0377L116.027 26.2367C115.49 26.7688 114.931 27.085 114.349 27.1851C113.768 27.2853 113.124 27.0524 112.418 26.4878C111.713 25.9232 111.285 25.3521 111.136 24.7718C110.986 24.1916 111.207 23.532 111.798 22.793V22.7943Z" fill="#231F20"/>
<path d="M120.249 28.1999L120.581 28.5381L121.48 27.6587C122.219 26.9353 122.674 26.4085 122.847 26.0793C123.02 25.7502 122.993 25.4691 122.764 25.235C122.627 25.0945 122.466 25.0047 122.281 24.9644C122.096 24.924 121.94 24.967 121.811 25.0919C121.683 25.2168 121.576 25.369 121.489 25.5446L121.775 25.836C121.672 26.0585 121.507 26.2823 121.277 26.506C121.048 26.7311 120.754 26.8274 120.396 26.7974C120.038 26.7662 119.714 26.6036 119.425 26.3083C118.771 25.6396 118.766 24.9891 119.411 24.3568C120.367 23.4201 121.642 23.7649 123.233 25.3898C124.139 26.3148 124.609 27.1097 124.64 27.7719C124.671 28.4341 124.266 29.1769 123.427 29.9991L121.058 32.3175C120.654 32.713 120.561 33.0239 120.782 33.2503C121.041 33.5144 121.594 33.2776 122.441 32.5399L122.601 32.726C121.886 33.3648 121.29 33.6978 120.812 33.7225C120.335 33.7485 119.844 33.504 119.342 32.9914C118.429 32.0586 118.191 31.2403 118.629 30.5364C118.235 30.7251 117.868 30.7862 117.53 30.7212C117.192 30.6561 116.833 30.4285 116.451 30.0395C115.325 28.8881 115.231 27.8525 116.173 26.9301C116.725 26.3889 117.319 26.238 117.955 26.4761C118.592 26.7142 119.355 27.2879 120.246 28.1973L120.249 28.1999ZM117.638 29.9679C117.562 30.1253 117.585 30.2632 117.703 30.3842C117.821 30.5052 118.031 30.5208 118.331 30.4311C118.633 30.3413 118.958 30.1253 119.308 29.7832L120.393 28.7203L120.314 28.6383C119.842 28.1557 119.251 28.261 118.545 28.9545L118.357 29.1366C117.953 29.5321 117.713 29.8092 117.638 29.9666V29.9679Z" fill="#231F20"/>
<path d="M127.322 29.899L129.628 33.0889L128.41 33.9684C128.917 33.8162 129.4 33.7967 129.858 33.9086C130.315 34.0217 130.758 34.373 131.185 34.9636C132.174 36.331 131.93 37.5474 130.458 38.6116L126.474 41.4906L127.01 42.2322L126.772 42.4039L124.066 38.6584L124.304 38.4867L124.696 39.0292L128.997 35.9212C129.526 35.5387 129.842 35.2564 129.945 35.0742C130.048 34.8921 130.034 34.7087 129.9 34.5226C129.695 34.2403 129.33 34.1245 128.804 34.1766C128.277 34.2286 127.749 34.4459 127.22 34.8283L123.566 37.468L123.978 38.0365L123.739 38.2083L121.023 34.4498L121.261 34.278L121.787 35.0066L127.61 30.7992L127.084 30.0707L127.322 29.899Z" fill="#231F20"/>
<path d="M128.337 45.737L130.981 44.4907L131.064 44.6676C130.328 45.3272 129.889 45.9556 129.75 46.5501C129.609 47.146 129.693 47.7691 129.998 48.4183C130.472 49.4227 131.029 49.7739 131.669 49.4721C131.945 49.342 132.093 49.1221 132.115 48.8099C132.15 48.3233 132.087 47.7522 131.921 47.0965C131.783 46.3433 131.755 45.6707 131.837 45.0787C131.936 44.3697 132.37 43.835 133.138 43.4733C133.905 43.1116 134.63 43.0583 135.31 43.3159C135.991 43.5722 136.516 44.0952 136.888 44.8823C137.116 45.3649 137.237 45.9152 137.251 46.5345C137.26 46.7583 137.289 46.9196 137.335 47.0185C137.381 47.1173 137.454 47.1837 137.557 47.2214C137.659 47.2578 137.826 47.2813 138.059 47.2917L138.136 47.4543L135.876 48.5198L135.793 48.3429C136.836 47.237 137.11 46.1585 136.613 45.1047C136.394 44.6416 136.151 44.3359 135.881 44.1862C135.612 44.0366 135.355 44.0197 135.109 44.1355C134.96 44.2045 134.861 44.2942 134.811 44.4022C134.76 44.5102 134.724 44.5935 134.703 44.652C134.682 44.7092 134.67 44.7938 134.668 44.9031C134.665 45.0124 134.665 45.1021 134.668 45.1737C134.67 45.2439 134.682 45.3506 134.7 45.4924C134.718 45.6342 134.737 45.737 134.755 45.8008C134.903 46.5488 134.985 47.1004 135.001 47.453C135.016 47.8069 134.999 48.1581 134.947 48.5068C134.828 49.2249 134.353 49.7791 133.521 50.172C132.689 50.5649 131.943 50.6144 131.283 50.3242C130.622 50.0341 130.09 49.4604 129.686 48.603C129.399 47.9929 129.263 47.3346 129.279 46.6295C129.302 46.4747 129.297 46.3615 129.265 46.2938C129.163 46.0766 128.881 45.9517 128.419 45.9165L128.336 45.7396L128.337 45.737Z" fill="white"/>
<path d="M138.61 49.1482L139.95 52.9171L132.904 55.4214L133.209 56.2827L132.932 56.3816L131.307 51.8125L131.584 51.7137L131.885 52.5593L138.654 50.1525L138.331 49.2444L138.608 49.1456L138.61 49.1482Z" fill="white"/>
<path d="M134.328 61.86L134.616 61.7962L134.778 62.53L138.075 59.9046L137.928 59.6197L134.31 60.4263L134.474 61.1587L134.186 61.2225L133.168 56.6483L133.454 56.5845L133.649 57.4614L145.027 54.9258L144.818 53.9852L145.105 53.9214L145.976 57.8256L138.247 59.5481L138.399 59.7823L142.178 62.7043L141.844 61.2056L142.131 61.1418L142.831 64.2811L142.544 64.3448L142.295 63.2286L140.263 61.6908L135.476 65.6523L135.603 66.226L135.316 66.2898L134.328 61.8587V61.86Z" fill="white"/>
<path d="M142.928 65.7304L143.318 69.7113L135.875 70.4399L135.963 71.3493L135.671 71.3779L135.198 66.5513L135.491 66.5227L135.578 67.4164L142.728 66.7165L142.635 65.7577L142.928 65.7291V65.7304Z" fill="white"/>
<path d="M147.935 71.5574L148 75.5566L136.049 75.7505L136.064 76.665L135.77 76.6702L135.691 71.8215L135.986 71.8163L136 72.714L147.657 72.5253L147.641 71.5626L147.935 71.5574Z" fill="white"/>
<path d="M143.808 77.9751L143.266 81.8728L141.777 81.666C142.827 82.1747 143.268 83.0359 143.099 84.2484C142.93 85.4609 142.246 86.1166 141.045 86.2129C142.157 86.7528 142.628 87.6257 142.46 88.833C142.239 90.4176 141.23 91.085 139.429 90.8339L134.561 90.1561L134.435 91.0616L134.143 91.0213L134.767 86.542L135.058 86.5824L134.979 87.1483L140.234 87.8794C141.054 87.9939 141.543 87.99 141.703 87.869C141.777 87.8131 141.822 87.7311 141.836 87.6231C141.879 87.3109 141.707 87.0065 141.32 86.7112C140.932 86.4158 140.415 86.222 139.769 86.1322L135.209 85.4973L135.128 86.0802L134.837 86.0398L135.416 81.8832L135.707 81.9236L135.628 82.4895L140.884 83.2206C141.703 83.3351 142.192 83.3312 142.352 83.2102C142.427 83.1543 142.471 83.0723 142.485 82.9644C142.527 82.6625 142.336 82.3581 141.911 82.0524C141.487 81.7466 140.957 81.5489 140.32 81.4604L135.857 80.8386L135.776 81.4201L135.485 81.3798L136.108 76.9005L136.399 76.9408L136.276 77.8307L143.391 78.8207L143.514 77.9309L143.806 77.9712L143.808 77.9751Z" fill="white"/>
<path d="M136.265 95.9832L136.116 96.432L137.307 96.8314C138.288 97.1593 138.963 97.3258 139.336 97.3297C139.708 97.3336 139.944 97.1801 140.048 96.8704C140.111 96.6844 140.117 96.501 140.069 96.3175C140.021 96.1354 139.912 96.0157 139.741 95.9585C139.571 95.9012 139.388 95.8739 139.191 95.8778L139.061 96.2655C138.816 96.2759 138.542 96.2291 138.238 96.1276C137.933 96.0261 137.713 95.8089 137.578 95.4758C137.443 95.1428 137.44 94.7811 137.571 94.3895C137.868 93.5022 138.446 93.2017 139.302 93.4879C140.571 93.9133 140.845 95.2039 140.124 97.3609C139.713 98.589 139.22 99.3683 138.645 99.6975C138.07 100.027 137.224 100.006 136.109 99.6324L132.966 98.5812C132.429 98.4017 132.111 98.4615 132.011 98.7608C131.894 99.112 132.356 99.4958 133.399 99.9134L133.306 100.141C132.41 99.7963 131.843 99.4165 131.603 99.0027C131.362 98.589 131.355 98.0426 131.584 97.3609C131.999 96.1224 132.619 95.5383 133.445 95.6072C133.097 95.3418 132.876 95.0439 132.78 94.7134C132.684 94.383 132.723 93.9589 132.894 93.4437C133.406 91.9163 134.285 91.3608 135.534 91.7797C136.267 92.0243 136.672 92.4849 136.75 93.1601C136.829 93.8353 136.666 94.7759 136.261 95.9845L136.265 95.9832ZM133.502 94.465C133.329 94.4702 133.214 94.5521 133.161 94.7121C133.108 94.8722 133.188 95.066 133.406 95.2937C133.623 95.5213 133.963 95.7126 134.427 95.8687L135.867 96.3501L135.904 96.2421C136.118 95.602 135.755 95.1245 134.816 94.811L134.569 94.7278C134.031 94.5482 133.676 94.461 133.503 94.4663L133.502 94.465Z" fill="white"/>
<path d="M128.536 104.437L129.637 104.795C129.028 104.07 128.98 103.204 129.492 102.194C129.916 101.359 130.546 100.864 131.383 100.71C132.218 100.555 133.233 100.78 134.427 101.386C136.843 102.614 137.564 104.188 136.588 106.11C136.155 106.963 135.63 107.406 135.016 107.436L139.311 109.617L139.762 108.729L140.024 108.862L138.175 112.5L127.519 107.087L127.156 107.8L126.894 107.667L128.536 104.436V104.437ZM130.451 103.102C130.062 103.038 129.795 103.15 129.65 103.436C129.504 103.723 129.504 104.034 129.65 104.371C129.795 104.708 130.117 105.002 130.611 105.253L133.784 106.865C134.202 107.077 134.597 107.174 134.972 107.157C135.347 107.14 135.616 106.971 135.779 106.651C135.941 106.331 135.839 106.005 135.47 105.67C135.102 105.337 134.385 104.899 133.317 104.356L132.56 103.971C131.541 103.453 130.838 103.163 130.449 103.1L130.451 103.102Z" fill="white"/>
<path d="M133.074 112.234L130.856 115.563L124.632 111.417L124.125 112.178L123.88 112.015L126.568 107.979L126.812 108.142L126.314 108.889L132.293 112.871L132.827 112.07L133.071 112.232L133.074 112.234Z" fill="white"/>
<path d="M129.684 117.443L127.125 120.432L125.984 119.455C126.25 119.913 126.383 120.378 126.38 120.849C126.378 121.32 126.14 121.832 125.666 122.386C124.569 123.668 123.33 123.717 121.949 122.536L118.216 119.34L117.621 120.034L117.397 119.843L120.402 116.333L120.626 116.524L120.19 117.033L124.221 120.484C124.716 120.91 125.065 121.151 125.267 121.208C125.468 121.265 125.643 121.208 125.792 121.033C126.019 120.769 126.045 120.387 125.872 119.887C125.699 119.388 125.363 118.925 124.867 118.5L121.445 115.569L120.988 116.103L120.764 115.911L123.78 112.39L124.004 112.581L123.419 113.263L128.877 117.936L129.461 117.254L129.685 117.445L129.684 117.443Z" fill="white"/>
<path d="M122.444 125.57L119.496 128.275L114.44 122.765L113.766 123.383L113.567 123.166L117.14 119.887L117.339 120.103L116.676 120.711L121.534 126.004L122.245 125.353L122.444 125.569V125.57Z" fill="white"/>
<path d="M111.833 134.224L111.659 133.987L110.52 125.907L110.35 126.033C109.613 126.574 109.176 127.194 109.038 127.888C108.901 128.583 109.033 129.452 109.435 130.495L109.251 130.631L107.479 127.779L113.004 123.717L113.15 123.915L114.264 132.073L114.409 131.967C115.295 131.315 115.805 130.718 115.938 130.174C116.072 129.63 115.926 128.785 115.502 127.637L115.672 127.511L117.358 130.162L111.833 134.224Z" fill="white"/>
<path d="M107.114 137.394L103.496 138.941L102.906 137.56C103.012 138.721 102.502 139.544 101.376 140.025C100.25 140.506 99.3358 140.258 98.6333 139.28C98.7452 140.51 98.2404 141.365 97.1202 141.845C95.6488 142.475 94.556 141.953 93.8418 140.281L91.9098 135.763L91.0694 136.122L90.9536 135.852L95.1128 134.073L95.2286 134.344L94.703 134.569L96.7898 139.447C97.115 140.208 97.37 140.626 97.5561 140.7C97.6419 140.734 97.7343 140.73 97.8345 140.687C98.1246 140.564 98.2963 140.259 98.3497 139.774C98.403 139.29 98.3015 138.747 98.0439 138.146L96.2343 133.913L95.6944 134.145L95.5786 133.874L99.4373 132.224L99.5531 132.495L99.0275 132.72L101.114 137.599C101.439 138.36 101.694 138.777 101.881 138.852C101.966 138.885 102.059 138.881 102.159 138.839C102.44 138.719 102.601 138.398 102.644 137.876C102.687 137.354 102.583 136.799 102.331 136.208L100.559 132.064L100.019 132.296L99.903 132.025L104.061 130.247L104.177 130.518L103.351 130.87L106.175 137.476L107.001 137.124L107.117 137.394H107.114Z" fill="white"/>
<path d="M92.6618 143.069L88.7836 144.052L86.9466 136.803L86.0607 137.028L85.9891 136.743L90.6895 135.551L90.7624 135.836L89.892 136.057L91.6575 143.021L92.5916 142.784L92.6631 143.069H92.6618Z" fill="white"/>
<path d="M85.3738 147.956C84.8 148.514 83.9219 148.872 82.7406 149.028C81.5593 149.184 80.6174 149.077 79.9149 148.709C79.2137 148.341 78.8038 147.714 78.6868 146.829C78.61 146.246 78.6855 145.712 78.9118 145.226C79.1382 144.741 79.4752 144.232 79.9214 143.702L82.0797 141.21L81.9561 140.271L82.3607 140.218L82.8095 143.617C82.8343 143.8 82.7939 143.959 82.6912 144.093L81.8221 145.246C81.5502 145.6 81.3733 145.922 81.2913 146.214C81.2093 146.505 81.1963 146.871 81.2549 147.314C81.3928 148.36 81.9483 148.821 82.9188 148.692C83.3833 148.631 83.7059 148.462 83.8894 148.185C84.0728 147.908 84.1496 147.657 84.1196 147.43C84.0897 147.204 84.0312 147.007 83.944 146.843L83.4262 146.912C83.3104 146.698 83.2311 146.43 83.1881 146.112C83.1465 145.794 83.2454 145.501 83.4835 145.233C83.7228 144.965 84.0637 144.802 84.506 144.744C84.9483 144.685 85.31 144.783 85.591 145.036C85.872 145.29 86.0399 145.634 86.0971 146.064C86.1895 146.765 85.9488 147.395 85.3751 147.954L85.3738 147.956ZM81.7987 137.277C82.2033 137.224 82.5207 137.299 82.751 137.505C82.9813 137.711 83.1192 137.989 83.166 138.34C83.2128 138.69 83.1426 138.996 82.9578 139.257C82.7731 139.518 82.4921 139.672 82.1135 139.723C81.7362 139.773 81.4201 139.713 81.1677 139.544C80.9153 139.373 80.7631 139.095 80.7111 138.706C80.6603 138.317 80.7267 137.996 80.9127 137.741C81.0988 137.486 81.3941 137.331 81.7987 137.277Z" fill="white"/>
</svg>
