<svg width="143" height="83" viewBox="0 0 143 83" fill="none" xmlns="http://www.w3.org/2000/svg">
<path d="M115.276 26.9951C115.276 26.9951 115.641 42.5917 109.394 48.8384C103.148 55.085 87.551 54.7196 87.551 54.7196C87.551 54.7196 103.148 54.3542 109.394 60.6009C115.641 66.8475 115.276 82.4441 115.276 82.4441C115.276 82.4441 114.91 66.8475 121.157 60.6009C127.403 54.3542 143 54.7196 143 54.7196C143 54.7196 127.403 55.085 121.157 48.8384C114.91 42.5917 115.276 26.9951 115.276 26.9951Z" fill="white"/>
<path d="M13.4977 0C13.4977 0 13.6756 7.59307 10.6344 10.6342C7.59329 13.6753 0.000217438 13.4974 0.000217438 13.4974C0.000217438 13.4974 7.59329 13.3196 10.6344 16.3607C13.6756 19.4018 13.4977 26.9949 13.4977 26.9949C13.4977 26.9949 13.3198 19.4018 16.3609 16.3607C19.402 13.3196 26.9951 13.4974 26.9951 13.4974C26.9951 13.4974 19.402 13.6753 16.3609 10.6342C13.3198 7.59307 13.4977 0 13.4977 0Z" fill="white"/>
</svg>
