<svg width="26" height="25" viewBox="0 0 26 25" fill="none" xmlns="http://www.w3.org/2000/svg">
<path d="M11.1442 14.6346L14.8558 12.5L11.1442 10.3654V14.6346Z" fill="#282B37"/>
<path d="M13 0C6.09615 0 0.5 5.59615 0.5 12.5C0.5 19.4038 6.09615 25 13 25C19.9038 25 25.5 19.4038 25.5 12.5C25.5 5.59615 19.9038 0 13 0ZM21.1731 15.1875C21.1731 16.7788 19.8798 18.0721 18.2885 18.0721H7.71154C6.12019 18.0721 4.82692 16.7788 4.82692 15.1875V9.8125C4.82692 8.22115 6.12019 6.92788 7.71154 6.92788H18.2885C19.8798 6.92788 21.1731 8.22115 21.1731 9.8125V15.1875Z" fill="#282B37"/>
</svg>
